G04 #@! TF.FileFunction,Legend,Top*
%FSLAX45Y45*%
G04 Gerber Fmt 4.5, Leading zero omitted, Abs format (unit mm)*
G04 Created by KiCad (PCBNEW 4.0.7-e2-6376~58~ubuntu16.04.1) date Tue Mar 13 11:29:04 2018*
%MOMM*%
%LPD*%
G01*
G04 APERTURE LIST*
%ADD10C,0.100000*%
%ADD11C,0.300000*%
%ADD12C,0.150000*%
%ADD13C,0.120000*%
G04 APERTURE END LIST*
D10*
D11*
X8692857Y-14090714D02*
X8807143Y-14090714D01*
X8750000Y-14147857D02*
X8750000Y-14033571D01*
X8712857Y-9770714D02*
X8827143Y-9770714D01*
X8770000Y-9827857D02*
X8770000Y-9713571D01*
D12*
X19330000Y-16043333D02*
X19363333Y-16043333D01*
X19323333Y-16066190D02*
X19346667Y-15986190D01*
X19370000Y-16066190D01*
X19393333Y-16035714D02*
X19446667Y-16035714D01*
X20059048Y-8097143D02*
X20120000Y-8097143D01*
X20089524Y-8135238D02*
X20089524Y-8059048D01*
X20154286Y-8044762D02*
X20158095Y-8040000D01*
X20165714Y-8035238D01*
X20184762Y-8035238D01*
X20192381Y-8040000D01*
X20196191Y-8044762D01*
X20200000Y-8054286D01*
X20200000Y-8063809D01*
X20196191Y-8078095D01*
X20150476Y-8135238D01*
X20200000Y-8135238D01*
X20268571Y-8068571D02*
X20268571Y-8135238D01*
X20249524Y-8030476D02*
X20230476Y-8101905D01*
X20280000Y-8101905D01*
X20299048Y-8035238D02*
X20325714Y-8135238D01*
X20352381Y-8035238D01*
X20379048Y-8135238D02*
X20379048Y-8035238D01*
X20409524Y-8035238D01*
X20417143Y-8040000D01*
X20420952Y-8044762D01*
X20424762Y-8054286D01*
X20424762Y-8068571D01*
X20420952Y-8078095D01*
X20417143Y-8082857D01*
X20409524Y-8087619D01*
X20379048Y-8087619D01*
X21139048Y-8040000D02*
X21131429Y-8035238D01*
X21120000Y-8035238D01*
X21108572Y-8040000D01*
X21100952Y-8049524D01*
X21097143Y-8059048D01*
X21093333Y-8078095D01*
X21093333Y-8092381D01*
X21097143Y-8111429D01*
X21100952Y-8120952D01*
X21108572Y-8130476D01*
X21120000Y-8135238D01*
X21127619Y-8135238D01*
X21139048Y-8130476D01*
X21142857Y-8125714D01*
X21142857Y-8092381D01*
X21127619Y-8092381D01*
X21177143Y-8135238D02*
X21177143Y-8035238D01*
X21222857Y-8135238D01*
X21222857Y-8035238D01*
X21260952Y-8135238D02*
X21260952Y-8035238D01*
X21280000Y-8035238D01*
X21291429Y-8040000D01*
X21299048Y-8049524D01*
X21302857Y-8059048D01*
X21306667Y-8078095D01*
X21306667Y-8092381D01*
X21302857Y-8111429D01*
X21299048Y-8120952D01*
X21291429Y-8130476D01*
X21280000Y-8135238D01*
X21260952Y-8135238D01*
X21340952Y-8135238D02*
X21340952Y-8035238D01*
X21371429Y-8035238D01*
X21379048Y-8040000D01*
X21382857Y-8044762D01*
X21386667Y-8054286D01*
X21386667Y-8068571D01*
X21382857Y-8078095D01*
X21379048Y-8082857D01*
X21371429Y-8087619D01*
X21340952Y-8087619D01*
X19489048Y-8040000D02*
X19481429Y-8035238D01*
X19470000Y-8035238D01*
X19458572Y-8040000D01*
X19450952Y-8049524D01*
X19447143Y-8059048D01*
X19443333Y-8078095D01*
X19443333Y-8092381D01*
X19447143Y-8111429D01*
X19450952Y-8120952D01*
X19458572Y-8130476D01*
X19470000Y-8135238D01*
X19477619Y-8135238D01*
X19489048Y-8130476D01*
X19492857Y-8125714D01*
X19492857Y-8092381D01*
X19477619Y-8092381D01*
X19527143Y-8135238D02*
X19527143Y-8035238D01*
X19572857Y-8135238D01*
X19572857Y-8035238D01*
X19610952Y-8135238D02*
X19610952Y-8035238D01*
X19630000Y-8035238D01*
X19641429Y-8040000D01*
X19649048Y-8049524D01*
X19652857Y-8059048D01*
X19656667Y-8078095D01*
X19656667Y-8092381D01*
X19652857Y-8111429D01*
X19649048Y-8120952D01*
X19641429Y-8130476D01*
X19630000Y-8135238D01*
X19610952Y-8135238D01*
X19690952Y-8135238D02*
X19690952Y-8035238D01*
X19721429Y-8035238D01*
X19729048Y-8040000D01*
X19732857Y-8044762D01*
X19736667Y-8054286D01*
X19736667Y-8068571D01*
X19732857Y-8078095D01*
X19729048Y-8082857D01*
X19721429Y-8087619D01*
X19690952Y-8087619D01*
X18409048Y-8097143D02*
X18470000Y-8097143D01*
X18439524Y-8135238D02*
X18439524Y-8059048D01*
X18504286Y-8044762D02*
X18508095Y-8040000D01*
X18515714Y-8035238D01*
X18534762Y-8035238D01*
X18542381Y-8040000D01*
X18546191Y-8044762D01*
X18550000Y-8054286D01*
X18550000Y-8063809D01*
X18546191Y-8078095D01*
X18500476Y-8135238D01*
X18550000Y-8135238D01*
X18618571Y-8068571D02*
X18618571Y-8135238D01*
X18599524Y-8030476D02*
X18580476Y-8101905D01*
X18630000Y-8101905D01*
X18649048Y-8035238D02*
X18675714Y-8135238D01*
X18702381Y-8035238D01*
X18729048Y-8135238D02*
X18729048Y-8035238D01*
X18759524Y-8035238D01*
X18767143Y-8040000D01*
X18770952Y-8044762D01*
X18774762Y-8054286D01*
X18774762Y-8068571D01*
X18770952Y-8078095D01*
X18767143Y-8082857D01*
X18759524Y-8087619D01*
X18729048Y-8087619D01*
X16759048Y-8097143D02*
X16820000Y-8097143D01*
X16789524Y-8135238D02*
X16789524Y-8059048D01*
X16854286Y-8044762D02*
X16858095Y-8040000D01*
X16865714Y-8035238D01*
X16884762Y-8035238D01*
X16892381Y-8040000D01*
X16896191Y-8044762D01*
X16900000Y-8054286D01*
X16900000Y-8063809D01*
X16896191Y-8078095D01*
X16850476Y-8135238D01*
X16900000Y-8135238D01*
X16968571Y-8068571D02*
X16968571Y-8135238D01*
X16949524Y-8030476D02*
X16930476Y-8101905D01*
X16980000Y-8101905D01*
X16999048Y-8035238D02*
X17025714Y-8135238D01*
X17052381Y-8035238D01*
X17079048Y-8135238D02*
X17079048Y-8035238D01*
X17109524Y-8035238D01*
X17117143Y-8040000D01*
X17120952Y-8044762D01*
X17124762Y-8054286D01*
X17124762Y-8068571D01*
X17120952Y-8078095D01*
X17117143Y-8082857D01*
X17109524Y-8087619D01*
X17079048Y-8087619D01*
X17839048Y-8040000D02*
X17831429Y-8035238D01*
X17820000Y-8035238D01*
X17808572Y-8040000D01*
X17800952Y-8049524D01*
X17797143Y-8059048D01*
X17793333Y-8078095D01*
X17793333Y-8092381D01*
X17797143Y-8111429D01*
X17800952Y-8120952D01*
X17808572Y-8130476D01*
X17820000Y-8135238D01*
X17827619Y-8135238D01*
X17839048Y-8130476D01*
X17842857Y-8125714D01*
X17842857Y-8092381D01*
X17827619Y-8092381D01*
X17877143Y-8135238D02*
X17877143Y-8035238D01*
X17922857Y-8135238D01*
X17922857Y-8035238D01*
X17960952Y-8135238D02*
X17960952Y-8035238D01*
X17980000Y-8035238D01*
X17991429Y-8040000D01*
X17999048Y-8049524D01*
X18002857Y-8059048D01*
X18006667Y-8078095D01*
X18006667Y-8092381D01*
X18002857Y-8111429D01*
X17999048Y-8120952D01*
X17991429Y-8130476D01*
X17980000Y-8135238D01*
X17960952Y-8135238D01*
X18040952Y-8135238D02*
X18040952Y-8035238D01*
X18071429Y-8035238D01*
X18079048Y-8040000D01*
X18082857Y-8044762D01*
X18086667Y-8054286D01*
X18086667Y-8068571D01*
X18082857Y-8078095D01*
X18079048Y-8082857D01*
X18071429Y-8087619D01*
X18040952Y-8087619D01*
X16239048Y-8040000D02*
X16231429Y-8035238D01*
X16220000Y-8035238D01*
X16208571Y-8040000D01*
X16200952Y-8049524D01*
X16197143Y-8059048D01*
X16193333Y-8078095D01*
X16193333Y-8092381D01*
X16197143Y-8111429D01*
X16200952Y-8120952D01*
X16208571Y-8130476D01*
X16220000Y-8135238D01*
X16227619Y-8135238D01*
X16239048Y-8130476D01*
X16242857Y-8125714D01*
X16242857Y-8092381D01*
X16227619Y-8092381D01*
X16277143Y-8135238D02*
X16277143Y-8035238D01*
X16322857Y-8135238D01*
X16322857Y-8035238D01*
X16360952Y-8135238D02*
X16360952Y-8035238D01*
X16380000Y-8035238D01*
X16391429Y-8040000D01*
X16399048Y-8049524D01*
X16402857Y-8059048D01*
X16406667Y-8078095D01*
X16406667Y-8092381D01*
X16402857Y-8111429D01*
X16399048Y-8120952D01*
X16391429Y-8130476D01*
X16380000Y-8135238D01*
X16360952Y-8135238D01*
X16440952Y-8135238D02*
X16440952Y-8035238D01*
X16471429Y-8035238D01*
X16479048Y-8040000D01*
X16482857Y-8044762D01*
X16486667Y-8054286D01*
X16486667Y-8068571D01*
X16482857Y-8078095D01*
X16479048Y-8082857D01*
X16471429Y-8087619D01*
X16440952Y-8087619D01*
X15119048Y-8097143D02*
X15180000Y-8097143D01*
X15149524Y-8135238D02*
X15149524Y-8059048D01*
X15214286Y-8044762D02*
X15218095Y-8040000D01*
X15225714Y-8035238D01*
X15244762Y-8035238D01*
X15252381Y-8040000D01*
X15256190Y-8044762D01*
X15260000Y-8054286D01*
X15260000Y-8063809D01*
X15256190Y-8078095D01*
X15210476Y-8135238D01*
X15260000Y-8135238D01*
X15328571Y-8068571D02*
X15328571Y-8135238D01*
X15309524Y-8030476D02*
X15290476Y-8101905D01*
X15340000Y-8101905D01*
X15359048Y-8035238D02*
X15385714Y-8135238D01*
X15412381Y-8035238D01*
X15439048Y-8135238D02*
X15439048Y-8035238D01*
X15469524Y-8035238D01*
X15477143Y-8040000D01*
X15480952Y-8044762D01*
X15484762Y-8054286D01*
X15484762Y-8068571D01*
X15480952Y-8078095D01*
X15477143Y-8082857D01*
X15469524Y-8087619D01*
X15439048Y-8087619D01*
X14499048Y-8087143D02*
X14560000Y-8087143D01*
X14529524Y-8125238D02*
X14529524Y-8049048D01*
X14594286Y-8034762D02*
X14598095Y-8030000D01*
X14605714Y-8025238D01*
X14624762Y-8025238D01*
X14632381Y-8030000D01*
X14636190Y-8034762D01*
X14640000Y-8044286D01*
X14640000Y-8053809D01*
X14636190Y-8068095D01*
X14590476Y-8125238D01*
X14640000Y-8125238D01*
X14708571Y-8058571D02*
X14708571Y-8125238D01*
X14689524Y-8020476D02*
X14670476Y-8091905D01*
X14720000Y-8091905D01*
X14739048Y-8025238D02*
X14765714Y-8125238D01*
X14792381Y-8025238D01*
X14819048Y-8125238D02*
X14819048Y-8025238D01*
X14849524Y-8025238D01*
X14857143Y-8030000D01*
X14860952Y-8034762D01*
X14864762Y-8044286D01*
X14864762Y-8058571D01*
X14860952Y-8068095D01*
X14857143Y-8072857D01*
X14849524Y-8077619D01*
X14819048Y-8077619D01*
X13319048Y-8087143D02*
X13380000Y-8087143D01*
X13349524Y-8125238D02*
X13349524Y-8049048D01*
X13414286Y-8034762D02*
X13418095Y-8030000D01*
X13425714Y-8025238D01*
X13444762Y-8025238D01*
X13452381Y-8030000D01*
X13456190Y-8034762D01*
X13460000Y-8044286D01*
X13460000Y-8053809D01*
X13456190Y-8068095D01*
X13410476Y-8125238D01*
X13460000Y-8125238D01*
X13528571Y-8058571D02*
X13528571Y-8125238D01*
X13509524Y-8020476D02*
X13490476Y-8091905D01*
X13540000Y-8091905D01*
X13559048Y-8025238D02*
X13585714Y-8125238D01*
X13612381Y-8025238D01*
X13639048Y-8125238D02*
X13639048Y-8025238D01*
X13669524Y-8025238D01*
X13677143Y-8030000D01*
X13680952Y-8034762D01*
X13684762Y-8044286D01*
X13684762Y-8058571D01*
X13680952Y-8068095D01*
X13677143Y-8072857D01*
X13669524Y-8077619D01*
X13639048Y-8077619D01*
X8470000Y-7909048D02*
X8474762Y-7901429D01*
X8474762Y-7890000D01*
X8470000Y-7878571D01*
X8460476Y-7870952D01*
X8450952Y-7867143D01*
X8431905Y-7863333D01*
X8417619Y-7863333D01*
X8398571Y-7867143D01*
X8389048Y-7870952D01*
X8379524Y-7878571D01*
X8374762Y-7890000D01*
X8374762Y-7897619D01*
X8379524Y-7909048D01*
X8384286Y-7912857D01*
X8417619Y-7912857D01*
X8417619Y-7897619D01*
X8374762Y-7947143D02*
X8474762Y-7947143D01*
X8374762Y-7992857D01*
X8474762Y-7992857D01*
X8374762Y-8030952D02*
X8474762Y-8030952D01*
X8474762Y-8050000D01*
X8470000Y-8061429D01*
X8460476Y-8069048D01*
X8450952Y-8072857D01*
X8431905Y-8076667D01*
X8417619Y-8076667D01*
X8398571Y-8072857D01*
X8389048Y-8069048D01*
X8379524Y-8061429D01*
X8374762Y-8050000D01*
X8374762Y-8030952D01*
X8374762Y-8110952D02*
X8474762Y-8110952D01*
X8474762Y-8141429D01*
X8470000Y-8149048D01*
X8465238Y-8152857D01*
X8455714Y-8156667D01*
X8441429Y-8156667D01*
X8431905Y-8152857D01*
X8427143Y-8149048D01*
X8422381Y-8141429D01*
X8422381Y-8110952D01*
X8912857Y-7839048D02*
X8912857Y-7900000D01*
X8874762Y-7869524D02*
X8950952Y-7869524D01*
X8965238Y-7934286D02*
X8970000Y-7938095D01*
X8974762Y-7945714D01*
X8974762Y-7964762D01*
X8970000Y-7972381D01*
X8965238Y-7976190D01*
X8955714Y-7980000D01*
X8946191Y-7980000D01*
X8931905Y-7976190D01*
X8874762Y-7930476D01*
X8874762Y-7980000D01*
X8941429Y-8048571D02*
X8874762Y-8048571D01*
X8979524Y-8029524D02*
X8908095Y-8010476D01*
X8908095Y-8060000D01*
X8974762Y-8079048D02*
X8874762Y-8105714D01*
X8974762Y-8132381D01*
X8874762Y-8159048D02*
X8974762Y-8159048D01*
X8974762Y-8189524D01*
X8970000Y-8197143D01*
X8965238Y-8200952D01*
X8955714Y-8204762D01*
X8941429Y-8204762D01*
X8931905Y-8200952D01*
X8927143Y-8197143D01*
X8922381Y-8189524D01*
X8922381Y-8159048D01*
X7461428Y-12285238D02*
X7461428Y-12185238D01*
X7491905Y-12185238D01*
X7499524Y-12190000D01*
X7503333Y-12194762D01*
X7507143Y-12204286D01*
X7507143Y-12218571D01*
X7503333Y-12228095D01*
X7499524Y-12232857D01*
X7491905Y-12237619D01*
X7461428Y-12237619D01*
X7541428Y-12285238D02*
X7541428Y-12185238D01*
X7575714Y-12285238D02*
X7575714Y-12232857D01*
X7571905Y-12223333D01*
X7564286Y-12218571D01*
X7552857Y-12218571D01*
X7545238Y-12223333D01*
X7541428Y-12228095D01*
X7648095Y-12285238D02*
X7648095Y-12232857D01*
X7644286Y-12223333D01*
X7636667Y-12218571D01*
X7621429Y-12218571D01*
X7613809Y-12223333D01*
X7648095Y-12280476D02*
X7640476Y-12285238D01*
X7621429Y-12285238D01*
X7613809Y-12280476D01*
X7610000Y-12270952D01*
X7610000Y-12261429D01*
X7613809Y-12251905D01*
X7621429Y-12247143D01*
X7640476Y-12247143D01*
X7648095Y-12242381D01*
X7682381Y-12280476D02*
X7690000Y-12285238D01*
X7705238Y-12285238D01*
X7712857Y-12280476D01*
X7716667Y-12270952D01*
X7716667Y-12266190D01*
X7712857Y-12256667D01*
X7705238Y-12251905D01*
X7693810Y-12251905D01*
X7686190Y-12247143D01*
X7682381Y-12237619D01*
X7682381Y-12232857D01*
X7686190Y-12223333D01*
X7693810Y-12218571D01*
X7705238Y-12218571D01*
X7712857Y-12223333D01*
X7781429Y-12280476D02*
X7773810Y-12285238D01*
X7758571Y-12285238D01*
X7750952Y-12280476D01*
X7747143Y-12270952D01*
X7747143Y-12232857D01*
X7750952Y-12223333D01*
X7758571Y-12218571D01*
X7773810Y-12218571D01*
X7781429Y-12223333D01*
X7785238Y-12232857D01*
X7785238Y-12242381D01*
X7747143Y-12251905D01*
X7914762Y-12218571D02*
X7914762Y-12285238D01*
X7895714Y-12180476D02*
X7876667Y-12251905D01*
X7926190Y-12251905D01*
X7461428Y-11785238D02*
X7461428Y-11685238D01*
X7491905Y-11685238D01*
X7499524Y-11690000D01*
X7503333Y-11694762D01*
X7507143Y-11704286D01*
X7507143Y-11718571D01*
X7503333Y-11728095D01*
X7499524Y-11732857D01*
X7491905Y-11737619D01*
X7461428Y-11737619D01*
X7541428Y-11785238D02*
X7541428Y-11685238D01*
X7575714Y-11785238D02*
X7575714Y-11732857D01*
X7571905Y-11723333D01*
X7564286Y-11718571D01*
X7552857Y-11718571D01*
X7545238Y-11723333D01*
X7541428Y-11728095D01*
X7648095Y-11785238D02*
X7648095Y-11732857D01*
X7644286Y-11723333D01*
X7636667Y-11718571D01*
X7621429Y-11718571D01*
X7613809Y-11723333D01*
X7648095Y-11780476D02*
X7640476Y-11785238D01*
X7621429Y-11785238D01*
X7613809Y-11780476D01*
X7610000Y-11770952D01*
X7610000Y-11761429D01*
X7613809Y-11751905D01*
X7621429Y-11747143D01*
X7640476Y-11747143D01*
X7648095Y-11742381D01*
X7682381Y-11780476D02*
X7690000Y-11785238D01*
X7705238Y-11785238D01*
X7712857Y-11780476D01*
X7716667Y-11770952D01*
X7716667Y-11766190D01*
X7712857Y-11756667D01*
X7705238Y-11751905D01*
X7693810Y-11751905D01*
X7686190Y-11747143D01*
X7682381Y-11737619D01*
X7682381Y-11732857D01*
X7686190Y-11723333D01*
X7693810Y-11718571D01*
X7705238Y-11718571D01*
X7712857Y-11723333D01*
X7781429Y-11780476D02*
X7773810Y-11785238D01*
X7758571Y-11785238D01*
X7750952Y-11780476D01*
X7747143Y-11770952D01*
X7747143Y-11732857D01*
X7750952Y-11723333D01*
X7758571Y-11718571D01*
X7773810Y-11718571D01*
X7781429Y-11723333D01*
X7785238Y-11732857D01*
X7785238Y-11742381D01*
X7747143Y-11751905D01*
X7872857Y-11685238D02*
X7922381Y-11685238D01*
X7895714Y-11723333D01*
X7907143Y-11723333D01*
X7914762Y-11728095D01*
X7918571Y-11732857D01*
X7922381Y-11742381D01*
X7922381Y-11766190D01*
X7918571Y-11775714D01*
X7914762Y-11780476D01*
X7907143Y-11785238D01*
X7884286Y-11785238D01*
X7876667Y-11780476D01*
X7872857Y-11775714D01*
X7461428Y-11285238D02*
X7461428Y-11185238D01*
X7491905Y-11185238D01*
X7499524Y-11190000D01*
X7503333Y-11194762D01*
X7507143Y-11204286D01*
X7507143Y-11218571D01*
X7503333Y-11228095D01*
X7499524Y-11232857D01*
X7491905Y-11237619D01*
X7461428Y-11237619D01*
X7541428Y-11285238D02*
X7541428Y-11185238D01*
X7575714Y-11285238D02*
X7575714Y-11232857D01*
X7571905Y-11223333D01*
X7564286Y-11218571D01*
X7552857Y-11218571D01*
X7545238Y-11223333D01*
X7541428Y-11228095D01*
X7648095Y-11285238D02*
X7648095Y-11232857D01*
X7644286Y-11223333D01*
X7636667Y-11218571D01*
X7621429Y-11218571D01*
X7613809Y-11223333D01*
X7648095Y-11280476D02*
X7640476Y-11285238D01*
X7621429Y-11285238D01*
X7613809Y-11280476D01*
X7610000Y-11270952D01*
X7610000Y-11261429D01*
X7613809Y-11251905D01*
X7621429Y-11247143D01*
X7640476Y-11247143D01*
X7648095Y-11242381D01*
X7682381Y-11280476D02*
X7690000Y-11285238D01*
X7705238Y-11285238D01*
X7712857Y-11280476D01*
X7716667Y-11270952D01*
X7716667Y-11266190D01*
X7712857Y-11256667D01*
X7705238Y-11251905D01*
X7693810Y-11251905D01*
X7686190Y-11247143D01*
X7682381Y-11237619D01*
X7682381Y-11232857D01*
X7686190Y-11223333D01*
X7693810Y-11218571D01*
X7705238Y-11218571D01*
X7712857Y-11223333D01*
X7781429Y-11280476D02*
X7773810Y-11285238D01*
X7758571Y-11285238D01*
X7750952Y-11280476D01*
X7747143Y-11270952D01*
X7747143Y-11232857D01*
X7750952Y-11223333D01*
X7758571Y-11218571D01*
X7773810Y-11218571D01*
X7781429Y-11223333D01*
X7785238Y-11232857D01*
X7785238Y-11242381D01*
X7747143Y-11251905D01*
X7876667Y-11194762D02*
X7880476Y-11190000D01*
X7888095Y-11185238D01*
X7907143Y-11185238D01*
X7914762Y-11190000D01*
X7918571Y-11194762D01*
X7922381Y-11204286D01*
X7922381Y-11213809D01*
X7918571Y-11228095D01*
X7872857Y-11285238D01*
X7922381Y-11285238D01*
X7461428Y-10785238D02*
X7461428Y-10685238D01*
X7491905Y-10685238D01*
X7499524Y-10690000D01*
X7503333Y-10694762D01*
X7507143Y-10704286D01*
X7507143Y-10718571D01*
X7503333Y-10728095D01*
X7499524Y-10732857D01*
X7491905Y-10737619D01*
X7461428Y-10737619D01*
X7541428Y-10785238D02*
X7541428Y-10685238D01*
X7575714Y-10785238D02*
X7575714Y-10732857D01*
X7571905Y-10723333D01*
X7564286Y-10718571D01*
X7552857Y-10718571D01*
X7545238Y-10723333D01*
X7541428Y-10728095D01*
X7648095Y-10785238D02*
X7648095Y-10732857D01*
X7644286Y-10723333D01*
X7636667Y-10718571D01*
X7621429Y-10718571D01*
X7613809Y-10723333D01*
X7648095Y-10780476D02*
X7640476Y-10785238D01*
X7621429Y-10785238D01*
X7613809Y-10780476D01*
X7610000Y-10770952D01*
X7610000Y-10761429D01*
X7613809Y-10751905D01*
X7621429Y-10747143D01*
X7640476Y-10747143D01*
X7648095Y-10742381D01*
X7682381Y-10780476D02*
X7690000Y-10785238D01*
X7705238Y-10785238D01*
X7712857Y-10780476D01*
X7716667Y-10770952D01*
X7716667Y-10766191D01*
X7712857Y-10756667D01*
X7705238Y-10751905D01*
X7693810Y-10751905D01*
X7686190Y-10747143D01*
X7682381Y-10737619D01*
X7682381Y-10732857D01*
X7686190Y-10723333D01*
X7693810Y-10718571D01*
X7705238Y-10718571D01*
X7712857Y-10723333D01*
X7781429Y-10780476D02*
X7773810Y-10785238D01*
X7758571Y-10785238D01*
X7750952Y-10780476D01*
X7747143Y-10770952D01*
X7747143Y-10732857D01*
X7750952Y-10723333D01*
X7758571Y-10718571D01*
X7773810Y-10718571D01*
X7781429Y-10723333D01*
X7785238Y-10732857D01*
X7785238Y-10742381D01*
X7747143Y-10751905D01*
X7922381Y-10785238D02*
X7876667Y-10785238D01*
X7899524Y-10785238D02*
X7899524Y-10685238D01*
X7891905Y-10699524D01*
X7884286Y-10709048D01*
X7876667Y-10713810D01*
X20629524Y-8135238D02*
X20629524Y-8035238D01*
X20667619Y-8135238D02*
X20667619Y-8035238D01*
X20713333Y-8135238D01*
X20713333Y-8035238D01*
X20846667Y-8068571D02*
X20846667Y-8135238D01*
X20827619Y-8030476D02*
X20808571Y-8101905D01*
X20858095Y-8101905D01*
X19009524Y-8135238D02*
X19009524Y-8035238D01*
X19047619Y-8135238D02*
X19047619Y-8035238D01*
X19093333Y-8135238D01*
X19093333Y-8035238D01*
X19184762Y-8035238D02*
X19234286Y-8035238D01*
X19207619Y-8073333D01*
X19219048Y-8073333D01*
X19226667Y-8078095D01*
X19230476Y-8082857D01*
X19234286Y-8092381D01*
X19234286Y-8116190D01*
X19230476Y-8125714D01*
X19226667Y-8130476D01*
X19219048Y-8135238D01*
X19196190Y-8135238D01*
X19188571Y-8130476D01*
X19184762Y-8125714D01*
X17329524Y-8135238D02*
X17329524Y-8035238D01*
X17367619Y-8135238D02*
X17367619Y-8035238D01*
X17413333Y-8135238D01*
X17413333Y-8035238D01*
X17508571Y-8044762D02*
X17512381Y-8040000D01*
X17520000Y-8035238D01*
X17539048Y-8035238D01*
X17546667Y-8040000D01*
X17550476Y-8044762D01*
X17554286Y-8054286D01*
X17554286Y-8063809D01*
X17550476Y-8078095D01*
X17504762Y-8135238D01*
X17554286Y-8135238D01*
X15729524Y-8135238D02*
X15729524Y-8035238D01*
X15767619Y-8135238D02*
X15767619Y-8035238D01*
X15813333Y-8135238D01*
X15813333Y-8035238D01*
X15954286Y-8135238D02*
X15908571Y-8135238D01*
X15931428Y-8135238D02*
X15931428Y-8035238D01*
X15923809Y-8049524D01*
X15916190Y-8059048D01*
X15908571Y-8063809D01*
X14041429Y-8025238D02*
X14056667Y-8025238D01*
X14064286Y-8030000D01*
X14071905Y-8039524D01*
X14075714Y-8058571D01*
X14075714Y-8091905D01*
X14071905Y-8110952D01*
X14064286Y-8120476D01*
X14056667Y-8125238D01*
X14041429Y-8125238D01*
X14033810Y-8120476D01*
X14026190Y-8110952D01*
X14022381Y-8091905D01*
X14022381Y-8058571D01*
X14026190Y-8039524D01*
X14033810Y-8030000D01*
X14041429Y-8025238D01*
X14110000Y-8025238D02*
X14110000Y-8106190D01*
X14113809Y-8115714D01*
X14117619Y-8120476D01*
X14125238Y-8125238D01*
X14140476Y-8125238D01*
X14148095Y-8120476D01*
X14151905Y-8115714D01*
X14155714Y-8106190D01*
X14155714Y-8025238D01*
X14182381Y-8025238D02*
X14228095Y-8025238D01*
X14205238Y-8125238D02*
X14205238Y-8025238D01*
X14311905Y-8034762D02*
X14315714Y-8030000D01*
X14323333Y-8025238D01*
X14342381Y-8025238D01*
X14350000Y-8030000D01*
X14353810Y-8034762D01*
X14357619Y-8044286D01*
X14357619Y-8053809D01*
X14353810Y-8068095D01*
X14308095Y-8125238D01*
X14357619Y-8125238D01*
X12891429Y-8025238D02*
X12906667Y-8025238D01*
X12914286Y-8030000D01*
X12921905Y-8039524D01*
X12925714Y-8058571D01*
X12925714Y-8091905D01*
X12921905Y-8110952D01*
X12914286Y-8120476D01*
X12906667Y-8125238D01*
X12891429Y-8125238D01*
X12883810Y-8120476D01*
X12876190Y-8110952D01*
X12872381Y-8091905D01*
X12872381Y-8058571D01*
X12876190Y-8039524D01*
X12883810Y-8030000D01*
X12891429Y-8025238D01*
X12960000Y-8025238D02*
X12960000Y-8106190D01*
X12963809Y-8115714D01*
X12967619Y-8120476D01*
X12975238Y-8125238D01*
X12990476Y-8125238D01*
X12998095Y-8120476D01*
X13001905Y-8115714D01*
X13005714Y-8106190D01*
X13005714Y-8025238D01*
X13032381Y-8025238D02*
X13078095Y-8025238D01*
X13055238Y-8125238D02*
X13055238Y-8025238D01*
X13207619Y-8125238D02*
X13161905Y-8125238D01*
X13184762Y-8125238D02*
X13184762Y-8025238D01*
X13177143Y-8039524D01*
X13169524Y-8049048D01*
X13161905Y-8053809D01*
X12510000Y-14730952D02*
X12505238Y-14738571D01*
X12505238Y-14750000D01*
X12510000Y-14761428D01*
X12519524Y-14769048D01*
X12529048Y-14772857D01*
X12548095Y-14776667D01*
X12562381Y-14776667D01*
X12581429Y-14772857D01*
X12590952Y-14769048D01*
X12600476Y-14761428D01*
X12605238Y-14750000D01*
X12605238Y-14742381D01*
X12600476Y-14730952D01*
X12595714Y-14727143D01*
X12562381Y-14727143D01*
X12562381Y-14742381D01*
X12605238Y-14692857D02*
X12505238Y-14692857D01*
X12605238Y-14647143D01*
X12505238Y-14647143D01*
X12605238Y-14609048D02*
X12505238Y-14609048D01*
X12505238Y-14590000D01*
X12510000Y-14578571D01*
X12519524Y-14570952D01*
X12529048Y-14567143D01*
X12548095Y-14563333D01*
X12562381Y-14563333D01*
X12581429Y-14567143D01*
X12590952Y-14570952D01*
X12600476Y-14578571D01*
X12605238Y-14590000D01*
X12605238Y-14609048D01*
X12605238Y-14529048D02*
X12505238Y-14529048D01*
X12505238Y-14498571D01*
X12510000Y-14490952D01*
X12514762Y-14487143D01*
X12524286Y-14483333D01*
X12538571Y-14483333D01*
X12548095Y-14487143D01*
X12552857Y-14490952D01*
X12557619Y-14498571D01*
X12557619Y-14529048D01*
X12035238Y-14779524D02*
X12135238Y-14752857D01*
X12035238Y-14726190D01*
X12068571Y-14699524D02*
X12168571Y-14699524D01*
X12073333Y-14699524D02*
X12068571Y-14691905D01*
X12068571Y-14676667D01*
X12073333Y-14669048D01*
X12078095Y-14665238D01*
X12087619Y-14661428D01*
X12116190Y-14661428D01*
X12125714Y-14665238D01*
X12130476Y-14669048D01*
X12135238Y-14676667D01*
X12135238Y-14691905D01*
X12130476Y-14699524D01*
X12068571Y-14634762D02*
X12135238Y-14619524D01*
X12087619Y-14604286D01*
X12135238Y-14589047D01*
X12068571Y-14573809D01*
X12135238Y-14543333D02*
X12068571Y-14543333D01*
X12087619Y-14543333D02*
X12078095Y-14539524D01*
X12073333Y-14535714D01*
X12068571Y-14528095D01*
X12068571Y-14520476D01*
X14970000Y-14750952D02*
X14965238Y-14758571D01*
X14965238Y-14770000D01*
X14970000Y-14781428D01*
X14979524Y-14789048D01*
X14989048Y-14792857D01*
X15008095Y-14796667D01*
X15022381Y-14796667D01*
X15041429Y-14792857D01*
X15050952Y-14789048D01*
X15060476Y-14781428D01*
X15065238Y-14770000D01*
X15065238Y-14762381D01*
X15060476Y-14750952D01*
X15055714Y-14747143D01*
X15022381Y-14747143D01*
X15022381Y-14762381D01*
X15065238Y-14712857D02*
X14965238Y-14712857D01*
X15065238Y-14667143D01*
X14965238Y-14667143D01*
X15065238Y-14629048D02*
X14965238Y-14629048D01*
X14965238Y-14610000D01*
X14970000Y-14598571D01*
X14979524Y-14590952D01*
X14989048Y-14587143D01*
X15008095Y-14583333D01*
X15022381Y-14583333D01*
X15041429Y-14587143D01*
X15050952Y-14590952D01*
X15060476Y-14598571D01*
X15065238Y-14610000D01*
X15065238Y-14629048D01*
X15065238Y-14549048D02*
X14965238Y-14549048D01*
X14965238Y-14530000D01*
X14970000Y-14518571D01*
X14979524Y-14510952D01*
X14989048Y-14507143D01*
X15008095Y-14503333D01*
X15022381Y-14503333D01*
X15041429Y-14507143D01*
X15050952Y-14510952D01*
X15060476Y-14518571D01*
X15065238Y-14530000D01*
X15065238Y-14549048D01*
X15527143Y-14800952D02*
X15527143Y-14740000D01*
X15565238Y-14770476D02*
X15489048Y-14770476D01*
X15474762Y-14705714D02*
X15470000Y-14701905D01*
X15465238Y-14694286D01*
X15465238Y-14675238D01*
X15470000Y-14667619D01*
X15474762Y-14663809D01*
X15484286Y-14660000D01*
X15493809Y-14660000D01*
X15508095Y-14663809D01*
X15565238Y-14709524D01*
X15565238Y-14660000D01*
X15498571Y-14591429D02*
X15565238Y-14591429D01*
X15460476Y-14610476D02*
X15531905Y-14629524D01*
X15531905Y-14580000D01*
X15465238Y-14560952D02*
X15565238Y-14534286D01*
X15465238Y-14507619D01*
X15565238Y-14480952D02*
X15465238Y-14480952D01*
X15465238Y-14461905D01*
X15470000Y-14450476D01*
X15479524Y-14442857D01*
X15489048Y-14439048D01*
X15508095Y-14435238D01*
X15522381Y-14435238D01*
X15541429Y-14439048D01*
X15550952Y-14442857D01*
X15560476Y-14450476D01*
X15565238Y-14461905D01*
X15565238Y-14480952D01*
X17436667Y-15990000D02*
X17430000Y-15986190D01*
X17420000Y-15986190D01*
X17410000Y-15990000D01*
X17403333Y-15997619D01*
X17400000Y-16005238D01*
X17396667Y-16020476D01*
X17396667Y-16031905D01*
X17400000Y-16047143D01*
X17403333Y-16054762D01*
X17410000Y-16062381D01*
X17420000Y-16066190D01*
X17426667Y-16066190D01*
X17436667Y-16062381D01*
X17440000Y-16058571D01*
X17440000Y-16031905D01*
X17426667Y-16031905D01*
X17470000Y-16066190D02*
X17470000Y-15986190D01*
X17510000Y-16066190D01*
X17510000Y-15986190D01*
X17543333Y-16066190D02*
X17543333Y-15986190D01*
X17560000Y-15986190D01*
X17570000Y-15990000D01*
X17576667Y-15997619D01*
X17580000Y-16005238D01*
X17583333Y-16020476D01*
X17583333Y-16031905D01*
X17580000Y-16047143D01*
X17576667Y-16054762D01*
X17570000Y-16062381D01*
X17560000Y-16066190D01*
X17543333Y-16066190D01*
X17643333Y-16035714D02*
X17696667Y-16035714D01*
X17670000Y-16066190D02*
X17670000Y-16005238D01*
X17763333Y-15986190D02*
X17730000Y-15986190D01*
X17726667Y-16024286D01*
X17730000Y-16020476D01*
X17736667Y-16016667D01*
X17753333Y-16016667D01*
X17760000Y-16020476D01*
X17763333Y-16024286D01*
X17766667Y-16031905D01*
X17766667Y-16050952D01*
X17763333Y-16058571D01*
X17760000Y-16062381D01*
X17753333Y-16066190D01*
X17736667Y-16066190D01*
X17730000Y-16062381D01*
X17726667Y-16058571D01*
X17790000Y-16012857D02*
X17806667Y-16066190D01*
X17823333Y-16012857D01*
X18918333Y-16066190D02*
X18918333Y-15986190D01*
X18918333Y-16024286D02*
X18958333Y-16024286D01*
X18958333Y-16066190D02*
X18958333Y-15986190D01*
X19021667Y-16012857D02*
X19021667Y-16066190D01*
X18991667Y-16012857D02*
X18991667Y-16054762D01*
X18995000Y-16062381D01*
X19001667Y-16066190D01*
X19011667Y-16066190D01*
X19018333Y-16062381D01*
X19021667Y-16058571D01*
X19105000Y-15982381D02*
X19045000Y-16085238D01*
X19125000Y-16043333D02*
X19158333Y-16043333D01*
X19118333Y-16066190D02*
X19141667Y-15986190D01*
X19165000Y-16066190D01*
X19188333Y-16035714D02*
X19241667Y-16035714D01*
X19215000Y-16066190D02*
X19215000Y-16005238D01*
X18418333Y-16066190D02*
X18418333Y-15986190D01*
X18418333Y-16024286D02*
X18458333Y-16024286D01*
X18458333Y-16066190D02*
X18458333Y-15986190D01*
X18485000Y-16012857D02*
X18501667Y-16066190D01*
X18518333Y-16012857D01*
X18595000Y-15982381D02*
X18535000Y-16085238D01*
X18641667Y-16024286D02*
X18651667Y-16028095D01*
X18655000Y-16031905D01*
X18658333Y-16039524D01*
X18658333Y-16050952D01*
X18655000Y-16058571D01*
X18651667Y-16062381D01*
X18645000Y-16066190D01*
X18618333Y-16066190D01*
X18618333Y-15986190D01*
X18641667Y-15986190D01*
X18648333Y-15990000D01*
X18651667Y-15993809D01*
X18655000Y-16001429D01*
X18655000Y-16009048D01*
X18651667Y-16016667D01*
X18648333Y-16020476D01*
X18641667Y-16024286D01*
X18618333Y-16024286D01*
X18688333Y-16035714D02*
X18741667Y-16035714D01*
X18715000Y-16066190D02*
X18715000Y-16005238D01*
X17890000Y-16066190D02*
X17890000Y-15986190D01*
X17890000Y-16024286D02*
X17930000Y-16024286D01*
X17930000Y-16066190D02*
X17930000Y-15986190D01*
X17956667Y-16012857D02*
X17970000Y-16066190D01*
X17983333Y-16028095D01*
X17996667Y-16066190D01*
X18010000Y-16012857D01*
X18086667Y-15982381D02*
X18026667Y-16085238D01*
X18103333Y-15986190D02*
X18150000Y-15986190D01*
X18103333Y-16066190D01*
X18150000Y-16066190D01*
X18176667Y-16035714D02*
X18230000Y-16035714D01*
X18203333Y-16066190D02*
X18203333Y-16005238D01*
D10*
X21540000Y-8640000D02*
G75*
G03X21540000Y-8640000I0J0D01*
G01*
D13*
X19433000Y-15044000D02*
X17389000Y-15044000D01*
X17389000Y-15044000D02*
X17389000Y-15310000D01*
X17389000Y-15310000D02*
X19433000Y-15310000D01*
X19433000Y-15310000D02*
X19433000Y-15044000D01*
X19338000Y-15310000D02*
X19338000Y-15910000D01*
X19338000Y-15910000D02*
X19262000Y-15910000D01*
X19262000Y-15910000D02*
X19262000Y-15310000D01*
X19332000Y-15310000D02*
X19332000Y-15910000D01*
X19320000Y-15310000D02*
X19320000Y-15910000D01*
X19308000Y-15310000D02*
X19308000Y-15910000D01*
X19296000Y-15310000D02*
X19296000Y-15910000D01*
X19284000Y-15310000D02*
X19284000Y-15910000D01*
X19272000Y-15310000D02*
X19272000Y-15910000D01*
X19338000Y-15011000D02*
X19338000Y-15044000D01*
X19262000Y-15011000D02*
X19262000Y-15044000D01*
X19173000Y-15044000D02*
X19173000Y-15310000D01*
X19084000Y-15310000D02*
X19084000Y-15910000D01*
X19084000Y-15910000D02*
X19008000Y-15910000D01*
X19008000Y-15910000D02*
X19008000Y-15310000D01*
X19084000Y-15004293D02*
X19084000Y-15044000D01*
X19008000Y-15004293D02*
X19008000Y-15044000D01*
X18919000Y-15044000D02*
X18919000Y-15310000D01*
X18830000Y-15310000D02*
X18830000Y-15910000D01*
X18830000Y-15910000D02*
X18754000Y-15910000D01*
X18754000Y-15910000D02*
X18754000Y-15310000D01*
X18830000Y-15004293D02*
X18830000Y-15044000D01*
X18754000Y-15004293D02*
X18754000Y-15044000D01*
X18665000Y-15044000D02*
X18665000Y-15310000D01*
X18576000Y-15310000D02*
X18576000Y-15910000D01*
X18576000Y-15910000D02*
X18500000Y-15910000D01*
X18500000Y-15910000D02*
X18500000Y-15310000D01*
X18576000Y-15004293D02*
X18576000Y-15044000D01*
X18500000Y-15004293D02*
X18500000Y-15044000D01*
X18411000Y-15044000D02*
X18411000Y-15310000D01*
X18322000Y-15310000D02*
X18322000Y-15910000D01*
X18322000Y-15910000D02*
X18246000Y-15910000D01*
X18246000Y-15910000D02*
X18246000Y-15310000D01*
X18322000Y-15004293D02*
X18322000Y-15044000D01*
X18246000Y-15004293D02*
X18246000Y-15044000D01*
X18157000Y-15044000D02*
X18157000Y-15310000D01*
X18068000Y-15310000D02*
X18068000Y-15910000D01*
X18068000Y-15910000D02*
X17992000Y-15910000D01*
X17992000Y-15910000D02*
X17992000Y-15310000D01*
X18068000Y-15004293D02*
X18068000Y-15044000D01*
X17992000Y-15004293D02*
X17992000Y-15044000D01*
X17903000Y-15044000D02*
X17903000Y-15310000D01*
X17814000Y-15310000D02*
X17814000Y-15910000D01*
X17814000Y-15910000D02*
X17738000Y-15910000D01*
X17738000Y-15910000D02*
X17738000Y-15310000D01*
X17814000Y-15004293D02*
X17814000Y-15044000D01*
X17738000Y-15004293D02*
X17738000Y-15044000D01*
X17649000Y-15044000D02*
X17649000Y-15310000D01*
X17560000Y-15310000D02*
X17560000Y-15910000D01*
X17560000Y-15910000D02*
X17484000Y-15910000D01*
X17484000Y-15910000D02*
X17484000Y-15310000D01*
X17560000Y-15004293D02*
X17560000Y-15044000D01*
X17484000Y-15004293D02*
X17484000Y-15044000D01*
X19300000Y-14773000D02*
X19427000Y-14773000D01*
X19427000Y-14773000D02*
X19427000Y-14900000D01*
X9270000Y-10515000D02*
X9270000Y-12595000D01*
X9270000Y-12595000D02*
X8765000Y-12595000D01*
X8765000Y-12595000D02*
X8790000Y-12545000D01*
X8790000Y-12545000D02*
X8250000Y-12545000D01*
X8250000Y-12545000D02*
X8280000Y-12600000D01*
X8280000Y-12600000D02*
X8075000Y-12600000D01*
X8075000Y-12600000D02*
X8105000Y-12545000D01*
X8105000Y-12545000D02*
X8010000Y-12545000D01*
X8010000Y-12545000D02*
X8010000Y-10515000D01*
X8010000Y-10515000D02*
X9270000Y-10515000D01*
X10284000Y-15480000D02*
G75*
G03X10284000Y-15480000I-634000J0D01*
G01*
X9650000Y-16110000D02*
X9650000Y-14850000D01*
X9646000Y-16110000D02*
X9646000Y-14850000D01*
X9642000Y-16110000D02*
X9642000Y-14850000D01*
X9638000Y-16109900D02*
X9638000Y-14850100D01*
X9634000Y-16109800D02*
X9634000Y-14850200D01*
X9630000Y-16109700D02*
X9630000Y-14850300D01*
X9626000Y-16109600D02*
X9626000Y-14850400D01*
X9622000Y-16109400D02*
X9622000Y-14850600D01*
X9618000Y-16109200D02*
X9618000Y-14850800D01*
X9614000Y-16109000D02*
X9614000Y-14851000D01*
X9610000Y-16108800D02*
X9610000Y-14851200D01*
X9606000Y-16108500D02*
X9606000Y-14851500D01*
X9602000Y-16108200D02*
X9602000Y-14851800D01*
X9598000Y-16107900D02*
X9598000Y-14852100D01*
X9594000Y-16107600D02*
X9594000Y-14852400D01*
X9590000Y-16107200D02*
X9590000Y-14852800D01*
X9586000Y-16106800D02*
X9586000Y-14853200D01*
X9582000Y-16106400D02*
X9582000Y-14853600D01*
X9577900Y-16105900D02*
X9577900Y-14854100D01*
X9573900Y-16105500D02*
X9573900Y-14854500D01*
X9569900Y-16105000D02*
X9569900Y-14855000D01*
X9565900Y-16104500D02*
X9565900Y-14855500D01*
X9561900Y-16103900D02*
X9561900Y-14856100D01*
X9557900Y-16103300D02*
X9557900Y-14856700D01*
X9553900Y-16102700D02*
X9553900Y-14857300D01*
X9549900Y-16102100D02*
X9549900Y-14857900D01*
X9545900Y-16101500D02*
X9545900Y-14858500D01*
X9541900Y-16100800D02*
X9541900Y-14859200D01*
X9537900Y-16100100D02*
X9537900Y-15618000D01*
X9537900Y-15342000D02*
X9537900Y-14859900D01*
X9533900Y-16099300D02*
X9533900Y-15618000D01*
X9533900Y-15342000D02*
X9533900Y-14860700D01*
X9529900Y-16098600D02*
X9529900Y-15618000D01*
X9529900Y-15342000D02*
X9529900Y-14861400D01*
X9525900Y-16097800D02*
X9525900Y-15618000D01*
X9525900Y-15342000D02*
X9525900Y-14862200D01*
X9521900Y-16097000D02*
X9521900Y-15618000D01*
X9521900Y-15342000D02*
X9521900Y-14863000D01*
X9517900Y-16096200D02*
X9517900Y-15618000D01*
X9517900Y-15342000D02*
X9517900Y-14863800D01*
X9513900Y-16095300D02*
X9513900Y-15618000D01*
X9513900Y-15342000D02*
X9513900Y-14864700D01*
X9509900Y-16094400D02*
X9509900Y-15618000D01*
X9509900Y-15342000D02*
X9509900Y-14865600D01*
X9505900Y-16093500D02*
X9505900Y-15618000D01*
X9505900Y-15342000D02*
X9505900Y-14866500D01*
X9501900Y-16092500D02*
X9501900Y-15618000D01*
X9501900Y-15342000D02*
X9501900Y-14867500D01*
X9497900Y-16091600D02*
X9497900Y-15618000D01*
X9497900Y-15342000D02*
X9497900Y-14868400D01*
X9493900Y-16090600D02*
X9493900Y-15618000D01*
X9493900Y-15342000D02*
X9493900Y-14869400D01*
X9489900Y-16089500D02*
X9489900Y-15618000D01*
X9489900Y-15342000D02*
X9489900Y-14870500D01*
X9485900Y-16088500D02*
X9485900Y-15618000D01*
X9485900Y-15342000D02*
X9485900Y-14871500D01*
X9481900Y-16087400D02*
X9481900Y-15618000D01*
X9481900Y-15342000D02*
X9481900Y-14872600D01*
X9477900Y-16086300D02*
X9477900Y-15618000D01*
X9477900Y-15342000D02*
X9477900Y-14873700D01*
X9473900Y-16085100D02*
X9473900Y-15618000D01*
X9473900Y-15342000D02*
X9473900Y-14874900D01*
X9469900Y-16084000D02*
X9469900Y-15618000D01*
X9469900Y-15342000D02*
X9469900Y-14876000D01*
X9465900Y-16082800D02*
X9465900Y-15618000D01*
X9465900Y-15342000D02*
X9465900Y-14877200D01*
X9461900Y-16081500D02*
X9461900Y-15618000D01*
X9461900Y-15342000D02*
X9461900Y-14878500D01*
X9457900Y-16080300D02*
X9457900Y-15618000D01*
X9457900Y-15342000D02*
X9457900Y-14879700D01*
X9453900Y-16079000D02*
X9453900Y-15618000D01*
X9453900Y-15342000D02*
X9453900Y-14881000D01*
X9449900Y-16077700D02*
X9449900Y-15618000D01*
X9449900Y-15342000D02*
X9449900Y-14882300D01*
X9445900Y-16076300D02*
X9445900Y-15618000D01*
X9445900Y-15342000D02*
X9445900Y-14883700D01*
X9441900Y-16075000D02*
X9441900Y-15618000D01*
X9441900Y-15342000D02*
X9441900Y-14885000D01*
X9437900Y-16073600D02*
X9437900Y-15618000D01*
X9437900Y-15342000D02*
X9437900Y-14886400D01*
X9433900Y-16072100D02*
X9433900Y-15618000D01*
X9433900Y-15342000D02*
X9433900Y-14887900D01*
X9429900Y-16070700D02*
X9429900Y-15618000D01*
X9429900Y-15342000D02*
X9429900Y-14889300D01*
X9425900Y-16069200D02*
X9425900Y-15618000D01*
X9425900Y-15342000D02*
X9425900Y-14890800D01*
X9421900Y-16067600D02*
X9421900Y-15618000D01*
X9421900Y-15342000D02*
X9421900Y-14892400D01*
X9417900Y-16066100D02*
X9417900Y-15618000D01*
X9417900Y-15342000D02*
X9417900Y-14893900D01*
X9413900Y-16064500D02*
X9413900Y-15618000D01*
X9413900Y-15342000D02*
X9413900Y-14895500D01*
X9409900Y-16062900D02*
X9409900Y-15618000D01*
X9409900Y-15342000D02*
X9409900Y-14897100D01*
X9405900Y-16061200D02*
X9405900Y-15618000D01*
X9405900Y-15342000D02*
X9405900Y-14898800D01*
X9401900Y-16059500D02*
X9401900Y-15618000D01*
X9401900Y-15342000D02*
X9401900Y-14900500D01*
X9397900Y-16057800D02*
X9397900Y-15618000D01*
X9397900Y-15342000D02*
X9397900Y-14902200D01*
X9393900Y-16056100D02*
X9393900Y-15618000D01*
X9393900Y-15342000D02*
X9393900Y-14903900D01*
X9389900Y-16054300D02*
X9389900Y-15618000D01*
X9389900Y-15342000D02*
X9389900Y-14905700D01*
X9385900Y-16052500D02*
X9385900Y-15618000D01*
X9385900Y-15342000D02*
X9385900Y-14907500D01*
X9381900Y-16050600D02*
X9381900Y-15618000D01*
X9381900Y-15342000D02*
X9381900Y-14909400D01*
X9377900Y-16048700D02*
X9377900Y-15618000D01*
X9377900Y-15342000D02*
X9377900Y-14911300D01*
X9373900Y-16046800D02*
X9373900Y-15618000D01*
X9373900Y-15342000D02*
X9373900Y-14913200D01*
X9369900Y-16044900D02*
X9369900Y-15618000D01*
X9369900Y-15342000D02*
X9369900Y-14915100D01*
X9365900Y-16042900D02*
X9365900Y-15618000D01*
X9365900Y-15342000D02*
X9365900Y-14917100D01*
X9361900Y-16040900D02*
X9361900Y-15618000D01*
X9361900Y-15342000D02*
X9361900Y-14919100D01*
X9357900Y-16038800D02*
X9357900Y-15618000D01*
X9357900Y-15342000D02*
X9357900Y-14921200D01*
X9353900Y-16036700D02*
X9353900Y-15618000D01*
X9353900Y-15342000D02*
X9353900Y-14923300D01*
X9349900Y-16034600D02*
X9349900Y-15618000D01*
X9349900Y-15342000D02*
X9349900Y-14925400D01*
X9345900Y-16032400D02*
X9345900Y-15618000D01*
X9345900Y-15342000D02*
X9345900Y-14927600D01*
X9341900Y-16030200D02*
X9341900Y-15618000D01*
X9341900Y-15342000D02*
X9341900Y-14929800D01*
X9337900Y-16028000D02*
X9337900Y-15618000D01*
X9337900Y-15342000D02*
X9337900Y-14932000D01*
X9333900Y-16025700D02*
X9333900Y-15618000D01*
X9333900Y-15342000D02*
X9333900Y-14934300D01*
X9329900Y-16023400D02*
X9329900Y-15618000D01*
X9329900Y-15342000D02*
X9329900Y-14936600D01*
X9325900Y-16021000D02*
X9325900Y-15618000D01*
X9325900Y-15342000D02*
X9325900Y-14939000D01*
X9321900Y-16018600D02*
X9321900Y-15618000D01*
X9321900Y-15342000D02*
X9321900Y-14941400D01*
X9317900Y-16016200D02*
X9317900Y-15618000D01*
X9317900Y-15342000D02*
X9317900Y-14943800D01*
X9313900Y-16013700D02*
X9313900Y-15618000D01*
X9313900Y-15342000D02*
X9313900Y-14946300D01*
X9309900Y-16011200D02*
X9309900Y-15618000D01*
X9309900Y-15342000D02*
X9309900Y-14948800D01*
X9305900Y-16008600D02*
X9305900Y-15618000D01*
X9305900Y-15342000D02*
X9305900Y-14951400D01*
X9301900Y-16006000D02*
X9301900Y-15618000D01*
X9301900Y-15342000D02*
X9301900Y-14954000D01*
X9297900Y-16003400D02*
X9297900Y-15618000D01*
X9297900Y-15342000D02*
X9297900Y-14956600D01*
X9293900Y-16000700D02*
X9293900Y-15618000D01*
X9293900Y-15342000D02*
X9293900Y-14959300D01*
X9289900Y-15997900D02*
X9289900Y-15618000D01*
X9289900Y-15342000D02*
X9289900Y-14962100D01*
X9285900Y-15995100D02*
X9285900Y-15618000D01*
X9285900Y-15342000D02*
X9285900Y-14964900D01*
X9281900Y-15992300D02*
X9281900Y-15618000D01*
X9281900Y-15342000D02*
X9281900Y-14967700D01*
X9277900Y-15989400D02*
X9277900Y-15618000D01*
X9277900Y-15342000D02*
X9277900Y-14970600D01*
X9273900Y-15986500D02*
X9273900Y-15618000D01*
X9273900Y-15342000D02*
X9273900Y-14973500D01*
X9269900Y-15983500D02*
X9269900Y-15618000D01*
X9269900Y-15342000D02*
X9269900Y-14976500D01*
X9265900Y-15980500D02*
X9265900Y-15618000D01*
X9265900Y-15342000D02*
X9265900Y-14979500D01*
X9261900Y-15977500D02*
X9261900Y-14982500D01*
X9257900Y-15974300D02*
X9257900Y-14985700D01*
X9253900Y-15971200D02*
X9253900Y-14988800D01*
X9249900Y-15967900D02*
X9249900Y-14992100D01*
X9245900Y-15964700D02*
X9245900Y-14995300D01*
X9241900Y-15961300D02*
X9241900Y-14998700D01*
X9237900Y-15957900D02*
X9237900Y-15002100D01*
X9233900Y-15954500D02*
X9233900Y-15005500D01*
X9229900Y-15951000D02*
X9229900Y-15009000D01*
X9225900Y-15947400D02*
X9225900Y-15012600D01*
X9221900Y-15943800D02*
X9221900Y-15016200D01*
X9217900Y-15940100D02*
X9217900Y-15019900D01*
X9213900Y-15936300D02*
X9213900Y-15023700D01*
X9209900Y-15932500D02*
X9209900Y-15027500D01*
X9205900Y-15928600D02*
X9205900Y-15031400D01*
X9201900Y-15924700D02*
X9201900Y-15035300D01*
X9197900Y-15920600D02*
X9197900Y-15039400D01*
X9193900Y-15916500D02*
X9193900Y-15043500D01*
X9189900Y-15912300D02*
X9189900Y-15047700D01*
X9185900Y-15908100D02*
X9185900Y-15051900D01*
X9181900Y-15903800D02*
X9181900Y-15056200D01*
X9177900Y-15899300D02*
X9177900Y-15060700D01*
X9173900Y-15894800D02*
X9173900Y-15065200D01*
X9169900Y-15890200D02*
X9169900Y-15069800D01*
X9165900Y-15885600D02*
X9165900Y-15074400D01*
X9161900Y-15880800D02*
X9161900Y-15079200D01*
X9157900Y-15875900D02*
X9157900Y-15084100D01*
X9153900Y-15870900D02*
X9153900Y-15089100D01*
X9149900Y-15865900D02*
X9149900Y-15094100D01*
X9145900Y-15860700D02*
X9145900Y-15099300D01*
X9141900Y-15855400D02*
X9141900Y-15104600D01*
X9137900Y-15850000D02*
X9137900Y-15110000D01*
X9133900Y-15844400D02*
X9133900Y-15115600D01*
X9129900Y-15838800D02*
X9129900Y-15121200D01*
X9125900Y-15833000D02*
X9125900Y-15127000D01*
X9121900Y-15827000D02*
X9121900Y-15133000D01*
X9117900Y-15820900D02*
X9117900Y-15139100D01*
X9113900Y-15814700D02*
X9113900Y-15145300D01*
X9109900Y-15808200D02*
X9109900Y-15151800D01*
X9105900Y-15801700D02*
X9105900Y-15158300D01*
X9101900Y-15794900D02*
X9101900Y-15165100D01*
X9097900Y-15787900D02*
X9097900Y-15172100D01*
X9093900Y-15780700D02*
X9093900Y-15179300D01*
X9089900Y-15773300D02*
X9089900Y-15186700D01*
X9085900Y-15765600D02*
X9085900Y-15194400D01*
X9081900Y-15757700D02*
X9081900Y-15202300D01*
X9077900Y-15749500D02*
X9077900Y-15210500D01*
X9073900Y-15741000D02*
X9073900Y-15219000D01*
X9069900Y-15732100D02*
X9069900Y-15227900D01*
X9065900Y-15722800D02*
X9065900Y-15237200D01*
X9061900Y-15713100D02*
X9061900Y-15246900D01*
X9057900Y-15703000D02*
X9057900Y-15257000D01*
X9053900Y-15692200D02*
X9053900Y-15267800D01*
X9049900Y-15680900D02*
X9049900Y-15279100D01*
X9045900Y-15668800D02*
X9045900Y-15291200D01*
X9041900Y-15655700D02*
X9041900Y-15304300D01*
X9037900Y-15641600D02*
X9037900Y-15318400D01*
X9033900Y-15626000D02*
X9033900Y-15334000D01*
X9029900Y-15608500D02*
X9029900Y-15351500D01*
X9025900Y-15588200D02*
X9025900Y-15371800D01*
X9021900Y-15563100D02*
X9021900Y-15396900D01*
X9017900Y-15526400D02*
X9017900Y-15433600D01*
X10220000Y-15480000D02*
X10040000Y-15480000D01*
X10130000Y-15570000D02*
X10130000Y-15390000D01*
X15867000Y-15217000D02*
X16133000Y-15217000D01*
X15867000Y-8607000D02*
X15867000Y-15217000D01*
X16133000Y-8607000D02*
X16133000Y-15217000D01*
X15867000Y-8607000D02*
X16133000Y-8607000D01*
X15867000Y-8480000D02*
X15867000Y-8347000D01*
X15867000Y-8347000D02*
X16000000Y-8347000D01*
X8135000Y-6530000D02*
X8135000Y-7790000D01*
X8135000Y-7790000D02*
X9170000Y-7790000D01*
X9170000Y-7790000D02*
X9170000Y-7695000D01*
X9170000Y-7695000D02*
X9220000Y-7720000D01*
X9220000Y-7720000D02*
X9220000Y-7530000D01*
X9220000Y-7530000D02*
X9220000Y-7525000D01*
X9220000Y-7525000D02*
X9170000Y-7550000D01*
X9170000Y-7550000D02*
X9170000Y-7010000D01*
X9170000Y-7010000D02*
X9220000Y-7040000D01*
X9220000Y-7040000D02*
X9220000Y-6530000D01*
X9220000Y-6530000D02*
X8135000Y-6530000D01*
X13039000Y-12928000D02*
X13039000Y-11904000D01*
X13988000Y-12928000D02*
X13988000Y-11904000D01*
X13039000Y-12928000D02*
X13988000Y-12928000D01*
X13039000Y-11904000D02*
X13988000Y-11904000D01*
X14628000Y-12928000D02*
X14628000Y-12808000D01*
X14628000Y-12688100D02*
X14628000Y-12568000D01*
X14628000Y-12448000D02*
X14628000Y-12328000D01*
X14628000Y-12208000D02*
X14628000Y-12088000D01*
X14628000Y-11968000D02*
X14628000Y-11904000D01*
X14012000Y-12928000D02*
X14132000Y-12928000D01*
X14252000Y-12928000D02*
X14372000Y-12928000D01*
X14492000Y-12928000D02*
X14612000Y-12928000D01*
X14012000Y-11904000D02*
X14132000Y-11904000D01*
X14252000Y-11904000D02*
X14372000Y-11904000D01*
X14492000Y-11904000D02*
X14612000Y-11904000D01*
X12775000Y-12670000D02*
X13039000Y-12670000D01*
X12776600Y-12416000D02*
X13039000Y-12416000D01*
X12776600Y-12162000D02*
X13039000Y-12162000D01*
X11591000Y-10252000D02*
X11591000Y-11276000D01*
X10642000Y-10252000D02*
X10642000Y-11276000D01*
X11591000Y-10252000D02*
X10642000Y-10252000D01*
X11591000Y-11276000D02*
X10642000Y-11276000D01*
X10002000Y-10252000D02*
X10002000Y-10372000D01*
X10002000Y-10491900D02*
X10002000Y-10612000D01*
X10002000Y-10732000D02*
X10002000Y-10852000D01*
X10002000Y-10972000D02*
X10002000Y-11092000D01*
X10002000Y-11212000D02*
X10002000Y-11276000D01*
X10618000Y-10252000D02*
X10498000Y-10252000D01*
X10378000Y-10252000D02*
X10258000Y-10252000D01*
X10138000Y-10252000D02*
X10018000Y-10252000D01*
X10618000Y-11276000D02*
X10498000Y-11276000D01*
X10378000Y-11276000D02*
X10258000Y-11276000D01*
X10138000Y-11276000D02*
X10018000Y-11276000D01*
X11855000Y-10510000D02*
X11591000Y-10510000D01*
X11853400Y-10764000D02*
X11591000Y-10764000D01*
X11853400Y-11018000D02*
X11591000Y-11018000D01*
X11591000Y-11652000D02*
X11591000Y-12676000D01*
X10642000Y-11652000D02*
X10642000Y-12676000D01*
X11591000Y-11652000D02*
X10642000Y-11652000D01*
X11591000Y-12676000D02*
X10642000Y-12676000D01*
X10002000Y-11652000D02*
X10002000Y-11772000D01*
X10002000Y-11891900D02*
X10002000Y-12012000D01*
X10002000Y-12132000D02*
X10002000Y-12252000D01*
X10002000Y-12372000D02*
X10002000Y-12492000D01*
X10002000Y-12612000D02*
X10002000Y-12676000D01*
X10618000Y-11652000D02*
X10498000Y-11652000D01*
X10378000Y-11652000D02*
X10258000Y-11652000D01*
X10138000Y-11652000D02*
X10018000Y-11652000D01*
X10618000Y-12676000D02*
X10498000Y-12676000D01*
X10378000Y-12676000D02*
X10258000Y-12676000D01*
X10138000Y-12676000D02*
X10018000Y-12676000D01*
X11855000Y-11910000D02*
X11591000Y-11910000D01*
X11853400Y-12164000D02*
X11591000Y-12164000D01*
X11853400Y-12418000D02*
X11591000Y-12418000D01*
X11591000Y-8852000D02*
X11591000Y-9876000D01*
X10642000Y-8852000D02*
X10642000Y-9876000D01*
X11591000Y-8852000D02*
X10642000Y-8852000D01*
X11591000Y-9876000D02*
X10642000Y-9876000D01*
X10002000Y-8852000D02*
X10002000Y-8972000D01*
X10002000Y-9091900D02*
X10002000Y-9212000D01*
X10002000Y-9332000D02*
X10002000Y-9452000D01*
X10002000Y-9572000D02*
X10002000Y-9692000D01*
X10002000Y-9812000D02*
X10002000Y-9876000D01*
X10618000Y-8852000D02*
X10498000Y-8852000D01*
X10378000Y-8852000D02*
X10258000Y-8852000D01*
X10138000Y-8852000D02*
X10018000Y-8852000D01*
X10618000Y-9876000D02*
X10498000Y-9876000D01*
X10378000Y-9876000D02*
X10258000Y-9876000D01*
X10138000Y-9876000D02*
X10018000Y-9876000D01*
X11855000Y-9110000D02*
X11591000Y-9110000D01*
X11853400Y-9364000D02*
X11591000Y-9364000D01*
X11853400Y-9618000D02*
X11591000Y-9618000D01*
X13039000Y-10128000D02*
X13039000Y-9104000D01*
X13988000Y-10128000D02*
X13988000Y-9104000D01*
X13039000Y-10128000D02*
X13988000Y-10128000D01*
X13039000Y-9104000D02*
X13988000Y-9104000D01*
X14628000Y-10128000D02*
X14628000Y-10008000D01*
X14628000Y-9888100D02*
X14628000Y-9768000D01*
X14628000Y-9648000D02*
X14628000Y-9528000D01*
X14628000Y-9408000D02*
X14628000Y-9288000D01*
X14628000Y-9168000D02*
X14628000Y-9104000D01*
X14012000Y-10128000D02*
X14132000Y-10128000D01*
X14252000Y-10128000D02*
X14372000Y-10128000D01*
X14492000Y-10128000D02*
X14612000Y-10128000D01*
X14012000Y-9104000D02*
X14132000Y-9104000D01*
X14252000Y-9104000D02*
X14372000Y-9104000D01*
X14492000Y-9104000D02*
X14612000Y-9104000D01*
X12775000Y-9870000D02*
X13039000Y-9870000D01*
X12776600Y-9616000D02*
X13039000Y-9616000D01*
X12776600Y-9362000D02*
X13039000Y-9362000D01*
D10*
X7830000Y-15917500D02*
G75*
G03X7830000Y-15917500I0J0D01*
G01*
X20540000Y-15790000D02*
G75*
G03X20540000Y-15790000I0J0D01*
G01*
X20040000Y-15790000D02*
G75*
G03X20040000Y-15790000I0J0D01*
G01*
X15015000Y-11795000D02*
G75*
G03X15015000Y-11795000I0J0D01*
G01*
D13*
X14221000Y-11185000D02*
X14221000Y-11215000D01*
X14079000Y-11185000D02*
X14079000Y-11215000D01*
X14099000Y-14105000D02*
X14099000Y-14075000D01*
X14241000Y-14105000D02*
X14241000Y-14075000D01*
X13039000Y-11528000D02*
X13039000Y-10504000D01*
X13988000Y-11528000D02*
X13988000Y-10504000D01*
X13039000Y-11528000D02*
X13988000Y-11528000D01*
X13039000Y-10504000D02*
X13988000Y-10504000D01*
X14628000Y-11528000D02*
X14628000Y-11408000D01*
X14628000Y-11288100D02*
X14628000Y-11168000D01*
X14628000Y-11048000D02*
X14628000Y-10928000D01*
X14628000Y-10808000D02*
X14628000Y-10688000D01*
X14628000Y-10568000D02*
X14628000Y-10504000D01*
X14012000Y-11528000D02*
X14132000Y-11528000D01*
X14252000Y-11528000D02*
X14372000Y-11528000D01*
X14492000Y-11528000D02*
X14612000Y-11528000D01*
X14012000Y-10504000D02*
X14132000Y-10504000D01*
X14252000Y-10504000D02*
X14372000Y-10504000D01*
X14492000Y-10504000D02*
X14612000Y-10504000D01*
X12775000Y-11270000D02*
X13039000Y-11270000D01*
X12776600Y-11016000D02*
X13039000Y-11016000D01*
X12776600Y-10762000D02*
X13039000Y-10762000D01*
X11591000Y-13052000D02*
X11591000Y-14076000D01*
X10642000Y-13052000D02*
X10642000Y-14076000D01*
X11591000Y-13052000D02*
X10642000Y-13052000D01*
X11591000Y-14076000D02*
X10642000Y-14076000D01*
X10002000Y-13052000D02*
X10002000Y-13172000D01*
X10002000Y-13291900D02*
X10002000Y-13412000D01*
X10002000Y-13532000D02*
X10002000Y-13652000D01*
X10002000Y-13772000D02*
X10002000Y-13892000D01*
X10002000Y-14012000D02*
X10002000Y-14076000D01*
X10618000Y-13052000D02*
X10498000Y-13052000D01*
X10378000Y-13052000D02*
X10258000Y-13052000D01*
X10138000Y-13052000D02*
X10018000Y-13052000D01*
X10618000Y-14076000D02*
X10498000Y-14076000D01*
X10378000Y-14076000D02*
X10258000Y-14076000D01*
X10138000Y-14076000D02*
X10018000Y-14076000D01*
X11855000Y-13310000D02*
X11591000Y-13310000D01*
X11853400Y-13564000D02*
X11591000Y-13564000D01*
X11853400Y-13818000D02*
X11591000Y-13818000D01*
X13039000Y-14328000D02*
X13039000Y-13304000D01*
X13988000Y-14328000D02*
X13988000Y-13304000D01*
X13039000Y-14328000D02*
X13988000Y-14328000D01*
X13039000Y-13304000D02*
X13988000Y-13304000D01*
X14628000Y-14328000D02*
X14628000Y-14208000D01*
X14628000Y-14088100D02*
X14628000Y-13968000D01*
X14628000Y-13848000D02*
X14628000Y-13728000D01*
X14628000Y-13608000D02*
X14628000Y-13488000D01*
X14628000Y-13368000D02*
X14628000Y-13304000D01*
X14012000Y-14328000D02*
X14132000Y-14328000D01*
X14252000Y-14328000D02*
X14372000Y-14328000D01*
X14492000Y-14328000D02*
X14612000Y-14328000D01*
X14012000Y-13304000D02*
X14132000Y-13304000D01*
X14252000Y-13304000D02*
X14372000Y-13304000D01*
X14492000Y-13304000D02*
X14612000Y-13304000D01*
X12775000Y-14070000D02*
X13039000Y-14070000D01*
X12776600Y-13816000D02*
X13039000Y-13816000D01*
X12776600Y-13562000D02*
X13039000Y-13562000D01*
X12835000Y-16090000D02*
X12835000Y-14830000D01*
X12835000Y-14830000D02*
X11800000Y-14830000D01*
X11800000Y-14830000D02*
X11800000Y-14925000D01*
X11800000Y-14925000D02*
X11750000Y-14900000D01*
X11750000Y-14900000D02*
X11750000Y-15090000D01*
X11750000Y-15090000D02*
X11750000Y-15095000D01*
X11750000Y-15095000D02*
X11800000Y-15070000D01*
X11800000Y-15070000D02*
X11800000Y-15610000D01*
X11800000Y-15610000D02*
X11750000Y-15580000D01*
X11750000Y-15580000D02*
X11750000Y-16090000D01*
X11750000Y-16090000D02*
X12835000Y-16090000D01*
X15775000Y-16100000D02*
X15775000Y-14840000D01*
X15775000Y-14840000D02*
X14740000Y-14840000D01*
X14740000Y-14840000D02*
X14740000Y-14935000D01*
X14740000Y-14935000D02*
X14690000Y-14910000D01*
X14690000Y-14910000D02*
X14690000Y-15100000D01*
X14690000Y-15100000D02*
X14690000Y-15105000D01*
X14690000Y-15105000D02*
X14740000Y-15080000D01*
X14740000Y-15080000D02*
X14740000Y-15620000D01*
X14740000Y-15620000D02*
X14690000Y-15590000D01*
X14690000Y-15590000D02*
X14690000Y-16100000D01*
X14690000Y-16100000D02*
X15775000Y-16100000D01*
X20439000Y-15217000D02*
X20705000Y-15217000D01*
X20439000Y-8607000D02*
X20439000Y-15217000D01*
X20705000Y-8607000D02*
X20705000Y-15217000D01*
X20439000Y-8607000D02*
X20705000Y-8607000D01*
X20439000Y-8480000D02*
X20439000Y-8347000D01*
X20439000Y-8347000D02*
X20572000Y-8347000D01*
X9349000Y-9360000D02*
G75*
G03X9349000Y-9360000I-1109000J0D01*
G01*
X8240000Y-10465000D02*
X8240000Y-8255000D01*
X8236000Y-10465000D02*
X8236000Y-8255000D01*
X8232000Y-10465000D02*
X8232000Y-8255000D01*
X8228000Y-10465000D02*
X8228000Y-8255000D01*
X8224000Y-10464900D02*
X8224000Y-8255100D01*
X8220000Y-10464900D02*
X8220000Y-8255100D01*
X8216000Y-10464800D02*
X8216000Y-8255200D01*
X8212000Y-10464700D02*
X8212000Y-8255300D01*
X8208000Y-10464600D02*
X8208000Y-8255400D01*
X8204000Y-10464500D02*
X8204000Y-8255500D01*
X8200000Y-10464300D02*
X8200000Y-8255700D01*
X8196000Y-10464200D02*
X8196000Y-8255800D01*
X8192000Y-10464000D02*
X8192000Y-8256000D01*
X8188000Y-10463800D02*
X8188000Y-8256200D01*
X8184000Y-10463600D02*
X8184000Y-8256400D01*
X8180000Y-10463400D02*
X8180000Y-8256600D01*
X8176000Y-10463200D02*
X8176000Y-8256800D01*
X8172000Y-10463000D02*
X8172000Y-8257000D01*
X8167900Y-10462700D02*
X8167900Y-8257300D01*
X8163900Y-10462400D02*
X8163900Y-8257600D01*
X8159900Y-10462200D02*
X8159900Y-8257800D01*
X8155900Y-10461900D02*
X8155900Y-8258100D01*
X8151900Y-10461600D02*
X8151900Y-8258400D01*
X8147900Y-10461200D02*
X8147900Y-8258800D01*
X8143900Y-10460900D02*
X8143900Y-8259100D01*
X8139900Y-10460500D02*
X8139900Y-8259500D01*
X8135900Y-10460200D02*
X8135900Y-8259800D01*
X8131900Y-10459800D02*
X8131900Y-8260200D01*
X8127900Y-10459400D02*
X8127900Y-8260600D01*
X8123900Y-10459000D02*
X8123900Y-8261000D01*
X8119900Y-10458500D02*
X8119900Y-8261500D01*
X8115900Y-10458100D02*
X8115900Y-8261900D01*
X8111900Y-10457600D02*
X8111900Y-8262400D01*
X8107900Y-10457200D02*
X8107900Y-8262800D01*
X8103900Y-10456700D02*
X8103900Y-8263300D01*
X8099900Y-10456200D02*
X8099900Y-8263800D01*
X8095900Y-10455700D02*
X8095900Y-8264300D01*
X8091900Y-10455100D02*
X8091900Y-8264900D01*
X8087900Y-10454600D02*
X8087900Y-8265400D01*
X8083900Y-10454000D02*
X8083900Y-8266000D01*
X8079900Y-10453400D02*
X8079900Y-8266600D01*
X8075900Y-10452900D02*
X8075900Y-8267100D01*
X8071900Y-10452300D02*
X8071900Y-8267700D01*
X8067900Y-10451600D02*
X8067900Y-8268400D01*
X8063900Y-10451000D02*
X8063900Y-8269000D01*
X8059900Y-10450300D02*
X8059900Y-8269700D01*
X8055900Y-10449700D02*
X8055900Y-8270300D01*
X8051900Y-10449000D02*
X8051900Y-8271000D01*
X8047900Y-10448300D02*
X8047900Y-8271700D01*
X8043900Y-10447600D02*
X8043900Y-8272400D01*
X8039900Y-10446900D02*
X8039900Y-8273100D01*
X8035900Y-10446100D02*
X8035900Y-8273900D01*
X8031900Y-10445400D02*
X8031900Y-8274600D01*
X8027900Y-10444600D02*
X8027900Y-8275400D01*
X8023900Y-10443800D02*
X8023900Y-8276200D01*
X8019900Y-10443000D02*
X8019900Y-8277000D01*
X8015900Y-10442200D02*
X8015900Y-8277800D01*
X8011900Y-10441400D02*
X8011900Y-8278600D01*
X8007900Y-10440500D02*
X8007900Y-8279500D01*
X8003900Y-10439600D02*
X8003900Y-8280400D01*
X7999900Y-10438800D02*
X7999900Y-8281200D01*
X7995900Y-10437900D02*
X7995900Y-8282100D01*
X7991900Y-10437000D02*
X7991900Y-8283000D01*
X7987900Y-10436000D02*
X7987900Y-8284000D01*
X7983900Y-10435100D02*
X7983900Y-8284900D01*
X7979900Y-10434100D02*
X7979900Y-8285900D01*
X7975900Y-10433200D02*
X7975900Y-8286800D01*
X7971900Y-10432200D02*
X7971900Y-8287800D01*
X7967900Y-10431200D02*
X7967900Y-8288800D01*
X7963900Y-10430200D02*
X7963900Y-8289800D01*
X7959900Y-10429100D02*
X7959900Y-8290900D01*
X7955900Y-10428100D02*
X7955900Y-9578000D01*
X7955900Y-9142000D02*
X7955900Y-8291900D01*
X7951900Y-10427000D02*
X7951900Y-9578000D01*
X7951900Y-9142000D02*
X7951900Y-8293000D01*
X7947900Y-10425900D02*
X7947900Y-9578000D01*
X7947900Y-9142000D02*
X7947900Y-8294100D01*
X7943900Y-10424800D02*
X7943900Y-9578000D01*
X7943900Y-9142000D02*
X7943900Y-8295200D01*
X7939900Y-10423700D02*
X7939900Y-9578000D01*
X7939900Y-9142000D02*
X7939900Y-8296300D01*
X7935900Y-10422600D02*
X7935900Y-9578000D01*
X7935900Y-9142000D02*
X7935900Y-8297400D01*
X7931900Y-10421400D02*
X7931900Y-9578000D01*
X7931900Y-9142000D02*
X7931900Y-8298600D01*
X7927900Y-10420300D02*
X7927900Y-9578000D01*
X7927900Y-9142000D02*
X7927900Y-8299700D01*
X7923900Y-10419100D02*
X7923900Y-9578000D01*
X7923900Y-9142000D02*
X7923900Y-8300900D01*
X7919900Y-10417900D02*
X7919900Y-9578000D01*
X7919900Y-9142000D02*
X7919900Y-8302100D01*
X7915900Y-10416700D02*
X7915900Y-9578000D01*
X7915900Y-9142000D02*
X7915900Y-8303300D01*
X7911900Y-10415400D02*
X7911900Y-9578000D01*
X7911900Y-9142000D02*
X7911900Y-8304600D01*
X7907900Y-10414200D02*
X7907900Y-9578000D01*
X7907900Y-9142000D02*
X7907900Y-8305800D01*
X7903900Y-10412900D02*
X7903900Y-9578000D01*
X7903900Y-9142000D02*
X7903900Y-8307100D01*
X7899900Y-10411600D02*
X7899900Y-9578000D01*
X7899900Y-9142000D02*
X7899900Y-8308400D01*
X7895900Y-10410300D02*
X7895900Y-9578000D01*
X7895900Y-9142000D02*
X7895900Y-8309700D01*
X7891900Y-10409000D02*
X7891900Y-9578000D01*
X7891900Y-9142000D02*
X7891900Y-8311000D01*
X7887900Y-10407700D02*
X7887900Y-9578000D01*
X7887900Y-9142000D02*
X7887900Y-8312300D01*
X7883900Y-10406400D02*
X7883900Y-9578000D01*
X7883900Y-9142000D02*
X7883900Y-8313600D01*
X7879900Y-10405000D02*
X7879900Y-9578000D01*
X7879900Y-9142000D02*
X7879900Y-8315000D01*
X7875900Y-10403600D02*
X7875900Y-9578000D01*
X7875900Y-9142000D02*
X7875900Y-8316400D01*
X7871900Y-10402200D02*
X7871900Y-9578000D01*
X7871900Y-9142000D02*
X7871900Y-8317800D01*
X7867900Y-10400800D02*
X7867900Y-9578000D01*
X7867900Y-9142000D02*
X7867900Y-8319200D01*
X7863900Y-10399400D02*
X7863900Y-9578000D01*
X7863900Y-9142000D02*
X7863900Y-8320600D01*
X7859900Y-10397900D02*
X7859900Y-9578000D01*
X7859900Y-9142000D02*
X7859900Y-8322100D01*
X7855900Y-10396400D02*
X7855900Y-9578000D01*
X7855900Y-9142000D02*
X7855900Y-8323600D01*
X7851900Y-10395000D02*
X7851900Y-9578000D01*
X7851900Y-9142000D02*
X7851900Y-8325000D01*
X7847900Y-10393500D02*
X7847900Y-9578000D01*
X7847900Y-9142000D02*
X7847900Y-8326500D01*
X7843900Y-10391900D02*
X7843900Y-9578000D01*
X7843900Y-9142000D02*
X7843900Y-8328100D01*
X7839900Y-10390400D02*
X7839900Y-9578000D01*
X7839900Y-9142000D02*
X7839900Y-8329600D01*
X7835900Y-10388800D02*
X7835900Y-9578000D01*
X7835900Y-9142000D02*
X7835900Y-8331200D01*
X7831900Y-10387300D02*
X7831900Y-9578000D01*
X7831900Y-9142000D02*
X7831900Y-8332700D01*
X7827900Y-10385700D02*
X7827900Y-9578000D01*
X7827900Y-9142000D02*
X7827900Y-8334300D01*
X7823900Y-10384100D02*
X7823900Y-9578000D01*
X7823900Y-9142000D02*
X7823900Y-8335900D01*
X7819900Y-10382400D02*
X7819900Y-9578000D01*
X7819900Y-9142000D02*
X7819900Y-8337600D01*
X7815900Y-10380800D02*
X7815900Y-9578000D01*
X7815900Y-9142000D02*
X7815900Y-8339200D01*
X7811900Y-10379100D02*
X7811900Y-9578000D01*
X7811900Y-9142000D02*
X7811900Y-8340900D01*
X7807900Y-10377400D02*
X7807900Y-9578000D01*
X7807900Y-9142000D02*
X7807900Y-8342600D01*
X7803900Y-10375700D02*
X7803900Y-9578000D01*
X7803900Y-9142000D02*
X7803900Y-8344300D01*
X7799900Y-10374000D02*
X7799900Y-9578000D01*
X7799900Y-9142000D02*
X7799900Y-8346000D01*
X7795900Y-10372300D02*
X7795900Y-9578000D01*
X7795900Y-9142000D02*
X7795900Y-8347700D01*
X7791900Y-10370500D02*
X7791900Y-9578000D01*
X7791900Y-9142000D02*
X7791900Y-8349500D01*
X7787900Y-10368800D02*
X7787900Y-9578000D01*
X7787900Y-9142000D02*
X7787900Y-8351200D01*
X7783900Y-10367000D02*
X7783900Y-9578000D01*
X7783900Y-9142000D02*
X7783900Y-8353000D01*
X7779900Y-10365100D02*
X7779900Y-9578000D01*
X7779900Y-9142000D02*
X7779900Y-8354900D01*
X7775900Y-10363300D02*
X7775900Y-9578000D01*
X7775900Y-9142000D02*
X7775900Y-8356700D01*
X7771900Y-10361500D02*
X7771900Y-9578000D01*
X7771900Y-9142000D02*
X7771900Y-8358500D01*
X7767900Y-10359600D02*
X7767900Y-9578000D01*
X7767900Y-9142000D02*
X7767900Y-8360400D01*
X7763900Y-10357700D02*
X7763900Y-9578000D01*
X7763900Y-9142000D02*
X7763900Y-8362300D01*
X7759900Y-10355800D02*
X7759900Y-9578000D01*
X7759900Y-9142000D02*
X7759900Y-8364200D01*
X7755900Y-10353900D02*
X7755900Y-9578000D01*
X7755900Y-9142000D02*
X7755900Y-8366100D01*
X7751900Y-10351900D02*
X7751900Y-9578000D01*
X7751900Y-9142000D02*
X7751900Y-8368100D01*
X7747900Y-10349900D02*
X7747900Y-9578000D01*
X7747900Y-9142000D02*
X7747900Y-8370100D01*
X7743900Y-10347900D02*
X7743900Y-9578000D01*
X7743900Y-9142000D02*
X7743900Y-8372100D01*
X7739900Y-10345900D02*
X7739900Y-9578000D01*
X7739900Y-9142000D02*
X7739900Y-8374100D01*
X7735900Y-10343900D02*
X7735900Y-9578000D01*
X7735900Y-9142000D02*
X7735900Y-8376100D01*
X7731900Y-10341900D02*
X7731900Y-9578000D01*
X7731900Y-9142000D02*
X7731900Y-8378100D01*
X7727900Y-10339800D02*
X7727900Y-9578000D01*
X7727900Y-9142000D02*
X7727900Y-8380200D01*
X7723900Y-10337700D02*
X7723900Y-9578000D01*
X7723900Y-9142000D02*
X7723900Y-8382300D01*
X7719900Y-10335600D02*
X7719900Y-9578000D01*
X7719900Y-9142000D02*
X7719900Y-8384400D01*
X7715900Y-10333400D02*
X7715900Y-9578000D01*
X7715900Y-9142000D02*
X7715900Y-8386600D01*
X7711900Y-10331300D02*
X7711900Y-9578000D01*
X7711900Y-9142000D02*
X7711900Y-8388700D01*
X7707900Y-10329100D02*
X7707900Y-9578000D01*
X7707900Y-9142000D02*
X7707900Y-8390900D01*
X7703900Y-10326900D02*
X7703900Y-9578000D01*
X7703900Y-9142000D02*
X7703900Y-8393100D01*
X7699900Y-10324700D02*
X7699900Y-9578000D01*
X7699900Y-9142000D02*
X7699900Y-8395300D01*
X7695900Y-10322500D02*
X7695900Y-9578000D01*
X7695900Y-9142000D02*
X7695900Y-8397500D01*
X7691900Y-10320200D02*
X7691900Y-9578000D01*
X7691900Y-9142000D02*
X7691900Y-8399800D01*
X7687900Y-10317900D02*
X7687900Y-9578000D01*
X7687900Y-9142000D02*
X7687900Y-8402100D01*
X7683900Y-10315600D02*
X7683900Y-9578000D01*
X7683900Y-9142000D02*
X7683900Y-8404400D01*
X7679900Y-10313300D02*
X7679900Y-9578000D01*
X7679900Y-9142000D02*
X7679900Y-8406700D01*
X7675900Y-10310900D02*
X7675900Y-9578000D01*
X7675900Y-9142000D02*
X7675900Y-8409100D01*
X7671900Y-10308600D02*
X7671900Y-9578000D01*
X7671900Y-9142000D02*
X7671900Y-8411400D01*
X7667900Y-10306200D02*
X7667900Y-9578000D01*
X7667900Y-9142000D02*
X7667900Y-8413800D01*
X7663900Y-10303700D02*
X7663900Y-9578000D01*
X7663900Y-9142000D02*
X7663900Y-8416300D01*
X7659900Y-10301300D02*
X7659900Y-9578000D01*
X7659900Y-9142000D02*
X7659900Y-8418700D01*
X7655900Y-10298800D02*
X7655900Y-9578000D01*
X7655900Y-9142000D02*
X7655900Y-8421200D01*
X7651900Y-10296300D02*
X7651900Y-9578000D01*
X7651900Y-9142000D02*
X7651900Y-8423700D01*
X7647900Y-10293800D02*
X7647900Y-9578000D01*
X7647900Y-9142000D02*
X7647900Y-8426200D01*
X7643900Y-10291300D02*
X7643900Y-9578000D01*
X7643900Y-9142000D02*
X7643900Y-8428700D01*
X7639900Y-10288700D02*
X7639900Y-9578000D01*
X7639900Y-9142000D02*
X7639900Y-8431300D01*
X7635900Y-10286100D02*
X7635900Y-9578000D01*
X7635900Y-9142000D02*
X7635900Y-8433900D01*
X7631900Y-10283500D02*
X7631900Y-9578000D01*
X7631900Y-9142000D02*
X7631900Y-8436500D01*
X7627900Y-10280900D02*
X7627900Y-9578000D01*
X7627900Y-9142000D02*
X7627900Y-8439100D01*
X7623900Y-10278200D02*
X7623900Y-9578000D01*
X7623900Y-9142000D02*
X7623900Y-8441800D01*
X7619900Y-10275600D02*
X7619900Y-9578000D01*
X7619900Y-9142000D02*
X7619900Y-8444400D01*
X7615900Y-10272800D02*
X7615900Y-9578000D01*
X7615900Y-9142000D02*
X7615900Y-8447200D01*
X7611900Y-10270100D02*
X7611900Y-9578000D01*
X7611900Y-9142000D02*
X7611900Y-8449900D01*
X7607900Y-10267300D02*
X7607900Y-9578000D01*
X7607900Y-9142000D02*
X7607900Y-8452700D01*
X7603900Y-10264600D02*
X7603900Y-9578000D01*
X7603900Y-9142000D02*
X7603900Y-8455400D01*
X7599900Y-10261700D02*
X7599900Y-9578000D01*
X7599900Y-9142000D02*
X7599900Y-8458300D01*
X7595900Y-10258900D02*
X7595900Y-9578000D01*
X7595900Y-9142000D02*
X7595900Y-8461100D01*
X7591900Y-10256000D02*
X7591900Y-9578000D01*
X7591900Y-9142000D02*
X7591900Y-8464000D01*
X7587900Y-10253100D02*
X7587900Y-9578000D01*
X7587900Y-9142000D02*
X7587900Y-8466900D01*
X7583900Y-10250200D02*
X7583900Y-9578000D01*
X7583900Y-9142000D02*
X7583900Y-8469800D01*
X7579900Y-10247300D02*
X7579900Y-9578000D01*
X7579900Y-9142000D02*
X7579900Y-8472700D01*
X7575900Y-10244300D02*
X7575900Y-9578000D01*
X7575900Y-9142000D02*
X7575900Y-8475700D01*
X7571900Y-10241300D02*
X7571900Y-9578000D01*
X7571900Y-9142000D02*
X7571900Y-8478700D01*
X7567900Y-10238300D02*
X7567900Y-9578000D01*
X7567900Y-9142000D02*
X7567900Y-8481700D01*
X7563900Y-10235200D02*
X7563900Y-9578000D01*
X7563900Y-9142000D02*
X7563900Y-8484800D01*
X7559900Y-10232100D02*
X7559900Y-9578000D01*
X7559900Y-9142000D02*
X7559900Y-8487900D01*
X7555900Y-10229000D02*
X7555900Y-9578000D01*
X7555900Y-9142000D02*
X7555900Y-8491000D01*
X7551900Y-10225800D02*
X7551900Y-9578000D01*
X7551900Y-9142000D02*
X7551900Y-8494200D01*
X7547900Y-10222700D02*
X7547900Y-9578000D01*
X7547900Y-9142000D02*
X7547900Y-8497300D01*
X7543900Y-10219500D02*
X7543900Y-9578000D01*
X7543900Y-9142000D02*
X7543900Y-8500500D01*
X7539900Y-10216200D02*
X7539900Y-9578000D01*
X7539900Y-9142000D02*
X7539900Y-8503800D01*
X7535900Y-10212900D02*
X7535900Y-9578000D01*
X7535900Y-9142000D02*
X7535900Y-8507100D01*
X7531900Y-10209600D02*
X7531900Y-9578000D01*
X7531900Y-9142000D02*
X7531900Y-8510400D01*
X7527900Y-10206300D02*
X7527900Y-9578000D01*
X7527900Y-9142000D02*
X7527900Y-8513700D01*
X7523900Y-10202900D02*
X7523900Y-9578000D01*
X7523900Y-9142000D02*
X7523900Y-8517100D01*
X7519900Y-10199500D02*
X7519900Y-8520500D01*
X7515900Y-10196100D02*
X7515900Y-8523900D01*
X7511900Y-10192600D02*
X7511900Y-8527400D01*
X7507900Y-10189200D02*
X7507900Y-8530800D01*
X7503900Y-10185600D02*
X7503900Y-8534400D01*
X7499900Y-10182100D02*
X7499900Y-8537900D01*
X7495900Y-10178500D02*
X7495900Y-8541500D01*
X7491900Y-10174800D02*
X7491900Y-8545200D01*
X7487900Y-10171100D02*
X7487900Y-8548900D01*
X7483900Y-10167400D02*
X7483900Y-8552600D01*
X7479900Y-10163700D02*
X7479900Y-8556300D01*
X7475900Y-10159900D02*
X7475900Y-8560100D01*
X7471900Y-10156100D02*
X7471900Y-8563900D01*
X7467900Y-10152200D02*
X7467900Y-8567800D01*
X7463900Y-10148300D02*
X7463900Y-8571700D01*
X7459900Y-10144400D02*
X7459900Y-8575600D01*
X7455900Y-10140400D02*
X7455900Y-8579600D01*
X7451900Y-10136400D02*
X7451900Y-8583600D01*
X7447900Y-10132300D02*
X7447900Y-8587700D01*
X7443900Y-10128200D02*
X7443900Y-8591800D01*
X7439900Y-10124100D02*
X7439900Y-8595900D01*
X7435900Y-10119900D02*
X7435900Y-8600100D01*
X7431900Y-10115700D02*
X7431900Y-8604300D01*
X7427900Y-10111400D02*
X7427900Y-8608600D01*
X7423900Y-10107100D02*
X7423900Y-8612900D01*
X7420000Y-10102700D02*
X7420000Y-8617300D01*
X7416000Y-10098300D02*
X7416000Y-8621700D01*
X7412000Y-10093800D02*
X7412000Y-8626200D01*
X7408000Y-10089300D02*
X7408000Y-8630700D01*
X7404000Y-10084700D02*
X7404000Y-8635300D01*
X7400000Y-10080100D02*
X7400000Y-8639900D01*
X7396000Y-10075500D02*
X7396000Y-8644500D01*
X7392000Y-10070700D02*
X7392000Y-8649300D01*
X7388000Y-10066000D02*
X7388000Y-8654000D01*
X7384000Y-10061100D02*
X7384000Y-8658900D01*
X7380000Y-10056300D02*
X7380000Y-8663700D01*
X7376000Y-10051300D02*
X7376000Y-8668700D01*
X7372000Y-10046300D02*
X7372000Y-8673700D01*
X7368000Y-10041200D02*
X7368000Y-8678800D01*
X7364000Y-10036100D02*
X7364000Y-8683900D01*
X7360000Y-10030900D02*
X7360000Y-8689100D01*
X7356000Y-10025700D02*
X7356000Y-8694300D01*
X7352000Y-10020400D02*
X7352000Y-8699600D01*
X7348000Y-10015000D02*
X7348000Y-8705000D01*
X7344000Y-10009600D02*
X7344000Y-8710400D01*
X7340000Y-10004000D02*
X7340000Y-8716000D01*
X7336000Y-9998400D02*
X7336000Y-8721600D01*
X7332000Y-9992800D02*
X7332000Y-8727200D01*
X7328000Y-9987000D02*
X7328000Y-8733000D01*
X7324000Y-9981200D02*
X7324000Y-8738800D01*
X7320000Y-9975300D02*
X7320000Y-8744700D01*
X7316000Y-9969300D02*
X7316000Y-8750700D01*
X7312000Y-9963300D02*
X7312000Y-8756700D01*
X7308000Y-9957100D02*
X7308000Y-8762900D01*
X7304000Y-9950800D02*
X7304000Y-8769200D01*
X7300000Y-9944500D02*
X7300000Y-8775500D01*
X7296000Y-9938100D02*
X7296000Y-8781900D01*
X7292000Y-9931500D02*
X7292000Y-8788500D01*
X7288000Y-9924900D02*
X7288000Y-8795100D01*
X7284000Y-9918100D02*
X7284000Y-8801900D01*
X7280000Y-9911300D02*
X7280000Y-8808700D01*
X7276000Y-9904300D02*
X7276000Y-8815700D01*
X7272000Y-9897200D02*
X7272000Y-8822800D01*
X7268000Y-9890000D02*
X7268000Y-8830000D01*
X7264000Y-9882600D02*
X7264000Y-8837400D01*
X7260000Y-9875200D02*
X7260000Y-8844800D01*
X7256000Y-9867500D02*
X7256000Y-8852500D01*
X7252000Y-9859800D02*
X7252000Y-8860200D01*
X7248000Y-9851800D02*
X7248000Y-8868200D01*
X7244000Y-9843800D02*
X7244000Y-8876200D01*
X7240000Y-9835500D02*
X7240000Y-8884500D01*
X7236000Y-9827100D02*
X7236000Y-8892900D01*
X7232000Y-9818500D02*
X7232000Y-8901500D01*
X7228000Y-9809600D02*
X7228000Y-8910400D01*
X7224000Y-9800600D02*
X7224000Y-8919400D01*
X7220000Y-9791300D02*
X7220000Y-8928700D01*
X7216000Y-9781800D02*
X7216000Y-8938200D01*
X7212000Y-9772100D02*
X7212000Y-8947900D01*
X7208000Y-9762100D02*
X7208000Y-8957900D01*
X7204000Y-9751800D02*
X7204000Y-8968200D01*
X7200000Y-9741100D02*
X7200000Y-8978900D01*
X7196000Y-9730100D02*
X7196000Y-8989900D01*
X7192000Y-9718800D02*
X7192000Y-9001200D01*
X7188000Y-9707000D02*
X7188000Y-9013000D01*
X7184000Y-9694800D02*
X7184000Y-9025200D01*
X7180000Y-9682100D02*
X7180000Y-9037900D01*
X7176000Y-9668800D02*
X7176000Y-9051200D01*
X7172000Y-9654800D02*
X7172000Y-9065200D01*
X7168000Y-9640100D02*
X7168000Y-9079900D01*
X7164000Y-9624600D02*
X7164000Y-9095400D01*
X7160000Y-9608000D02*
X7160000Y-9112000D01*
X7156000Y-9590200D02*
X7156000Y-9129800D01*
X7152000Y-9570800D02*
X7152000Y-9149200D01*
X7148000Y-9549500D02*
X7148000Y-9170500D01*
X7144000Y-9525400D02*
X7144000Y-9194600D01*
X7140000Y-9497100D02*
X7140000Y-9222900D01*
X7136000Y-9461200D02*
X7136000Y-9258800D01*
X7132000Y-9403100D02*
X7132000Y-9316900D01*
X9260000Y-9360000D02*
X8960000Y-9360000D01*
X9110000Y-9510000D02*
X9110000Y-9210000D01*
X9349000Y-13680000D02*
G75*
G03X9349000Y-13680000I-1109000J0D01*
G01*
X8240000Y-14785000D02*
X8240000Y-12575000D01*
X8236000Y-14785000D02*
X8236000Y-12575000D01*
X8232000Y-14785000D02*
X8232000Y-12575000D01*
X8228000Y-14785000D02*
X8228000Y-12575000D01*
X8224000Y-14784900D02*
X8224000Y-12575100D01*
X8220000Y-14784900D02*
X8220000Y-12575100D01*
X8216000Y-14784800D02*
X8216000Y-12575200D01*
X8212000Y-14784700D02*
X8212000Y-12575300D01*
X8208000Y-14784600D02*
X8208000Y-12575400D01*
X8204000Y-14784500D02*
X8204000Y-12575500D01*
X8200000Y-14784300D02*
X8200000Y-12575700D01*
X8196000Y-14784200D02*
X8196000Y-12575800D01*
X8192000Y-14784000D02*
X8192000Y-12576000D01*
X8188000Y-14783800D02*
X8188000Y-12576200D01*
X8184000Y-14783600D02*
X8184000Y-12576400D01*
X8180000Y-14783400D02*
X8180000Y-12576600D01*
X8176000Y-14783200D02*
X8176000Y-12576800D01*
X8172000Y-14783000D02*
X8172000Y-12577000D01*
X8167900Y-14782700D02*
X8167900Y-12577300D01*
X8163900Y-14782400D02*
X8163900Y-12577600D01*
X8159900Y-14782200D02*
X8159900Y-12577800D01*
X8155900Y-14781900D02*
X8155900Y-12578100D01*
X8151900Y-14781600D02*
X8151900Y-12578400D01*
X8147900Y-14781200D02*
X8147900Y-12578800D01*
X8143900Y-14780900D02*
X8143900Y-12579100D01*
X8139900Y-14780500D02*
X8139900Y-12579500D01*
X8135900Y-14780200D02*
X8135900Y-12579800D01*
X8131900Y-14779800D02*
X8131900Y-12580200D01*
X8127900Y-14779400D02*
X8127900Y-12580600D01*
X8123900Y-14779000D02*
X8123900Y-12581000D01*
X8119900Y-14778500D02*
X8119900Y-12581500D01*
X8115900Y-14778100D02*
X8115900Y-12581900D01*
X8111900Y-14777600D02*
X8111900Y-12582400D01*
X8107900Y-14777200D02*
X8107900Y-12582800D01*
X8103900Y-14776700D02*
X8103900Y-12583300D01*
X8099900Y-14776200D02*
X8099900Y-12583800D01*
X8095900Y-14775700D02*
X8095900Y-12584300D01*
X8091900Y-14775100D02*
X8091900Y-12584900D01*
X8087900Y-14774600D02*
X8087900Y-12585400D01*
X8083900Y-14774000D02*
X8083900Y-12586000D01*
X8079900Y-14773400D02*
X8079900Y-12586600D01*
X8075900Y-14772900D02*
X8075900Y-12587100D01*
X8071900Y-14772300D02*
X8071900Y-12587700D01*
X8067900Y-14771600D02*
X8067900Y-12588400D01*
X8063900Y-14771000D02*
X8063900Y-12589000D01*
X8059900Y-14770300D02*
X8059900Y-12589700D01*
X8055900Y-14769700D02*
X8055900Y-12590300D01*
X8051900Y-14769000D02*
X8051900Y-12591000D01*
X8047900Y-14768300D02*
X8047900Y-12591700D01*
X8043900Y-14767600D02*
X8043900Y-12592400D01*
X8039900Y-14766900D02*
X8039900Y-12593100D01*
X8035900Y-14766100D02*
X8035900Y-12593900D01*
X8031900Y-14765400D02*
X8031900Y-12594600D01*
X8027900Y-14764600D02*
X8027900Y-12595400D01*
X8023900Y-14763800D02*
X8023900Y-12596200D01*
X8019900Y-14763000D02*
X8019900Y-12597000D01*
X8015900Y-14762200D02*
X8015900Y-12597800D01*
X8011900Y-14761400D02*
X8011900Y-12598600D01*
X8007900Y-14760500D02*
X8007900Y-12599500D01*
X8003900Y-14759600D02*
X8003900Y-12600400D01*
X7999900Y-14758800D02*
X7999900Y-12601200D01*
X7995900Y-14757900D02*
X7995900Y-12602100D01*
X7991900Y-14757000D02*
X7991900Y-12603000D01*
X7987900Y-14756000D02*
X7987900Y-12604000D01*
X7983900Y-14755100D02*
X7983900Y-12604900D01*
X7979900Y-14754100D02*
X7979900Y-12605900D01*
X7975900Y-14753200D02*
X7975900Y-12606800D01*
X7971900Y-14752200D02*
X7971900Y-12607800D01*
X7967900Y-14751200D02*
X7967900Y-12608800D01*
X7963900Y-14750200D02*
X7963900Y-12609800D01*
X7959900Y-14749100D02*
X7959900Y-12610900D01*
X7955900Y-14748100D02*
X7955900Y-13898000D01*
X7955900Y-13462000D02*
X7955900Y-12611900D01*
X7951900Y-14747000D02*
X7951900Y-13898000D01*
X7951900Y-13462000D02*
X7951900Y-12613000D01*
X7947900Y-14745900D02*
X7947900Y-13898000D01*
X7947900Y-13462000D02*
X7947900Y-12614100D01*
X7943900Y-14744800D02*
X7943900Y-13898000D01*
X7943900Y-13462000D02*
X7943900Y-12615200D01*
X7939900Y-14743700D02*
X7939900Y-13898000D01*
X7939900Y-13462000D02*
X7939900Y-12616300D01*
X7935900Y-14742600D02*
X7935900Y-13898000D01*
X7935900Y-13462000D02*
X7935900Y-12617400D01*
X7931900Y-14741400D02*
X7931900Y-13898000D01*
X7931900Y-13462000D02*
X7931900Y-12618600D01*
X7927900Y-14740300D02*
X7927900Y-13898000D01*
X7927900Y-13462000D02*
X7927900Y-12619700D01*
X7923900Y-14739100D02*
X7923900Y-13898000D01*
X7923900Y-13462000D02*
X7923900Y-12620900D01*
X7919900Y-14737900D02*
X7919900Y-13898000D01*
X7919900Y-13462000D02*
X7919900Y-12622100D01*
X7915900Y-14736700D02*
X7915900Y-13898000D01*
X7915900Y-13462000D02*
X7915900Y-12623300D01*
X7911900Y-14735400D02*
X7911900Y-13898000D01*
X7911900Y-13462000D02*
X7911900Y-12624600D01*
X7907900Y-14734200D02*
X7907900Y-13898000D01*
X7907900Y-13462000D02*
X7907900Y-12625800D01*
X7903900Y-14732900D02*
X7903900Y-13898000D01*
X7903900Y-13462000D02*
X7903900Y-12627100D01*
X7899900Y-14731600D02*
X7899900Y-13898000D01*
X7899900Y-13462000D02*
X7899900Y-12628400D01*
X7895900Y-14730300D02*
X7895900Y-13898000D01*
X7895900Y-13462000D02*
X7895900Y-12629700D01*
X7891900Y-14729000D02*
X7891900Y-13898000D01*
X7891900Y-13462000D02*
X7891900Y-12631000D01*
X7887900Y-14727700D02*
X7887900Y-13898000D01*
X7887900Y-13462000D02*
X7887900Y-12632300D01*
X7883900Y-14726400D02*
X7883900Y-13898000D01*
X7883900Y-13462000D02*
X7883900Y-12633600D01*
X7879900Y-14725000D02*
X7879900Y-13898000D01*
X7879900Y-13462000D02*
X7879900Y-12635000D01*
X7875900Y-14723600D02*
X7875900Y-13898000D01*
X7875900Y-13462000D02*
X7875900Y-12636400D01*
X7871900Y-14722200D02*
X7871900Y-13898000D01*
X7871900Y-13462000D02*
X7871900Y-12637800D01*
X7867900Y-14720800D02*
X7867900Y-13898000D01*
X7867900Y-13462000D02*
X7867900Y-12639200D01*
X7863900Y-14719400D02*
X7863900Y-13898000D01*
X7863900Y-13462000D02*
X7863900Y-12640600D01*
X7859900Y-14717900D02*
X7859900Y-13898000D01*
X7859900Y-13462000D02*
X7859900Y-12642100D01*
X7855900Y-14716400D02*
X7855900Y-13898000D01*
X7855900Y-13462000D02*
X7855900Y-12643600D01*
X7851900Y-14715000D02*
X7851900Y-13898000D01*
X7851900Y-13462000D02*
X7851900Y-12645000D01*
X7847900Y-14713500D02*
X7847900Y-13898000D01*
X7847900Y-13462000D02*
X7847900Y-12646500D01*
X7843900Y-14711900D02*
X7843900Y-13898000D01*
X7843900Y-13462000D02*
X7843900Y-12648100D01*
X7839900Y-14710400D02*
X7839900Y-13898000D01*
X7839900Y-13462000D02*
X7839900Y-12649600D01*
X7835900Y-14708800D02*
X7835900Y-13898000D01*
X7835900Y-13462000D02*
X7835900Y-12651200D01*
X7831900Y-14707300D02*
X7831900Y-13898000D01*
X7831900Y-13462000D02*
X7831900Y-12652700D01*
X7827900Y-14705700D02*
X7827900Y-13898000D01*
X7827900Y-13462000D02*
X7827900Y-12654300D01*
X7823900Y-14704100D02*
X7823900Y-13898000D01*
X7823900Y-13462000D02*
X7823900Y-12655900D01*
X7819900Y-14702400D02*
X7819900Y-13898000D01*
X7819900Y-13462000D02*
X7819900Y-12657600D01*
X7815900Y-14700800D02*
X7815900Y-13898000D01*
X7815900Y-13462000D02*
X7815900Y-12659200D01*
X7811900Y-14699100D02*
X7811900Y-13898000D01*
X7811900Y-13462000D02*
X7811900Y-12660900D01*
X7807900Y-14697400D02*
X7807900Y-13898000D01*
X7807900Y-13462000D02*
X7807900Y-12662600D01*
X7803900Y-14695700D02*
X7803900Y-13898000D01*
X7803900Y-13462000D02*
X7803900Y-12664300D01*
X7799900Y-14694000D02*
X7799900Y-13898000D01*
X7799900Y-13462000D02*
X7799900Y-12666000D01*
X7795900Y-14692300D02*
X7795900Y-13898000D01*
X7795900Y-13462000D02*
X7795900Y-12667700D01*
X7791900Y-14690500D02*
X7791900Y-13898000D01*
X7791900Y-13462000D02*
X7791900Y-12669500D01*
X7787900Y-14688800D02*
X7787900Y-13898000D01*
X7787900Y-13462000D02*
X7787900Y-12671200D01*
X7783900Y-14687000D02*
X7783900Y-13898000D01*
X7783900Y-13462000D02*
X7783900Y-12673000D01*
X7779900Y-14685100D02*
X7779900Y-13898000D01*
X7779900Y-13462000D02*
X7779900Y-12674900D01*
X7775900Y-14683300D02*
X7775900Y-13898000D01*
X7775900Y-13462000D02*
X7775900Y-12676700D01*
X7771900Y-14681500D02*
X7771900Y-13898000D01*
X7771900Y-13462000D02*
X7771900Y-12678500D01*
X7767900Y-14679600D02*
X7767900Y-13898000D01*
X7767900Y-13462000D02*
X7767900Y-12680400D01*
X7763900Y-14677700D02*
X7763900Y-13898000D01*
X7763900Y-13462000D02*
X7763900Y-12682300D01*
X7759900Y-14675800D02*
X7759900Y-13898000D01*
X7759900Y-13462000D02*
X7759900Y-12684200D01*
X7755900Y-14673900D02*
X7755900Y-13898000D01*
X7755900Y-13462000D02*
X7755900Y-12686100D01*
X7751900Y-14671900D02*
X7751900Y-13898000D01*
X7751900Y-13462000D02*
X7751900Y-12688100D01*
X7747900Y-14669900D02*
X7747900Y-13898000D01*
X7747900Y-13462000D02*
X7747900Y-12690100D01*
X7743900Y-14667900D02*
X7743900Y-13898000D01*
X7743900Y-13462000D02*
X7743900Y-12692100D01*
X7739900Y-14665900D02*
X7739900Y-13898000D01*
X7739900Y-13462000D02*
X7739900Y-12694100D01*
X7735900Y-14663900D02*
X7735900Y-13898000D01*
X7735900Y-13462000D02*
X7735900Y-12696100D01*
X7731900Y-14661900D02*
X7731900Y-13898000D01*
X7731900Y-13462000D02*
X7731900Y-12698100D01*
X7727900Y-14659800D02*
X7727900Y-13898000D01*
X7727900Y-13462000D02*
X7727900Y-12700200D01*
X7723900Y-14657700D02*
X7723900Y-13898000D01*
X7723900Y-13462000D02*
X7723900Y-12702300D01*
X7719900Y-14655600D02*
X7719900Y-13898000D01*
X7719900Y-13462000D02*
X7719900Y-12704400D01*
X7715900Y-14653400D02*
X7715900Y-13898000D01*
X7715900Y-13462000D02*
X7715900Y-12706600D01*
X7711900Y-14651300D02*
X7711900Y-13898000D01*
X7711900Y-13462000D02*
X7711900Y-12708700D01*
X7707900Y-14649100D02*
X7707900Y-13898000D01*
X7707900Y-13462000D02*
X7707900Y-12710900D01*
X7703900Y-14646900D02*
X7703900Y-13898000D01*
X7703900Y-13462000D02*
X7703900Y-12713100D01*
X7699900Y-14644700D02*
X7699900Y-13898000D01*
X7699900Y-13462000D02*
X7699900Y-12715300D01*
X7695900Y-14642500D02*
X7695900Y-13898000D01*
X7695900Y-13462000D02*
X7695900Y-12717500D01*
X7691900Y-14640200D02*
X7691900Y-13898000D01*
X7691900Y-13462000D02*
X7691900Y-12719800D01*
X7687900Y-14637900D02*
X7687900Y-13898000D01*
X7687900Y-13462000D02*
X7687900Y-12722100D01*
X7683900Y-14635600D02*
X7683900Y-13898000D01*
X7683900Y-13462000D02*
X7683900Y-12724400D01*
X7679900Y-14633300D02*
X7679900Y-13898000D01*
X7679900Y-13462000D02*
X7679900Y-12726700D01*
X7675900Y-14630900D02*
X7675900Y-13898000D01*
X7675900Y-13462000D02*
X7675900Y-12729100D01*
X7671900Y-14628600D02*
X7671900Y-13898000D01*
X7671900Y-13462000D02*
X7671900Y-12731400D01*
X7667900Y-14626200D02*
X7667900Y-13898000D01*
X7667900Y-13462000D02*
X7667900Y-12733800D01*
X7663900Y-14623700D02*
X7663900Y-13898000D01*
X7663900Y-13462000D02*
X7663900Y-12736300D01*
X7659900Y-14621300D02*
X7659900Y-13898000D01*
X7659900Y-13462000D02*
X7659900Y-12738700D01*
X7655900Y-14618800D02*
X7655900Y-13898000D01*
X7655900Y-13462000D02*
X7655900Y-12741200D01*
X7651900Y-14616300D02*
X7651900Y-13898000D01*
X7651900Y-13462000D02*
X7651900Y-12743700D01*
X7647900Y-14613800D02*
X7647900Y-13898000D01*
X7647900Y-13462000D02*
X7647900Y-12746200D01*
X7643900Y-14611300D02*
X7643900Y-13898000D01*
X7643900Y-13462000D02*
X7643900Y-12748700D01*
X7639900Y-14608700D02*
X7639900Y-13898000D01*
X7639900Y-13462000D02*
X7639900Y-12751300D01*
X7635900Y-14606100D02*
X7635900Y-13898000D01*
X7635900Y-13462000D02*
X7635900Y-12753900D01*
X7631900Y-14603500D02*
X7631900Y-13898000D01*
X7631900Y-13462000D02*
X7631900Y-12756500D01*
X7627900Y-14600900D02*
X7627900Y-13898000D01*
X7627900Y-13462000D02*
X7627900Y-12759100D01*
X7623900Y-14598200D02*
X7623900Y-13898000D01*
X7623900Y-13462000D02*
X7623900Y-12761800D01*
X7619900Y-14595600D02*
X7619900Y-13898000D01*
X7619900Y-13462000D02*
X7619900Y-12764400D01*
X7615900Y-14592800D02*
X7615900Y-13898000D01*
X7615900Y-13462000D02*
X7615900Y-12767200D01*
X7611900Y-14590100D02*
X7611900Y-13898000D01*
X7611900Y-13462000D02*
X7611900Y-12769900D01*
X7607900Y-14587300D02*
X7607900Y-13898000D01*
X7607900Y-13462000D02*
X7607900Y-12772700D01*
X7603900Y-14584600D02*
X7603900Y-13898000D01*
X7603900Y-13462000D02*
X7603900Y-12775400D01*
X7599900Y-14581700D02*
X7599900Y-13898000D01*
X7599900Y-13462000D02*
X7599900Y-12778300D01*
X7595900Y-14578900D02*
X7595900Y-13898000D01*
X7595900Y-13462000D02*
X7595900Y-12781100D01*
X7591900Y-14576000D02*
X7591900Y-13898000D01*
X7591900Y-13462000D02*
X7591900Y-12784000D01*
X7587900Y-14573100D02*
X7587900Y-13898000D01*
X7587900Y-13462000D02*
X7587900Y-12786900D01*
X7583900Y-14570200D02*
X7583900Y-13898000D01*
X7583900Y-13462000D02*
X7583900Y-12789800D01*
X7579900Y-14567300D02*
X7579900Y-13898000D01*
X7579900Y-13462000D02*
X7579900Y-12792700D01*
X7575900Y-14564300D02*
X7575900Y-13898000D01*
X7575900Y-13462000D02*
X7575900Y-12795700D01*
X7571900Y-14561300D02*
X7571900Y-13898000D01*
X7571900Y-13462000D02*
X7571900Y-12798700D01*
X7567900Y-14558300D02*
X7567900Y-13898000D01*
X7567900Y-13462000D02*
X7567900Y-12801700D01*
X7563900Y-14555200D02*
X7563900Y-13898000D01*
X7563900Y-13462000D02*
X7563900Y-12804800D01*
X7559900Y-14552100D02*
X7559900Y-13898000D01*
X7559900Y-13462000D02*
X7559900Y-12807900D01*
X7555900Y-14549000D02*
X7555900Y-13898000D01*
X7555900Y-13462000D02*
X7555900Y-12811000D01*
X7551900Y-14545800D02*
X7551900Y-13898000D01*
X7551900Y-13462000D02*
X7551900Y-12814200D01*
X7547900Y-14542700D02*
X7547900Y-13898000D01*
X7547900Y-13462000D02*
X7547900Y-12817300D01*
X7543900Y-14539500D02*
X7543900Y-13898000D01*
X7543900Y-13462000D02*
X7543900Y-12820500D01*
X7539900Y-14536200D02*
X7539900Y-13898000D01*
X7539900Y-13462000D02*
X7539900Y-12823800D01*
X7535900Y-14532900D02*
X7535900Y-13898000D01*
X7535900Y-13462000D02*
X7535900Y-12827100D01*
X7531900Y-14529600D02*
X7531900Y-13898000D01*
X7531900Y-13462000D02*
X7531900Y-12830400D01*
X7527900Y-14526300D02*
X7527900Y-13898000D01*
X7527900Y-13462000D02*
X7527900Y-12833700D01*
X7523900Y-14522900D02*
X7523900Y-13898000D01*
X7523900Y-13462000D02*
X7523900Y-12837100D01*
X7519900Y-14519500D02*
X7519900Y-12840500D01*
X7515900Y-14516100D02*
X7515900Y-12843900D01*
X7511900Y-14512600D02*
X7511900Y-12847400D01*
X7507900Y-14509200D02*
X7507900Y-12850800D01*
X7503900Y-14505600D02*
X7503900Y-12854400D01*
X7499900Y-14502100D02*
X7499900Y-12857900D01*
X7495900Y-14498500D02*
X7495900Y-12861500D01*
X7491900Y-14494800D02*
X7491900Y-12865200D01*
X7487900Y-14491100D02*
X7487900Y-12868900D01*
X7483900Y-14487400D02*
X7483900Y-12872600D01*
X7479900Y-14483700D02*
X7479900Y-12876300D01*
X7475900Y-14479900D02*
X7475900Y-12880100D01*
X7471900Y-14476100D02*
X7471900Y-12883900D01*
X7467900Y-14472200D02*
X7467900Y-12887800D01*
X7463900Y-14468300D02*
X7463900Y-12891700D01*
X7459900Y-14464400D02*
X7459900Y-12895600D01*
X7455900Y-14460400D02*
X7455900Y-12899600D01*
X7451900Y-14456400D02*
X7451900Y-12903600D01*
X7447900Y-14452300D02*
X7447900Y-12907700D01*
X7443900Y-14448200D02*
X7443900Y-12911800D01*
X7439900Y-14444100D02*
X7439900Y-12915900D01*
X7435900Y-14439900D02*
X7435900Y-12920100D01*
X7431900Y-14435700D02*
X7431900Y-12924300D01*
X7427900Y-14431400D02*
X7427900Y-12928600D01*
X7423900Y-14427100D02*
X7423900Y-12932900D01*
X7420000Y-14422700D02*
X7420000Y-12937300D01*
X7416000Y-14418300D02*
X7416000Y-12941700D01*
X7412000Y-14413800D02*
X7412000Y-12946200D01*
X7408000Y-14409300D02*
X7408000Y-12950700D01*
X7404000Y-14404700D02*
X7404000Y-12955300D01*
X7400000Y-14400100D02*
X7400000Y-12959900D01*
X7396000Y-14395500D02*
X7396000Y-12964500D01*
X7392000Y-14390700D02*
X7392000Y-12969300D01*
X7388000Y-14386000D02*
X7388000Y-12974000D01*
X7384000Y-14381100D02*
X7384000Y-12978900D01*
X7380000Y-14376300D02*
X7380000Y-12983700D01*
X7376000Y-14371300D02*
X7376000Y-12988700D01*
X7372000Y-14366300D02*
X7372000Y-12993700D01*
X7368000Y-14361200D02*
X7368000Y-12998800D01*
X7364000Y-14356100D02*
X7364000Y-13003900D01*
X7360000Y-14350900D02*
X7360000Y-13009100D01*
X7356000Y-14345700D02*
X7356000Y-13014300D01*
X7352000Y-14340400D02*
X7352000Y-13019600D01*
X7348000Y-14335000D02*
X7348000Y-13025000D01*
X7344000Y-14329600D02*
X7344000Y-13030400D01*
X7340000Y-14324000D02*
X7340000Y-13036000D01*
X7336000Y-14318400D02*
X7336000Y-13041600D01*
X7332000Y-14312800D02*
X7332000Y-13047200D01*
X7328000Y-14307000D02*
X7328000Y-13053000D01*
X7324000Y-14301200D02*
X7324000Y-13058800D01*
X7320000Y-14295300D02*
X7320000Y-13064700D01*
X7316000Y-14289300D02*
X7316000Y-13070700D01*
X7312000Y-14283300D02*
X7312000Y-13076700D01*
X7308000Y-14277100D02*
X7308000Y-13082900D01*
X7304000Y-14270800D02*
X7304000Y-13089200D01*
X7300000Y-14264500D02*
X7300000Y-13095500D01*
X7296000Y-14258100D02*
X7296000Y-13101900D01*
X7292000Y-14251500D02*
X7292000Y-13108500D01*
X7288000Y-14244900D02*
X7288000Y-13115100D01*
X7284000Y-14238100D02*
X7284000Y-13121900D01*
X7280000Y-14231300D02*
X7280000Y-13128700D01*
X7276000Y-14224300D02*
X7276000Y-13135700D01*
X7272000Y-14217200D02*
X7272000Y-13142800D01*
X7268000Y-14210000D02*
X7268000Y-13150000D01*
X7264000Y-14202600D02*
X7264000Y-13157400D01*
X7260000Y-14195200D02*
X7260000Y-13164800D01*
X7256000Y-14187500D02*
X7256000Y-13172500D01*
X7252000Y-14179800D02*
X7252000Y-13180200D01*
X7248000Y-14171800D02*
X7248000Y-13188200D01*
X7244000Y-14163800D02*
X7244000Y-13196200D01*
X7240000Y-14155500D02*
X7240000Y-13204500D01*
X7236000Y-14147100D02*
X7236000Y-13212900D01*
X7232000Y-14138500D02*
X7232000Y-13221500D01*
X7228000Y-14129600D02*
X7228000Y-13230400D01*
X7224000Y-14120600D02*
X7224000Y-13239400D01*
X7220000Y-14111300D02*
X7220000Y-13248700D01*
X7216000Y-14101800D02*
X7216000Y-13258200D01*
X7212000Y-14092100D02*
X7212000Y-13267900D01*
X7208000Y-14082100D02*
X7208000Y-13277900D01*
X7204000Y-14071800D02*
X7204000Y-13288200D01*
X7200000Y-14061100D02*
X7200000Y-13298900D01*
X7196000Y-14050100D02*
X7196000Y-13309900D01*
X7192000Y-14038800D02*
X7192000Y-13321200D01*
X7188000Y-14027000D02*
X7188000Y-13333000D01*
X7184000Y-14014800D02*
X7184000Y-13345200D01*
X7180000Y-14002100D02*
X7180000Y-13357900D01*
X7176000Y-13988800D02*
X7176000Y-13371200D01*
X7172000Y-13974800D02*
X7172000Y-13385200D01*
X7168000Y-13960100D02*
X7168000Y-13399900D01*
X7164000Y-13944600D02*
X7164000Y-13415400D01*
X7160000Y-13928000D02*
X7160000Y-13432000D01*
X7156000Y-13910200D02*
X7156000Y-13449800D01*
X7152000Y-13890800D02*
X7152000Y-13469200D01*
X7148000Y-13869500D02*
X7148000Y-13490500D01*
X7144000Y-13845400D02*
X7144000Y-13514600D01*
X7140000Y-13817100D02*
X7140000Y-13542900D01*
X7136000Y-13781200D02*
X7136000Y-13578800D01*
X7132000Y-13723100D02*
X7132000Y-13636900D01*
X9260000Y-13680000D02*
X8960000Y-13680000D01*
X9110000Y-13830000D02*
X9110000Y-13530000D01*
X11584000Y-15510000D02*
G75*
G03X11584000Y-15510000I-634000J0D01*
G01*
X11580000Y-15510000D02*
X10320000Y-15510000D01*
X11580000Y-15514000D02*
X10320000Y-15514000D01*
X11580000Y-15518000D02*
X10320000Y-15518000D01*
X11579900Y-15522000D02*
X10320100Y-15522000D01*
X11579800Y-15526000D02*
X10320200Y-15526000D01*
X11579700Y-15530000D02*
X10320300Y-15530000D01*
X11579600Y-15534000D02*
X10320400Y-15534000D01*
X11579400Y-15538000D02*
X10320600Y-15538000D01*
X11579200Y-15542000D02*
X10320800Y-15542000D01*
X11579000Y-15546000D02*
X10321000Y-15546000D01*
X11578800Y-15550000D02*
X10321200Y-15550000D01*
X11578500Y-15554000D02*
X10321500Y-15554000D01*
X11578200Y-15558000D02*
X10321800Y-15558000D01*
X11577900Y-15562000D02*
X10322100Y-15562000D01*
X11577600Y-15566000D02*
X10322400Y-15566000D01*
X11577200Y-15570000D02*
X10322800Y-15570000D01*
X11576800Y-15574000D02*
X10323200Y-15574000D01*
X11576400Y-15578000D02*
X10323600Y-15578000D01*
X11575900Y-15582100D02*
X10324100Y-15582100D01*
X11575500Y-15586100D02*
X10324500Y-15586100D01*
X11575000Y-15590100D02*
X10325000Y-15590100D01*
X11574500Y-15594100D02*
X10325500Y-15594100D01*
X11573900Y-15598100D02*
X10326100Y-15598100D01*
X11573300Y-15602100D02*
X10326700Y-15602100D01*
X11572700Y-15606100D02*
X10327300Y-15606100D01*
X11572100Y-15610100D02*
X10327900Y-15610100D01*
X11571500Y-15614100D02*
X10328500Y-15614100D01*
X11570800Y-15618100D02*
X10329200Y-15618100D01*
X11570100Y-15622100D02*
X11088000Y-15622100D01*
X10812000Y-15622100D02*
X10329900Y-15622100D01*
X11569300Y-15626100D02*
X11088000Y-15626100D01*
X10812000Y-15626100D02*
X10330700Y-15626100D01*
X11568600Y-15630100D02*
X11088000Y-15630100D01*
X10812000Y-15630100D02*
X10331400Y-15630100D01*
X11567800Y-15634100D02*
X11088000Y-15634100D01*
X10812000Y-15634100D02*
X10332200Y-15634100D01*
X11567000Y-15638100D02*
X11088000Y-15638100D01*
X10812000Y-15638100D02*
X10333000Y-15638100D01*
X11566200Y-15642100D02*
X11088000Y-15642100D01*
X10812000Y-15642100D02*
X10333800Y-15642100D01*
X11565300Y-15646100D02*
X11088000Y-15646100D01*
X10812000Y-15646100D02*
X10334700Y-15646100D01*
X11564400Y-15650100D02*
X11088000Y-15650100D01*
X10812000Y-15650100D02*
X10335600Y-15650100D01*
X11563500Y-15654100D02*
X11088000Y-15654100D01*
X10812000Y-15654100D02*
X10336500Y-15654100D01*
X11562500Y-15658100D02*
X11088000Y-15658100D01*
X10812000Y-15658100D02*
X10337500Y-15658100D01*
X11561600Y-15662100D02*
X11088000Y-15662100D01*
X10812000Y-15662100D02*
X10338400Y-15662100D01*
X11560600Y-15666100D02*
X11088000Y-15666100D01*
X10812000Y-15666100D02*
X10339400Y-15666100D01*
X11559500Y-15670100D02*
X11088000Y-15670100D01*
X10812000Y-15670100D02*
X10340500Y-15670100D01*
X11558500Y-15674100D02*
X11088000Y-15674100D01*
X10812000Y-15674100D02*
X10341500Y-15674100D01*
X11557400Y-15678100D02*
X11088000Y-15678100D01*
X10812000Y-15678100D02*
X10342600Y-15678100D01*
X11556300Y-15682100D02*
X11088000Y-15682100D01*
X10812000Y-15682100D02*
X10343700Y-15682100D01*
X11555100Y-15686100D02*
X11088000Y-15686100D01*
X10812000Y-15686100D02*
X10344900Y-15686100D01*
X11554000Y-15690100D02*
X11088000Y-15690100D01*
X10812000Y-15690100D02*
X10346000Y-15690100D01*
X11552800Y-15694100D02*
X11088000Y-15694100D01*
X10812000Y-15694100D02*
X10347200Y-15694100D01*
X11551500Y-15698100D02*
X11088000Y-15698100D01*
X10812000Y-15698100D02*
X10348500Y-15698100D01*
X11550300Y-15702100D02*
X11088000Y-15702100D01*
X10812000Y-15702100D02*
X10349700Y-15702100D01*
X11549000Y-15706100D02*
X11088000Y-15706100D01*
X10812000Y-15706100D02*
X10351000Y-15706100D01*
X11547700Y-15710100D02*
X11088000Y-15710100D01*
X10812000Y-15710100D02*
X10352300Y-15710100D01*
X11546300Y-15714100D02*
X11088000Y-15714100D01*
X10812000Y-15714100D02*
X10353700Y-15714100D01*
X11545000Y-15718100D02*
X11088000Y-15718100D01*
X10812000Y-15718100D02*
X10355000Y-15718100D01*
X11543600Y-15722100D02*
X11088000Y-15722100D01*
X10812000Y-15722100D02*
X10356400Y-15722100D01*
X11542100Y-15726100D02*
X11088000Y-15726100D01*
X10812000Y-15726100D02*
X10357900Y-15726100D01*
X11540700Y-15730100D02*
X11088000Y-15730100D01*
X10812000Y-15730100D02*
X10359300Y-15730100D01*
X11539200Y-15734100D02*
X11088000Y-15734100D01*
X10812000Y-15734100D02*
X10360800Y-15734100D01*
X11537600Y-15738100D02*
X11088000Y-15738100D01*
X10812000Y-15738100D02*
X10362400Y-15738100D01*
X11536100Y-15742100D02*
X11088000Y-15742100D01*
X10812000Y-15742100D02*
X10363900Y-15742100D01*
X11534500Y-15746100D02*
X11088000Y-15746100D01*
X10812000Y-15746100D02*
X10365500Y-15746100D01*
X11532900Y-15750100D02*
X11088000Y-15750100D01*
X10812000Y-15750100D02*
X10367100Y-15750100D01*
X11531200Y-15754100D02*
X11088000Y-15754100D01*
X10812000Y-15754100D02*
X10368800Y-15754100D01*
X11529500Y-15758100D02*
X11088000Y-15758100D01*
X10812000Y-15758100D02*
X10370500Y-15758100D01*
X11527800Y-15762100D02*
X11088000Y-15762100D01*
X10812000Y-15762100D02*
X10372200Y-15762100D01*
X11526100Y-15766100D02*
X11088000Y-15766100D01*
X10812000Y-15766100D02*
X10373900Y-15766100D01*
X11524300Y-15770100D02*
X11088000Y-15770100D01*
X10812000Y-15770100D02*
X10375700Y-15770100D01*
X11522500Y-15774100D02*
X11088000Y-15774100D01*
X10812000Y-15774100D02*
X10377500Y-15774100D01*
X11520600Y-15778100D02*
X11088000Y-15778100D01*
X10812000Y-15778100D02*
X10379400Y-15778100D01*
X11518700Y-15782100D02*
X11088000Y-15782100D01*
X10812000Y-15782100D02*
X10381300Y-15782100D01*
X11516800Y-15786100D02*
X11088000Y-15786100D01*
X10812000Y-15786100D02*
X10383200Y-15786100D01*
X11514900Y-15790100D02*
X11088000Y-15790100D01*
X10812000Y-15790100D02*
X10385100Y-15790100D01*
X11512900Y-15794100D02*
X11088000Y-15794100D01*
X10812000Y-15794100D02*
X10387100Y-15794100D01*
X11510900Y-15798100D02*
X11088000Y-15798100D01*
X10812000Y-15798100D02*
X10389100Y-15798100D01*
X11508800Y-15802100D02*
X11088000Y-15802100D01*
X10812000Y-15802100D02*
X10391200Y-15802100D01*
X11506700Y-15806100D02*
X11088000Y-15806100D01*
X10812000Y-15806100D02*
X10393300Y-15806100D01*
X11504600Y-15810100D02*
X11088000Y-15810100D01*
X10812000Y-15810100D02*
X10395400Y-15810100D01*
X11502400Y-15814100D02*
X11088000Y-15814100D01*
X10812000Y-15814100D02*
X10397600Y-15814100D01*
X11500200Y-15818100D02*
X11088000Y-15818100D01*
X10812000Y-15818100D02*
X10399800Y-15818100D01*
X11498000Y-15822100D02*
X11088000Y-15822100D01*
X10812000Y-15822100D02*
X10402000Y-15822100D01*
X11495700Y-15826100D02*
X11088000Y-15826100D01*
X10812000Y-15826100D02*
X10404300Y-15826100D01*
X11493400Y-15830100D02*
X11088000Y-15830100D01*
X10812000Y-15830100D02*
X10406600Y-15830100D01*
X11491000Y-15834100D02*
X11088000Y-15834100D01*
X10812000Y-15834100D02*
X10409000Y-15834100D01*
X11488600Y-15838100D02*
X11088000Y-15838100D01*
X10812000Y-15838100D02*
X10411400Y-15838100D01*
X11486200Y-15842100D02*
X11088000Y-15842100D01*
X10812000Y-15842100D02*
X10413800Y-15842100D01*
X11483700Y-15846100D02*
X11088000Y-15846100D01*
X10812000Y-15846100D02*
X10416300Y-15846100D01*
X11481200Y-15850100D02*
X11088000Y-15850100D01*
X10812000Y-15850100D02*
X10418800Y-15850100D01*
X11478600Y-15854100D02*
X11088000Y-15854100D01*
X10812000Y-15854100D02*
X10421400Y-15854100D01*
X11476000Y-15858100D02*
X11088000Y-15858100D01*
X10812000Y-15858100D02*
X10424000Y-15858100D01*
X11473400Y-15862100D02*
X11088000Y-15862100D01*
X10812000Y-15862100D02*
X10426600Y-15862100D01*
X11470700Y-15866100D02*
X11088000Y-15866100D01*
X10812000Y-15866100D02*
X10429300Y-15866100D01*
X11467900Y-15870100D02*
X11088000Y-15870100D01*
X10812000Y-15870100D02*
X10432100Y-15870100D01*
X11465100Y-15874100D02*
X11088000Y-15874100D01*
X10812000Y-15874100D02*
X10434900Y-15874100D01*
X11462300Y-15878100D02*
X11088000Y-15878100D01*
X10812000Y-15878100D02*
X10437700Y-15878100D01*
X11459400Y-15882100D02*
X11088000Y-15882100D01*
X10812000Y-15882100D02*
X10440600Y-15882100D01*
X11456500Y-15886100D02*
X11088000Y-15886100D01*
X10812000Y-15886100D02*
X10443500Y-15886100D01*
X11453500Y-15890100D02*
X11088000Y-15890100D01*
X10812000Y-15890100D02*
X10446500Y-15890100D01*
X11450500Y-15894100D02*
X11088000Y-15894100D01*
X10812000Y-15894100D02*
X10449500Y-15894100D01*
X11447500Y-15898100D02*
X10452500Y-15898100D01*
X11444300Y-15902100D02*
X10455700Y-15902100D01*
X11441200Y-15906100D02*
X10458800Y-15906100D01*
X11437900Y-15910100D02*
X10462100Y-15910100D01*
X11434700Y-15914100D02*
X10465300Y-15914100D01*
X11431300Y-15918100D02*
X10468700Y-15918100D01*
X11427900Y-15922100D02*
X10472100Y-15922100D01*
X11424500Y-15926100D02*
X10475500Y-15926100D01*
X11421000Y-15930100D02*
X10479000Y-15930100D01*
X11417400Y-15934100D02*
X10482600Y-15934100D01*
X11413800Y-15938100D02*
X10486200Y-15938100D01*
X11410100Y-15942100D02*
X10489900Y-15942100D01*
X11406300Y-15946100D02*
X10493700Y-15946100D01*
X11402500Y-15950100D02*
X10497500Y-15950100D01*
X11398600Y-15954100D02*
X10501400Y-15954100D01*
X11394700Y-15958100D02*
X10505300Y-15958100D01*
X11390600Y-15962100D02*
X10509400Y-15962100D01*
X11386500Y-15966100D02*
X10513500Y-15966100D01*
X11382300Y-15970100D02*
X10517700Y-15970100D01*
X11378100Y-15974100D02*
X10521900Y-15974100D01*
X11373800Y-15978100D02*
X10526200Y-15978100D01*
X11369300Y-15982100D02*
X10530700Y-15982100D01*
X11364800Y-15986100D02*
X10535200Y-15986100D01*
X11360200Y-15990100D02*
X10539800Y-15990100D01*
X11355600Y-15994100D02*
X10544400Y-15994100D01*
X11350800Y-15998100D02*
X10549200Y-15998100D01*
X11345900Y-16002100D02*
X10554100Y-16002100D01*
X11340900Y-16006100D02*
X10559100Y-16006100D01*
X11335900Y-16010100D02*
X10564100Y-16010100D01*
X11330700Y-16014100D02*
X10569300Y-16014100D01*
X11325400Y-16018100D02*
X10574600Y-16018100D01*
X11320000Y-16022100D02*
X10580000Y-16022100D01*
X11314400Y-16026100D02*
X10585600Y-16026100D01*
X11308800Y-16030100D02*
X10591200Y-16030100D01*
X11303000Y-16034100D02*
X10597000Y-16034100D01*
X11297000Y-16038100D02*
X10603000Y-16038100D01*
X11290900Y-16042100D02*
X10609100Y-16042100D01*
X11284700Y-16046100D02*
X10615300Y-16046100D01*
X11278200Y-16050100D02*
X10621800Y-16050100D01*
X11271700Y-16054100D02*
X10628300Y-16054100D01*
X11264900Y-16058100D02*
X10635100Y-16058100D01*
X11257900Y-16062100D02*
X10642100Y-16062100D01*
X11250700Y-16066100D02*
X10649300Y-16066100D01*
X11243300Y-16070100D02*
X10656700Y-16070100D01*
X11235600Y-16074100D02*
X10664400Y-16074100D01*
X11227700Y-16078100D02*
X10672300Y-16078100D01*
X11219500Y-16082100D02*
X10680500Y-16082100D01*
X11211000Y-16086100D02*
X10689000Y-16086100D01*
X11202100Y-16090100D02*
X10697900Y-16090100D01*
X11192800Y-16094100D02*
X10707200Y-16094100D01*
X11183100Y-16098100D02*
X10716900Y-16098100D01*
X11173000Y-16102100D02*
X10727000Y-16102100D01*
X11162200Y-16106100D02*
X10737800Y-16106100D01*
X11150900Y-16110100D02*
X10749100Y-16110100D01*
X11138800Y-16114100D02*
X10761200Y-16114100D01*
X11125700Y-16118100D02*
X10774300Y-16118100D01*
X11111600Y-16122100D02*
X10788400Y-16122100D01*
X11096000Y-16126100D02*
X10804000Y-16126100D01*
X11078500Y-16130100D02*
X10821500Y-16130100D01*
X11058200Y-16134100D02*
X10841800Y-16134100D01*
X11033100Y-16138100D02*
X10866900Y-16138100D01*
X10996400Y-16142100D02*
X10903600Y-16142100D01*
X10950000Y-14940000D02*
X10950000Y-15120000D01*
X11040000Y-15030000D02*
X10860000Y-15030000D01*
X16585000Y-7790000D02*
X16585000Y-6530000D01*
X16585000Y-6530000D02*
X15045000Y-6530000D01*
X15045000Y-6530000D02*
X15045000Y-6625000D01*
X15045000Y-6625000D02*
X14995000Y-6595000D01*
X14995000Y-6595000D02*
X14995000Y-6795000D01*
X14995000Y-6795000D02*
X15045000Y-6770000D01*
X15045000Y-6770000D02*
X15045000Y-7310000D01*
X15045000Y-7310000D02*
X14995000Y-7285000D01*
X14995000Y-7285000D02*
X14995000Y-7790000D01*
X14995000Y-7790000D02*
X16585000Y-7790000D01*
X18225000Y-7790000D02*
X18225000Y-6530000D01*
X18225000Y-6530000D02*
X16685000Y-6530000D01*
X16685000Y-6530000D02*
X16685000Y-6625000D01*
X16685000Y-6625000D02*
X16635000Y-6595000D01*
X16635000Y-6595000D02*
X16635000Y-6795000D01*
X16635000Y-6795000D02*
X16685000Y-6770000D01*
X16685000Y-6770000D02*
X16685000Y-7310000D01*
X16685000Y-7310000D02*
X16635000Y-7285000D01*
X16635000Y-7285000D02*
X16635000Y-7790000D01*
X16635000Y-7790000D02*
X18225000Y-7790000D01*
X19865000Y-7790000D02*
X19865000Y-6530000D01*
X19865000Y-6530000D02*
X18325000Y-6530000D01*
X18325000Y-6530000D02*
X18325000Y-6625000D01*
X18325000Y-6625000D02*
X18275000Y-6595000D01*
X18275000Y-6595000D02*
X18275000Y-6795000D01*
X18275000Y-6795000D02*
X18325000Y-6770000D01*
X18325000Y-6770000D02*
X18325000Y-7310000D01*
X18325000Y-7310000D02*
X18275000Y-7285000D01*
X18275000Y-7285000D02*
X18275000Y-7790000D01*
X18275000Y-7790000D02*
X19865000Y-7790000D01*
X21505000Y-7790000D02*
X21505000Y-6530000D01*
X21505000Y-6530000D02*
X19965000Y-6530000D01*
X19965000Y-6530000D02*
X19965000Y-6625000D01*
X19965000Y-6625000D02*
X19915000Y-6595000D01*
X19915000Y-6595000D02*
X19915000Y-6795000D01*
X19915000Y-6795000D02*
X19965000Y-6770000D01*
X19965000Y-6770000D02*
X19965000Y-7310000D01*
X19965000Y-7310000D02*
X19915000Y-7285000D01*
X19915000Y-7285000D02*
X19915000Y-7790000D01*
X19915000Y-7790000D02*
X21505000Y-7790000D01*
X13785000Y-7790000D02*
X13785000Y-6530000D01*
X13785000Y-6530000D02*
X12750000Y-6530000D01*
X12750000Y-6530000D02*
X12750000Y-6625000D01*
X12750000Y-6625000D02*
X12700000Y-6600000D01*
X12700000Y-6600000D02*
X12700000Y-6790000D01*
X12700000Y-6790000D02*
X12700000Y-6795000D01*
X12700000Y-6795000D02*
X12750000Y-6770000D01*
X12750000Y-6770000D02*
X12750000Y-7310000D01*
X12750000Y-7310000D02*
X12700000Y-7280000D01*
X12700000Y-7280000D02*
X12700000Y-7790000D01*
X12700000Y-7790000D02*
X13785000Y-7790000D01*
X14945000Y-7790000D02*
X14945000Y-6530000D01*
X14945000Y-6530000D02*
X13910000Y-6530000D01*
X13910000Y-6530000D02*
X13910000Y-6625000D01*
X13910000Y-6625000D02*
X13860000Y-6600000D01*
X13860000Y-6600000D02*
X13860000Y-6790000D01*
X13860000Y-6790000D02*
X13860000Y-6795000D01*
X13860000Y-6795000D02*
X13910000Y-6770000D01*
X13910000Y-6770000D02*
X13910000Y-7310000D01*
X13910000Y-7310000D02*
X13860000Y-7280000D01*
X13860000Y-7280000D02*
X13860000Y-7790000D01*
X13860000Y-7790000D02*
X14945000Y-7790000D01*
X15377000Y-9461000D02*
X15643000Y-9461000D01*
X15377000Y-8947000D02*
X15377000Y-9461000D01*
X15643000Y-8947000D02*
X15643000Y-9461000D01*
X15377000Y-8947000D02*
X15643000Y-8947000D01*
X15377000Y-8820000D02*
X15377000Y-8687000D01*
X15377000Y-8687000D02*
X15510000Y-8687000D01*
X7935000Y-7390000D02*
G75*
G03X7935000Y-7390000I-95000J0D01*
G01*
D12*
X21366191Y-8485238D02*
X21423333Y-8485238D01*
X21394762Y-8585238D02*
X21394762Y-8485238D01*
X21456667Y-8585238D02*
X21456667Y-8485238D01*
X21494762Y-8485238D01*
X21504286Y-8490000D01*
X21509048Y-8494762D01*
X21513810Y-8504286D01*
X21513810Y-8518571D01*
X21509048Y-8528095D01*
X21504286Y-8532857D01*
X21494762Y-8537619D01*
X21456667Y-8537619D01*
X21609048Y-8585238D02*
X21551905Y-8585238D01*
X21580476Y-8585238D02*
X21580476Y-8485238D01*
X21570952Y-8499524D01*
X21561429Y-8509048D01*
X21551905Y-8513810D01*
X21694762Y-8485238D02*
X21675714Y-8485238D01*
X21666191Y-8490000D01*
X21661429Y-8494762D01*
X21651905Y-8509048D01*
X21647143Y-8528095D01*
X21647143Y-8566191D01*
X21651905Y-8575714D01*
X21656667Y-8580476D01*
X21666191Y-8585238D01*
X21685238Y-8585238D01*
X21694762Y-8580476D01*
X21699524Y-8575714D01*
X21704286Y-8566191D01*
X21704286Y-8542381D01*
X21699524Y-8532857D01*
X21694762Y-8528095D01*
X21685238Y-8523333D01*
X21666191Y-8523333D01*
X21656667Y-8528095D01*
X21651905Y-8532857D01*
X21647143Y-8542381D01*
X19472238Y-15419452D02*
X19543667Y-15419452D01*
X19557952Y-15424214D01*
X19567476Y-15433738D01*
X19572238Y-15448024D01*
X19572238Y-15457548D01*
X19572238Y-15319452D02*
X19572238Y-15376595D01*
X19572238Y-15348024D02*
X19472238Y-15348024D01*
X19486524Y-15357548D01*
X19496048Y-15367071D01*
X19500810Y-15376595D01*
X19472238Y-15257548D02*
X19472238Y-15248024D01*
X19477000Y-15238500D01*
X19481762Y-15233738D01*
X19491286Y-15228976D01*
X19510333Y-15224214D01*
X19534143Y-15224214D01*
X19553191Y-15228976D01*
X19562714Y-15233738D01*
X19567476Y-15238500D01*
X19572238Y-15248024D01*
X19572238Y-15257548D01*
X19567476Y-15267071D01*
X19562714Y-15271833D01*
X19553191Y-15276595D01*
X19534143Y-15281357D01*
X19510333Y-15281357D01*
X19491286Y-15276595D01*
X19481762Y-15271833D01*
X19477000Y-15267071D01*
X19472238Y-15257548D01*
X9300238Y-11563333D02*
X9371667Y-11563333D01*
X9385952Y-11568095D01*
X9395476Y-11577619D01*
X9400238Y-11591905D01*
X9400238Y-11601429D01*
X9400238Y-11510952D02*
X9400238Y-11491905D01*
X9395476Y-11482381D01*
X9390714Y-11477619D01*
X9376429Y-11468095D01*
X9357381Y-11463333D01*
X9319286Y-11463333D01*
X9309762Y-11468095D01*
X9305000Y-11472857D01*
X9300238Y-11482381D01*
X9300238Y-11501429D01*
X9305000Y-11510952D01*
X9309762Y-11515714D01*
X9319286Y-11520476D01*
X9343095Y-11520476D01*
X9352619Y-11515714D01*
X9357381Y-11510952D01*
X9362143Y-11501429D01*
X9362143Y-11482381D01*
X9357381Y-11472857D01*
X9352619Y-11468095D01*
X9343095Y-11463333D01*
X9055714Y-16085714D02*
X9050952Y-16090476D01*
X9036667Y-16095238D01*
X9027143Y-16095238D01*
X9012857Y-16090476D01*
X9003333Y-16080952D01*
X8998571Y-16071429D01*
X8993810Y-16052381D01*
X8993810Y-16038095D01*
X8998571Y-16019048D01*
X9003333Y-16009524D01*
X9012857Y-16000000D01*
X9027143Y-15995238D01*
X9036667Y-15995238D01*
X9050952Y-16000000D01*
X9055714Y-16004762D01*
X9141429Y-16028571D02*
X9141429Y-16095238D01*
X9117619Y-15990476D02*
X9093810Y-16061905D01*
X9155714Y-16061905D01*
X9189048Y-16004762D02*
X9193810Y-16000000D01*
X9203333Y-15995238D01*
X9227143Y-15995238D01*
X9236667Y-16000000D01*
X9241429Y-16004762D01*
X9246191Y-16014286D01*
X9246191Y-16023809D01*
X9241429Y-16038095D01*
X9184286Y-16095238D01*
X9246191Y-16095238D01*
X15609048Y-8385238D02*
X15609048Y-8456667D01*
X15604286Y-8470952D01*
X15594762Y-8480476D01*
X15580476Y-8485238D01*
X15570952Y-8485238D01*
X15709048Y-8485238D02*
X15651905Y-8485238D01*
X15680476Y-8485238D02*
X15680476Y-8385238D01*
X15670952Y-8399524D01*
X15661429Y-8409048D01*
X15651905Y-8413810D01*
X15799524Y-8385238D02*
X15751905Y-8385238D01*
X15747143Y-8432857D01*
X15751905Y-8428095D01*
X15761429Y-8423333D01*
X15785238Y-8423333D01*
X15794762Y-8428095D01*
X15799524Y-8432857D01*
X15804286Y-8442381D01*
X15804286Y-8466191D01*
X15799524Y-8475714D01*
X15794762Y-8480476D01*
X15785238Y-8485238D01*
X15761429Y-8485238D01*
X15751905Y-8480476D01*
X15747143Y-8475714D01*
X8174667Y-6406238D02*
X8174667Y-6477667D01*
X8169905Y-6491952D01*
X8160381Y-6501476D01*
X8146095Y-6506238D01*
X8136571Y-6506238D01*
X8212762Y-6406238D02*
X8279429Y-6406238D01*
X8236571Y-6506238D01*
X14782762Y-12425524D02*
X14778000Y-12435048D01*
X14768476Y-12444571D01*
X14754190Y-12458857D01*
X14749429Y-12468381D01*
X14749429Y-12477905D01*
X14773238Y-12473143D02*
X14768476Y-12482667D01*
X14758952Y-12492190D01*
X14739905Y-12496952D01*
X14706571Y-12496952D01*
X14687524Y-12492190D01*
X14678000Y-12482667D01*
X14673238Y-12473143D01*
X14673238Y-12454095D01*
X14678000Y-12444571D01*
X14687524Y-12435048D01*
X14706571Y-12430286D01*
X14739905Y-12430286D01*
X14758952Y-12435048D01*
X14768476Y-12444571D01*
X14773238Y-12454095D01*
X14773238Y-12473143D01*
X14673238Y-12344571D02*
X14673238Y-12363619D01*
X14678000Y-12373143D01*
X14682762Y-12377905D01*
X14697048Y-12387429D01*
X14716095Y-12392190D01*
X14754190Y-12392190D01*
X14763714Y-12387429D01*
X14768476Y-12382667D01*
X14773238Y-12373143D01*
X14773238Y-12354095D01*
X14768476Y-12344571D01*
X14763714Y-12339809D01*
X14754190Y-12335048D01*
X14730381Y-12335048D01*
X14720857Y-12339809D01*
X14716095Y-12344571D01*
X14711333Y-12354095D01*
X14711333Y-12373143D01*
X14716095Y-12382667D01*
X14720857Y-12387429D01*
X14730381Y-12392190D01*
X9956762Y-10773524D02*
X9952000Y-10783048D01*
X9942476Y-10792571D01*
X9928191Y-10806857D01*
X9923429Y-10816381D01*
X9923429Y-10825905D01*
X9947238Y-10821143D02*
X9942476Y-10830667D01*
X9932952Y-10840191D01*
X9913905Y-10844952D01*
X9880571Y-10844952D01*
X9861524Y-10840191D01*
X9852000Y-10830667D01*
X9847238Y-10821143D01*
X9847238Y-10802095D01*
X9852000Y-10792571D01*
X9861524Y-10783048D01*
X9880571Y-10778286D01*
X9913905Y-10778286D01*
X9932952Y-10783048D01*
X9942476Y-10792571D01*
X9947238Y-10802095D01*
X9947238Y-10821143D01*
X9847238Y-10744952D02*
X9847238Y-10683048D01*
X9885333Y-10716381D01*
X9885333Y-10702095D01*
X9890095Y-10692571D01*
X9894857Y-10687810D01*
X9904381Y-10683048D01*
X9928191Y-10683048D01*
X9937714Y-10687810D01*
X9942476Y-10692571D01*
X9947238Y-10702095D01*
X9947238Y-10730667D01*
X9942476Y-10740191D01*
X9937714Y-10744952D01*
X9956762Y-12173524D02*
X9952000Y-12183048D01*
X9942476Y-12192571D01*
X9928191Y-12206857D01*
X9923429Y-12216381D01*
X9923429Y-12225905D01*
X9947238Y-12221143D02*
X9942476Y-12230667D01*
X9932952Y-12240190D01*
X9913905Y-12244952D01*
X9880571Y-12244952D01*
X9861524Y-12240190D01*
X9852000Y-12230667D01*
X9847238Y-12221143D01*
X9847238Y-12202095D01*
X9852000Y-12192571D01*
X9861524Y-12183048D01*
X9880571Y-12178286D01*
X9913905Y-12178286D01*
X9932952Y-12183048D01*
X9942476Y-12192571D01*
X9947238Y-12202095D01*
X9947238Y-12221143D01*
X9847238Y-12087809D02*
X9847238Y-12135429D01*
X9894857Y-12140190D01*
X9890095Y-12135429D01*
X9885333Y-12125905D01*
X9885333Y-12102095D01*
X9890095Y-12092571D01*
X9894857Y-12087809D01*
X9904381Y-12083048D01*
X9928191Y-12083048D01*
X9937714Y-12087809D01*
X9942476Y-12092571D01*
X9947238Y-12102095D01*
X9947238Y-12125905D01*
X9942476Y-12135429D01*
X9937714Y-12140190D01*
X9956762Y-9373524D02*
X9952000Y-9383048D01*
X9942476Y-9392571D01*
X9928191Y-9406857D01*
X9923429Y-9416381D01*
X9923429Y-9425905D01*
X9947238Y-9421143D02*
X9942476Y-9430667D01*
X9932952Y-9440191D01*
X9913905Y-9444952D01*
X9880571Y-9444952D01*
X9861524Y-9440191D01*
X9852000Y-9430667D01*
X9847238Y-9421143D01*
X9847238Y-9402095D01*
X9852000Y-9392571D01*
X9861524Y-9383048D01*
X9880571Y-9378286D01*
X9913905Y-9378286D01*
X9932952Y-9383048D01*
X9942476Y-9392571D01*
X9947238Y-9402095D01*
X9947238Y-9421143D01*
X9947238Y-9283048D02*
X9947238Y-9340191D01*
X9947238Y-9311619D02*
X9847238Y-9311619D01*
X9861524Y-9321143D01*
X9871048Y-9330667D01*
X9875810Y-9340191D01*
X14782762Y-9625524D02*
X14778000Y-9635048D01*
X14768476Y-9644571D01*
X14754190Y-9658857D01*
X14749429Y-9668381D01*
X14749429Y-9677905D01*
X14773238Y-9673143D02*
X14768476Y-9682667D01*
X14758952Y-9692191D01*
X14739905Y-9696952D01*
X14706571Y-9696952D01*
X14687524Y-9692191D01*
X14678000Y-9682667D01*
X14673238Y-9673143D01*
X14673238Y-9654095D01*
X14678000Y-9644571D01*
X14687524Y-9635048D01*
X14706571Y-9630286D01*
X14739905Y-9630286D01*
X14758952Y-9635048D01*
X14768476Y-9644571D01*
X14773238Y-9654095D01*
X14773238Y-9673143D01*
X14682762Y-9592191D02*
X14678000Y-9587429D01*
X14673238Y-9577905D01*
X14673238Y-9554095D01*
X14678000Y-9544571D01*
X14682762Y-9539810D01*
X14692286Y-9535048D01*
X14701809Y-9535048D01*
X14716095Y-9539810D01*
X14773238Y-9596952D01*
X14773238Y-9535048D01*
X7701309Y-15687738D02*
X7758452Y-15687738D01*
X7729881Y-15787738D02*
X7729881Y-15687738D01*
X7791786Y-15787738D02*
X7791786Y-15687738D01*
X7829881Y-15687738D01*
X7839405Y-15692500D01*
X7844167Y-15697262D01*
X7848929Y-15706786D01*
X7848929Y-15721071D01*
X7844167Y-15730595D01*
X7839405Y-15735357D01*
X7829881Y-15740119D01*
X7791786Y-15740119D01*
X7934643Y-15721071D02*
X7934643Y-15787738D01*
X7910833Y-15682976D02*
X7887024Y-15754405D01*
X7948929Y-15754405D01*
X20366191Y-15635238D02*
X20423333Y-15635238D01*
X20394762Y-15735238D02*
X20394762Y-15635238D01*
X20456667Y-15735238D02*
X20456667Y-15635238D01*
X20494762Y-15635238D01*
X20504286Y-15640000D01*
X20509048Y-15644762D01*
X20513810Y-15654286D01*
X20513810Y-15668571D01*
X20509048Y-15678095D01*
X20504286Y-15682857D01*
X20494762Y-15687619D01*
X20456667Y-15687619D01*
X20609048Y-15735238D02*
X20551905Y-15735238D01*
X20580476Y-15735238D02*
X20580476Y-15635238D01*
X20570952Y-15649524D01*
X20561429Y-15659048D01*
X20551905Y-15663809D01*
X20642381Y-15635238D02*
X20709048Y-15635238D01*
X20666191Y-15735238D01*
X19866191Y-15635238D02*
X19923333Y-15635238D01*
X19894762Y-15735238D02*
X19894762Y-15635238D01*
X19956667Y-15735238D02*
X19956667Y-15635238D01*
X19994762Y-15635238D01*
X20004286Y-15640000D01*
X20009048Y-15644762D01*
X20013810Y-15654286D01*
X20013810Y-15668571D01*
X20009048Y-15678095D01*
X20004286Y-15682857D01*
X19994762Y-15687619D01*
X19956667Y-15687619D01*
X20109048Y-15735238D02*
X20051905Y-15735238D01*
X20080476Y-15735238D02*
X20080476Y-15635238D01*
X20070952Y-15649524D01*
X20061429Y-15659048D01*
X20051905Y-15663809D01*
X20166191Y-15678095D02*
X20156667Y-15673333D01*
X20151905Y-15668571D01*
X20147143Y-15659048D01*
X20147143Y-15654286D01*
X20151905Y-15644762D01*
X20156667Y-15640000D01*
X20166191Y-15635238D01*
X20185238Y-15635238D01*
X20194762Y-15640000D01*
X20199524Y-15644762D01*
X20204286Y-15654286D01*
X20204286Y-15659048D01*
X20199524Y-15668571D01*
X20194762Y-15673333D01*
X20185238Y-15678095D01*
X20166191Y-15678095D01*
X20156667Y-15682857D01*
X20151905Y-15687619D01*
X20147143Y-15697143D01*
X20147143Y-15716190D01*
X20151905Y-15725714D01*
X20156667Y-15730476D01*
X20166191Y-15735238D01*
X20185238Y-15735238D01*
X20194762Y-15730476D01*
X20199524Y-15725714D01*
X20204286Y-15716190D01*
X20204286Y-15697143D01*
X20199524Y-15687619D01*
X20194762Y-15682857D01*
X20185238Y-15678095D01*
X14841190Y-11640238D02*
X14898333Y-11640238D01*
X14869762Y-11740238D02*
X14869762Y-11640238D01*
X14931667Y-11740238D02*
X14931667Y-11640238D01*
X14969762Y-11640238D01*
X14979286Y-11645000D01*
X14984048Y-11649762D01*
X14988810Y-11659286D01*
X14988810Y-11673571D01*
X14984048Y-11683095D01*
X14979286Y-11687857D01*
X14969762Y-11692619D01*
X14931667Y-11692619D01*
X15084048Y-11740238D02*
X15026905Y-11740238D01*
X15055476Y-11740238D02*
X15055476Y-11640238D01*
X15045952Y-11654524D01*
X15036429Y-11664048D01*
X15026905Y-11668809D01*
X15131667Y-11740238D02*
X15150714Y-11740238D01*
X15160238Y-11735476D01*
X15165000Y-11730714D01*
X15174524Y-11716429D01*
X15179286Y-11697381D01*
X15179286Y-11659286D01*
X15174524Y-11649762D01*
X15169762Y-11645000D01*
X15160238Y-11640238D01*
X15141190Y-11640238D01*
X15131667Y-11645000D01*
X15126905Y-11649762D01*
X15122143Y-11659286D01*
X15122143Y-11683095D01*
X15126905Y-11692619D01*
X15131667Y-11697381D01*
X15141190Y-11702143D01*
X15160238Y-11702143D01*
X15169762Y-11697381D01*
X15174524Y-11692619D01*
X15179286Y-11683095D01*
X14445238Y-11254286D02*
X14397619Y-11287619D01*
X14445238Y-11311429D02*
X14345238Y-11311429D01*
X14345238Y-11273333D01*
X14350000Y-11263809D01*
X14354762Y-11259048D01*
X14364286Y-11254286D01*
X14378571Y-11254286D01*
X14388095Y-11259048D01*
X14392857Y-11263809D01*
X14397619Y-11273333D01*
X14397619Y-11311429D01*
X14345238Y-11220952D02*
X14345238Y-11159048D01*
X14383333Y-11192381D01*
X14383333Y-11178095D01*
X14388095Y-11168571D01*
X14392857Y-11163810D01*
X14402381Y-11159048D01*
X14426190Y-11159048D01*
X14435714Y-11163810D01*
X14440476Y-11168571D01*
X14445238Y-11178095D01*
X14445238Y-11206667D01*
X14440476Y-11216190D01*
X14435714Y-11220952D01*
X14345238Y-11068571D02*
X14345238Y-11116191D01*
X14392857Y-11120952D01*
X14388095Y-11116191D01*
X14383333Y-11106667D01*
X14383333Y-11082857D01*
X14388095Y-11073333D01*
X14392857Y-11068571D01*
X14402381Y-11063810D01*
X14426190Y-11063810D01*
X14435714Y-11068571D01*
X14440476Y-11073333D01*
X14445238Y-11082857D01*
X14445238Y-11106667D01*
X14440476Y-11116191D01*
X14435714Y-11120952D01*
X14515238Y-14154286D02*
X14467619Y-14187619D01*
X14515238Y-14211429D02*
X14415238Y-14211429D01*
X14415238Y-14173333D01*
X14420000Y-14163809D01*
X14424762Y-14159048D01*
X14434286Y-14154286D01*
X14448571Y-14154286D01*
X14458095Y-14159048D01*
X14462857Y-14163809D01*
X14467619Y-14173333D01*
X14467619Y-14211429D01*
X14415238Y-14120952D02*
X14415238Y-14059048D01*
X14453333Y-14092381D01*
X14453333Y-14078095D01*
X14458095Y-14068571D01*
X14462857Y-14063809D01*
X14472381Y-14059048D01*
X14496190Y-14059048D01*
X14505714Y-14063809D01*
X14510476Y-14068571D01*
X14515238Y-14078095D01*
X14515238Y-14106667D01*
X14510476Y-14116190D01*
X14505714Y-14120952D01*
X14415238Y-13973333D02*
X14415238Y-13992381D01*
X14420000Y-14001905D01*
X14424762Y-14006667D01*
X14439048Y-14016190D01*
X14458095Y-14020952D01*
X14496190Y-14020952D01*
X14505714Y-14016190D01*
X14510476Y-14011429D01*
X14515238Y-14001905D01*
X14515238Y-13982857D01*
X14510476Y-13973333D01*
X14505714Y-13968571D01*
X14496190Y-13963809D01*
X14472381Y-13963809D01*
X14462857Y-13968571D01*
X14458095Y-13973333D01*
X14453333Y-13982857D01*
X14453333Y-14001905D01*
X14458095Y-14011429D01*
X14462857Y-14016190D01*
X14472381Y-14020952D01*
X14782762Y-11025524D02*
X14778000Y-11035048D01*
X14768476Y-11044571D01*
X14754190Y-11058857D01*
X14749429Y-11068381D01*
X14749429Y-11077905D01*
X14773238Y-11073143D02*
X14768476Y-11082667D01*
X14758952Y-11092191D01*
X14739905Y-11096952D01*
X14706571Y-11096952D01*
X14687524Y-11092191D01*
X14678000Y-11082667D01*
X14673238Y-11073143D01*
X14673238Y-11054095D01*
X14678000Y-11044571D01*
X14687524Y-11035048D01*
X14706571Y-11030286D01*
X14739905Y-11030286D01*
X14758952Y-11035048D01*
X14768476Y-11044571D01*
X14773238Y-11054095D01*
X14773238Y-11073143D01*
X14706571Y-10944571D02*
X14773238Y-10944571D01*
X14668476Y-10968381D02*
X14739905Y-10992191D01*
X14739905Y-10930286D01*
X9956762Y-13573524D02*
X9952000Y-13583048D01*
X9942476Y-13592571D01*
X9928191Y-13606857D01*
X9923429Y-13616381D01*
X9923429Y-13625905D01*
X9947238Y-13621143D02*
X9942476Y-13630667D01*
X9932952Y-13640190D01*
X9913905Y-13644952D01*
X9880571Y-13644952D01*
X9861524Y-13640190D01*
X9852000Y-13630667D01*
X9847238Y-13621143D01*
X9847238Y-13602095D01*
X9852000Y-13592571D01*
X9861524Y-13583048D01*
X9880571Y-13578286D01*
X9913905Y-13578286D01*
X9932952Y-13583048D01*
X9942476Y-13592571D01*
X9947238Y-13602095D01*
X9947238Y-13621143D01*
X9847238Y-13544952D02*
X9847238Y-13478286D01*
X9947238Y-13521143D01*
X14782762Y-13825524D02*
X14778000Y-13835048D01*
X14768476Y-13844571D01*
X14754190Y-13858857D01*
X14749429Y-13868381D01*
X14749429Y-13877905D01*
X14773238Y-13873143D02*
X14768476Y-13882667D01*
X14758952Y-13892190D01*
X14739905Y-13896952D01*
X14706571Y-13896952D01*
X14687524Y-13892190D01*
X14678000Y-13882667D01*
X14673238Y-13873143D01*
X14673238Y-13854095D01*
X14678000Y-13844571D01*
X14687524Y-13835048D01*
X14706571Y-13830286D01*
X14739905Y-13830286D01*
X14758952Y-13835048D01*
X14768476Y-13844571D01*
X14773238Y-13854095D01*
X14773238Y-13873143D01*
X14716095Y-13773143D02*
X14711333Y-13782667D01*
X14706571Y-13787429D01*
X14697048Y-13792190D01*
X14692286Y-13792190D01*
X14682762Y-13787429D01*
X14678000Y-13782667D01*
X14673238Y-13773143D01*
X14673238Y-13754095D01*
X14678000Y-13744571D01*
X14682762Y-13739809D01*
X14692286Y-13735048D01*
X14697048Y-13735048D01*
X14706571Y-13739809D01*
X14711333Y-13744571D01*
X14716095Y-13754095D01*
X14716095Y-13773143D01*
X14720857Y-13782667D01*
X14725619Y-13787429D01*
X14735143Y-13792190D01*
X14754190Y-13792190D01*
X14763714Y-13787429D01*
X14768476Y-13782667D01*
X14773238Y-13773143D01*
X14773238Y-13754095D01*
X14768476Y-13744571D01*
X14763714Y-13739809D01*
X14754190Y-13735048D01*
X14735143Y-13735048D01*
X14725619Y-13739809D01*
X14720857Y-13744571D01*
X14716095Y-13754095D01*
X11596667Y-15975238D02*
X11596667Y-16046667D01*
X11591905Y-16060952D01*
X11582381Y-16070476D01*
X11568095Y-16075238D01*
X11558571Y-16075238D01*
X11658571Y-16018095D02*
X11649048Y-16013333D01*
X11644286Y-16008571D01*
X11639524Y-15999048D01*
X11639524Y-15994286D01*
X11644286Y-15984762D01*
X11649048Y-15980000D01*
X11658571Y-15975238D01*
X11677619Y-15975238D01*
X11687143Y-15980000D01*
X11691905Y-15984762D01*
X11696667Y-15994286D01*
X11696667Y-15999048D01*
X11691905Y-16008571D01*
X11687143Y-16013333D01*
X11677619Y-16018095D01*
X11658571Y-16018095D01*
X11649048Y-16022857D01*
X11644286Y-16027619D01*
X11639524Y-16037143D01*
X11639524Y-16056190D01*
X11644286Y-16065714D01*
X11649048Y-16070476D01*
X11658571Y-16075238D01*
X11677619Y-16075238D01*
X11687143Y-16070476D01*
X11691905Y-16065714D01*
X11696667Y-16056190D01*
X11696667Y-16037143D01*
X11691905Y-16027619D01*
X11687143Y-16022857D01*
X11677619Y-16018095D01*
X14429048Y-15985238D02*
X14429048Y-16056667D01*
X14424286Y-16070952D01*
X14414762Y-16080476D01*
X14400476Y-16085238D01*
X14390952Y-16085238D01*
X14529048Y-16085238D02*
X14471905Y-16085238D01*
X14500476Y-16085238D02*
X14500476Y-15985238D01*
X14490952Y-15999524D01*
X14481429Y-16009048D01*
X14471905Y-16013809D01*
X14614762Y-16018571D02*
X14614762Y-16085238D01*
X14590952Y-15980476D02*
X14567143Y-16051905D01*
X14629048Y-16051905D01*
X20809048Y-8305238D02*
X20809048Y-8376667D01*
X20804286Y-8390952D01*
X20794762Y-8400476D01*
X20780476Y-8405238D01*
X20770952Y-8405238D01*
X20909048Y-8405238D02*
X20851905Y-8405238D01*
X20880476Y-8405238D02*
X20880476Y-8305238D01*
X20870952Y-8319524D01*
X20861429Y-8329048D01*
X20851905Y-8333809D01*
X20994762Y-8305238D02*
X20975714Y-8305238D01*
X20966191Y-8310000D01*
X20961429Y-8314762D01*
X20951905Y-8329048D01*
X20947143Y-8348095D01*
X20947143Y-8386190D01*
X20951905Y-8395714D01*
X20956667Y-8400476D01*
X20966191Y-8405238D01*
X20985238Y-8405238D01*
X20994762Y-8400476D01*
X20999524Y-8395714D01*
X21004286Y-8386190D01*
X21004286Y-8362381D01*
X20999524Y-8352857D01*
X20994762Y-8348095D01*
X20985238Y-8343333D01*
X20966191Y-8343333D01*
X20956667Y-8348095D01*
X20951905Y-8352857D01*
X20947143Y-8362381D01*
X8975714Y-10325714D02*
X8970952Y-10330476D01*
X8956667Y-10335238D01*
X8947143Y-10335238D01*
X8932857Y-10330476D01*
X8923333Y-10320952D01*
X8918571Y-10311429D01*
X8913810Y-10292381D01*
X8913810Y-10278095D01*
X8918571Y-10259048D01*
X8923333Y-10249524D01*
X8932857Y-10240000D01*
X8947143Y-10235238D01*
X8956667Y-10235238D01*
X8970952Y-10240000D01*
X8975714Y-10244762D01*
X9070952Y-10335238D02*
X9013810Y-10335238D01*
X9042381Y-10335238D02*
X9042381Y-10235238D01*
X9032857Y-10249524D01*
X9023333Y-10259048D01*
X9013810Y-10263810D01*
X9156667Y-10268571D02*
X9156667Y-10335238D01*
X9132857Y-10230476D02*
X9109048Y-10301905D01*
X9170952Y-10301905D01*
X8975714Y-14675714D02*
X8970952Y-14680476D01*
X8956667Y-14685238D01*
X8947143Y-14685238D01*
X8932857Y-14680476D01*
X8923333Y-14670952D01*
X8918571Y-14661429D01*
X8913810Y-14642381D01*
X8913810Y-14628095D01*
X8918571Y-14609048D01*
X8923333Y-14599524D01*
X8932857Y-14590000D01*
X8947143Y-14585238D01*
X8956667Y-14585238D01*
X8970952Y-14590000D01*
X8975714Y-14594762D01*
X9070952Y-14685238D02*
X9013810Y-14685238D01*
X9042381Y-14685238D02*
X9042381Y-14585238D01*
X9032857Y-14599524D01*
X9023333Y-14609048D01*
X9013810Y-14613809D01*
X9156667Y-14585238D02*
X9137619Y-14585238D01*
X9128095Y-14590000D01*
X9123333Y-14594762D01*
X9113810Y-14609048D01*
X9109048Y-14628095D01*
X9109048Y-14666190D01*
X9113810Y-14675714D01*
X9118571Y-14680476D01*
X9128095Y-14685238D01*
X9147143Y-14685238D01*
X9156667Y-14680476D01*
X9161429Y-14675714D01*
X9166191Y-14666190D01*
X9166191Y-14642381D01*
X9161429Y-14632857D01*
X9156667Y-14628095D01*
X9147143Y-14623333D01*
X9128095Y-14623333D01*
X9118571Y-14628095D01*
X9113810Y-14632857D01*
X9109048Y-14642381D01*
X10315714Y-16075714D02*
X10310952Y-16080476D01*
X10296667Y-16085238D01*
X10287143Y-16085238D01*
X10272857Y-16080476D01*
X10263333Y-16070952D01*
X10258571Y-16061429D01*
X10253810Y-16042381D01*
X10253810Y-16028095D01*
X10258571Y-16009048D01*
X10263333Y-15999524D01*
X10272857Y-15990000D01*
X10287143Y-15985238D01*
X10296667Y-15985238D01*
X10310952Y-15990000D01*
X10315714Y-15994762D01*
X10401429Y-16018571D02*
X10401429Y-16085238D01*
X10377619Y-15980476D02*
X10353810Y-16051905D01*
X10415714Y-16051905D01*
X10444286Y-15985238D02*
X10506191Y-15985238D01*
X10472857Y-16023333D01*
X10487143Y-16023333D01*
X10496667Y-16028095D01*
X10501429Y-16032857D01*
X10506191Y-16042381D01*
X10506191Y-16066190D01*
X10501429Y-16075714D01*
X10496667Y-16080476D01*
X10487143Y-16085238D01*
X10458571Y-16085238D01*
X10449048Y-16080476D01*
X10444286Y-16075714D01*
X16496667Y-7845238D02*
X16496667Y-7916667D01*
X16491905Y-7930952D01*
X16482381Y-7940476D01*
X16468095Y-7945238D01*
X16458571Y-7945238D01*
X16596667Y-7945238D02*
X16539524Y-7945238D01*
X16568095Y-7945238D02*
X16568095Y-7845238D01*
X16558571Y-7859524D01*
X16549048Y-7869048D01*
X16539524Y-7873809D01*
X18156667Y-7835238D02*
X18156667Y-7906667D01*
X18151905Y-7920952D01*
X18142381Y-7930476D01*
X18128095Y-7935238D01*
X18118571Y-7935238D01*
X18199524Y-7844762D02*
X18204286Y-7840000D01*
X18213810Y-7835238D01*
X18237619Y-7835238D01*
X18247143Y-7840000D01*
X18251905Y-7844762D01*
X18256667Y-7854286D01*
X18256667Y-7863809D01*
X18251905Y-7878095D01*
X18194762Y-7935238D01*
X18256667Y-7935238D01*
X19766667Y-7837738D02*
X19766667Y-7909167D01*
X19761905Y-7923452D01*
X19752381Y-7932976D01*
X19738095Y-7937738D01*
X19728571Y-7937738D01*
X19804762Y-7837738D02*
X19866667Y-7837738D01*
X19833333Y-7875833D01*
X19847619Y-7875833D01*
X19857143Y-7880595D01*
X19861905Y-7885357D01*
X19866667Y-7894881D01*
X19866667Y-7918690D01*
X19861905Y-7928214D01*
X19857143Y-7932976D01*
X19847619Y-7937738D01*
X19819048Y-7937738D01*
X19809524Y-7932976D01*
X19804762Y-7928214D01*
X21421667Y-7837738D02*
X21421667Y-7909167D01*
X21416905Y-7923452D01*
X21407381Y-7932976D01*
X21393095Y-7937738D01*
X21383571Y-7937738D01*
X21512143Y-7871071D02*
X21512143Y-7937738D01*
X21488333Y-7832976D02*
X21464524Y-7904405D01*
X21526429Y-7904405D01*
X12616667Y-7825238D02*
X12616667Y-7896667D01*
X12611905Y-7910952D01*
X12602381Y-7920476D01*
X12588095Y-7925238D01*
X12578571Y-7925238D01*
X12711905Y-7825238D02*
X12664286Y-7825238D01*
X12659524Y-7872857D01*
X12664286Y-7868095D01*
X12673809Y-7863333D01*
X12697619Y-7863333D01*
X12707143Y-7868095D01*
X12711905Y-7872857D01*
X12716667Y-7882381D01*
X12716667Y-7906190D01*
X12711905Y-7915714D01*
X12707143Y-7920476D01*
X12697619Y-7925238D01*
X12673809Y-7925238D01*
X12664286Y-7920476D01*
X12659524Y-7915714D01*
X13816667Y-7815238D02*
X13816667Y-7886667D01*
X13811905Y-7900952D01*
X13802381Y-7910476D01*
X13788095Y-7915238D01*
X13778571Y-7915238D01*
X13907143Y-7815238D02*
X13888095Y-7815238D01*
X13878571Y-7820000D01*
X13873809Y-7824762D01*
X13864286Y-7839048D01*
X13859524Y-7858095D01*
X13859524Y-7896190D01*
X13864286Y-7905714D01*
X13869048Y-7910476D01*
X13878571Y-7915238D01*
X13897619Y-7915238D01*
X13907143Y-7910476D01*
X13911905Y-7905714D01*
X13916667Y-7896190D01*
X13916667Y-7872381D01*
X13911905Y-7862857D01*
X13907143Y-7858095D01*
X13897619Y-7853333D01*
X13878571Y-7853333D01*
X13869048Y-7858095D01*
X13864286Y-7862857D01*
X13859524Y-7872381D01*
X15359048Y-9485238D02*
X15359048Y-9556667D01*
X15354286Y-9570952D01*
X15344762Y-9580476D01*
X15330476Y-9585238D01*
X15320952Y-9585238D01*
X15459048Y-9585238D02*
X15401905Y-9585238D01*
X15430476Y-9585238D02*
X15430476Y-9485238D01*
X15420952Y-9499524D01*
X15411429Y-9509048D01*
X15401905Y-9513810D01*
X15497143Y-9494762D02*
X15501905Y-9490000D01*
X15511429Y-9485238D01*
X15535238Y-9485238D01*
X15544762Y-9490000D01*
X15549524Y-9494762D01*
X15554286Y-9504286D01*
X15554286Y-9513810D01*
X15549524Y-9528095D01*
X15492381Y-9585238D01*
X15554286Y-9585238D01*
X7713809Y-7170438D02*
X7770952Y-7170438D01*
X7742381Y-7270438D02*
X7742381Y-7170438D01*
X7804286Y-7270438D02*
X7804286Y-7170438D01*
X7842381Y-7170438D01*
X7851905Y-7175200D01*
X7856667Y-7179962D01*
X7861429Y-7189486D01*
X7861429Y-7203771D01*
X7856667Y-7213295D01*
X7851905Y-7218057D01*
X7842381Y-7222819D01*
X7804286Y-7222819D01*
X7899524Y-7179962D02*
X7904286Y-7175200D01*
X7913809Y-7170438D01*
X7937619Y-7170438D01*
X7947143Y-7175200D01*
X7951905Y-7179962D01*
X7956667Y-7189486D01*
X7956667Y-7199009D01*
X7951905Y-7213295D01*
X7894762Y-7270438D01*
X7956667Y-7270438D01*
M02*
