G04 #@! TF.FileFunction,Legend,Bot*
%FSLAX45Y45*%
G04 Gerber Fmt 4.5, Leading zero omitted, Abs format (unit mm)*
G04 Created by KiCad (PCBNEW 4.0.7-e2-6376~58~ubuntu16.04.1) date Tue Mar 13 11:29:04 2018*
%MOMM*%
%LPD*%
G01*
G04 APERTURE LIST*
%ADD10C,0.100000*%
%ADD11C,0.300000*%
%ADD12C,0.200000*%
%ADD13C,0.150000*%
%ADD14C,0.120000*%
G04 APERTURE END LIST*
D10*
D11*
X11447143Y-9160714D02*
X11332857Y-9160714D01*
X11390000Y-9217857D02*
X11390000Y-9103571D01*
X11447143Y-10560714D02*
X11332857Y-10560714D01*
X11390000Y-10617857D02*
X11390000Y-10503571D01*
X11437143Y-11960714D02*
X11322857Y-11960714D01*
X11380000Y-12017857D02*
X11380000Y-11903571D01*
X11437143Y-13360714D02*
X11322857Y-13360714D01*
X11380000Y-13417857D02*
X11380000Y-13303571D01*
X11997143Y-12970714D02*
X11882857Y-12970714D01*
X11940000Y-13027857D02*
X11940000Y-12913571D01*
X12007143Y-11570714D02*
X11892857Y-11570714D01*
X11950000Y-11627857D02*
X11950000Y-11513571D01*
X12007143Y-10160714D02*
X11892857Y-10160714D01*
X11950000Y-10217857D02*
X11950000Y-10103571D01*
X11997143Y-8790714D02*
X11882857Y-8790714D01*
X11940000Y-8847857D02*
X11940000Y-8733571D01*
X11930000Y-8573571D02*
X11922857Y-8580714D01*
X11930000Y-8587857D01*
X11937143Y-8580714D01*
X11930000Y-8573571D01*
X11930000Y-8587857D01*
X11930000Y-8530714D02*
X11937143Y-8445000D01*
X11930000Y-8437857D01*
X11922857Y-8445000D01*
X11930000Y-8530714D01*
X11930000Y-8437857D01*
D12*
X21060000Y-14270000D02*
X21060000Y-14360000D01*
X21060000Y-13520000D02*
X21060000Y-13610000D01*
X21060000Y-13260000D02*
X21060000Y-13350000D01*
D13*
X21240238Y-13448214D02*
X21140238Y-13448214D01*
X21187857Y-13448214D02*
X21187857Y-13505357D01*
X21240238Y-13505357D02*
X21140238Y-13505357D01*
X21240238Y-13595833D02*
X21187857Y-13595833D01*
X21178333Y-13591071D01*
X21173571Y-13581548D01*
X21173571Y-13562500D01*
X21178333Y-13552976D01*
X21235476Y-13595833D02*
X21240238Y-13586309D01*
X21240238Y-13562500D01*
X21235476Y-13552976D01*
X21225952Y-13548214D01*
X21216429Y-13548214D01*
X21206905Y-13552976D01*
X21202143Y-13562500D01*
X21202143Y-13586309D01*
X21197381Y-13595833D01*
X21240238Y-13657738D02*
X21235476Y-13648214D01*
X21225952Y-13643452D01*
X21140238Y-13643452D01*
X21240238Y-13710119D02*
X21235476Y-13700595D01*
X21225952Y-13695833D01*
X21140238Y-13695833D01*
X21240238Y-13824405D02*
X21173571Y-13824405D01*
X21183095Y-13824405D02*
X21178333Y-13829167D01*
X21173571Y-13838690D01*
X21173571Y-13852976D01*
X21178333Y-13862500D01*
X21187857Y-13867262D01*
X21240238Y-13867262D01*
X21187857Y-13867262D02*
X21178333Y-13872024D01*
X21173571Y-13881548D01*
X21173571Y-13895833D01*
X21178333Y-13905357D01*
X21187857Y-13910119D01*
X21240238Y-13910119D01*
X21240238Y-13972024D02*
X21235476Y-13962500D01*
X21230714Y-13957738D01*
X21221191Y-13952976D01*
X21192619Y-13952976D01*
X21183095Y-13957738D01*
X21178333Y-13962500D01*
X21173571Y-13972024D01*
X21173571Y-13986310D01*
X21178333Y-13995833D01*
X21183095Y-14000595D01*
X21192619Y-14005357D01*
X21221191Y-14005357D01*
X21230714Y-14000595D01*
X21235476Y-13995833D01*
X21240238Y-13986310D01*
X21240238Y-13972024D01*
X21240238Y-14091071D02*
X21140238Y-14091071D01*
X21235476Y-14091071D02*
X21240238Y-14081548D01*
X21240238Y-14062500D01*
X21235476Y-14052976D01*
X21230714Y-14048214D01*
X21221191Y-14043452D01*
X21192619Y-14043452D01*
X21183095Y-14048214D01*
X21178333Y-14052976D01*
X21173571Y-14062500D01*
X21173571Y-14081548D01*
X21178333Y-14091071D01*
X21235476Y-14176786D02*
X21240238Y-14167262D01*
X21240238Y-14148214D01*
X21235476Y-14138690D01*
X21225952Y-14133929D01*
X21187857Y-14133929D01*
X21178333Y-14138690D01*
X21173571Y-14148214D01*
X21173571Y-14167262D01*
X21178333Y-14176786D01*
X21187857Y-14181548D01*
X21197381Y-14181548D01*
X21206905Y-14133929D01*
D12*
X19045000Y-14110000D02*
G75*
G03X19050000Y-14265000I80000J-75000D01*
G01*
X19855000Y-14265000D02*
G75*
G03X19850000Y-14110000I-80000J75000D01*
G01*
D13*
X20065238Y-13555714D02*
X19965238Y-13555714D01*
X20012857Y-13555714D02*
X20012857Y-13612857D01*
X20065238Y-13612857D02*
X19965238Y-13612857D01*
X20065238Y-13703333D02*
X20012857Y-13703333D01*
X20003333Y-13698571D01*
X19998571Y-13689048D01*
X19998571Y-13670000D01*
X20003333Y-13660476D01*
X20060476Y-13703333D02*
X20065238Y-13693809D01*
X20065238Y-13670000D01*
X20060476Y-13660476D01*
X20050952Y-13655714D01*
X20041429Y-13655714D01*
X20031905Y-13660476D01*
X20027143Y-13670000D01*
X20027143Y-13693809D01*
X20022381Y-13703333D01*
X20065238Y-13765238D02*
X20060476Y-13755714D01*
X20050952Y-13750952D01*
X19965238Y-13750952D01*
X20065238Y-13817619D02*
X20060476Y-13808095D01*
X20050952Y-13803333D01*
X19965238Y-13803333D01*
X20065238Y-13931905D02*
X19998571Y-13931905D01*
X20008095Y-13931905D02*
X20003333Y-13936667D01*
X19998571Y-13946190D01*
X19998571Y-13960476D01*
X20003333Y-13970000D01*
X20012857Y-13974762D01*
X20065238Y-13974762D01*
X20012857Y-13974762D02*
X20003333Y-13979524D01*
X19998571Y-13989048D01*
X19998571Y-14003333D01*
X20003333Y-14012857D01*
X20012857Y-14017619D01*
X20065238Y-14017619D01*
X20065238Y-14079524D02*
X20060476Y-14070000D01*
X20055714Y-14065238D01*
X20046191Y-14060476D01*
X20017619Y-14060476D01*
X20008095Y-14065238D01*
X20003333Y-14070000D01*
X19998571Y-14079524D01*
X19998571Y-14093810D01*
X20003333Y-14103333D01*
X20008095Y-14108095D01*
X20017619Y-14112857D01*
X20046191Y-14112857D01*
X20055714Y-14108095D01*
X20060476Y-14103333D01*
X20065238Y-14093810D01*
X20065238Y-14079524D01*
X20065238Y-14198571D02*
X19965238Y-14198571D01*
X20060476Y-14198571D02*
X20065238Y-14189048D01*
X20065238Y-14170000D01*
X20060476Y-14160476D01*
X20055714Y-14155714D01*
X20046191Y-14150952D01*
X20017619Y-14150952D01*
X20008095Y-14155714D01*
X20003333Y-14160476D01*
X19998571Y-14170000D01*
X19998571Y-14189048D01*
X20003333Y-14198571D01*
X20060476Y-14284286D02*
X20065238Y-14274762D01*
X20065238Y-14255714D01*
X20060476Y-14246190D01*
X20050952Y-14241429D01*
X20012857Y-14241429D01*
X20003333Y-14246190D01*
X19998571Y-14255714D01*
X19998571Y-14274762D01*
X20003333Y-14284286D01*
X20012857Y-14289048D01*
X20022381Y-14289048D01*
X20031905Y-14241429D01*
D12*
X19860000Y-13750000D02*
G75*
G03X19855000Y-13595000I-80000J75000D01*
G01*
D13*
X14687500Y-12512500D02*
X14687500Y-12515000D01*
X14272500Y-12512500D02*
X14272500Y-12523000D01*
X14272500Y-13527500D02*
X14272500Y-13517000D01*
X14687500Y-13527500D02*
X14687500Y-13517000D01*
X14687500Y-12512500D02*
X14272500Y-12512500D01*
X14687500Y-13527500D02*
X14272500Y-13527500D01*
X14687500Y-12515000D02*
X14825000Y-12515000D01*
D14*
X11614000Y-8921000D02*
X12376000Y-8921000D01*
X11614000Y-8659000D02*
X12376000Y-8659000D01*
X11614000Y-8921000D02*
X11614000Y-8659000D01*
X12376000Y-8921000D02*
X12376000Y-8659000D01*
D10*
X7840000Y-6790000D02*
G75*
G03X7840000Y-6790000I0J0D01*
G01*
D14*
X16959000Y-9621000D02*
X16959000Y-9495000D01*
X16959000Y-8939000D02*
X16959000Y-9065000D01*
X17335000Y-9621000D02*
X16959000Y-9621000D01*
X17560000Y-8939000D02*
X16959000Y-8939000D01*
X17330000Y-8796000D02*
X16938000Y-8796000D01*
X16938000Y-8796000D02*
X16938000Y-8584000D01*
X16938000Y-8584000D02*
X17330000Y-8584000D01*
D13*
X10102500Y-13972500D02*
X10107500Y-13972500D01*
X10102500Y-14387500D02*
X10117000Y-14387500D01*
X10617500Y-14387500D02*
X10603000Y-14387500D01*
X10617500Y-13972500D02*
X10603000Y-13972500D01*
X10102500Y-13972500D02*
X10102500Y-14387500D01*
X10617500Y-13972500D02*
X10617500Y-14387500D01*
X10107500Y-13972500D02*
X10107500Y-13832500D01*
D14*
X11525000Y-11980000D02*
X11855000Y-11980000D01*
X11855000Y-11980000D02*
X11855000Y-12520000D01*
X11525000Y-11980000D02*
X11525000Y-12520000D01*
X14709000Y-9558000D02*
X14709000Y-9602000D01*
X14811000Y-9558000D02*
X14811000Y-9602000D01*
X14709000Y-12318000D02*
X14709000Y-12362000D01*
X14811000Y-12318000D02*
X14811000Y-12362000D01*
X14149000Y-9578000D02*
X14149000Y-9622000D01*
X14251000Y-9578000D02*
X14251000Y-9622000D01*
X14149000Y-12318000D02*
X14149000Y-12362000D01*
X14251000Y-12318000D02*
X14251000Y-12362000D01*
X13165000Y-9191000D02*
X13195000Y-9191000D01*
X13165000Y-9049000D02*
X13195000Y-9049000D01*
X13165000Y-10616000D02*
X13195000Y-10616000D01*
X13165000Y-10474000D02*
X13195000Y-10474000D01*
X13165000Y-11991000D02*
X13195000Y-11991000D01*
X13165000Y-11849000D02*
X13195000Y-11849000D01*
X13165000Y-13391000D02*
X13195000Y-13391000D01*
X13165000Y-13249000D02*
X13195000Y-13249000D01*
X13558000Y-9221000D02*
X13602000Y-9221000D01*
X13558000Y-9119000D02*
X13602000Y-9119000D01*
X10518000Y-9016000D02*
X10562000Y-9016000D01*
X10518000Y-8914000D02*
X10562000Y-8914000D01*
X13558000Y-10621000D02*
X13602000Y-10621000D01*
X13558000Y-10519000D02*
X13602000Y-10519000D01*
X10058000Y-14721000D02*
X10102000Y-14721000D01*
X10058000Y-14619000D02*
X10102000Y-14619000D01*
X13528000Y-13401000D02*
X13572000Y-13401000D01*
X13528000Y-13299000D02*
X13572000Y-13299000D01*
X13558000Y-12021000D02*
X13602000Y-12021000D01*
X13558000Y-11919000D02*
X13602000Y-11919000D01*
X11068000Y-7621000D02*
X11112000Y-7621000D01*
X11068000Y-7519000D02*
X11112000Y-7519000D01*
X13104000Y-8978000D02*
X13104000Y-8885000D01*
X13104000Y-8662000D02*
X13104000Y-8755000D01*
X13104000Y-8662000D02*
X13320000Y-8662000D01*
X13104000Y-8978000D02*
X13250000Y-8978000D01*
X13104000Y-10403000D02*
X13104000Y-10310000D01*
X13104000Y-10087000D02*
X13104000Y-10180000D01*
X13104000Y-10087000D02*
X13320000Y-10087000D01*
X13104000Y-10403000D02*
X13250000Y-10403000D01*
X13104000Y-11778000D02*
X13104000Y-11685000D01*
X13104000Y-11462000D02*
X13104000Y-11555000D01*
X13104000Y-11462000D02*
X13320000Y-11462000D01*
X13104000Y-11778000D02*
X13250000Y-11778000D01*
X13104000Y-13178000D02*
X13104000Y-13085000D01*
X13104000Y-12862000D02*
X13104000Y-12955000D01*
X13104000Y-12862000D02*
X13320000Y-12862000D01*
X13104000Y-13178000D02*
X13250000Y-13178000D01*
X11525000Y-9170000D02*
X11855000Y-9170000D01*
X11855000Y-9170000D02*
X11855000Y-9710000D01*
X11525000Y-9170000D02*
X11525000Y-9710000D01*
X12515000Y-9850000D02*
X12185000Y-9850000D01*
X12185000Y-9850000D02*
X12185000Y-9310000D01*
X12515000Y-9850000D02*
X12515000Y-9310000D01*
X11525000Y-10570000D02*
X11855000Y-10570000D01*
X11855000Y-10570000D02*
X11855000Y-11110000D01*
X11525000Y-10570000D02*
X11525000Y-11110000D01*
X12515000Y-11250000D02*
X12185000Y-11250000D01*
X12185000Y-11250000D02*
X12185000Y-10710000D01*
X12515000Y-11250000D02*
X12515000Y-10710000D01*
X12515000Y-12650000D02*
X12185000Y-12650000D01*
X12185000Y-12650000D02*
X12185000Y-12110000D01*
X12515000Y-12650000D02*
X12515000Y-12110000D01*
X11525000Y-13370000D02*
X11855000Y-13370000D01*
X11855000Y-13370000D02*
X11855000Y-13910000D01*
X11525000Y-13370000D02*
X11525000Y-13910000D01*
X12515000Y-14050000D02*
X12185000Y-14050000D01*
X12185000Y-14050000D02*
X12185000Y-13510000D01*
X12515000Y-14050000D02*
X12515000Y-13510000D01*
X12420000Y-7175000D02*
X12220000Y-7175000D01*
X12220000Y-7175000D02*
X12220000Y-6785000D01*
X12420000Y-7175000D02*
X12420000Y-6785000D01*
X13895000Y-7620000D02*
X13895000Y-7420000D01*
X13895000Y-7420000D02*
X14285000Y-7420000D01*
X13895000Y-7620000D02*
X14285000Y-7620000D01*
X17075000Y-11860000D02*
X17075000Y-12060000D01*
X17075000Y-12060000D02*
X16685000Y-12060000D01*
X17075000Y-11860000D02*
X16685000Y-11860000D01*
X17920000Y-12395000D02*
X17920000Y-12065000D01*
X17920000Y-12065000D02*
X18460000Y-12065000D01*
X17920000Y-12395000D02*
X18460000Y-12395000D01*
X9970000Y-6525000D02*
X9970000Y-6855000D01*
X9970000Y-6855000D02*
X9430000Y-6855000D01*
X9970000Y-6525000D02*
X9430000Y-6525000D01*
X12499000Y-6895000D02*
X12499000Y-7025000D01*
X12681000Y-6895000D02*
X12681000Y-7025000D01*
X13769000Y-6945000D02*
X13769000Y-7075000D01*
X13951000Y-6945000D02*
X13951000Y-7075000D01*
X16850000Y-12210000D02*
X16620000Y-12210000D01*
X16620000Y-12210000D02*
X16620000Y-12950000D01*
X16620000Y-12950000D02*
X16850000Y-12950000D01*
X17130000Y-12950000D02*
X17360000Y-12950000D01*
X17360000Y-12950000D02*
X17360000Y-12210000D01*
X17360000Y-12210000D02*
X17130000Y-12210000D01*
X17440000Y-12440000D02*
X17440000Y-12740000D01*
X17760000Y-12440000D02*
X17760000Y-12740000D01*
X18810000Y-10880000D02*
X18810000Y-10580000D01*
X18810000Y-10580000D02*
X17550000Y-10580000D01*
X17550000Y-10580000D02*
X17550000Y-10880000D01*
X17550000Y-11540000D02*
X17550000Y-11840000D01*
X17550000Y-11840000D02*
X18810000Y-11840000D01*
X18810000Y-11840000D02*
X18810000Y-11540000D01*
X18121000Y-9955000D02*
X18121000Y-9825000D01*
X17939000Y-9955000D02*
X17939000Y-9825000D01*
X12110000Y-7770000D02*
X12110000Y-7540000D01*
X12110000Y-7540000D02*
X11370000Y-7540000D01*
X11370000Y-7540000D02*
X11370000Y-7770000D01*
X11370000Y-8050000D02*
X11370000Y-8280000D01*
X11370000Y-8280000D02*
X12110000Y-8280000D01*
X12110000Y-8280000D02*
X12110000Y-8050000D01*
X12432000Y-7354000D02*
X12525000Y-7354000D01*
X12748000Y-7354000D02*
X12655000Y-7354000D01*
X12748000Y-7354000D02*
X12748000Y-7570000D01*
X12432000Y-7354000D02*
X12432000Y-7500000D01*
X16268000Y-10051000D02*
X16312000Y-10051000D01*
X16268000Y-9949000D02*
X16312000Y-9949000D01*
X16268000Y-12591000D02*
X16312000Y-12591000D01*
X16268000Y-12489000D02*
X16312000Y-12489000D01*
X16268000Y-10311000D02*
X16312000Y-10311000D01*
X16268000Y-10209000D02*
X16312000Y-10209000D01*
X16268000Y-12851000D02*
X16312000Y-12851000D01*
X16268000Y-12749000D02*
X16312000Y-12749000D01*
X16268000Y-10811000D02*
X16312000Y-10811000D01*
X16268000Y-10709000D02*
X16312000Y-10709000D01*
X16268000Y-13351000D02*
X16312000Y-13351000D01*
X16268000Y-13249000D02*
X16312000Y-13249000D01*
X16268000Y-11061000D02*
X16312000Y-11061000D01*
X16268000Y-10959000D02*
X16312000Y-10959000D01*
X16268000Y-13611000D02*
X16312000Y-13611000D01*
X16268000Y-13509000D02*
X16312000Y-13509000D01*
X12598000Y-9071000D02*
X12642000Y-9071000D01*
X12598000Y-8969000D02*
X12642000Y-8969000D01*
X12958000Y-9921000D02*
X13002000Y-9921000D01*
X12958000Y-9819000D02*
X13002000Y-9819000D01*
X12598000Y-10471000D02*
X12642000Y-10471000D01*
X12598000Y-10369000D02*
X12642000Y-10369000D01*
X12958000Y-11321000D02*
X13002000Y-11321000D01*
X12958000Y-11219000D02*
X13002000Y-11219000D01*
X12598000Y-11851000D02*
X12642000Y-11851000D01*
X12598000Y-11749000D02*
X12642000Y-11749000D01*
X12958000Y-12721000D02*
X13002000Y-12721000D01*
X12958000Y-12619000D02*
X13002000Y-12619000D01*
X12598000Y-13251000D02*
X12642000Y-13251000D01*
X12598000Y-13149000D02*
X12642000Y-13149000D01*
X12958000Y-14121000D02*
X13002000Y-14121000D01*
X12958000Y-14019000D02*
X13002000Y-14019000D01*
X15722000Y-8579000D02*
X15678000Y-8579000D01*
X15722000Y-8681000D02*
X15678000Y-8681000D01*
X15572000Y-14889000D02*
X15528000Y-14889000D01*
X15572000Y-14991000D02*
X15528000Y-14991000D01*
X16322000Y-8679000D02*
X16278000Y-8679000D01*
X16322000Y-8781000D02*
X16278000Y-8781000D01*
X16332000Y-14909000D02*
X16288000Y-14909000D01*
X16332000Y-15011000D02*
X16288000Y-15011000D01*
X20268000Y-8791000D02*
X20312000Y-8791000D01*
X20268000Y-8689000D02*
X20312000Y-8689000D01*
X20278000Y-9301000D02*
X20322000Y-9301000D01*
X20278000Y-9199000D02*
X20322000Y-9199000D01*
X16232000Y-7869000D02*
X16188000Y-7869000D01*
X16232000Y-7971000D02*
X16188000Y-7971000D01*
X17792000Y-7549000D02*
X17748000Y-7549000D01*
X17792000Y-7651000D02*
X17748000Y-7651000D01*
X19452000Y-7579000D02*
X19408000Y-7579000D01*
X19452000Y-7681000D02*
X19408000Y-7681000D01*
X20468000Y-7761000D02*
X20512000Y-7761000D01*
X20468000Y-7659000D02*
X20512000Y-7659000D01*
X12872000Y-7649000D02*
X12828000Y-7649000D01*
X12872000Y-7751000D02*
X12828000Y-7751000D01*
X13762000Y-7919000D02*
X13718000Y-7919000D01*
X13762000Y-8021000D02*
X13718000Y-8021000D01*
X13282000Y-7649000D02*
X13238000Y-7649000D01*
X13282000Y-7751000D02*
X13238000Y-7751000D01*
X14439000Y-7658000D02*
X14439000Y-7702000D01*
X14541000Y-7658000D02*
X14541000Y-7702000D01*
X20282000Y-11679000D02*
X20238000Y-11679000D01*
X20282000Y-11781000D02*
X20238000Y-11781000D01*
X16268000Y-9181000D02*
X16312000Y-9181000D01*
X16268000Y-9079000D02*
X16312000Y-9079000D01*
X16328000Y-14311000D02*
X16372000Y-14311000D01*
X16328000Y-14209000D02*
X16372000Y-14209000D01*
X20282000Y-11839000D02*
X20238000Y-11839000D01*
X20282000Y-11941000D02*
X20238000Y-11941000D01*
X18358000Y-9341000D02*
X18402000Y-9341000D01*
X18358000Y-9239000D02*
X18402000Y-9239000D01*
X18049000Y-8998000D02*
X18049000Y-9042000D01*
X18151000Y-8998000D02*
X18151000Y-9042000D01*
X18802000Y-9459000D02*
X18758000Y-9459000D01*
X18802000Y-9561000D02*
X18758000Y-9561000D01*
D13*
X14687500Y-9762500D02*
X14687500Y-9765000D01*
X14272500Y-9762500D02*
X14272500Y-9773000D01*
X14272500Y-10777500D02*
X14272500Y-10767000D01*
X14687500Y-10777500D02*
X14687500Y-10767000D01*
X14687500Y-9762500D02*
X14272500Y-9762500D01*
X14687500Y-10777500D02*
X14272500Y-10777500D01*
X14687500Y-9765000D02*
X14825000Y-9765000D01*
X10697500Y-9687500D02*
X10692500Y-9687500D01*
X10697500Y-9272500D02*
X10683000Y-9272500D01*
X10182500Y-9272500D02*
X10197000Y-9272500D01*
X10182500Y-9687500D02*
X10197000Y-9687500D01*
X10697500Y-9687500D02*
X10697500Y-9272500D01*
X10182500Y-9687500D02*
X10182500Y-9272500D01*
X10692500Y-9687500D02*
X10692500Y-9827500D01*
X15227500Y-7922500D02*
X15227500Y-7927500D01*
X14812500Y-7922500D02*
X14812500Y-7937000D01*
X14812500Y-8437500D02*
X14812500Y-8423000D01*
X15227500Y-8437500D02*
X15227500Y-8423000D01*
X15227500Y-7922500D02*
X14812500Y-7922500D01*
X15227500Y-8437500D02*
X14812500Y-8437500D01*
X15227500Y-7927500D02*
X15367500Y-7927500D01*
X18352500Y-7662500D02*
X18357500Y-7662500D01*
X18352500Y-8077500D02*
X18367000Y-8077500D01*
X18867500Y-8077500D02*
X18853000Y-8077500D01*
X18867500Y-7662500D02*
X18853000Y-7662500D01*
X18352500Y-7662500D02*
X18352500Y-8077500D01*
X18867500Y-7662500D02*
X18867500Y-8077500D01*
X18357500Y-7662500D02*
X18357500Y-7522500D01*
X19682500Y-7652500D02*
X19687500Y-7652500D01*
X19682500Y-8067500D02*
X19697000Y-8067500D01*
X20197500Y-8067500D02*
X20183000Y-8067500D01*
X20197500Y-7652500D02*
X20183000Y-7652500D01*
X19682500Y-7652500D02*
X19682500Y-8067500D01*
X20197500Y-7652500D02*
X20197500Y-8067500D01*
X19687500Y-7652500D02*
X19687500Y-7512500D01*
D14*
X17609000Y-16041000D02*
X17609000Y-15915000D01*
X17609000Y-15359000D02*
X17609000Y-15485000D01*
X17985000Y-16041000D02*
X17609000Y-16041000D01*
X18210000Y-15359000D02*
X17609000Y-15359000D01*
X11495000Y-7260000D02*
X11165000Y-7260000D01*
X11165000Y-7260000D02*
X11165000Y-6720000D01*
X11495000Y-7260000D02*
X11495000Y-6720000D01*
X13552000Y-7564000D02*
X13645000Y-7564000D01*
X13868000Y-7564000D02*
X13775000Y-7564000D01*
X13868000Y-7564000D02*
X13868000Y-7780000D01*
X13552000Y-7564000D02*
X13552000Y-7710000D01*
X18476000Y-8862000D02*
X18476000Y-8955000D01*
X18476000Y-9178000D02*
X18476000Y-9085000D01*
X18476000Y-9178000D02*
X18260000Y-9178000D01*
X18476000Y-8862000D02*
X18330000Y-8862000D01*
X20848000Y-12811000D02*
X20892000Y-12811000D01*
X20848000Y-12709000D02*
X20892000Y-12709000D01*
X18382000Y-12519000D02*
X18338000Y-12519000D01*
X18382000Y-12621000D02*
X18338000Y-12621000D01*
X18708000Y-12621000D02*
X18752000Y-12621000D01*
X18708000Y-12519000D02*
X18752000Y-12519000D01*
X19192000Y-15089000D02*
X19148000Y-15089000D01*
X19192000Y-15191000D02*
X19148000Y-15191000D01*
X18692000Y-15089000D02*
X18648000Y-15089000D01*
X18692000Y-15191000D02*
X18648000Y-15191000D01*
X18152000Y-15089000D02*
X18108000Y-15089000D01*
X18152000Y-15191000D02*
X18108000Y-15191000D01*
X11078000Y-8161000D02*
X11122000Y-8161000D01*
X11078000Y-8059000D02*
X11122000Y-8059000D01*
X11078000Y-8341000D02*
X11122000Y-8341000D01*
X11078000Y-8239000D02*
X11122000Y-8239000D01*
X11122000Y-7889000D02*
X11078000Y-7889000D01*
X11122000Y-7991000D02*
X11078000Y-7991000D01*
D10*
X17775000Y-15107500D02*
G75*
G03X17775000Y-15107500I0J0D01*
G01*
X8427500Y-15387500D02*
G75*
G03X8427500Y-15387500I0J0D01*
G01*
D14*
X20875000Y-11741000D02*
X20905000Y-11741000D01*
X20875000Y-11599000D02*
X20905000Y-11599000D01*
X20735000Y-11990000D02*
X20735000Y-11790000D01*
X20735000Y-11790000D02*
X21125000Y-11790000D01*
X20735000Y-11990000D02*
X21125000Y-11990000D01*
X20735000Y-13050000D02*
X20735000Y-12850000D01*
X20735000Y-12850000D02*
X21125000Y-12850000D01*
X20735000Y-13050000D02*
X21125000Y-13050000D01*
X16165000Y-16020000D02*
X15835000Y-16020000D01*
X15835000Y-16020000D02*
X15835000Y-15480000D01*
X16165000Y-16020000D02*
X16165000Y-15480000D01*
X17435000Y-14005000D02*
X17435000Y-14435000D01*
X17435000Y-14435000D02*
X16865000Y-14435000D01*
X17435000Y-14005000D02*
X16865000Y-14005000D01*
X19140000Y-11285000D02*
X18940000Y-11285000D01*
X18940000Y-11285000D02*
X18940000Y-10895000D01*
X19140000Y-11285000D02*
X19140000Y-10895000D01*
X9985000Y-6875000D02*
X9985000Y-7305000D01*
X9985000Y-7305000D02*
X9415000Y-7305000D01*
X9985000Y-6875000D02*
X9415000Y-6875000D01*
X17740000Y-13405000D02*
X17740000Y-13255000D01*
X17740000Y-13255000D02*
X17835000Y-13255000D01*
X17835000Y-13255000D02*
X17835000Y-12742500D01*
X18780000Y-13405000D02*
X18780000Y-13255000D01*
X18780000Y-13255000D02*
X18685000Y-13255000D01*
X18685000Y-13255000D02*
X18685000Y-13145000D01*
D13*
X19657500Y-13422500D02*
X19657500Y-13425000D01*
X19242500Y-13422500D02*
X19242500Y-13433000D01*
X19242500Y-14437500D02*
X19242500Y-14427000D01*
X19657500Y-14437500D02*
X19657500Y-14427000D01*
X19657500Y-13422500D02*
X19242500Y-13422500D01*
X19657500Y-14437500D02*
X19242500Y-14437500D01*
X19657500Y-13425000D02*
X19795000Y-13425000D01*
D14*
X10185000Y-7400000D02*
X10335000Y-7400000D01*
X10335000Y-7400000D02*
X10335000Y-7495000D01*
X10335000Y-7495000D02*
X10847500Y-7495000D01*
X10185000Y-8440000D02*
X10335000Y-8440000D01*
X10335000Y-8440000D02*
X10335000Y-8345000D01*
X10335000Y-8345000D02*
X10445000Y-8345000D01*
X12449000Y-8721000D02*
X12449000Y-8595000D01*
X12449000Y-8039000D02*
X12449000Y-8165000D01*
X12825000Y-8721000D02*
X12449000Y-8721000D01*
X13050000Y-8039000D02*
X12449000Y-8039000D01*
D13*
X13557500Y-12062500D02*
X13557500Y-12067500D01*
X13142500Y-12062500D02*
X13142500Y-12077000D01*
X13142500Y-12577500D02*
X13142500Y-12563000D01*
X13557500Y-12577500D02*
X13557500Y-12563000D01*
X13557500Y-12062500D02*
X13142500Y-12062500D01*
X13557500Y-12577500D02*
X13142500Y-12577500D01*
X13557500Y-12067500D02*
X13697500Y-12067500D01*
X13557500Y-9262500D02*
X13557500Y-9267500D01*
X13142500Y-9262500D02*
X13142500Y-9277000D01*
X13142500Y-9777500D02*
X13142500Y-9763000D01*
X13557500Y-9777500D02*
X13557500Y-9763000D01*
X13557500Y-9262500D02*
X13142500Y-9262500D01*
X13557500Y-9777500D02*
X13142500Y-9777500D01*
X13557500Y-9267500D02*
X13697500Y-9267500D01*
X13557500Y-10662500D02*
X13557500Y-10667500D01*
X13142500Y-10662500D02*
X13142500Y-10677000D01*
X13142500Y-11177500D02*
X13142500Y-11163000D01*
X13557500Y-11177500D02*
X13557500Y-11163000D01*
X13557500Y-10662500D02*
X13142500Y-10662500D01*
X13557500Y-11177500D02*
X13142500Y-11177500D01*
X13557500Y-10667500D02*
X13697500Y-10667500D01*
X13557500Y-13462500D02*
X13557500Y-13467500D01*
X13142500Y-13462500D02*
X13142500Y-13477000D01*
X13142500Y-13977500D02*
X13142500Y-13963000D01*
X13557500Y-13977500D02*
X13557500Y-13963000D01*
X13557500Y-13462500D02*
X13142500Y-13462500D01*
X13557500Y-13977500D02*
X13142500Y-13977500D01*
X13557500Y-13467500D02*
X13697500Y-13467500D01*
D14*
X16295000Y-9381000D02*
X16325000Y-9381000D01*
X16295000Y-9239000D02*
X16325000Y-9239000D01*
X16229000Y-14515000D02*
X16229000Y-14545000D01*
X16371000Y-14515000D02*
X16371000Y-14545000D01*
X18030000Y-9616000D02*
X17638000Y-9616000D01*
X17638000Y-9616000D02*
X17638000Y-9404000D01*
X17638000Y-9404000D02*
X18030000Y-9404000D01*
X18710000Y-16043500D02*
X18318000Y-16043500D01*
X18318000Y-16043500D02*
X18318000Y-15831500D01*
X18318000Y-15831500D02*
X18710000Y-15831500D01*
X17621000Y-13892000D02*
X17621000Y-13848000D01*
X17519000Y-13892000D02*
X17519000Y-13848000D01*
X16591000Y-13879000D02*
X16591000Y-13611000D01*
X16591000Y-13041000D02*
X16591000Y-13309000D01*
X17429000Y-13117000D02*
X17429000Y-13309000D01*
X17429000Y-13803000D02*
X17429000Y-13611000D01*
X16591000Y-13879000D02*
X17353000Y-13879000D01*
X17353000Y-13879000D02*
X17429000Y-13803000D01*
X17429000Y-13117000D02*
X17353000Y-13041000D01*
X17353000Y-13041000D02*
X16591000Y-13041000D01*
X17530000Y-14514000D02*
X17922000Y-14514000D01*
X17922000Y-14514000D02*
X17922000Y-14726000D01*
X17922000Y-14726000D02*
X17530000Y-14726000D01*
X17768000Y-9331000D02*
X17812000Y-9331000D01*
X17768000Y-9229000D02*
X17812000Y-9229000D01*
X18435500Y-15761000D02*
X18479500Y-15761000D01*
X18435500Y-15659000D02*
X18479500Y-15659000D01*
X16611000Y-10801000D02*
X16879000Y-10801000D01*
X17449000Y-10801000D02*
X17181000Y-10801000D01*
X17373000Y-11639000D02*
X17181000Y-11639000D01*
X16687000Y-11639000D02*
X16879000Y-11639000D01*
X16611000Y-10801000D02*
X16611000Y-11563000D01*
X16611000Y-11563000D02*
X16687000Y-11639000D01*
X17373000Y-11639000D02*
X17449000Y-11563000D01*
X17449000Y-11563000D02*
X17449000Y-10801000D01*
X17786000Y-12205000D02*
X17786000Y-12075000D01*
X17514000Y-12205000D02*
X17514000Y-12075000D01*
X17464000Y-12985000D02*
X17464000Y-13115000D01*
X17736000Y-12985000D02*
X17736000Y-13115000D01*
X16891000Y-10509000D02*
X16891000Y-10241000D01*
X16891000Y-9671000D02*
X16891000Y-9939000D01*
X17729000Y-9747000D02*
X17729000Y-9939000D01*
X17729000Y-10433000D02*
X17729000Y-10241000D01*
X16891000Y-10509000D02*
X17653000Y-10509000D01*
X17653000Y-10509000D02*
X17729000Y-10433000D01*
X17729000Y-9747000D02*
X17653000Y-9671000D01*
X17653000Y-9671000D02*
X16891000Y-9671000D01*
X19139000Y-9671000D02*
X19139000Y-9939000D01*
X19139000Y-10509000D02*
X19139000Y-10241000D01*
X18301000Y-10433000D02*
X18301000Y-10241000D01*
X18301000Y-9747000D02*
X18301000Y-9939000D01*
X19139000Y-9671000D02*
X18377000Y-9671000D01*
X18377000Y-9671000D02*
X18301000Y-9747000D01*
X18301000Y-10433000D02*
X18377000Y-10509000D01*
X18377000Y-10509000D02*
X19139000Y-10509000D01*
X17969000Y-10318000D02*
X17969000Y-10362000D01*
X18071000Y-10318000D02*
X18071000Y-10362000D01*
X19221000Y-13282000D02*
X19221000Y-13238000D01*
X19119000Y-13282000D02*
X19119000Y-13238000D01*
X10396000Y-7290000D02*
X10538000Y-7290000D01*
X10320000Y-6630000D02*
X10538000Y-6630000D01*
X10980000Y-6630000D02*
X10762000Y-6630000D01*
X10904000Y-7290000D02*
X10762000Y-7290000D01*
X10320000Y-6630000D02*
X10320000Y-7214000D01*
X10320000Y-7214000D02*
X10396000Y-7290000D01*
X10904000Y-7290000D02*
X10980000Y-7214000D01*
X10980000Y-7214000D02*
X10980000Y-6630000D01*
X11540000Y-6690000D02*
X11758000Y-6690000D01*
X12200000Y-6690000D02*
X11982000Y-6690000D01*
X11616000Y-7350000D02*
X11758000Y-7350000D01*
X12124000Y-7350000D02*
X11982000Y-7350000D01*
X11540000Y-6690000D02*
X11540000Y-7274000D01*
X11540000Y-7274000D02*
X11616000Y-7350000D01*
X12124000Y-7350000D02*
X12200000Y-7274000D01*
X12200000Y-7274000D02*
X12200000Y-6690000D01*
X13890000Y-9440000D02*
X13890000Y-9222000D01*
X13890000Y-8780000D02*
X13890000Y-8998000D01*
X14550000Y-9364000D02*
X14550000Y-9222000D01*
X14550000Y-8856000D02*
X14550000Y-8998000D01*
X13890000Y-9440000D02*
X14474000Y-9440000D01*
X14474000Y-9440000D02*
X14550000Y-9364000D01*
X14550000Y-8856000D02*
X14474000Y-8780000D01*
X14474000Y-8780000D02*
X13890000Y-8780000D01*
X13271000Y-8342000D02*
X13271000Y-8298000D01*
X13169000Y-8342000D02*
X13169000Y-8298000D01*
X11461000Y-13428000D02*
X11461000Y-13172000D01*
X10939000Y-13428000D02*
X10939000Y-13172000D01*
X11471000Y-9228000D02*
X11471000Y-8972000D01*
X10949000Y-9228000D02*
X10949000Y-8972000D01*
X11471000Y-10628000D02*
X11471000Y-10372000D01*
X10949000Y-10628000D02*
X10949000Y-10372000D01*
X11461000Y-12028000D02*
X11461000Y-11772000D01*
X10939000Y-12028000D02*
X10939000Y-11772000D01*
X20848000Y-13611000D02*
X20892000Y-13611000D01*
X20848000Y-13509000D02*
X20892000Y-13509000D01*
X20848000Y-14371000D02*
X20892000Y-14371000D01*
X20848000Y-14269000D02*
X20892000Y-14269000D01*
X20848000Y-13351000D02*
X20892000Y-13351000D01*
X20848000Y-13249000D02*
X20892000Y-13249000D01*
X15760000Y-7844000D02*
X15987000Y-7844000D01*
X15987000Y-7844000D02*
X15987000Y-7996000D01*
X15987000Y-7996000D02*
X15760000Y-7996000D01*
X17320000Y-7844000D02*
X17547000Y-7844000D01*
X17547000Y-7844000D02*
X17547000Y-7996000D01*
X17547000Y-7996000D02*
X17320000Y-7996000D01*
X20820000Y-7976000D02*
X20593000Y-7976000D01*
X20593000Y-7976000D02*
X20593000Y-7824000D01*
X20593000Y-7824000D02*
X20820000Y-7824000D01*
X16395000Y-8510000D02*
G75*
G03X16395000Y-8510000I-95000J0D01*
G01*
X19885000Y-11580000D02*
G75*
G03X19885000Y-11580000I-95000J0D01*
G01*
X18905000Y-11990000D02*
G75*
G03X18905000Y-11990000I-95000J0D01*
G01*
X12480000Y-7915000D02*
G75*
G03X12480000Y-7915000I-95000J0D01*
G01*
X13805000Y-8410000D02*
G75*
G03X13805000Y-8410000I-95000J0D01*
G01*
X19040000Y-7844000D02*
X19267000Y-7844000D01*
X19267000Y-7844000D02*
X19267000Y-7996000D01*
X19267000Y-7996000D02*
X19040000Y-7996000D01*
X13100000Y-7966000D02*
X12873000Y-7966000D01*
X12873000Y-7966000D02*
X12873000Y-7814000D01*
X12873000Y-7814000D02*
X13100000Y-7814000D01*
X14240000Y-7966000D02*
X14013000Y-7966000D01*
X14013000Y-7966000D02*
X14013000Y-7814000D01*
X14013000Y-7814000D02*
X14240000Y-7814000D01*
X11609000Y-13091000D02*
X12371000Y-13091000D01*
X11609000Y-12829000D02*
X12371000Y-12829000D01*
X11609000Y-13091000D02*
X11609000Y-12829000D01*
X12371000Y-13091000D02*
X12371000Y-12829000D01*
X11609000Y-11691000D02*
X12371000Y-11691000D01*
X11609000Y-11429000D02*
X12371000Y-11429000D01*
X11609000Y-11691000D02*
X11609000Y-11429000D01*
X12371000Y-11691000D02*
X12371000Y-11429000D01*
X11609000Y-10291000D02*
X12371000Y-10291000D01*
X11609000Y-10029000D02*
X12371000Y-10029000D01*
X11609000Y-10291000D02*
X11609000Y-10029000D01*
X12371000Y-10291000D02*
X12371000Y-10029000D01*
D13*
X14556190Y-12365238D02*
X14556190Y-12446190D01*
X14551429Y-12455714D01*
X14546667Y-12460476D01*
X14537143Y-12465238D01*
X14518095Y-12465238D01*
X14508571Y-12460476D01*
X14503809Y-12455714D01*
X14499048Y-12446190D01*
X14499048Y-12365238D01*
X14456190Y-12374762D02*
X14451429Y-12370000D01*
X14441905Y-12365238D01*
X14418095Y-12365238D01*
X14408571Y-12370000D01*
X14403809Y-12374762D01*
X14399048Y-12384286D01*
X14399048Y-12393809D01*
X14403809Y-12408095D01*
X14460952Y-12465238D01*
X14399048Y-12465238D01*
X11704286Y-8605714D02*
X11709048Y-8610476D01*
X11723333Y-8615238D01*
X11732857Y-8615238D01*
X11747143Y-8610476D01*
X11756667Y-8600952D01*
X11761429Y-8591429D01*
X11766190Y-8572381D01*
X11766190Y-8558095D01*
X11761429Y-8539048D01*
X11756667Y-8529524D01*
X11747143Y-8520000D01*
X11732857Y-8515238D01*
X11723333Y-8515238D01*
X11709048Y-8520000D01*
X11704286Y-8524762D01*
X11618571Y-8548571D02*
X11618571Y-8615238D01*
X11642381Y-8510476D02*
X11666190Y-8581905D01*
X11604286Y-8581905D01*
X11551905Y-8558095D02*
X11561429Y-8553333D01*
X11566190Y-8548571D01*
X11570952Y-8539048D01*
X11570952Y-8534286D01*
X11566190Y-8524762D01*
X11561429Y-8520000D01*
X11551905Y-8515238D01*
X11532857Y-8515238D01*
X11523333Y-8520000D01*
X11518571Y-8524762D01*
X11513809Y-8534286D01*
X11513809Y-8539048D01*
X11518571Y-8548571D01*
X11523333Y-8553333D01*
X11532857Y-8558095D01*
X11551905Y-8558095D01*
X11561429Y-8562857D01*
X11566190Y-8567619D01*
X11570952Y-8577143D01*
X11570952Y-8596191D01*
X11566190Y-8605714D01*
X11561429Y-8610476D01*
X11551905Y-8615238D01*
X11532857Y-8615238D01*
X11523333Y-8610476D01*
X11518571Y-8605714D01*
X11513809Y-8596191D01*
X11513809Y-8577143D01*
X11518571Y-8567619D01*
X11523333Y-8562857D01*
X11532857Y-8558095D01*
X7986190Y-6910238D02*
X7929048Y-6910238D01*
X7957619Y-7010238D02*
X7957619Y-6910238D01*
X7895714Y-7010238D02*
X7895714Y-6910238D01*
X7857619Y-6910238D01*
X7848095Y-6915000D01*
X7843333Y-6919762D01*
X7838571Y-6929286D01*
X7838571Y-6943571D01*
X7843333Y-6953095D01*
X7848095Y-6957857D01*
X7857619Y-6962619D01*
X7895714Y-6962619D01*
X7743333Y-7010238D02*
X7800476Y-7010238D01*
X7771905Y-7010238D02*
X7771905Y-6910238D01*
X7781429Y-6924524D01*
X7790952Y-6934048D01*
X7800476Y-6938809D01*
X16913810Y-8905238D02*
X16913810Y-8986191D01*
X16909048Y-8995714D01*
X16904286Y-9000476D01*
X16894762Y-9005238D01*
X16875714Y-9005238D01*
X16866190Y-9000476D01*
X16861429Y-8995714D01*
X16856667Y-8986191D01*
X16856667Y-8905238D01*
X16756667Y-9005238D02*
X16813810Y-9005238D01*
X16785238Y-9005238D02*
X16785238Y-8905238D01*
X16794762Y-8919524D01*
X16804286Y-8929048D01*
X16813810Y-8933810D01*
X16670952Y-8938571D02*
X16670952Y-9005238D01*
X16694762Y-8900476D02*
X16718571Y-8971905D01*
X16656667Y-8971905D01*
X17244286Y-8545714D02*
X17249048Y-8550476D01*
X17263333Y-8555238D01*
X17272857Y-8555238D01*
X17287143Y-8550476D01*
X17296667Y-8540952D01*
X17301429Y-8531429D01*
X17306191Y-8512381D01*
X17306191Y-8498095D01*
X17301429Y-8479048D01*
X17296667Y-8469524D01*
X17287143Y-8460000D01*
X17272857Y-8455238D01*
X17263333Y-8455238D01*
X17249048Y-8460000D01*
X17244286Y-8464762D01*
X17206191Y-8464762D02*
X17201429Y-8460000D01*
X17191905Y-8455238D01*
X17168095Y-8455238D01*
X17158571Y-8460000D01*
X17153810Y-8464762D01*
X17149048Y-8474286D01*
X17149048Y-8483810D01*
X17153810Y-8498095D01*
X17210952Y-8555238D01*
X17149048Y-8555238D01*
X17063333Y-8488571D02*
X17063333Y-8555238D01*
X17087143Y-8450476D02*
X17110952Y-8521905D01*
X17049048Y-8521905D01*
X9955238Y-14103809D02*
X10036191Y-14103809D01*
X10045714Y-14108571D01*
X10050476Y-14113333D01*
X10055238Y-14122857D01*
X10055238Y-14141905D01*
X10050476Y-14151429D01*
X10045714Y-14156190D01*
X10036191Y-14160952D01*
X9955238Y-14160952D01*
X9998095Y-14222857D02*
X9993333Y-14213333D01*
X9988571Y-14208571D01*
X9979048Y-14203809D01*
X9974286Y-14203809D01*
X9964762Y-14208571D01*
X9960000Y-14213333D01*
X9955238Y-14222857D01*
X9955238Y-14241905D01*
X9960000Y-14251429D01*
X9964762Y-14256190D01*
X9974286Y-14260952D01*
X9979048Y-14260952D01*
X9988571Y-14256190D01*
X9993333Y-14251429D01*
X9998095Y-14241905D01*
X9998095Y-14222857D01*
X10002857Y-14213333D01*
X10007619Y-14208571D01*
X10017143Y-14203809D01*
X10036191Y-14203809D01*
X10045714Y-14208571D01*
X10050476Y-14213333D01*
X10055238Y-14222857D01*
X10055238Y-14241905D01*
X10050476Y-14251429D01*
X10045714Y-14256190D01*
X10036191Y-14260952D01*
X10017143Y-14260952D01*
X10007619Y-14256190D01*
X10002857Y-14251429D01*
X9998095Y-14241905D01*
X11485238Y-12406190D02*
X11385238Y-12406190D01*
X11385238Y-12430000D01*
X11390000Y-12444286D01*
X11399524Y-12453810D01*
X11409048Y-12458571D01*
X11428095Y-12463333D01*
X11442381Y-12463333D01*
X11461429Y-12458571D01*
X11470952Y-12453810D01*
X11480476Y-12444286D01*
X11485238Y-12430000D01*
X11485238Y-12406190D01*
X11485238Y-12510952D02*
X11485238Y-12530000D01*
X11480476Y-12539524D01*
X11475714Y-12544286D01*
X11461429Y-12553810D01*
X11442381Y-12558571D01*
X11404286Y-12558571D01*
X11394762Y-12553810D01*
X11390000Y-12549048D01*
X11385238Y-12539524D01*
X11385238Y-12520476D01*
X11390000Y-12510952D01*
X11394762Y-12506190D01*
X11404286Y-12501429D01*
X11428095Y-12501429D01*
X11437619Y-12506190D01*
X11442381Y-12510952D01*
X11447143Y-12520476D01*
X11447143Y-12539524D01*
X11442381Y-12549048D01*
X11437619Y-12553810D01*
X11428095Y-12558571D01*
X14975714Y-9573333D02*
X14980476Y-9568572D01*
X14985238Y-9554286D01*
X14985238Y-9544762D01*
X14980476Y-9530476D01*
X14970952Y-9520952D01*
X14961429Y-9516191D01*
X14942381Y-9511429D01*
X14928095Y-9511429D01*
X14909048Y-9516191D01*
X14899524Y-9520952D01*
X14890000Y-9530476D01*
X14885238Y-9544762D01*
X14885238Y-9554286D01*
X14890000Y-9568572D01*
X14894762Y-9573333D01*
X14985238Y-9668572D02*
X14985238Y-9611429D01*
X14985238Y-9640000D02*
X14885238Y-9640000D01*
X14899524Y-9630476D01*
X14909048Y-9620952D01*
X14913809Y-9611429D01*
X15020714Y-12315833D02*
X15025476Y-12311071D01*
X15030238Y-12296786D01*
X15030238Y-12287262D01*
X15025476Y-12272976D01*
X15015952Y-12263452D01*
X15006429Y-12258690D01*
X14987381Y-12253929D01*
X14973095Y-12253929D01*
X14954048Y-12258690D01*
X14944524Y-12263452D01*
X14935000Y-12272976D01*
X14930238Y-12287262D01*
X14930238Y-12296786D01*
X14935000Y-12311071D01*
X14939762Y-12315833D01*
X14939762Y-12353929D02*
X14935000Y-12358690D01*
X14930238Y-12368214D01*
X14930238Y-12392024D01*
X14935000Y-12401548D01*
X14939762Y-12406310D01*
X14949286Y-12411071D01*
X14958809Y-12411071D01*
X14973095Y-12406310D01*
X15030238Y-12349167D01*
X15030238Y-12411071D01*
X14070714Y-9583333D02*
X14075476Y-9578572D01*
X14080238Y-9564286D01*
X14080238Y-9554762D01*
X14075476Y-9540476D01*
X14065952Y-9530952D01*
X14056429Y-9526191D01*
X14037381Y-9521429D01*
X14023095Y-9521429D01*
X14004048Y-9526191D01*
X13994524Y-9530952D01*
X13985000Y-9540476D01*
X13980238Y-9554762D01*
X13980238Y-9564286D01*
X13985000Y-9578572D01*
X13989762Y-9583333D01*
X13980238Y-9616667D02*
X13980238Y-9678572D01*
X14018333Y-9645238D01*
X14018333Y-9659524D01*
X14023095Y-9669048D01*
X14027857Y-9673810D01*
X14037381Y-9678572D01*
X14061190Y-9678572D01*
X14070714Y-9673810D01*
X14075476Y-9669048D01*
X14080238Y-9659524D01*
X14080238Y-9630952D01*
X14075476Y-9621429D01*
X14070714Y-9616667D01*
X14070714Y-12323333D02*
X14075476Y-12318571D01*
X14080238Y-12304286D01*
X14080238Y-12294762D01*
X14075476Y-12280476D01*
X14065952Y-12270952D01*
X14056429Y-12266190D01*
X14037381Y-12261429D01*
X14023095Y-12261429D01*
X14004048Y-12266190D01*
X13994524Y-12270952D01*
X13985000Y-12280476D01*
X13980238Y-12294762D01*
X13980238Y-12304286D01*
X13985000Y-12318571D01*
X13989762Y-12323333D01*
X14013571Y-12409048D02*
X14080238Y-12409048D01*
X13975476Y-12385238D02*
X14046905Y-12361429D01*
X14046905Y-12423333D01*
X12975714Y-9093333D02*
X12980476Y-9088572D01*
X12985238Y-9074286D01*
X12985238Y-9064762D01*
X12980476Y-9050476D01*
X12970952Y-9040952D01*
X12961429Y-9036191D01*
X12942381Y-9031429D01*
X12928095Y-9031429D01*
X12909048Y-9036191D01*
X12899524Y-9040952D01*
X12890000Y-9050476D01*
X12885238Y-9064762D01*
X12885238Y-9074286D01*
X12890000Y-9088572D01*
X12894762Y-9093333D01*
X12885238Y-9183810D02*
X12885238Y-9136191D01*
X12932857Y-9131429D01*
X12928095Y-9136191D01*
X12923333Y-9145714D01*
X12923333Y-9169524D01*
X12928095Y-9179048D01*
X12932857Y-9183810D01*
X12942381Y-9188572D01*
X12966190Y-9188572D01*
X12975714Y-9183810D01*
X12980476Y-9179048D01*
X12985238Y-9169524D01*
X12985238Y-9145714D01*
X12980476Y-9136191D01*
X12975714Y-9131429D01*
X12985714Y-10523333D02*
X12990476Y-10518572D01*
X12995238Y-10504286D01*
X12995238Y-10494762D01*
X12990476Y-10480476D01*
X12980952Y-10470952D01*
X12971429Y-10466191D01*
X12952381Y-10461429D01*
X12938095Y-10461429D01*
X12919048Y-10466191D01*
X12909524Y-10470952D01*
X12900000Y-10480476D01*
X12895238Y-10494762D01*
X12895238Y-10504286D01*
X12900000Y-10518572D01*
X12904762Y-10523333D01*
X12895238Y-10609048D02*
X12895238Y-10590000D01*
X12900000Y-10580476D01*
X12904762Y-10575714D01*
X12919048Y-10566191D01*
X12938095Y-10561429D01*
X12976190Y-10561429D01*
X12985714Y-10566191D01*
X12990476Y-10570952D01*
X12995238Y-10580476D01*
X12995238Y-10599524D01*
X12990476Y-10609048D01*
X12985714Y-10613810D01*
X12976190Y-10618572D01*
X12952381Y-10618572D01*
X12942857Y-10613810D01*
X12938095Y-10609048D01*
X12933333Y-10599524D01*
X12933333Y-10580476D01*
X12938095Y-10570952D01*
X12942857Y-10566191D01*
X12952381Y-10561429D01*
X12965714Y-11903333D02*
X12970476Y-11898571D01*
X12975238Y-11884286D01*
X12975238Y-11874762D01*
X12970476Y-11860476D01*
X12960952Y-11850952D01*
X12951429Y-11846190D01*
X12932381Y-11841429D01*
X12918095Y-11841429D01*
X12899048Y-11846190D01*
X12889524Y-11850952D01*
X12880000Y-11860476D01*
X12875238Y-11874762D01*
X12875238Y-11884286D01*
X12880000Y-11898571D01*
X12884762Y-11903333D01*
X12875238Y-11936667D02*
X12875238Y-12003333D01*
X12975238Y-11960476D01*
X12975714Y-13293333D02*
X12980476Y-13288571D01*
X12985238Y-13274286D01*
X12985238Y-13264762D01*
X12980476Y-13250476D01*
X12970952Y-13240952D01*
X12961429Y-13236190D01*
X12942381Y-13231429D01*
X12928095Y-13231429D01*
X12909048Y-13236190D01*
X12899524Y-13240952D01*
X12890000Y-13250476D01*
X12885238Y-13264762D01*
X12885238Y-13274286D01*
X12890000Y-13288571D01*
X12894762Y-13293333D01*
X12928095Y-13350476D02*
X12923333Y-13340952D01*
X12918571Y-13336190D01*
X12909048Y-13331429D01*
X12904286Y-13331429D01*
X12894762Y-13336190D01*
X12890000Y-13340952D01*
X12885238Y-13350476D01*
X12885238Y-13369524D01*
X12890000Y-13379048D01*
X12894762Y-13383810D01*
X12904286Y-13388571D01*
X12909048Y-13388571D01*
X12918571Y-13383810D01*
X12923333Y-13379048D01*
X12928095Y-13369524D01*
X12928095Y-13350476D01*
X12932857Y-13340952D01*
X12937619Y-13336190D01*
X12947143Y-13331429D01*
X12966190Y-13331429D01*
X12975714Y-13336190D01*
X12980476Y-13340952D01*
X12985238Y-13350476D01*
X12985238Y-13369524D01*
X12980476Y-13379048D01*
X12975714Y-13383810D01*
X12966190Y-13388571D01*
X12947143Y-13388571D01*
X12937619Y-13383810D01*
X12932857Y-13379048D01*
X12928095Y-13369524D01*
X13606667Y-9045714D02*
X13611428Y-9050476D01*
X13625714Y-9055238D01*
X13635238Y-9055238D01*
X13649524Y-9050476D01*
X13659048Y-9040952D01*
X13663809Y-9031429D01*
X13668571Y-9012381D01*
X13668571Y-8998095D01*
X13663809Y-8979048D01*
X13659048Y-8969524D01*
X13649524Y-8960000D01*
X13635238Y-8955238D01*
X13625714Y-8955238D01*
X13611428Y-8960000D01*
X13606667Y-8964762D01*
X13559048Y-9055238D02*
X13540000Y-9055238D01*
X13530476Y-9050476D01*
X13525714Y-9045714D01*
X13516190Y-9031429D01*
X13511428Y-9012381D01*
X13511428Y-8974286D01*
X13516190Y-8964762D01*
X13520952Y-8960000D01*
X13530476Y-8955238D01*
X13549524Y-8955238D01*
X13559048Y-8960000D01*
X13563809Y-8964762D01*
X13568571Y-8974286D01*
X13568571Y-8998095D01*
X13563809Y-9007619D01*
X13559048Y-9012381D01*
X13549524Y-9017143D01*
X13530476Y-9017143D01*
X13520952Y-9012381D01*
X13516190Y-9007619D01*
X13511428Y-8998095D01*
X10444286Y-8835714D02*
X10449048Y-8840476D01*
X10463333Y-8845238D01*
X10472857Y-8845238D01*
X10487143Y-8840476D01*
X10496667Y-8830952D01*
X10501429Y-8821429D01*
X10506191Y-8802381D01*
X10506191Y-8788095D01*
X10501429Y-8769048D01*
X10496667Y-8759524D01*
X10487143Y-8750000D01*
X10472857Y-8745238D01*
X10463333Y-8745238D01*
X10449048Y-8750000D01*
X10444286Y-8754762D01*
X10349048Y-8845238D02*
X10406191Y-8845238D01*
X10377619Y-8845238D02*
X10377619Y-8745238D01*
X10387143Y-8759524D01*
X10396667Y-8769048D01*
X10406191Y-8773810D01*
X10287143Y-8745238D02*
X10277619Y-8745238D01*
X10268095Y-8750000D01*
X10263333Y-8754762D01*
X10258571Y-8764286D01*
X10253810Y-8783333D01*
X10253810Y-8807143D01*
X10258571Y-8826191D01*
X10263333Y-8835714D01*
X10268095Y-8840476D01*
X10277619Y-8845238D01*
X10287143Y-8845238D01*
X10296667Y-8840476D01*
X10301429Y-8835714D01*
X10306191Y-8826191D01*
X10310952Y-8807143D01*
X10310952Y-8783333D01*
X10306191Y-8764286D01*
X10301429Y-8754762D01*
X10296667Y-8750000D01*
X10287143Y-8745238D01*
X13664286Y-10445714D02*
X13669048Y-10450476D01*
X13683333Y-10455238D01*
X13692857Y-10455238D01*
X13707143Y-10450476D01*
X13716667Y-10440952D01*
X13721429Y-10431429D01*
X13726190Y-10412381D01*
X13726190Y-10398095D01*
X13721429Y-10379048D01*
X13716667Y-10369524D01*
X13707143Y-10360000D01*
X13692857Y-10355238D01*
X13683333Y-10355238D01*
X13669048Y-10360000D01*
X13664286Y-10364762D01*
X13569048Y-10455238D02*
X13626190Y-10455238D01*
X13597619Y-10455238D02*
X13597619Y-10355238D01*
X13607143Y-10369524D01*
X13616667Y-10379048D01*
X13626190Y-10383810D01*
X13473809Y-10455238D02*
X13530952Y-10455238D01*
X13502381Y-10455238D02*
X13502381Y-10355238D01*
X13511905Y-10369524D01*
X13521429Y-10379048D01*
X13530952Y-10383810D01*
X10144286Y-14870714D02*
X10149048Y-14875476D01*
X10163333Y-14880238D01*
X10172857Y-14880238D01*
X10187143Y-14875476D01*
X10196667Y-14865952D01*
X10201429Y-14856429D01*
X10206191Y-14837381D01*
X10206191Y-14823095D01*
X10201429Y-14804048D01*
X10196667Y-14794524D01*
X10187143Y-14785000D01*
X10172857Y-14780238D01*
X10163333Y-14780238D01*
X10149048Y-14785000D01*
X10144286Y-14789762D01*
X10049048Y-14880238D02*
X10106191Y-14880238D01*
X10077619Y-14880238D02*
X10077619Y-14780238D01*
X10087143Y-14794524D01*
X10096667Y-14804048D01*
X10106191Y-14808809D01*
X10010952Y-14789762D02*
X10006191Y-14785000D01*
X9996667Y-14780238D01*
X9972857Y-14780238D01*
X9963333Y-14785000D01*
X9958571Y-14789762D01*
X9953810Y-14799286D01*
X9953810Y-14808809D01*
X9958571Y-14823095D01*
X10015714Y-14880238D01*
X9953810Y-14880238D01*
X13624286Y-13245714D02*
X13629048Y-13250476D01*
X13643333Y-13255238D01*
X13652857Y-13255238D01*
X13667143Y-13250476D01*
X13676667Y-13240952D01*
X13681429Y-13231429D01*
X13686190Y-13212381D01*
X13686190Y-13198095D01*
X13681429Y-13179048D01*
X13676667Y-13169524D01*
X13667143Y-13160000D01*
X13652857Y-13155238D01*
X13643333Y-13155238D01*
X13629048Y-13160000D01*
X13624286Y-13164762D01*
X13529048Y-13255238D02*
X13586190Y-13255238D01*
X13557619Y-13255238D02*
X13557619Y-13155238D01*
X13567143Y-13169524D01*
X13576667Y-13179048D01*
X13586190Y-13183809D01*
X13495714Y-13155238D02*
X13433809Y-13155238D01*
X13467143Y-13193333D01*
X13452857Y-13193333D01*
X13443333Y-13198095D01*
X13438571Y-13202857D01*
X13433809Y-13212381D01*
X13433809Y-13236190D01*
X13438571Y-13245714D01*
X13443333Y-13250476D01*
X13452857Y-13255238D01*
X13481429Y-13255238D01*
X13490952Y-13250476D01*
X13495714Y-13245714D01*
X13654286Y-11855714D02*
X13659048Y-11860476D01*
X13673333Y-11865238D01*
X13682857Y-11865238D01*
X13697143Y-11860476D01*
X13706667Y-11850952D01*
X13711429Y-11841429D01*
X13716190Y-11822381D01*
X13716190Y-11808095D01*
X13711429Y-11789048D01*
X13706667Y-11779524D01*
X13697143Y-11770000D01*
X13682857Y-11765238D01*
X13673333Y-11765238D01*
X13659048Y-11770000D01*
X13654286Y-11774762D01*
X13559048Y-11865238D02*
X13616190Y-11865238D01*
X13587619Y-11865238D02*
X13587619Y-11765238D01*
X13597143Y-11779524D01*
X13606667Y-11789048D01*
X13616190Y-11793809D01*
X13468571Y-11765238D02*
X13516190Y-11765238D01*
X13520952Y-11812857D01*
X13516190Y-11808095D01*
X13506667Y-11803333D01*
X13482857Y-11803333D01*
X13473333Y-11808095D01*
X13468571Y-11812857D01*
X13463809Y-11822381D01*
X13463809Y-11846190D01*
X13468571Y-11855714D01*
X13473333Y-11860476D01*
X13482857Y-11865238D01*
X13506667Y-11865238D01*
X13516190Y-11860476D01*
X13520952Y-11855714D01*
X11154286Y-7445714D02*
X11159048Y-7450476D01*
X11173333Y-7455238D01*
X11182857Y-7455238D01*
X11197143Y-7450476D01*
X11206667Y-7440952D01*
X11211429Y-7431429D01*
X11216190Y-7412381D01*
X11216190Y-7398095D01*
X11211429Y-7379048D01*
X11206667Y-7369524D01*
X11197143Y-7360000D01*
X11182857Y-7355238D01*
X11173333Y-7355238D01*
X11159048Y-7360000D01*
X11154286Y-7364762D01*
X11120952Y-7355238D02*
X11059048Y-7355238D01*
X11092381Y-7393333D01*
X11078095Y-7393333D01*
X11068571Y-7398095D01*
X11063810Y-7402857D01*
X11059048Y-7412381D01*
X11059048Y-7436190D01*
X11063810Y-7445714D01*
X11068571Y-7450476D01*
X11078095Y-7455238D01*
X11106667Y-7455238D01*
X11116191Y-7450476D01*
X11120952Y-7445714D01*
X10968571Y-7355238D02*
X11016191Y-7355238D01*
X11020952Y-7402857D01*
X11016191Y-7398095D01*
X11006667Y-7393333D01*
X10982857Y-7393333D01*
X10973333Y-7398095D01*
X10968571Y-7402857D01*
X10963810Y-7412381D01*
X10963810Y-7436190D01*
X10968571Y-7445714D01*
X10973333Y-7450476D01*
X10982857Y-7455238D01*
X11006667Y-7455238D01*
X11016191Y-7450476D01*
X11020952Y-7445714D01*
X13533809Y-8865238D02*
X13533809Y-8765238D01*
X13510000Y-8765238D01*
X13495714Y-8770000D01*
X13486190Y-8779524D01*
X13481428Y-8789048D01*
X13476667Y-8808095D01*
X13476667Y-8822381D01*
X13481428Y-8841429D01*
X13486190Y-8850952D01*
X13495714Y-8860476D01*
X13510000Y-8865238D01*
X13533809Y-8865238D01*
X13381428Y-8865238D02*
X13438571Y-8865238D01*
X13410000Y-8865238D02*
X13410000Y-8765238D01*
X13419524Y-8779524D01*
X13429048Y-8789048D01*
X13438571Y-8793810D01*
X13563809Y-10325238D02*
X13563809Y-10225238D01*
X13540000Y-10225238D01*
X13525714Y-10230000D01*
X13516190Y-10239524D01*
X13511428Y-10249048D01*
X13506667Y-10268095D01*
X13506667Y-10282381D01*
X13511428Y-10301429D01*
X13516190Y-10310952D01*
X13525714Y-10320476D01*
X13540000Y-10325238D01*
X13563809Y-10325238D01*
X13468571Y-10234762D02*
X13463809Y-10230000D01*
X13454286Y-10225238D01*
X13430476Y-10225238D01*
X13420952Y-10230000D01*
X13416190Y-10234762D01*
X13411428Y-10244286D01*
X13411428Y-10253810D01*
X13416190Y-10268095D01*
X13473333Y-10325238D01*
X13411428Y-10325238D01*
X13563809Y-11705238D02*
X13563809Y-11605238D01*
X13540000Y-11605238D01*
X13525714Y-11610000D01*
X13516190Y-11619524D01*
X13511428Y-11629048D01*
X13506667Y-11648095D01*
X13506667Y-11662381D01*
X13511428Y-11681429D01*
X13516190Y-11690952D01*
X13525714Y-11700476D01*
X13540000Y-11705238D01*
X13563809Y-11705238D01*
X13473333Y-11605238D02*
X13411428Y-11605238D01*
X13444762Y-11643333D01*
X13430476Y-11643333D01*
X13420952Y-11648095D01*
X13416190Y-11652857D01*
X13411428Y-11662381D01*
X13411428Y-11686190D01*
X13416190Y-11695714D01*
X13420952Y-11700476D01*
X13430476Y-11705238D01*
X13459048Y-11705238D01*
X13468571Y-11700476D01*
X13473333Y-11695714D01*
X13553809Y-13065238D02*
X13553809Y-12965238D01*
X13530000Y-12965238D01*
X13515714Y-12970000D01*
X13506190Y-12979524D01*
X13501428Y-12989048D01*
X13496667Y-13008095D01*
X13496667Y-13022381D01*
X13501428Y-13041429D01*
X13506190Y-13050952D01*
X13515714Y-13060476D01*
X13530000Y-13065238D01*
X13553809Y-13065238D01*
X13410952Y-12998571D02*
X13410952Y-13065238D01*
X13434762Y-12960476D02*
X13458571Y-13031905D01*
X13396667Y-13031905D01*
X11495238Y-9576191D02*
X11395238Y-9576191D01*
X11395238Y-9600000D01*
X11400000Y-9614286D01*
X11409524Y-9623810D01*
X11419048Y-9628572D01*
X11438095Y-9633333D01*
X11452381Y-9633333D01*
X11471429Y-9628572D01*
X11480952Y-9623810D01*
X11490476Y-9614286D01*
X11495238Y-9600000D01*
X11495238Y-9576191D01*
X11395238Y-9723810D02*
X11395238Y-9676191D01*
X11442857Y-9671429D01*
X11438095Y-9676191D01*
X11433333Y-9685714D01*
X11433333Y-9709524D01*
X11438095Y-9719048D01*
X11442857Y-9723810D01*
X11452381Y-9728572D01*
X11476190Y-9728572D01*
X11485714Y-9723810D01*
X11490476Y-9719048D01*
X11495238Y-9709524D01*
X11495238Y-9685714D01*
X11490476Y-9676191D01*
X11485714Y-9671429D01*
X12645238Y-9436191D02*
X12545238Y-9436191D01*
X12545238Y-9460000D01*
X12550000Y-9474286D01*
X12559524Y-9483810D01*
X12569048Y-9488572D01*
X12588095Y-9493333D01*
X12602381Y-9493333D01*
X12621429Y-9488572D01*
X12630952Y-9483810D01*
X12640476Y-9474286D01*
X12645238Y-9460000D01*
X12645238Y-9436191D01*
X12545238Y-9579048D02*
X12545238Y-9560000D01*
X12550000Y-9550476D01*
X12554762Y-9545714D01*
X12569048Y-9536191D01*
X12588095Y-9531429D01*
X12626190Y-9531429D01*
X12635714Y-9536191D01*
X12640476Y-9540952D01*
X12645238Y-9550476D01*
X12645238Y-9569524D01*
X12640476Y-9579048D01*
X12635714Y-9583810D01*
X12626190Y-9588572D01*
X12602381Y-9588572D01*
X12592857Y-9583810D01*
X12588095Y-9579048D01*
X12583333Y-9569524D01*
X12583333Y-9550476D01*
X12588095Y-9540952D01*
X12592857Y-9536191D01*
X12602381Y-9531429D01*
X11495238Y-11006191D02*
X11395238Y-11006191D01*
X11395238Y-11030000D01*
X11400000Y-11044286D01*
X11409524Y-11053810D01*
X11419048Y-11058572D01*
X11438095Y-11063333D01*
X11452381Y-11063333D01*
X11471429Y-11058572D01*
X11480952Y-11053810D01*
X11490476Y-11044286D01*
X11495238Y-11030000D01*
X11495238Y-11006191D01*
X11395238Y-11096667D02*
X11395238Y-11163333D01*
X11495238Y-11120476D01*
X12645238Y-10836191D02*
X12545238Y-10836191D01*
X12545238Y-10860000D01*
X12550000Y-10874286D01*
X12559524Y-10883810D01*
X12569048Y-10888572D01*
X12588095Y-10893333D01*
X12602381Y-10893333D01*
X12621429Y-10888572D01*
X12630952Y-10883810D01*
X12640476Y-10874286D01*
X12645238Y-10860000D01*
X12645238Y-10836191D01*
X12588095Y-10950476D02*
X12583333Y-10940952D01*
X12578571Y-10936191D01*
X12569048Y-10931429D01*
X12564286Y-10931429D01*
X12554762Y-10936191D01*
X12550000Y-10940952D01*
X12545238Y-10950476D01*
X12545238Y-10969524D01*
X12550000Y-10979048D01*
X12554762Y-10983810D01*
X12564286Y-10988572D01*
X12569048Y-10988572D01*
X12578571Y-10983810D01*
X12583333Y-10979048D01*
X12588095Y-10969524D01*
X12588095Y-10950476D01*
X12592857Y-10940952D01*
X12597619Y-10936191D01*
X12607143Y-10931429D01*
X12626190Y-10931429D01*
X12635714Y-10936191D01*
X12640476Y-10940952D01*
X12645238Y-10950476D01*
X12645238Y-10969524D01*
X12640476Y-10979048D01*
X12635714Y-10983810D01*
X12626190Y-10988572D01*
X12607143Y-10988572D01*
X12597619Y-10983810D01*
X12592857Y-10979048D01*
X12588095Y-10969524D01*
X12645238Y-12188571D02*
X12545238Y-12188571D01*
X12545238Y-12212381D01*
X12550000Y-12226667D01*
X12559524Y-12236190D01*
X12569048Y-12240952D01*
X12588095Y-12245714D01*
X12602381Y-12245714D01*
X12621429Y-12240952D01*
X12630952Y-12236190D01*
X12640476Y-12226667D01*
X12645238Y-12212381D01*
X12645238Y-12188571D01*
X12645238Y-12340952D02*
X12645238Y-12283809D01*
X12645238Y-12312381D02*
X12545238Y-12312381D01*
X12559524Y-12302857D01*
X12569048Y-12293333D01*
X12573809Y-12283809D01*
X12545238Y-12402857D02*
X12545238Y-12412381D01*
X12550000Y-12421905D01*
X12554762Y-12426667D01*
X12564286Y-12431429D01*
X12583333Y-12436190D01*
X12607143Y-12436190D01*
X12626190Y-12431429D01*
X12635714Y-12426667D01*
X12640476Y-12421905D01*
X12645238Y-12412381D01*
X12645238Y-12402857D01*
X12640476Y-12393333D01*
X12635714Y-12388571D01*
X12626190Y-12383809D01*
X12607143Y-12379048D01*
X12583333Y-12379048D01*
X12564286Y-12383809D01*
X12554762Y-12388571D01*
X12550000Y-12393333D01*
X12545238Y-12402857D01*
X11465238Y-13828571D02*
X11365238Y-13828571D01*
X11365238Y-13852381D01*
X11370000Y-13866667D01*
X11379524Y-13876190D01*
X11389048Y-13880952D01*
X11408095Y-13885714D01*
X11422381Y-13885714D01*
X11441429Y-13880952D01*
X11450952Y-13876190D01*
X11460476Y-13866667D01*
X11465238Y-13852381D01*
X11465238Y-13828571D01*
X11465238Y-13980952D02*
X11465238Y-13923809D01*
X11465238Y-13952381D02*
X11365238Y-13952381D01*
X11379524Y-13942857D01*
X11389048Y-13933333D01*
X11393809Y-13923809D01*
X11465238Y-14076190D02*
X11465238Y-14019048D01*
X11465238Y-14047619D02*
X11365238Y-14047619D01*
X11379524Y-14038095D01*
X11389048Y-14028571D01*
X11393809Y-14019048D01*
X12365238Y-14118571D02*
X12265238Y-14118571D01*
X12265238Y-14142381D01*
X12270000Y-14156667D01*
X12279524Y-14166190D01*
X12289048Y-14170952D01*
X12308095Y-14175714D01*
X12322381Y-14175714D01*
X12341429Y-14170952D01*
X12350952Y-14166190D01*
X12360476Y-14156667D01*
X12365238Y-14142381D01*
X12365238Y-14118571D01*
X12365238Y-14270952D02*
X12365238Y-14213809D01*
X12365238Y-14242381D02*
X12265238Y-14242381D01*
X12279524Y-14232857D01*
X12289048Y-14223333D01*
X12293809Y-14213809D01*
X12274762Y-14309048D02*
X12270000Y-14313809D01*
X12265238Y-14323333D01*
X12265238Y-14347143D01*
X12270000Y-14356667D01*
X12274762Y-14361429D01*
X12284286Y-14366190D01*
X12293809Y-14366190D01*
X12308095Y-14361429D01*
X12365238Y-14304286D01*
X12365238Y-14366190D01*
X12405238Y-6428571D02*
X12305238Y-6428571D01*
X12305238Y-6452381D01*
X12310000Y-6466667D01*
X12319524Y-6476190D01*
X12329048Y-6480952D01*
X12348095Y-6485714D01*
X12362381Y-6485714D01*
X12381429Y-6480952D01*
X12390952Y-6476190D01*
X12400476Y-6466667D01*
X12405238Y-6452381D01*
X12405238Y-6428571D01*
X12405238Y-6580952D02*
X12405238Y-6523809D01*
X12405238Y-6552381D02*
X12305238Y-6552381D01*
X12319524Y-6542857D01*
X12329048Y-6533333D01*
X12333809Y-6523809D01*
X12405238Y-6628571D02*
X12405238Y-6647619D01*
X12400476Y-6657143D01*
X12395714Y-6661905D01*
X12381429Y-6671429D01*
X12362381Y-6676190D01*
X12324286Y-6676190D01*
X12314762Y-6671429D01*
X12310000Y-6666667D01*
X12305238Y-6657143D01*
X12305238Y-6638095D01*
X12310000Y-6628571D01*
X12314762Y-6623809D01*
X12324286Y-6619048D01*
X12348095Y-6619048D01*
X12357619Y-6623809D01*
X12362381Y-6628571D01*
X12367143Y-6638095D01*
X12367143Y-6657143D01*
X12362381Y-6666667D01*
X12357619Y-6671429D01*
X12348095Y-6676190D01*
X14261429Y-7735238D02*
X14261429Y-7635238D01*
X14237619Y-7635238D01*
X14223333Y-7640000D01*
X14213809Y-7649524D01*
X14209048Y-7659048D01*
X14204286Y-7678095D01*
X14204286Y-7692381D01*
X14209048Y-7711429D01*
X14213809Y-7720952D01*
X14223333Y-7730476D01*
X14237619Y-7735238D01*
X14261429Y-7735238D01*
X14166190Y-7644762D02*
X14161429Y-7640000D01*
X14151905Y-7635238D01*
X14128095Y-7635238D01*
X14118571Y-7640000D01*
X14113809Y-7644762D01*
X14109048Y-7654286D01*
X14109048Y-7663809D01*
X14113809Y-7678095D01*
X14170952Y-7735238D01*
X14109048Y-7735238D01*
X14047143Y-7635238D02*
X14037619Y-7635238D01*
X14028095Y-7640000D01*
X14023333Y-7644762D01*
X14018571Y-7654286D01*
X14013809Y-7673333D01*
X14013809Y-7697143D01*
X14018571Y-7716190D01*
X14023333Y-7725714D01*
X14028095Y-7730476D01*
X14037619Y-7735238D01*
X14047143Y-7735238D01*
X14056667Y-7730476D01*
X14061429Y-7725714D01*
X14066190Y-7716190D01*
X14070952Y-7697143D01*
X14070952Y-7673333D01*
X14066190Y-7654286D01*
X14061429Y-7644762D01*
X14056667Y-7640000D01*
X14047143Y-7635238D01*
X16581429Y-12015238D02*
X16581429Y-11915238D01*
X16557619Y-11915238D01*
X16543333Y-11920000D01*
X16533809Y-11929524D01*
X16529048Y-11939048D01*
X16524286Y-11958095D01*
X16524286Y-11972381D01*
X16529048Y-11991429D01*
X16533809Y-12000952D01*
X16543333Y-12010476D01*
X16557619Y-12015238D01*
X16581429Y-12015238D01*
X16486190Y-11924762D02*
X16481429Y-11920000D01*
X16471905Y-11915238D01*
X16448095Y-11915238D01*
X16438571Y-11920000D01*
X16433809Y-11924762D01*
X16429048Y-11934286D01*
X16429048Y-11943809D01*
X16433809Y-11958095D01*
X16490952Y-12015238D01*
X16429048Y-12015238D01*
X16338571Y-11915238D02*
X16386190Y-11915238D01*
X16390952Y-11962857D01*
X16386190Y-11958095D01*
X16376667Y-11953333D01*
X16352857Y-11953333D01*
X16343333Y-11958095D01*
X16338571Y-11962857D01*
X16333809Y-11972381D01*
X16333809Y-11996190D01*
X16338571Y-12005714D01*
X16343333Y-12010476D01*
X16352857Y-12015238D01*
X16376667Y-12015238D01*
X16386190Y-12010476D01*
X16390952Y-12005714D01*
X18291429Y-12025238D02*
X18291429Y-11925238D01*
X18267619Y-11925238D01*
X18253333Y-11930000D01*
X18243810Y-11939524D01*
X18239048Y-11949048D01*
X18234286Y-11968095D01*
X18234286Y-11982381D01*
X18239048Y-12001429D01*
X18243810Y-12010952D01*
X18253333Y-12020476D01*
X18267619Y-12025238D01*
X18291429Y-12025238D01*
X18196191Y-11934762D02*
X18191429Y-11930000D01*
X18181905Y-11925238D01*
X18158095Y-11925238D01*
X18148571Y-11930000D01*
X18143810Y-11934762D01*
X18139048Y-11944286D01*
X18139048Y-11953809D01*
X18143810Y-11968095D01*
X18200952Y-12025238D01*
X18139048Y-12025238D01*
X18053333Y-11925238D02*
X18072381Y-11925238D01*
X18081905Y-11930000D01*
X18086667Y-11934762D01*
X18096191Y-11949048D01*
X18100952Y-11968095D01*
X18100952Y-12006190D01*
X18096191Y-12015714D01*
X18091429Y-12020476D01*
X18081905Y-12025238D01*
X18062857Y-12025238D01*
X18053333Y-12020476D01*
X18048571Y-12015714D01*
X18043810Y-12006190D01*
X18043810Y-11982381D01*
X18048571Y-11972857D01*
X18053333Y-11968095D01*
X18062857Y-11963333D01*
X18081905Y-11963333D01*
X18091429Y-11968095D01*
X18096191Y-11972857D01*
X18100952Y-11982381D01*
X10175238Y-6448571D02*
X10075238Y-6448571D01*
X10075238Y-6472381D01*
X10080000Y-6486667D01*
X10089524Y-6496190D01*
X10099048Y-6500952D01*
X10118095Y-6505714D01*
X10132381Y-6505714D01*
X10151429Y-6500952D01*
X10160952Y-6496190D01*
X10170476Y-6486667D01*
X10175238Y-6472381D01*
X10175238Y-6448571D01*
X10084762Y-6543809D02*
X10080000Y-6548571D01*
X10075238Y-6558095D01*
X10075238Y-6581905D01*
X10080000Y-6591429D01*
X10084762Y-6596190D01*
X10094286Y-6600952D01*
X10103810Y-6600952D01*
X10118095Y-6596190D01*
X10175238Y-6539048D01*
X10175238Y-6600952D01*
X10118095Y-6658095D02*
X10113333Y-6648571D01*
X10108571Y-6643809D01*
X10099048Y-6639048D01*
X10094286Y-6639048D01*
X10084762Y-6643809D01*
X10080000Y-6648571D01*
X10075238Y-6658095D01*
X10075238Y-6677143D01*
X10080000Y-6686667D01*
X10084762Y-6691429D01*
X10094286Y-6696190D01*
X10099048Y-6696190D01*
X10108571Y-6691429D01*
X10113333Y-6686667D01*
X10118095Y-6677143D01*
X10118095Y-6658095D01*
X10122857Y-6648571D01*
X10127619Y-6643809D01*
X10137143Y-6639048D01*
X10156191Y-6639048D01*
X10165714Y-6643809D01*
X10170476Y-6648571D01*
X10175238Y-6658095D01*
X10175238Y-6677143D01*
X10170476Y-6686667D01*
X10165714Y-6691429D01*
X10156191Y-6696190D01*
X10137143Y-6696190D01*
X10127619Y-6691429D01*
X10122857Y-6686667D01*
X10118095Y-6677143D01*
X12642857Y-6576667D02*
X12642857Y-6543333D01*
X12695238Y-6543333D02*
X12595238Y-6543333D01*
X12595238Y-6590952D01*
X12695238Y-6681429D02*
X12695238Y-6624286D01*
X12695238Y-6652857D02*
X12595238Y-6652857D01*
X12609524Y-6643333D01*
X12619048Y-6633809D01*
X12623809Y-6624286D01*
X13837857Y-6606667D02*
X13837857Y-6573333D01*
X13890238Y-6573333D02*
X13790238Y-6573333D01*
X13790238Y-6620952D01*
X13799762Y-6654286D02*
X13795000Y-6659048D01*
X13790238Y-6668571D01*
X13790238Y-6692381D01*
X13795000Y-6701905D01*
X13799762Y-6706667D01*
X13809286Y-6711429D01*
X13818809Y-6711429D01*
X13833095Y-6706667D01*
X13890238Y-6649524D01*
X13890238Y-6711429D01*
X16992857Y-15936667D02*
X16992857Y-15903333D01*
X17045238Y-15903333D02*
X16945238Y-15903333D01*
X16945238Y-15950952D01*
X16945238Y-15979524D02*
X16945238Y-16041429D01*
X16983333Y-16008095D01*
X16983333Y-16022381D01*
X16988095Y-16031905D01*
X16992857Y-16036667D01*
X17002381Y-16041429D01*
X17026191Y-16041429D01*
X17035714Y-16036667D01*
X17040476Y-16031905D01*
X17045238Y-16022381D01*
X17045238Y-15993809D01*
X17040476Y-15984286D01*
X17035714Y-15979524D01*
X17880238Y-12533333D02*
X17880238Y-12485714D01*
X17780238Y-12485714D01*
X17880238Y-12619048D02*
X17880238Y-12561905D01*
X17880238Y-12590476D02*
X17780238Y-12590476D01*
X17794524Y-12580952D01*
X17804048Y-12571429D01*
X17808810Y-12561905D01*
X16769167Y-12190238D02*
X16816786Y-12190238D01*
X16816786Y-12090238D01*
X16740595Y-12099762D02*
X16735833Y-12095000D01*
X16726309Y-12090238D01*
X16702500Y-12090238D01*
X16692976Y-12095000D01*
X16688214Y-12099762D01*
X16683452Y-12109286D01*
X16683452Y-12118809D01*
X16688214Y-12133095D01*
X16745357Y-12190238D01*
X16683452Y-12190238D01*
X18926667Y-11735238D02*
X18974286Y-11735238D01*
X18974286Y-11635238D01*
X18902857Y-11635238D02*
X18840952Y-11635238D01*
X18874286Y-11673333D01*
X18860000Y-11673333D01*
X18850476Y-11678095D01*
X18845714Y-11682857D01*
X18840952Y-11692381D01*
X18840952Y-11716190D01*
X18845714Y-11725714D01*
X18850476Y-11730476D01*
X18860000Y-11735238D01*
X18888571Y-11735238D01*
X18898095Y-11730476D01*
X18902857Y-11725714D01*
X17885238Y-9763333D02*
X17885238Y-9715714D01*
X17785238Y-9715714D01*
X17818571Y-9839524D02*
X17885238Y-9839524D01*
X17780476Y-9815714D02*
X17851905Y-9791905D01*
X17851905Y-9853810D01*
X11526667Y-8395238D02*
X11574286Y-8395238D01*
X11574286Y-8295238D01*
X11445714Y-8295238D02*
X11493333Y-8295238D01*
X11498095Y-8342857D01*
X11493333Y-8338095D01*
X11483809Y-8333333D01*
X11460000Y-8333333D01*
X11450476Y-8338095D01*
X11445714Y-8342857D01*
X11440952Y-8352381D01*
X11440952Y-8376190D01*
X11445714Y-8385714D01*
X11450476Y-8390476D01*
X11460000Y-8395238D01*
X11483809Y-8395238D01*
X11493333Y-8390476D01*
X11498095Y-8385714D01*
X12447143Y-7324762D02*
X12456667Y-7320000D01*
X12466190Y-7310476D01*
X12480476Y-7296190D01*
X12490000Y-7291429D01*
X12499524Y-7291429D01*
X12494762Y-7315238D02*
X12504286Y-7310476D01*
X12513809Y-7300952D01*
X12518571Y-7281905D01*
X12518571Y-7248571D01*
X12513809Y-7229524D01*
X12504286Y-7220000D01*
X12494762Y-7215238D01*
X12475714Y-7215238D01*
X12466190Y-7220000D01*
X12456667Y-7229524D01*
X12451905Y-7248571D01*
X12451905Y-7281905D01*
X12456667Y-7300952D01*
X12466190Y-7310476D01*
X12475714Y-7315238D01*
X12494762Y-7315238D01*
X12356667Y-7315238D02*
X12413809Y-7315238D01*
X12385238Y-7315238D02*
X12385238Y-7215238D01*
X12394762Y-7229524D01*
X12404286Y-7239048D01*
X12413809Y-7243809D01*
X12294762Y-7215238D02*
X12285238Y-7215238D01*
X12275714Y-7220000D01*
X12270952Y-7224762D01*
X12266190Y-7234286D01*
X12261428Y-7253333D01*
X12261428Y-7277143D01*
X12266190Y-7296190D01*
X12270952Y-7305714D01*
X12275714Y-7310476D01*
X12285238Y-7315238D01*
X12294762Y-7315238D01*
X12304286Y-7310476D01*
X12309048Y-7305714D01*
X12313809Y-7296190D01*
X12318571Y-7277143D01*
X12318571Y-7253333D01*
X12313809Y-7234286D01*
X12309048Y-7224762D01*
X12304286Y-7220000D01*
X12294762Y-7215238D01*
X16306667Y-9885238D02*
X16340000Y-9837619D01*
X16363809Y-9885238D02*
X16363809Y-9785238D01*
X16325714Y-9785238D01*
X16316190Y-9790000D01*
X16311428Y-9794762D01*
X16306667Y-9804286D01*
X16306667Y-9818571D01*
X16311428Y-9828095D01*
X16316190Y-9832857D01*
X16325714Y-9837619D01*
X16363809Y-9837619D01*
X16211428Y-9885238D02*
X16268571Y-9885238D01*
X16240000Y-9885238D02*
X16240000Y-9785238D01*
X16249524Y-9799524D01*
X16259048Y-9809048D01*
X16268571Y-9813810D01*
X16286667Y-12405238D02*
X16320000Y-12357619D01*
X16343809Y-12405238D02*
X16343809Y-12305238D01*
X16305714Y-12305238D01*
X16296190Y-12310000D01*
X16291428Y-12314762D01*
X16286667Y-12324286D01*
X16286667Y-12338571D01*
X16291428Y-12348095D01*
X16296190Y-12352857D01*
X16305714Y-12357619D01*
X16343809Y-12357619D01*
X16248571Y-12314762D02*
X16243809Y-12310000D01*
X16234286Y-12305238D01*
X16210476Y-12305238D01*
X16200952Y-12310000D01*
X16196190Y-12314762D01*
X16191428Y-12324286D01*
X16191428Y-12333809D01*
X16196190Y-12348095D01*
X16253333Y-12405238D01*
X16191428Y-12405238D01*
X16306667Y-10470238D02*
X16340000Y-10422619D01*
X16363809Y-10470238D02*
X16363809Y-10370238D01*
X16325714Y-10370238D01*
X16316190Y-10375000D01*
X16311428Y-10379762D01*
X16306667Y-10389286D01*
X16306667Y-10403571D01*
X16311428Y-10413095D01*
X16316190Y-10417857D01*
X16325714Y-10422619D01*
X16363809Y-10422619D01*
X16273333Y-10370238D02*
X16211428Y-10370238D01*
X16244762Y-10408333D01*
X16230476Y-10408333D01*
X16220952Y-10413095D01*
X16216190Y-10417857D01*
X16211428Y-10427381D01*
X16211428Y-10451191D01*
X16216190Y-10460714D01*
X16220952Y-10465476D01*
X16230476Y-10470238D01*
X16259048Y-10470238D01*
X16268571Y-10465476D01*
X16273333Y-10460714D01*
X16306667Y-13010238D02*
X16340000Y-12962619D01*
X16363809Y-13010238D02*
X16363809Y-12910238D01*
X16325714Y-12910238D01*
X16316190Y-12915000D01*
X16311428Y-12919762D01*
X16306667Y-12929286D01*
X16306667Y-12943571D01*
X16311428Y-12953095D01*
X16316190Y-12957857D01*
X16325714Y-12962619D01*
X16363809Y-12962619D01*
X16220952Y-12943571D02*
X16220952Y-13010238D01*
X16244762Y-12905476D02*
X16268571Y-12976905D01*
X16206667Y-12976905D01*
X16296667Y-10635238D02*
X16330000Y-10587619D01*
X16353809Y-10635238D02*
X16353809Y-10535238D01*
X16315714Y-10535238D01*
X16306190Y-10540000D01*
X16301428Y-10544762D01*
X16296667Y-10554286D01*
X16296667Y-10568571D01*
X16301428Y-10578095D01*
X16306190Y-10582857D01*
X16315714Y-10587619D01*
X16353809Y-10587619D01*
X16206190Y-10535238D02*
X16253809Y-10535238D01*
X16258571Y-10582857D01*
X16253809Y-10578095D01*
X16244286Y-10573333D01*
X16220476Y-10573333D01*
X16210952Y-10578095D01*
X16206190Y-10582857D01*
X16201428Y-10592381D01*
X16201428Y-10616191D01*
X16206190Y-10625714D01*
X16210952Y-10630476D01*
X16220476Y-10635238D01*
X16244286Y-10635238D01*
X16253809Y-10630476D01*
X16258571Y-10625714D01*
X16306667Y-13177738D02*
X16340000Y-13130119D01*
X16363809Y-13177738D02*
X16363809Y-13077738D01*
X16325714Y-13077738D01*
X16316190Y-13082500D01*
X16311428Y-13087262D01*
X16306667Y-13096786D01*
X16306667Y-13111071D01*
X16311428Y-13120595D01*
X16316190Y-13125357D01*
X16325714Y-13130119D01*
X16363809Y-13130119D01*
X16220952Y-13077738D02*
X16240000Y-13077738D01*
X16249524Y-13082500D01*
X16254286Y-13087262D01*
X16263809Y-13101548D01*
X16268571Y-13120595D01*
X16268571Y-13158690D01*
X16263809Y-13168214D01*
X16259048Y-13172976D01*
X16249524Y-13177738D01*
X16230476Y-13177738D01*
X16220952Y-13172976D01*
X16216190Y-13168214D01*
X16211428Y-13158690D01*
X16211428Y-13134881D01*
X16216190Y-13125357D01*
X16220952Y-13120595D01*
X16230476Y-13115833D01*
X16249524Y-13115833D01*
X16259048Y-13120595D01*
X16263809Y-13125357D01*
X16268571Y-13134881D01*
X16306667Y-11220238D02*
X16340000Y-11172619D01*
X16363809Y-11220238D02*
X16363809Y-11120238D01*
X16325714Y-11120238D01*
X16316190Y-11125000D01*
X16311428Y-11129762D01*
X16306667Y-11139286D01*
X16306667Y-11153571D01*
X16311428Y-11163095D01*
X16316190Y-11167857D01*
X16325714Y-11172619D01*
X16363809Y-11172619D01*
X16273333Y-11120238D02*
X16206667Y-11120238D01*
X16249524Y-11220238D01*
X16306667Y-13770238D02*
X16340000Y-13722619D01*
X16363809Y-13770238D02*
X16363809Y-13670238D01*
X16325714Y-13670238D01*
X16316190Y-13675000D01*
X16311428Y-13679762D01*
X16306667Y-13689286D01*
X16306667Y-13703571D01*
X16311428Y-13713095D01*
X16316190Y-13717857D01*
X16325714Y-13722619D01*
X16363809Y-13722619D01*
X16249524Y-13713095D02*
X16259048Y-13708333D01*
X16263809Y-13703571D01*
X16268571Y-13694048D01*
X16268571Y-13689286D01*
X16263809Y-13679762D01*
X16259048Y-13675000D01*
X16249524Y-13670238D01*
X16230476Y-13670238D01*
X16220952Y-13675000D01*
X16216190Y-13679762D01*
X16211428Y-13689286D01*
X16211428Y-13694048D01*
X16216190Y-13703571D01*
X16220952Y-13708333D01*
X16230476Y-13713095D01*
X16249524Y-13713095D01*
X16259048Y-13717857D01*
X16263809Y-13722619D01*
X16268571Y-13732143D01*
X16268571Y-13751190D01*
X16263809Y-13760714D01*
X16259048Y-13765476D01*
X16249524Y-13770238D01*
X16230476Y-13770238D01*
X16220952Y-13765476D01*
X16216190Y-13760714D01*
X16211428Y-13751190D01*
X16211428Y-13732143D01*
X16216190Y-13722619D01*
X16220952Y-13717857D01*
X16230476Y-13713095D01*
X12636667Y-9230238D02*
X12670000Y-9182619D01*
X12693809Y-9230238D02*
X12693809Y-9130238D01*
X12655714Y-9130238D01*
X12646190Y-9135000D01*
X12641428Y-9139762D01*
X12636667Y-9149286D01*
X12636667Y-9163571D01*
X12641428Y-9173095D01*
X12646190Y-9177857D01*
X12655714Y-9182619D01*
X12693809Y-9182619D01*
X12589048Y-9230238D02*
X12570000Y-9230238D01*
X12560476Y-9225476D01*
X12555714Y-9220714D01*
X12546190Y-9206429D01*
X12541428Y-9187381D01*
X12541428Y-9149286D01*
X12546190Y-9139762D01*
X12550952Y-9135000D01*
X12560476Y-9130238D01*
X12579524Y-9130238D01*
X12589048Y-9135000D01*
X12593809Y-9139762D01*
X12598571Y-9149286D01*
X12598571Y-9173095D01*
X12593809Y-9182619D01*
X12589048Y-9187381D01*
X12579524Y-9192143D01*
X12560476Y-9192143D01*
X12550952Y-9187381D01*
X12546190Y-9182619D01*
X12541428Y-9173095D01*
X12894286Y-10115238D02*
X12927619Y-10067619D01*
X12951429Y-10115238D02*
X12951429Y-10015238D01*
X12913333Y-10015238D01*
X12903809Y-10020000D01*
X12899048Y-10024762D01*
X12894286Y-10034286D01*
X12894286Y-10048571D01*
X12899048Y-10058095D01*
X12903809Y-10062857D01*
X12913333Y-10067619D01*
X12951429Y-10067619D01*
X12799048Y-10115238D02*
X12856190Y-10115238D01*
X12827619Y-10115238D02*
X12827619Y-10015238D01*
X12837143Y-10029524D01*
X12846667Y-10039048D01*
X12856190Y-10043810D01*
X12737143Y-10015238D02*
X12727619Y-10015238D01*
X12718095Y-10020000D01*
X12713333Y-10024762D01*
X12708571Y-10034286D01*
X12703809Y-10053333D01*
X12703809Y-10077143D01*
X12708571Y-10096191D01*
X12713333Y-10105714D01*
X12718095Y-10110476D01*
X12727619Y-10115238D01*
X12737143Y-10115238D01*
X12746667Y-10110476D01*
X12751429Y-10105714D01*
X12756190Y-10096191D01*
X12760952Y-10077143D01*
X12760952Y-10053333D01*
X12756190Y-10034286D01*
X12751429Y-10024762D01*
X12746667Y-10020000D01*
X12737143Y-10015238D01*
X12724286Y-10305238D02*
X12757619Y-10257619D01*
X12781429Y-10305238D02*
X12781429Y-10205238D01*
X12743333Y-10205238D01*
X12733809Y-10210000D01*
X12729048Y-10214762D01*
X12724286Y-10224286D01*
X12724286Y-10238571D01*
X12729048Y-10248095D01*
X12733809Y-10252857D01*
X12743333Y-10257619D01*
X12781429Y-10257619D01*
X12629048Y-10305238D02*
X12686190Y-10305238D01*
X12657619Y-10305238D02*
X12657619Y-10205238D01*
X12667143Y-10219524D01*
X12676667Y-10229048D01*
X12686190Y-10233810D01*
X12533809Y-10305238D02*
X12590952Y-10305238D01*
X12562381Y-10305238D02*
X12562381Y-10205238D01*
X12571905Y-10219524D01*
X12581429Y-10229048D01*
X12590952Y-10233810D01*
X12924286Y-11515238D02*
X12957619Y-11467619D01*
X12981429Y-11515238D02*
X12981429Y-11415238D01*
X12943333Y-11415238D01*
X12933809Y-11420000D01*
X12929048Y-11424762D01*
X12924286Y-11434286D01*
X12924286Y-11448571D01*
X12929048Y-11458095D01*
X12933809Y-11462857D01*
X12943333Y-11467619D01*
X12981429Y-11467619D01*
X12829048Y-11515238D02*
X12886190Y-11515238D01*
X12857619Y-11515238D02*
X12857619Y-11415238D01*
X12867143Y-11429524D01*
X12876667Y-11439048D01*
X12886190Y-11443809D01*
X12790952Y-11424762D02*
X12786190Y-11420000D01*
X12776667Y-11415238D01*
X12752857Y-11415238D01*
X12743333Y-11420000D01*
X12738571Y-11424762D01*
X12733809Y-11434286D01*
X12733809Y-11443809D01*
X12738571Y-11458095D01*
X12795714Y-11515238D01*
X12733809Y-11515238D01*
X12684286Y-12010238D02*
X12717619Y-11962619D01*
X12741429Y-12010238D02*
X12741429Y-11910238D01*
X12703333Y-11910238D01*
X12693809Y-11915000D01*
X12689048Y-11919762D01*
X12684286Y-11929286D01*
X12684286Y-11943571D01*
X12689048Y-11953095D01*
X12693809Y-11957857D01*
X12703333Y-11962619D01*
X12741429Y-11962619D01*
X12589048Y-12010238D02*
X12646190Y-12010238D01*
X12617619Y-12010238D02*
X12617619Y-11910238D01*
X12627143Y-11924524D01*
X12636667Y-11934048D01*
X12646190Y-11938809D01*
X12555714Y-11910238D02*
X12493809Y-11910238D01*
X12527143Y-11948333D01*
X12512857Y-11948333D01*
X12503333Y-11953095D01*
X12498571Y-11957857D01*
X12493809Y-11967381D01*
X12493809Y-11991190D01*
X12498571Y-12000714D01*
X12503333Y-12005476D01*
X12512857Y-12010238D01*
X12541429Y-12010238D01*
X12550952Y-12005476D01*
X12555714Y-12000714D01*
X12894286Y-12925238D02*
X12927619Y-12877619D01*
X12951429Y-12925238D02*
X12951429Y-12825238D01*
X12913333Y-12825238D01*
X12903809Y-12830000D01*
X12899048Y-12834762D01*
X12894286Y-12844286D01*
X12894286Y-12858571D01*
X12899048Y-12868095D01*
X12903809Y-12872857D01*
X12913333Y-12877619D01*
X12951429Y-12877619D01*
X12799048Y-12925238D02*
X12856190Y-12925238D01*
X12827619Y-12925238D02*
X12827619Y-12825238D01*
X12837143Y-12839524D01*
X12846667Y-12849048D01*
X12856190Y-12853809D01*
X12713333Y-12858571D02*
X12713333Y-12925238D01*
X12737143Y-12820476D02*
X12760952Y-12891905D01*
X12699048Y-12891905D01*
X12684286Y-13410238D02*
X12717619Y-13362619D01*
X12741429Y-13410238D02*
X12741429Y-13310238D01*
X12703333Y-13310238D01*
X12693809Y-13315000D01*
X12689048Y-13319762D01*
X12684286Y-13329286D01*
X12684286Y-13343571D01*
X12689048Y-13353095D01*
X12693809Y-13357857D01*
X12703333Y-13362619D01*
X12741429Y-13362619D01*
X12589048Y-13410238D02*
X12646190Y-13410238D01*
X12617619Y-13410238D02*
X12617619Y-13310238D01*
X12627143Y-13324524D01*
X12636667Y-13334048D01*
X12646190Y-13338809D01*
X12498571Y-13310238D02*
X12546190Y-13310238D01*
X12550952Y-13357857D01*
X12546190Y-13353095D01*
X12536667Y-13348333D01*
X12512857Y-13348333D01*
X12503333Y-13353095D01*
X12498571Y-13357857D01*
X12493809Y-13367381D01*
X12493809Y-13391190D01*
X12498571Y-13400714D01*
X12503333Y-13405476D01*
X12512857Y-13410238D01*
X12536667Y-13410238D01*
X12546190Y-13405476D01*
X12550952Y-13400714D01*
X12874286Y-14315238D02*
X12907619Y-14267619D01*
X12931429Y-14315238D02*
X12931429Y-14215238D01*
X12893333Y-14215238D01*
X12883809Y-14220000D01*
X12879048Y-14224762D01*
X12874286Y-14234286D01*
X12874286Y-14248571D01*
X12879048Y-14258095D01*
X12883809Y-14262857D01*
X12893333Y-14267619D01*
X12931429Y-14267619D01*
X12779048Y-14315238D02*
X12836190Y-14315238D01*
X12807619Y-14315238D02*
X12807619Y-14215238D01*
X12817143Y-14229524D01*
X12826667Y-14239048D01*
X12836190Y-14243809D01*
X12693333Y-14215238D02*
X12712381Y-14215238D01*
X12721905Y-14220000D01*
X12726667Y-14224762D01*
X12736190Y-14239048D01*
X12740952Y-14258095D01*
X12740952Y-14296190D01*
X12736190Y-14305714D01*
X12731429Y-14310476D01*
X12721905Y-14315238D01*
X12702857Y-14315238D01*
X12693333Y-14310476D01*
X12688571Y-14305714D01*
X12683809Y-14296190D01*
X12683809Y-14272381D01*
X12688571Y-14262857D01*
X12693333Y-14258095D01*
X12702857Y-14253333D01*
X12721905Y-14253333D01*
X12731429Y-14258095D01*
X12736190Y-14262857D01*
X12740952Y-14272381D01*
X15764286Y-8510238D02*
X15797619Y-8462619D01*
X15821429Y-8510238D02*
X15821429Y-8410238D01*
X15783333Y-8410238D01*
X15773809Y-8415000D01*
X15769048Y-8419762D01*
X15764286Y-8429286D01*
X15764286Y-8443571D01*
X15769048Y-8453095D01*
X15773809Y-8457857D01*
X15783333Y-8462619D01*
X15821429Y-8462619D01*
X15669048Y-8510238D02*
X15726190Y-8510238D01*
X15697619Y-8510238D02*
X15697619Y-8410238D01*
X15707143Y-8424524D01*
X15716667Y-8434048D01*
X15726190Y-8438810D01*
X15635714Y-8410238D02*
X15569048Y-8410238D01*
X15611905Y-8510238D01*
X15614286Y-14820238D02*
X15647619Y-14772619D01*
X15671429Y-14820238D02*
X15671429Y-14720238D01*
X15633333Y-14720238D01*
X15623809Y-14725000D01*
X15619048Y-14729762D01*
X15614286Y-14739286D01*
X15614286Y-14753571D01*
X15619048Y-14763095D01*
X15623809Y-14767857D01*
X15633333Y-14772619D01*
X15671429Y-14772619D01*
X15519048Y-14820238D02*
X15576190Y-14820238D01*
X15547619Y-14820238D02*
X15547619Y-14720238D01*
X15557143Y-14734524D01*
X15566667Y-14744048D01*
X15576190Y-14748809D01*
X15461905Y-14763095D02*
X15471429Y-14758333D01*
X15476190Y-14753571D01*
X15480952Y-14744048D01*
X15480952Y-14739286D01*
X15476190Y-14729762D01*
X15471429Y-14725000D01*
X15461905Y-14720238D01*
X15442857Y-14720238D01*
X15433333Y-14725000D01*
X15428571Y-14729762D01*
X15423809Y-14739286D01*
X15423809Y-14744048D01*
X15428571Y-14753571D01*
X15433333Y-14758333D01*
X15442857Y-14763095D01*
X15461905Y-14763095D01*
X15471429Y-14767857D01*
X15476190Y-14772619D01*
X15480952Y-14782143D01*
X15480952Y-14801190D01*
X15476190Y-14810714D01*
X15471429Y-14815476D01*
X15461905Y-14820238D01*
X15442857Y-14820238D01*
X15433333Y-14815476D01*
X15428571Y-14810714D01*
X15423809Y-14801190D01*
X15423809Y-14782143D01*
X15428571Y-14772619D01*
X15433333Y-14767857D01*
X15442857Y-14763095D01*
X16684286Y-8785238D02*
X16717619Y-8737619D01*
X16741429Y-8785238D02*
X16741429Y-8685238D01*
X16703333Y-8685238D01*
X16693809Y-8690000D01*
X16689048Y-8694762D01*
X16684286Y-8704286D01*
X16684286Y-8718571D01*
X16689048Y-8728095D01*
X16693809Y-8732857D01*
X16703333Y-8737619D01*
X16741429Y-8737619D01*
X16646190Y-8694762D02*
X16641429Y-8690000D01*
X16631905Y-8685238D01*
X16608095Y-8685238D01*
X16598571Y-8690000D01*
X16593809Y-8694762D01*
X16589048Y-8704286D01*
X16589048Y-8713810D01*
X16593809Y-8728095D01*
X16650952Y-8785238D01*
X16589048Y-8785238D01*
X16555714Y-8685238D02*
X16493809Y-8685238D01*
X16527143Y-8723333D01*
X16512857Y-8723333D01*
X16503333Y-8728095D01*
X16498571Y-8732857D01*
X16493809Y-8742381D01*
X16493809Y-8766191D01*
X16498571Y-8775714D01*
X16503333Y-8780476D01*
X16512857Y-8785238D01*
X16541429Y-8785238D01*
X16550952Y-8780476D01*
X16555714Y-8775714D01*
X16704286Y-15005238D02*
X16737619Y-14957619D01*
X16761429Y-15005238D02*
X16761429Y-14905238D01*
X16723333Y-14905238D01*
X16713809Y-14910000D01*
X16709048Y-14914762D01*
X16704286Y-14924286D01*
X16704286Y-14938571D01*
X16709048Y-14948095D01*
X16713809Y-14952857D01*
X16723333Y-14957619D01*
X16761429Y-14957619D01*
X16666190Y-14914762D02*
X16661429Y-14910000D01*
X16651905Y-14905238D01*
X16628095Y-14905238D01*
X16618571Y-14910000D01*
X16613809Y-14914762D01*
X16609048Y-14924286D01*
X16609048Y-14933809D01*
X16613809Y-14948095D01*
X16670952Y-15005238D01*
X16609048Y-15005238D01*
X16523333Y-14938571D02*
X16523333Y-15005238D01*
X16547143Y-14900476D02*
X16570952Y-14971905D01*
X16509048Y-14971905D01*
X20354286Y-8950238D02*
X20387619Y-8902619D01*
X20411429Y-8950238D02*
X20411429Y-8850238D01*
X20373333Y-8850238D01*
X20363810Y-8855000D01*
X20359048Y-8859762D01*
X20354286Y-8869286D01*
X20354286Y-8883571D01*
X20359048Y-8893095D01*
X20363810Y-8897857D01*
X20373333Y-8902619D01*
X20411429Y-8902619D01*
X20316191Y-8859762D02*
X20311429Y-8855000D01*
X20301905Y-8850238D01*
X20278095Y-8850238D01*
X20268571Y-8855000D01*
X20263810Y-8859762D01*
X20259048Y-8869286D01*
X20259048Y-8878810D01*
X20263810Y-8893095D01*
X20320952Y-8950238D01*
X20259048Y-8950238D01*
X20168571Y-8850238D02*
X20216191Y-8850238D01*
X20220952Y-8897857D01*
X20216191Y-8893095D01*
X20206667Y-8888333D01*
X20182857Y-8888333D01*
X20173333Y-8893095D01*
X20168571Y-8897857D01*
X20163810Y-8907381D01*
X20163810Y-8931191D01*
X20168571Y-8940714D01*
X20173333Y-8945476D01*
X20182857Y-8950238D01*
X20206667Y-8950238D01*
X20216191Y-8945476D01*
X20220952Y-8940714D01*
X20364286Y-9460238D02*
X20397619Y-9412619D01*
X20421429Y-9460238D02*
X20421429Y-9360238D01*
X20383333Y-9360238D01*
X20373810Y-9365000D01*
X20369048Y-9369762D01*
X20364286Y-9379286D01*
X20364286Y-9393571D01*
X20369048Y-9403095D01*
X20373810Y-9407857D01*
X20383333Y-9412619D01*
X20421429Y-9412619D01*
X20326191Y-9369762D02*
X20321429Y-9365000D01*
X20311905Y-9360238D01*
X20288095Y-9360238D01*
X20278571Y-9365000D01*
X20273810Y-9369762D01*
X20269048Y-9379286D01*
X20269048Y-9388810D01*
X20273810Y-9403095D01*
X20330952Y-9460238D01*
X20269048Y-9460238D01*
X20183333Y-9360238D02*
X20202381Y-9360238D01*
X20211905Y-9365000D01*
X20216667Y-9369762D01*
X20226191Y-9384048D01*
X20230952Y-9403095D01*
X20230952Y-9441191D01*
X20226191Y-9450714D01*
X20221429Y-9455476D01*
X20211905Y-9460238D01*
X20192857Y-9460238D01*
X20183333Y-9455476D01*
X20178571Y-9450714D01*
X20173810Y-9441191D01*
X20173810Y-9417381D01*
X20178571Y-9407857D01*
X20183333Y-9403095D01*
X20192857Y-9398333D01*
X20211905Y-9398333D01*
X20221429Y-9403095D01*
X20226191Y-9407857D01*
X20230952Y-9417381D01*
X16274286Y-7800238D02*
X16307619Y-7752619D01*
X16331429Y-7800238D02*
X16331429Y-7700238D01*
X16293333Y-7700238D01*
X16283809Y-7705000D01*
X16279048Y-7709762D01*
X16274286Y-7719286D01*
X16274286Y-7733571D01*
X16279048Y-7743095D01*
X16283809Y-7747857D01*
X16293333Y-7752619D01*
X16331429Y-7752619D01*
X16236190Y-7709762D02*
X16231429Y-7705000D01*
X16221905Y-7700238D01*
X16198095Y-7700238D01*
X16188571Y-7705000D01*
X16183809Y-7709762D01*
X16179048Y-7719286D01*
X16179048Y-7728809D01*
X16183809Y-7743095D01*
X16240952Y-7800238D01*
X16179048Y-7800238D01*
X16145714Y-7700238D02*
X16079048Y-7700238D01*
X16121905Y-7800238D01*
X17931786Y-7842738D02*
X17965119Y-7795119D01*
X17988929Y-7842738D02*
X17988929Y-7742738D01*
X17950833Y-7742738D01*
X17941310Y-7747500D01*
X17936548Y-7752262D01*
X17931786Y-7761786D01*
X17931786Y-7776071D01*
X17936548Y-7785595D01*
X17941310Y-7790357D01*
X17950833Y-7795119D01*
X17988929Y-7795119D01*
X17893691Y-7752262D02*
X17888929Y-7747500D01*
X17879405Y-7742738D01*
X17855595Y-7742738D01*
X17846071Y-7747500D01*
X17841310Y-7752262D01*
X17836548Y-7761786D01*
X17836548Y-7771309D01*
X17841310Y-7785595D01*
X17898452Y-7842738D01*
X17836548Y-7842738D01*
X17779405Y-7785595D02*
X17788929Y-7780833D01*
X17793691Y-7776071D01*
X17798452Y-7766548D01*
X17798452Y-7761786D01*
X17793691Y-7752262D01*
X17788929Y-7747500D01*
X17779405Y-7742738D01*
X17760357Y-7742738D01*
X17750833Y-7747500D01*
X17746071Y-7752262D01*
X17741310Y-7761786D01*
X17741310Y-7766548D01*
X17746071Y-7776071D01*
X17750833Y-7780833D01*
X17760357Y-7785595D01*
X17779405Y-7785595D01*
X17788929Y-7790357D01*
X17793691Y-7795119D01*
X17798452Y-7804643D01*
X17798452Y-7823690D01*
X17793691Y-7833214D01*
X17788929Y-7837976D01*
X17779405Y-7842738D01*
X17760357Y-7842738D01*
X17750833Y-7837976D01*
X17746071Y-7833214D01*
X17741310Y-7823690D01*
X17741310Y-7804643D01*
X17746071Y-7795119D01*
X17750833Y-7790357D01*
X17760357Y-7785595D01*
X19504286Y-7445238D02*
X19537619Y-7397619D01*
X19561429Y-7445238D02*
X19561429Y-7345238D01*
X19523333Y-7345238D01*
X19513810Y-7350000D01*
X19509048Y-7354762D01*
X19504286Y-7364286D01*
X19504286Y-7378571D01*
X19509048Y-7388095D01*
X19513810Y-7392857D01*
X19523333Y-7397619D01*
X19561429Y-7397619D01*
X19466191Y-7354762D02*
X19461429Y-7350000D01*
X19451905Y-7345238D01*
X19428095Y-7345238D01*
X19418571Y-7350000D01*
X19413810Y-7354762D01*
X19409048Y-7364286D01*
X19409048Y-7373809D01*
X19413810Y-7388095D01*
X19470952Y-7445238D01*
X19409048Y-7445238D01*
X19361429Y-7445238D02*
X19342381Y-7445238D01*
X19332857Y-7440476D01*
X19328095Y-7435714D01*
X19318571Y-7421429D01*
X19313810Y-7402381D01*
X19313810Y-7364286D01*
X19318571Y-7354762D01*
X19323333Y-7350000D01*
X19332857Y-7345238D01*
X19351905Y-7345238D01*
X19361429Y-7350000D01*
X19366191Y-7354762D01*
X19370952Y-7364286D01*
X19370952Y-7388095D01*
X19366191Y-7397619D01*
X19361429Y-7402381D01*
X19351905Y-7407143D01*
X19332857Y-7407143D01*
X19323333Y-7402381D01*
X19318571Y-7397619D01*
X19313810Y-7388095D01*
X20554286Y-7585238D02*
X20587619Y-7537619D01*
X20611429Y-7585238D02*
X20611429Y-7485238D01*
X20573333Y-7485238D01*
X20563810Y-7490000D01*
X20559048Y-7494762D01*
X20554286Y-7504286D01*
X20554286Y-7518571D01*
X20559048Y-7528095D01*
X20563810Y-7532857D01*
X20573333Y-7537619D01*
X20611429Y-7537619D01*
X20520952Y-7485238D02*
X20459048Y-7485238D01*
X20492381Y-7523333D01*
X20478095Y-7523333D01*
X20468571Y-7528095D01*
X20463810Y-7532857D01*
X20459048Y-7542381D01*
X20459048Y-7566190D01*
X20463810Y-7575714D01*
X20468571Y-7580476D01*
X20478095Y-7585238D01*
X20506667Y-7585238D01*
X20516191Y-7580476D01*
X20520952Y-7575714D01*
X20397143Y-7485238D02*
X20387619Y-7485238D01*
X20378095Y-7490000D01*
X20373333Y-7494762D01*
X20368571Y-7504286D01*
X20363810Y-7523333D01*
X20363810Y-7547143D01*
X20368571Y-7566190D01*
X20373333Y-7575714D01*
X20378095Y-7580476D01*
X20387619Y-7585238D01*
X20397143Y-7585238D01*
X20406667Y-7580476D01*
X20411429Y-7575714D01*
X20416191Y-7566190D01*
X20420952Y-7547143D01*
X20420952Y-7523333D01*
X20416191Y-7504286D01*
X20411429Y-7494762D01*
X20406667Y-7490000D01*
X20397143Y-7485238D01*
X12964286Y-7615238D02*
X12997619Y-7567619D01*
X13021429Y-7615238D02*
X13021429Y-7515238D01*
X12983333Y-7515238D01*
X12973809Y-7520000D01*
X12969048Y-7524762D01*
X12964286Y-7534286D01*
X12964286Y-7548571D01*
X12969048Y-7558095D01*
X12973809Y-7562857D01*
X12983333Y-7567619D01*
X13021429Y-7567619D01*
X12930952Y-7515238D02*
X12869048Y-7515238D01*
X12902381Y-7553333D01*
X12888095Y-7553333D01*
X12878571Y-7558095D01*
X12873809Y-7562857D01*
X12869048Y-7572381D01*
X12869048Y-7596190D01*
X12873809Y-7605714D01*
X12878571Y-7610476D01*
X12888095Y-7615238D01*
X12916667Y-7615238D01*
X12926190Y-7610476D01*
X12930952Y-7605714D01*
X12773809Y-7615238D02*
X12830952Y-7615238D01*
X12802381Y-7615238D02*
X12802381Y-7515238D01*
X12811905Y-7529524D01*
X12821429Y-7539048D01*
X12830952Y-7543809D01*
X13794286Y-8185238D02*
X13827619Y-8137619D01*
X13851429Y-8185238D02*
X13851429Y-8085238D01*
X13813333Y-8085238D01*
X13803809Y-8090000D01*
X13799048Y-8094762D01*
X13794286Y-8104286D01*
X13794286Y-8118571D01*
X13799048Y-8128095D01*
X13803809Y-8132857D01*
X13813333Y-8137619D01*
X13851429Y-8137619D01*
X13760952Y-8085238D02*
X13699048Y-8085238D01*
X13732381Y-8123333D01*
X13718095Y-8123333D01*
X13708571Y-8128095D01*
X13703809Y-8132857D01*
X13699048Y-8142381D01*
X13699048Y-8166190D01*
X13703809Y-8175714D01*
X13708571Y-8180476D01*
X13718095Y-8185238D01*
X13746667Y-8185238D01*
X13756190Y-8180476D01*
X13760952Y-8175714D01*
X13660952Y-8094762D02*
X13656190Y-8090000D01*
X13646667Y-8085238D01*
X13622857Y-8085238D01*
X13613333Y-8090000D01*
X13608571Y-8094762D01*
X13603809Y-8104286D01*
X13603809Y-8113809D01*
X13608571Y-8128095D01*
X13665714Y-8185238D01*
X13603809Y-8185238D01*
X13445238Y-7875714D02*
X13397619Y-7842381D01*
X13445238Y-7818571D02*
X13345238Y-7818571D01*
X13345238Y-7856667D01*
X13350000Y-7866190D01*
X13354762Y-7870952D01*
X13364286Y-7875714D01*
X13378571Y-7875714D01*
X13388095Y-7870952D01*
X13392857Y-7866190D01*
X13397619Y-7856667D01*
X13397619Y-7818571D01*
X13345238Y-7909048D02*
X13345238Y-7970952D01*
X13383333Y-7937619D01*
X13383333Y-7951905D01*
X13388095Y-7961429D01*
X13392857Y-7966190D01*
X13402381Y-7970952D01*
X13426190Y-7970952D01*
X13435714Y-7966190D01*
X13440476Y-7961429D01*
X13445238Y-7951905D01*
X13445238Y-7923333D01*
X13440476Y-7913809D01*
X13435714Y-7909048D01*
X13345238Y-8004286D02*
X13345238Y-8066190D01*
X13383333Y-8032857D01*
X13383333Y-8047143D01*
X13388095Y-8056667D01*
X13392857Y-8061429D01*
X13402381Y-8066190D01*
X13426190Y-8066190D01*
X13435714Y-8061429D01*
X13440476Y-8056667D01*
X13445238Y-8047143D01*
X13445238Y-8018571D01*
X13440476Y-8009048D01*
X13435714Y-8004286D01*
X14685238Y-7645714D02*
X14637619Y-7612381D01*
X14685238Y-7588571D02*
X14585238Y-7588571D01*
X14585238Y-7626667D01*
X14590000Y-7636190D01*
X14594762Y-7640952D01*
X14604286Y-7645714D01*
X14618571Y-7645714D01*
X14628095Y-7640952D01*
X14632857Y-7636190D01*
X14637619Y-7626667D01*
X14637619Y-7588571D01*
X14585238Y-7679048D02*
X14585238Y-7740952D01*
X14623333Y-7707619D01*
X14623333Y-7721905D01*
X14628095Y-7731429D01*
X14632857Y-7736190D01*
X14642381Y-7740952D01*
X14666190Y-7740952D01*
X14675714Y-7736190D01*
X14680476Y-7731429D01*
X14685238Y-7721905D01*
X14685238Y-7693333D01*
X14680476Y-7683809D01*
X14675714Y-7679048D01*
X14618571Y-7826667D02*
X14685238Y-7826667D01*
X14580476Y-7802857D02*
X14651905Y-7779048D01*
X14651905Y-7840952D01*
X20324286Y-11610238D02*
X20357619Y-11562619D01*
X20381429Y-11610238D02*
X20381429Y-11510238D01*
X20343333Y-11510238D01*
X20333810Y-11515000D01*
X20329048Y-11519762D01*
X20324286Y-11529286D01*
X20324286Y-11543571D01*
X20329048Y-11553095D01*
X20333810Y-11557857D01*
X20343333Y-11562619D01*
X20381429Y-11562619D01*
X20290952Y-11510238D02*
X20229048Y-11510238D01*
X20262381Y-11548333D01*
X20248095Y-11548333D01*
X20238571Y-11553095D01*
X20233810Y-11557857D01*
X20229048Y-11567381D01*
X20229048Y-11591190D01*
X20233810Y-11600714D01*
X20238571Y-11605476D01*
X20248095Y-11610238D01*
X20276667Y-11610238D01*
X20286191Y-11605476D01*
X20290952Y-11600714D01*
X20195714Y-11510238D02*
X20129048Y-11510238D01*
X20171905Y-11610238D01*
X16364286Y-9005238D02*
X16397619Y-8957619D01*
X16421429Y-9005238D02*
X16421429Y-8905238D01*
X16383333Y-8905238D01*
X16373809Y-8910000D01*
X16369048Y-8914762D01*
X16364286Y-8924286D01*
X16364286Y-8938571D01*
X16369048Y-8948095D01*
X16373809Y-8952857D01*
X16383333Y-8957619D01*
X16421429Y-8957619D01*
X16330952Y-8905238D02*
X16269048Y-8905238D01*
X16302381Y-8943333D01*
X16288095Y-8943333D01*
X16278571Y-8948095D01*
X16273809Y-8952857D01*
X16269048Y-8962381D01*
X16269048Y-8986191D01*
X16273809Y-8995714D01*
X16278571Y-9000476D01*
X16288095Y-9005238D01*
X16316667Y-9005238D01*
X16326190Y-9000476D01*
X16330952Y-8995714D01*
X16211905Y-8948095D02*
X16221429Y-8943333D01*
X16226190Y-8938571D01*
X16230952Y-8929048D01*
X16230952Y-8924286D01*
X16226190Y-8914762D01*
X16221429Y-8910000D01*
X16211905Y-8905238D01*
X16192857Y-8905238D01*
X16183333Y-8910000D01*
X16178571Y-8914762D01*
X16173809Y-8924286D01*
X16173809Y-8929048D01*
X16178571Y-8938571D01*
X16183333Y-8943333D01*
X16192857Y-8948095D01*
X16211905Y-8948095D01*
X16221429Y-8952857D01*
X16226190Y-8957619D01*
X16230952Y-8967143D01*
X16230952Y-8986191D01*
X16226190Y-8995714D01*
X16221429Y-9000476D01*
X16211905Y-9005238D01*
X16192857Y-9005238D01*
X16183333Y-9000476D01*
X16178571Y-8995714D01*
X16173809Y-8986191D01*
X16173809Y-8967143D01*
X16178571Y-8957619D01*
X16183333Y-8952857D01*
X16192857Y-8948095D01*
X16404286Y-14145238D02*
X16437619Y-14097619D01*
X16461429Y-14145238D02*
X16461429Y-14045238D01*
X16423333Y-14045238D01*
X16413809Y-14050000D01*
X16409048Y-14054762D01*
X16404286Y-14064286D01*
X16404286Y-14078571D01*
X16409048Y-14088095D01*
X16413809Y-14092857D01*
X16423333Y-14097619D01*
X16461429Y-14097619D01*
X16370952Y-14045238D02*
X16309048Y-14045238D01*
X16342381Y-14083333D01*
X16328095Y-14083333D01*
X16318571Y-14088095D01*
X16313809Y-14092857D01*
X16309048Y-14102381D01*
X16309048Y-14126190D01*
X16313809Y-14135714D01*
X16318571Y-14140476D01*
X16328095Y-14145238D01*
X16356667Y-14145238D01*
X16366190Y-14140476D01*
X16370952Y-14135714D01*
X16261429Y-14145238D02*
X16242381Y-14145238D01*
X16232857Y-14140476D01*
X16228095Y-14135714D01*
X16218571Y-14121429D01*
X16213809Y-14102381D01*
X16213809Y-14064286D01*
X16218571Y-14054762D01*
X16223333Y-14050000D01*
X16232857Y-14045238D01*
X16251905Y-14045238D01*
X16261429Y-14050000D01*
X16266190Y-14054762D01*
X16270952Y-14064286D01*
X16270952Y-14088095D01*
X16266190Y-14097619D01*
X16261429Y-14102381D01*
X16251905Y-14107143D01*
X16232857Y-14107143D01*
X16223333Y-14102381D01*
X16218571Y-14097619D01*
X16213809Y-14088095D01*
X20314286Y-12125238D02*
X20347619Y-12077619D01*
X20371429Y-12125238D02*
X20371429Y-12025238D01*
X20333333Y-12025238D01*
X20323810Y-12030000D01*
X20319048Y-12034762D01*
X20314286Y-12044286D01*
X20314286Y-12058571D01*
X20319048Y-12068095D01*
X20323810Y-12072857D01*
X20333333Y-12077619D01*
X20371429Y-12077619D01*
X20228571Y-12058571D02*
X20228571Y-12125238D01*
X20252381Y-12020476D02*
X20276191Y-12091905D01*
X20214286Y-12091905D01*
X20157143Y-12025238D02*
X20147619Y-12025238D01*
X20138095Y-12030000D01*
X20133333Y-12034762D01*
X20128571Y-12044286D01*
X20123810Y-12063333D01*
X20123810Y-12087143D01*
X20128571Y-12106190D01*
X20133333Y-12115714D01*
X20138095Y-12120476D01*
X20147619Y-12125238D01*
X20157143Y-12125238D01*
X20166667Y-12120476D01*
X20171429Y-12115714D01*
X20176191Y-12106190D01*
X20180952Y-12087143D01*
X20180952Y-12063333D01*
X20176191Y-12044286D01*
X20171429Y-12034762D01*
X20166667Y-12030000D01*
X20157143Y-12025238D01*
X18444286Y-9500238D02*
X18477619Y-9452619D01*
X18501429Y-9500238D02*
X18501429Y-9400238D01*
X18463333Y-9400238D01*
X18453810Y-9405000D01*
X18449048Y-9409762D01*
X18444286Y-9419286D01*
X18444286Y-9433571D01*
X18449048Y-9443095D01*
X18453810Y-9447857D01*
X18463333Y-9452619D01*
X18501429Y-9452619D01*
X18358571Y-9433571D02*
X18358571Y-9500238D01*
X18382381Y-9395476D02*
X18406191Y-9466905D01*
X18344286Y-9466905D01*
X18253810Y-9500238D02*
X18310952Y-9500238D01*
X18282381Y-9500238D02*
X18282381Y-9400238D01*
X18291905Y-9414524D01*
X18301429Y-9424048D01*
X18310952Y-9428810D01*
X17980238Y-8955714D02*
X17932619Y-8922381D01*
X17980238Y-8898571D02*
X17880238Y-8898571D01*
X17880238Y-8936667D01*
X17885000Y-8946191D01*
X17889762Y-8950952D01*
X17899286Y-8955714D01*
X17913571Y-8955714D01*
X17923095Y-8950952D01*
X17927857Y-8946191D01*
X17932619Y-8936667D01*
X17932619Y-8898571D01*
X17913571Y-9041429D02*
X17980238Y-9041429D01*
X17875476Y-9017619D02*
X17946905Y-8993810D01*
X17946905Y-9055714D01*
X17889762Y-9089048D02*
X17885000Y-9093810D01*
X17880238Y-9103333D01*
X17880238Y-9127143D01*
X17885000Y-9136667D01*
X17889762Y-9141429D01*
X17899286Y-9146191D01*
X17908810Y-9146191D01*
X17923095Y-9141429D01*
X17980238Y-9084286D01*
X17980238Y-9146191D01*
X18844286Y-9390238D02*
X18877619Y-9342619D01*
X18901429Y-9390238D02*
X18901429Y-9290238D01*
X18863333Y-9290238D01*
X18853810Y-9295000D01*
X18849048Y-9299762D01*
X18844286Y-9309286D01*
X18844286Y-9323571D01*
X18849048Y-9333095D01*
X18853810Y-9337857D01*
X18863333Y-9342619D01*
X18901429Y-9342619D01*
X18758571Y-9323571D02*
X18758571Y-9390238D01*
X18782381Y-9285476D02*
X18806191Y-9356905D01*
X18744286Y-9356905D01*
X18715714Y-9290238D02*
X18653810Y-9290238D01*
X18687143Y-9328333D01*
X18672857Y-9328333D01*
X18663333Y-9333095D01*
X18658571Y-9337857D01*
X18653810Y-9347381D01*
X18653810Y-9371191D01*
X18658571Y-9380714D01*
X18663333Y-9385476D01*
X18672857Y-9390238D01*
X18701429Y-9390238D01*
X18710952Y-9385476D01*
X18715714Y-9380714D01*
X14556190Y-9615238D02*
X14556190Y-9696191D01*
X14551429Y-9705714D01*
X14546667Y-9710476D01*
X14537143Y-9715238D01*
X14518095Y-9715238D01*
X14508571Y-9710476D01*
X14503809Y-9705714D01*
X14499048Y-9696191D01*
X14499048Y-9615238D01*
X14399048Y-9715238D02*
X14456190Y-9715238D01*
X14427619Y-9715238D02*
X14427619Y-9615238D01*
X14437143Y-9629524D01*
X14446667Y-9639048D01*
X14456190Y-9643810D01*
X10735238Y-9403810D02*
X10816191Y-9403810D01*
X10825714Y-9408571D01*
X10830476Y-9413333D01*
X10835238Y-9422857D01*
X10835238Y-9441905D01*
X10830476Y-9451429D01*
X10825714Y-9456191D01*
X10816191Y-9460952D01*
X10735238Y-9460952D01*
X10735238Y-9499048D02*
X10735238Y-9565714D01*
X10835238Y-9522857D01*
X15143809Y-7775238D02*
X15143809Y-7856190D01*
X15139048Y-7865714D01*
X15134286Y-7870476D01*
X15124762Y-7875238D01*
X15105714Y-7875238D01*
X15096190Y-7870476D01*
X15091428Y-7865714D01*
X15086667Y-7856190D01*
X15086667Y-7775238D01*
X14986667Y-7875238D02*
X15043809Y-7875238D01*
X15015238Y-7875238D02*
X15015238Y-7775238D01*
X15024762Y-7789524D01*
X15034286Y-7799048D01*
X15043809Y-7803809D01*
X14891428Y-7875238D02*
X14948571Y-7875238D01*
X14920000Y-7875238D02*
X14920000Y-7775238D01*
X14929524Y-7789524D01*
X14939048Y-7799048D01*
X14948571Y-7803809D01*
X18205238Y-7746190D02*
X18286191Y-7746190D01*
X18295714Y-7750952D01*
X18300476Y-7755714D01*
X18305238Y-7765238D01*
X18305238Y-7784286D01*
X18300476Y-7793810D01*
X18295714Y-7798571D01*
X18286191Y-7803333D01*
X18205238Y-7803333D01*
X18305238Y-7903333D02*
X18305238Y-7846190D01*
X18305238Y-7874762D02*
X18205238Y-7874762D01*
X18219524Y-7865238D01*
X18229048Y-7855714D01*
X18233810Y-7846190D01*
X18214762Y-7941429D02*
X18210000Y-7946190D01*
X18205238Y-7955714D01*
X18205238Y-7979524D01*
X18210000Y-7989048D01*
X18214762Y-7993810D01*
X18224286Y-7998571D01*
X18233810Y-7998571D01*
X18248095Y-7993810D01*
X18305238Y-7936667D01*
X18305238Y-7998571D01*
X19545238Y-8096190D02*
X19626191Y-8096190D01*
X19635714Y-8100952D01*
X19640476Y-8105714D01*
X19645238Y-8115238D01*
X19645238Y-8134286D01*
X19640476Y-8143810D01*
X19635714Y-8148571D01*
X19626191Y-8153333D01*
X19545238Y-8153333D01*
X19645238Y-8253333D02*
X19645238Y-8196190D01*
X19645238Y-8224762D02*
X19545238Y-8224762D01*
X19559524Y-8215238D01*
X19569048Y-8205714D01*
X19573810Y-8196190D01*
X19545238Y-8286667D02*
X19545238Y-8348571D01*
X19583333Y-8315238D01*
X19583333Y-8329524D01*
X19588095Y-8339048D01*
X19592857Y-8343810D01*
X19602381Y-8348571D01*
X19626191Y-8348571D01*
X19635714Y-8343810D01*
X19640476Y-8339048D01*
X19645238Y-8329524D01*
X19645238Y-8300952D01*
X19640476Y-8291429D01*
X19635714Y-8286667D01*
X17816310Y-15222738D02*
X17816310Y-15303690D01*
X17811548Y-15313214D01*
X17806786Y-15317976D01*
X17797262Y-15322738D01*
X17778214Y-15322738D01*
X17768690Y-15317976D01*
X17763929Y-15313214D01*
X17759167Y-15303690D01*
X17759167Y-15222738D01*
X17659167Y-15322738D02*
X17716310Y-15322738D01*
X17687738Y-15322738D02*
X17687738Y-15222738D01*
X17697262Y-15237024D01*
X17706786Y-15246548D01*
X17716310Y-15251309D01*
X17568690Y-15222738D02*
X17616310Y-15222738D01*
X17621071Y-15270357D01*
X17616310Y-15265595D01*
X17606786Y-15260833D01*
X17582976Y-15260833D01*
X17573452Y-15265595D01*
X17568690Y-15270357D01*
X17563929Y-15279881D01*
X17563929Y-15303690D01*
X17568690Y-15313214D01*
X17573452Y-15317976D01*
X17582976Y-15322738D01*
X17606786Y-15322738D01*
X17616310Y-15317976D01*
X17621071Y-15313214D01*
X11595238Y-6408571D02*
X11495238Y-6408571D01*
X11495238Y-6432381D01*
X11500000Y-6446667D01*
X11509524Y-6456190D01*
X11519048Y-6460952D01*
X11538095Y-6465714D01*
X11552381Y-6465714D01*
X11571429Y-6460952D01*
X11580952Y-6456190D01*
X11590476Y-6446667D01*
X11595238Y-6432381D01*
X11595238Y-6408571D01*
X11495238Y-6499048D02*
X11495238Y-6560952D01*
X11533333Y-6527619D01*
X11533333Y-6541905D01*
X11538095Y-6551429D01*
X11542857Y-6556190D01*
X11552381Y-6560952D01*
X11576190Y-6560952D01*
X11585714Y-6556190D01*
X11590476Y-6551429D01*
X11595238Y-6541905D01*
X11595238Y-6513333D01*
X11590476Y-6503809D01*
X11585714Y-6499048D01*
X11495238Y-6622857D02*
X11495238Y-6632381D01*
X11500000Y-6641905D01*
X11504762Y-6646667D01*
X11514286Y-6651429D01*
X11533333Y-6656190D01*
X11557143Y-6656190D01*
X11576190Y-6651429D01*
X11585714Y-6646667D01*
X11590476Y-6641905D01*
X11595238Y-6632381D01*
X11595238Y-6622857D01*
X11590476Y-6613333D01*
X11585714Y-6608571D01*
X11576190Y-6603809D01*
X11557143Y-6599048D01*
X11533333Y-6599048D01*
X11514286Y-6603809D01*
X11504762Y-6608571D01*
X11500000Y-6613333D01*
X11495238Y-6622857D01*
X13577143Y-7544762D02*
X13586667Y-7540000D01*
X13596190Y-7530476D01*
X13610476Y-7516190D01*
X13620000Y-7511429D01*
X13629524Y-7511429D01*
X13624762Y-7535238D02*
X13634286Y-7530476D01*
X13643809Y-7520952D01*
X13648571Y-7501905D01*
X13648571Y-7468571D01*
X13643809Y-7449524D01*
X13634286Y-7440000D01*
X13624762Y-7435238D01*
X13605714Y-7435238D01*
X13596190Y-7440000D01*
X13586667Y-7449524D01*
X13581905Y-7468571D01*
X13581905Y-7501905D01*
X13586667Y-7520952D01*
X13596190Y-7530476D01*
X13605714Y-7535238D01*
X13624762Y-7535238D01*
X13486667Y-7535238D02*
X13543809Y-7535238D01*
X13515238Y-7535238D02*
X13515238Y-7435238D01*
X13524762Y-7449524D01*
X13534286Y-7459048D01*
X13543809Y-7463809D01*
X13391428Y-7535238D02*
X13448571Y-7535238D01*
X13420000Y-7535238D02*
X13420000Y-7435238D01*
X13429524Y-7449524D01*
X13439048Y-7459048D01*
X13448571Y-7463809D01*
X18457143Y-8824762D02*
X18466667Y-8820000D01*
X18476190Y-8810476D01*
X18490476Y-8796191D01*
X18500000Y-8791429D01*
X18509524Y-8791429D01*
X18504762Y-8815238D02*
X18514286Y-8810476D01*
X18523810Y-8800952D01*
X18528571Y-8781905D01*
X18528571Y-8748571D01*
X18523810Y-8729524D01*
X18514286Y-8720000D01*
X18504762Y-8715238D01*
X18485714Y-8715238D01*
X18476190Y-8720000D01*
X18466667Y-8729524D01*
X18461905Y-8748571D01*
X18461905Y-8781905D01*
X18466667Y-8800952D01*
X18476190Y-8810476D01*
X18485714Y-8815238D01*
X18504762Y-8815238D01*
X18366667Y-8815238D02*
X18423810Y-8815238D01*
X18395238Y-8815238D02*
X18395238Y-8715238D01*
X18404762Y-8729524D01*
X18414286Y-8739048D01*
X18423810Y-8743810D01*
X18328571Y-8724762D02*
X18323810Y-8720000D01*
X18314286Y-8715238D01*
X18290476Y-8715238D01*
X18280952Y-8720000D01*
X18276190Y-8724762D01*
X18271429Y-8734286D01*
X18271429Y-8743810D01*
X18276190Y-8758095D01*
X18333333Y-8815238D01*
X18271429Y-8815238D01*
X20934286Y-12635238D02*
X20967619Y-12587619D01*
X20991429Y-12635238D02*
X20991429Y-12535238D01*
X20953333Y-12535238D01*
X20943810Y-12540000D01*
X20939048Y-12544762D01*
X20934286Y-12554286D01*
X20934286Y-12568571D01*
X20939048Y-12578095D01*
X20943810Y-12582857D01*
X20953333Y-12587619D01*
X20991429Y-12587619D01*
X20848571Y-12568571D02*
X20848571Y-12635238D01*
X20872381Y-12530476D02*
X20896191Y-12601905D01*
X20834286Y-12601905D01*
X20753333Y-12568571D02*
X20753333Y-12635238D01*
X20777143Y-12530476D02*
X20800952Y-12601905D01*
X20739048Y-12601905D01*
X18114286Y-12625238D02*
X18147619Y-12577619D01*
X18171429Y-12625238D02*
X18171429Y-12525238D01*
X18133333Y-12525238D01*
X18123810Y-12530000D01*
X18119048Y-12534762D01*
X18114286Y-12544286D01*
X18114286Y-12558571D01*
X18119048Y-12568095D01*
X18123810Y-12572857D01*
X18133333Y-12577619D01*
X18171429Y-12577619D01*
X18028571Y-12558571D02*
X18028571Y-12625238D01*
X18052381Y-12520476D02*
X18076191Y-12591905D01*
X18014286Y-12591905D01*
X17928571Y-12525238D02*
X17976191Y-12525238D01*
X17980952Y-12572857D01*
X17976191Y-12568095D01*
X17966667Y-12563333D01*
X17942857Y-12563333D01*
X17933333Y-12568095D01*
X17928571Y-12572857D01*
X17923810Y-12582381D01*
X17923810Y-12606190D01*
X17928571Y-12615714D01*
X17933333Y-12620476D01*
X17942857Y-12625238D01*
X17966667Y-12625238D01*
X17976191Y-12620476D01*
X17980952Y-12615714D01*
X19114286Y-12625238D02*
X19147619Y-12577619D01*
X19171429Y-12625238D02*
X19171429Y-12525238D01*
X19133333Y-12525238D01*
X19123810Y-12530000D01*
X19119048Y-12534762D01*
X19114286Y-12544286D01*
X19114286Y-12558571D01*
X19119048Y-12568095D01*
X19123810Y-12572857D01*
X19133333Y-12577619D01*
X19171429Y-12577619D01*
X19028571Y-12558571D02*
X19028571Y-12625238D01*
X19052381Y-12520476D02*
X19076191Y-12591905D01*
X19014286Y-12591905D01*
X18933333Y-12525238D02*
X18952381Y-12525238D01*
X18961905Y-12530000D01*
X18966667Y-12534762D01*
X18976191Y-12549048D01*
X18980952Y-12568095D01*
X18980952Y-12606190D01*
X18976191Y-12615714D01*
X18971429Y-12620476D01*
X18961905Y-12625238D01*
X18942857Y-12625238D01*
X18933333Y-12620476D01*
X18928571Y-12615714D01*
X18923810Y-12606190D01*
X18923810Y-12582381D01*
X18928571Y-12572857D01*
X18933333Y-12568095D01*
X18942857Y-12563333D01*
X18961905Y-12563333D01*
X18971429Y-12568095D01*
X18976191Y-12572857D01*
X18980952Y-12582381D01*
X19251786Y-15372738D02*
X19285119Y-15325119D01*
X19308929Y-15372738D02*
X19308929Y-15272738D01*
X19270833Y-15272738D01*
X19261310Y-15277500D01*
X19256548Y-15282262D01*
X19251786Y-15291786D01*
X19251786Y-15306071D01*
X19256548Y-15315595D01*
X19261310Y-15320357D01*
X19270833Y-15325119D01*
X19308929Y-15325119D01*
X19166071Y-15306071D02*
X19166071Y-15372738D01*
X19189881Y-15267976D02*
X19213691Y-15339405D01*
X19151786Y-15339405D01*
X19123214Y-15272738D02*
X19056548Y-15272738D01*
X19099405Y-15372738D01*
X18734286Y-15372738D02*
X18767619Y-15325119D01*
X18791429Y-15372738D02*
X18791429Y-15272738D01*
X18753333Y-15272738D01*
X18743810Y-15277500D01*
X18739048Y-15282262D01*
X18734286Y-15291786D01*
X18734286Y-15306071D01*
X18739048Y-15315595D01*
X18743810Y-15320357D01*
X18753333Y-15325119D01*
X18791429Y-15325119D01*
X18648571Y-15306071D02*
X18648571Y-15372738D01*
X18672381Y-15267976D02*
X18696191Y-15339405D01*
X18634286Y-15339405D01*
X18581905Y-15315595D02*
X18591429Y-15310833D01*
X18596191Y-15306071D01*
X18600952Y-15296548D01*
X18600952Y-15291786D01*
X18596191Y-15282262D01*
X18591429Y-15277500D01*
X18581905Y-15272738D01*
X18562857Y-15272738D01*
X18553333Y-15277500D01*
X18548571Y-15282262D01*
X18543810Y-15291786D01*
X18543810Y-15296548D01*
X18548571Y-15306071D01*
X18553333Y-15310833D01*
X18562857Y-15315595D01*
X18581905Y-15315595D01*
X18591429Y-15320357D01*
X18596191Y-15325119D01*
X18600952Y-15334643D01*
X18600952Y-15353690D01*
X18596191Y-15363214D01*
X18591429Y-15367976D01*
X18581905Y-15372738D01*
X18562857Y-15372738D01*
X18553333Y-15367976D01*
X18548571Y-15363214D01*
X18543810Y-15353690D01*
X18543810Y-15334643D01*
X18548571Y-15325119D01*
X18553333Y-15320357D01*
X18562857Y-15315595D01*
X18181786Y-15330238D02*
X18215119Y-15282619D01*
X18238929Y-15330238D02*
X18238929Y-15230238D01*
X18200833Y-15230238D01*
X18191310Y-15235000D01*
X18186548Y-15239762D01*
X18181786Y-15249286D01*
X18181786Y-15263571D01*
X18186548Y-15273095D01*
X18191310Y-15277857D01*
X18200833Y-15282619D01*
X18238929Y-15282619D01*
X18096071Y-15263571D02*
X18096071Y-15330238D01*
X18119881Y-15225476D02*
X18143691Y-15296905D01*
X18081786Y-15296905D01*
X18038929Y-15330238D02*
X18019881Y-15330238D01*
X18010357Y-15325476D01*
X18005595Y-15320714D01*
X17996071Y-15306429D01*
X17991310Y-15287381D01*
X17991310Y-15249286D01*
X17996071Y-15239762D01*
X18000833Y-15235000D01*
X18010357Y-15230238D01*
X18029405Y-15230238D01*
X18038929Y-15235000D01*
X18043691Y-15239762D01*
X18048452Y-15249286D01*
X18048452Y-15273095D01*
X18043691Y-15282619D01*
X18038929Y-15287381D01*
X18029405Y-15292143D01*
X18010357Y-15292143D01*
X18000833Y-15287381D01*
X17996071Y-15282619D01*
X17991310Y-15273095D01*
X11355238Y-8095714D02*
X11307619Y-8062381D01*
X11355238Y-8038571D02*
X11255238Y-8038571D01*
X11255238Y-8076667D01*
X11260000Y-8086190D01*
X11264762Y-8090952D01*
X11274286Y-8095714D01*
X11288571Y-8095714D01*
X11298095Y-8090952D01*
X11302857Y-8086190D01*
X11307619Y-8076667D01*
X11307619Y-8038571D01*
X11255238Y-8186190D02*
X11255238Y-8138571D01*
X11302857Y-8133809D01*
X11298095Y-8138571D01*
X11293333Y-8148095D01*
X11293333Y-8171905D01*
X11298095Y-8181429D01*
X11302857Y-8186190D01*
X11312381Y-8190952D01*
X11336190Y-8190952D01*
X11345714Y-8186190D01*
X11350476Y-8181429D01*
X11355238Y-8171905D01*
X11355238Y-8148095D01*
X11350476Y-8138571D01*
X11345714Y-8133809D01*
X11255238Y-8252857D02*
X11255238Y-8262381D01*
X11260000Y-8271905D01*
X11264762Y-8276667D01*
X11274286Y-8281429D01*
X11293333Y-8286190D01*
X11317143Y-8286190D01*
X11336190Y-8281429D01*
X11345714Y-8276667D01*
X11350476Y-8271905D01*
X11355238Y-8262381D01*
X11355238Y-8252857D01*
X11350476Y-8243333D01*
X11345714Y-8238571D01*
X11336190Y-8233809D01*
X11317143Y-8229048D01*
X11293333Y-8229048D01*
X11274286Y-8233809D01*
X11264762Y-8238571D01*
X11260000Y-8243333D01*
X11255238Y-8252857D01*
X11244286Y-8475238D02*
X11277619Y-8427619D01*
X11301429Y-8475238D02*
X11301429Y-8375238D01*
X11263333Y-8375238D01*
X11253809Y-8380000D01*
X11249048Y-8384762D01*
X11244286Y-8394286D01*
X11244286Y-8408571D01*
X11249048Y-8418095D01*
X11253809Y-8422857D01*
X11263333Y-8427619D01*
X11301429Y-8427619D01*
X11153810Y-8375238D02*
X11201429Y-8375238D01*
X11206190Y-8422857D01*
X11201429Y-8418095D01*
X11191905Y-8413333D01*
X11168095Y-8413333D01*
X11158571Y-8418095D01*
X11153810Y-8422857D01*
X11149048Y-8432381D01*
X11149048Y-8456191D01*
X11153810Y-8465714D01*
X11158571Y-8470476D01*
X11168095Y-8475238D01*
X11191905Y-8475238D01*
X11201429Y-8470476D01*
X11206190Y-8465714D01*
X11053810Y-8475238D02*
X11110952Y-8475238D01*
X11082381Y-8475238D02*
X11082381Y-8375238D01*
X11091905Y-8389524D01*
X11101429Y-8399048D01*
X11110952Y-8403810D01*
X11164286Y-7820238D02*
X11197619Y-7772619D01*
X11221429Y-7820238D02*
X11221429Y-7720238D01*
X11183333Y-7720238D01*
X11173810Y-7725000D01*
X11169048Y-7729762D01*
X11164286Y-7739286D01*
X11164286Y-7753571D01*
X11169048Y-7763095D01*
X11173810Y-7767857D01*
X11183333Y-7772619D01*
X11221429Y-7772619D01*
X11073810Y-7720238D02*
X11121429Y-7720238D01*
X11126191Y-7767857D01*
X11121429Y-7763095D01*
X11111905Y-7758333D01*
X11088095Y-7758333D01*
X11078571Y-7763095D01*
X11073810Y-7767857D01*
X11069048Y-7777381D01*
X11069048Y-7801190D01*
X11073810Y-7810714D01*
X11078571Y-7815476D01*
X11088095Y-7820238D01*
X11111905Y-7820238D01*
X11121429Y-7815476D01*
X11126191Y-7810714D01*
X11030952Y-7729762D02*
X11026191Y-7725000D01*
X11016667Y-7720238D01*
X10992857Y-7720238D01*
X10983333Y-7725000D01*
X10978571Y-7729762D01*
X10973810Y-7739286D01*
X10973810Y-7748809D01*
X10978571Y-7763095D01*
X11035714Y-7820238D01*
X10973810Y-7820238D01*
X17598810Y-15077738D02*
X17541667Y-15077738D01*
X17570238Y-15177738D02*
X17570238Y-15077738D01*
X17508333Y-15177738D02*
X17508333Y-15077738D01*
X17470238Y-15077738D01*
X17460714Y-15082500D01*
X17455952Y-15087262D01*
X17451190Y-15096786D01*
X17451190Y-15111071D01*
X17455952Y-15120595D01*
X17460714Y-15125357D01*
X17470238Y-15130119D01*
X17508333Y-15130119D01*
X17417857Y-15077738D02*
X17355952Y-15077738D01*
X17389286Y-15115833D01*
X17375000Y-15115833D01*
X17365476Y-15120595D01*
X17360714Y-15125357D01*
X17355952Y-15134881D01*
X17355952Y-15158690D01*
X17360714Y-15168214D01*
X17365476Y-15172976D01*
X17375000Y-15177738D01*
X17403571Y-15177738D01*
X17413095Y-15172976D01*
X17417857Y-15168214D01*
X17317857Y-15087262D02*
X17313095Y-15082500D01*
X17303571Y-15077738D01*
X17279762Y-15077738D01*
X17270238Y-15082500D01*
X17265476Y-15087262D01*
X17260714Y-15096786D01*
X17260714Y-15106309D01*
X17265476Y-15120595D01*
X17322619Y-15177738D01*
X17260714Y-15177738D01*
X8558691Y-15502738D02*
X8501548Y-15502738D01*
X8530119Y-15602738D02*
X8530119Y-15502738D01*
X8468214Y-15602738D02*
X8468214Y-15502738D01*
X8430119Y-15502738D01*
X8420595Y-15507500D01*
X8415833Y-15512262D01*
X8411071Y-15521786D01*
X8411071Y-15536071D01*
X8415833Y-15545595D01*
X8420595Y-15550357D01*
X8430119Y-15555119D01*
X8468214Y-15555119D01*
X8377738Y-15502738D02*
X8315833Y-15502738D01*
X8349167Y-15540833D01*
X8334881Y-15540833D01*
X8325357Y-15545595D01*
X8320595Y-15550357D01*
X8315833Y-15559881D01*
X8315833Y-15583690D01*
X8320595Y-15593214D01*
X8325357Y-15597976D01*
X8334881Y-15602738D01*
X8363452Y-15602738D01*
X8372976Y-15597976D01*
X8377738Y-15593214D01*
X20944286Y-11505714D02*
X20949048Y-11510476D01*
X20963333Y-11515238D01*
X20972857Y-11515238D01*
X20987143Y-11510476D01*
X20996667Y-11500952D01*
X21001429Y-11491429D01*
X21006191Y-11472381D01*
X21006191Y-11458095D01*
X21001429Y-11439048D01*
X20996667Y-11429524D01*
X20987143Y-11420000D01*
X20972857Y-11415238D01*
X20963333Y-11415238D01*
X20949048Y-11420000D01*
X20944286Y-11424762D01*
X20849048Y-11515238D02*
X20906191Y-11515238D01*
X20877619Y-11515238D02*
X20877619Y-11415238D01*
X20887143Y-11429524D01*
X20896667Y-11439048D01*
X20906191Y-11443809D01*
X20801429Y-11515238D02*
X20782381Y-11515238D01*
X20772857Y-11510476D01*
X20768095Y-11505714D01*
X20758571Y-11491429D01*
X20753810Y-11472381D01*
X20753810Y-11434286D01*
X20758571Y-11424762D01*
X20763333Y-11420000D01*
X20772857Y-11415238D01*
X20791905Y-11415238D01*
X20801429Y-11420000D01*
X20806191Y-11424762D01*
X20810952Y-11434286D01*
X20810952Y-11458095D01*
X20806191Y-11467619D01*
X20801429Y-11472381D01*
X20791905Y-11477143D01*
X20772857Y-11477143D01*
X20763333Y-11472381D01*
X20758571Y-11467619D01*
X20753810Y-11458095D01*
X21081429Y-12135238D02*
X21081429Y-12035238D01*
X21057619Y-12035238D01*
X21043333Y-12040000D01*
X21033810Y-12049524D01*
X21029048Y-12059048D01*
X21024286Y-12078095D01*
X21024286Y-12092381D01*
X21029048Y-12111429D01*
X21033810Y-12120952D01*
X21043333Y-12130476D01*
X21057619Y-12135238D01*
X21081429Y-12135238D01*
X20986191Y-12044762D02*
X20981429Y-12040000D01*
X20971905Y-12035238D01*
X20948095Y-12035238D01*
X20938571Y-12040000D01*
X20933810Y-12044762D01*
X20929048Y-12054286D01*
X20929048Y-12063809D01*
X20933810Y-12078095D01*
X20990952Y-12135238D01*
X20929048Y-12135238D01*
X20833810Y-12135238D02*
X20890952Y-12135238D01*
X20862381Y-12135238D02*
X20862381Y-12035238D01*
X20871905Y-12049524D01*
X20881429Y-12059048D01*
X20890952Y-12063809D01*
X21081429Y-13195238D02*
X21081429Y-13095238D01*
X21057619Y-13095238D01*
X21043333Y-13100000D01*
X21033810Y-13109524D01*
X21029048Y-13119048D01*
X21024286Y-13138095D01*
X21024286Y-13152381D01*
X21029048Y-13171429D01*
X21033810Y-13180952D01*
X21043333Y-13190476D01*
X21057619Y-13195238D01*
X21081429Y-13195238D01*
X20986191Y-13104762D02*
X20981429Y-13100000D01*
X20971905Y-13095238D01*
X20948095Y-13095238D01*
X20938571Y-13100000D01*
X20933810Y-13104762D01*
X20929048Y-13114286D01*
X20929048Y-13123809D01*
X20933810Y-13138095D01*
X20990952Y-13195238D01*
X20929048Y-13195238D01*
X20890952Y-13104762D02*
X20886191Y-13100000D01*
X20876667Y-13095238D01*
X20852857Y-13095238D01*
X20843333Y-13100000D01*
X20838571Y-13104762D01*
X20833810Y-13114286D01*
X20833810Y-13123809D01*
X20838571Y-13138095D01*
X20895714Y-13195238D01*
X20833810Y-13195238D01*
X15805238Y-15778571D02*
X15705238Y-15778571D01*
X15705238Y-15802381D01*
X15710000Y-15816667D01*
X15719524Y-15826190D01*
X15729048Y-15830952D01*
X15748095Y-15835714D01*
X15762381Y-15835714D01*
X15781429Y-15830952D01*
X15790952Y-15826190D01*
X15800476Y-15816667D01*
X15805238Y-15802381D01*
X15805238Y-15778571D01*
X15714762Y-15873809D02*
X15710000Y-15878571D01*
X15705238Y-15888095D01*
X15705238Y-15911905D01*
X15710000Y-15921429D01*
X15714762Y-15926190D01*
X15724286Y-15930952D01*
X15733809Y-15930952D01*
X15748095Y-15926190D01*
X15805238Y-15869048D01*
X15805238Y-15930952D01*
X15705238Y-15964286D02*
X15705238Y-16026190D01*
X15743333Y-15992857D01*
X15743333Y-16007143D01*
X15748095Y-16016667D01*
X15752857Y-16021429D01*
X15762381Y-16026190D01*
X15786190Y-16026190D01*
X15795714Y-16021429D01*
X15800476Y-16016667D01*
X15805238Y-16007143D01*
X15805238Y-15978571D01*
X15800476Y-15969048D01*
X15795714Y-15964286D01*
X17231429Y-14555238D02*
X17231429Y-14455238D01*
X17207619Y-14455238D01*
X17193333Y-14460000D01*
X17183810Y-14469524D01*
X17179048Y-14479048D01*
X17174286Y-14498095D01*
X17174286Y-14512381D01*
X17179048Y-14531429D01*
X17183810Y-14540952D01*
X17193333Y-14550476D01*
X17207619Y-14555238D01*
X17231429Y-14555238D01*
X17136191Y-14464762D02*
X17131429Y-14460000D01*
X17121905Y-14455238D01*
X17098095Y-14455238D01*
X17088571Y-14460000D01*
X17083810Y-14464762D01*
X17079048Y-14474286D01*
X17079048Y-14483809D01*
X17083810Y-14498095D01*
X17140952Y-14555238D01*
X17079048Y-14555238D01*
X16993333Y-14488571D02*
X16993333Y-14555238D01*
X17017143Y-14450476D02*
X17040952Y-14521905D01*
X16979048Y-14521905D01*
X19285238Y-10938571D02*
X19185238Y-10938571D01*
X19185238Y-10962381D01*
X19190000Y-10976667D01*
X19199524Y-10986191D01*
X19209048Y-10990952D01*
X19228095Y-10995714D01*
X19242381Y-10995714D01*
X19261429Y-10990952D01*
X19270952Y-10986191D01*
X19280476Y-10976667D01*
X19285238Y-10962381D01*
X19285238Y-10938571D01*
X19194762Y-11033810D02*
X19190000Y-11038571D01*
X19185238Y-11048095D01*
X19185238Y-11071905D01*
X19190000Y-11081429D01*
X19194762Y-11086191D01*
X19204286Y-11090952D01*
X19213810Y-11090952D01*
X19228095Y-11086191D01*
X19285238Y-11029048D01*
X19285238Y-11090952D01*
X19185238Y-11124286D02*
X19185238Y-11190952D01*
X19285238Y-11148095D01*
X10175238Y-6848571D02*
X10075238Y-6848571D01*
X10075238Y-6872381D01*
X10080000Y-6886667D01*
X10089524Y-6896190D01*
X10099048Y-6900952D01*
X10118095Y-6905714D01*
X10132381Y-6905714D01*
X10151429Y-6900952D01*
X10160952Y-6896190D01*
X10170476Y-6886667D01*
X10175238Y-6872381D01*
X10175238Y-6848571D01*
X10084762Y-6943809D02*
X10080000Y-6948571D01*
X10075238Y-6958095D01*
X10075238Y-6981905D01*
X10080000Y-6991429D01*
X10084762Y-6996190D01*
X10094286Y-7000952D01*
X10103810Y-7000952D01*
X10118095Y-6996190D01*
X10175238Y-6939048D01*
X10175238Y-7000952D01*
X10175238Y-7048571D02*
X10175238Y-7067619D01*
X10170476Y-7077143D01*
X10165714Y-7081905D01*
X10151429Y-7091429D01*
X10132381Y-7096190D01*
X10094286Y-7096190D01*
X10084762Y-7091429D01*
X10080000Y-7086667D01*
X10075238Y-7077143D01*
X10075238Y-7058095D01*
X10080000Y-7048571D01*
X10084762Y-7043809D01*
X10094286Y-7039048D01*
X10118095Y-7039048D01*
X10127619Y-7043809D01*
X10132381Y-7048571D01*
X10137143Y-7058095D01*
X10137143Y-7077143D01*
X10132381Y-7086667D01*
X10127619Y-7091429D01*
X10118095Y-7096190D01*
X18745238Y-12946190D02*
X18826191Y-12946190D01*
X18835714Y-12950952D01*
X18840476Y-12955714D01*
X18845238Y-12965238D01*
X18845238Y-12984286D01*
X18840476Y-12993810D01*
X18835714Y-12998571D01*
X18826191Y-13003333D01*
X18745238Y-13003333D01*
X18845238Y-13103333D02*
X18845238Y-13046190D01*
X18845238Y-13074762D02*
X18745238Y-13074762D01*
X18759524Y-13065238D01*
X18769048Y-13055714D01*
X18773810Y-13046190D01*
X18745238Y-13189048D02*
X18745238Y-13170000D01*
X18750000Y-13160476D01*
X18754762Y-13155714D01*
X18769048Y-13146190D01*
X18788095Y-13141429D01*
X18826191Y-13141429D01*
X18835714Y-13146190D01*
X18840476Y-13150952D01*
X18845238Y-13160476D01*
X18845238Y-13179524D01*
X18840476Y-13189048D01*
X18835714Y-13193810D01*
X18826191Y-13198571D01*
X18802381Y-13198571D01*
X18792857Y-13193810D01*
X18788095Y-13189048D01*
X18783333Y-13179524D01*
X18783333Y-13160476D01*
X18788095Y-13150952D01*
X18792857Y-13146190D01*
X18802381Y-13141429D01*
X19573810Y-13275238D02*
X19573810Y-13356190D01*
X19569048Y-13365714D01*
X19564286Y-13370476D01*
X19554762Y-13375238D01*
X19535714Y-13375238D01*
X19526190Y-13370476D01*
X19521429Y-13365714D01*
X19516667Y-13356190D01*
X19516667Y-13275238D01*
X19416667Y-13375238D02*
X19473810Y-13375238D01*
X19445238Y-13375238D02*
X19445238Y-13275238D01*
X19454762Y-13289524D01*
X19464286Y-13299048D01*
X19473810Y-13303809D01*
X19383333Y-13275238D02*
X19316667Y-13275238D01*
X19359524Y-13375238D01*
X9055238Y-7886190D02*
X9136191Y-7886190D01*
X9145714Y-7890952D01*
X9150476Y-7895714D01*
X9155238Y-7905238D01*
X9155238Y-7924286D01*
X9150476Y-7933810D01*
X9145714Y-7938571D01*
X9136191Y-7943333D01*
X9055238Y-7943333D01*
X9155238Y-8043333D02*
X9155238Y-7986190D01*
X9155238Y-8014762D02*
X9055238Y-8014762D01*
X9069524Y-8005238D01*
X9079048Y-7995714D01*
X9083810Y-7986190D01*
X9098095Y-8100476D02*
X9093333Y-8090952D01*
X9088571Y-8086190D01*
X9079048Y-8081429D01*
X9074286Y-8081429D01*
X9064762Y-8086190D01*
X9060000Y-8090952D01*
X9055238Y-8100476D01*
X9055238Y-8119524D01*
X9060000Y-8129048D01*
X9064762Y-8133810D01*
X9074286Y-8138571D01*
X9079048Y-8138571D01*
X9088571Y-8133810D01*
X9093333Y-8129048D01*
X9098095Y-8119524D01*
X9098095Y-8100476D01*
X9102857Y-8090952D01*
X9107619Y-8086190D01*
X9117143Y-8081429D01*
X9136191Y-8081429D01*
X9145714Y-8086190D01*
X9150476Y-8090952D01*
X9155238Y-8100476D01*
X9155238Y-8119524D01*
X9150476Y-8129048D01*
X9145714Y-8133810D01*
X9136191Y-8138571D01*
X9117143Y-8138571D01*
X9107619Y-8133810D01*
X9102857Y-8129048D01*
X9098095Y-8119524D01*
X12773809Y-8745238D02*
X12773809Y-8826191D01*
X12769048Y-8835714D01*
X12764286Y-8840476D01*
X12754762Y-8845238D01*
X12735714Y-8845238D01*
X12726190Y-8840476D01*
X12721428Y-8835714D01*
X12716667Y-8826191D01*
X12716667Y-8745238D01*
X12616667Y-8845238D02*
X12673809Y-8845238D01*
X12645238Y-8845238D02*
X12645238Y-8745238D01*
X12654762Y-8759524D01*
X12664286Y-8769048D01*
X12673809Y-8773810D01*
X12569048Y-8845238D02*
X12550000Y-8845238D01*
X12540476Y-8840476D01*
X12535714Y-8835714D01*
X12526190Y-8821429D01*
X12521428Y-8802381D01*
X12521428Y-8764286D01*
X12526190Y-8754762D01*
X12530952Y-8750000D01*
X12540476Y-8745238D01*
X12559524Y-8745238D01*
X12569048Y-8750000D01*
X12573809Y-8754762D01*
X12578571Y-8764286D01*
X12578571Y-8788095D01*
X12573809Y-8797619D01*
X12569048Y-8802381D01*
X12559524Y-8807143D01*
X12540476Y-8807143D01*
X12530952Y-8802381D01*
X12526190Y-8797619D01*
X12521428Y-8788095D01*
X9760952Y-14715238D02*
X9760952Y-14615238D01*
X9727619Y-14686667D01*
X9694286Y-14615238D01*
X9694286Y-14715238D01*
X9646667Y-14715238D02*
X9646667Y-14615238D01*
X9589524Y-14715238D02*
X9632381Y-14658095D01*
X9589524Y-14615238D02*
X9646667Y-14672381D01*
X9494286Y-14715238D02*
X9551429Y-14715238D01*
X9522857Y-14715238D02*
X9522857Y-14615238D01*
X9532381Y-14629524D01*
X9541905Y-14639048D01*
X9551429Y-14643809D01*
X9760952Y-9365238D02*
X9760952Y-9265238D01*
X9727619Y-9336667D01*
X9694286Y-9265238D01*
X9694286Y-9365238D01*
X9646667Y-9365238D02*
X9646667Y-9265238D01*
X9589524Y-9365238D02*
X9632381Y-9308095D01*
X9589524Y-9265238D02*
X9646667Y-9322381D01*
X9551429Y-9274762D02*
X9546667Y-9270000D01*
X9537143Y-9265238D01*
X9513333Y-9265238D01*
X9503810Y-9270000D01*
X9499048Y-9274762D01*
X9494286Y-9284286D01*
X9494286Y-9293810D01*
X9499048Y-9308095D01*
X9556191Y-9365238D01*
X9494286Y-9365238D01*
X15110952Y-14715238D02*
X15110952Y-14615238D01*
X15077619Y-14686667D01*
X15044286Y-14615238D01*
X15044286Y-14715238D01*
X14996667Y-14715238D02*
X14996667Y-14615238D01*
X14939524Y-14715238D02*
X14982381Y-14658095D01*
X14939524Y-14615238D02*
X14996667Y-14672381D01*
X14906190Y-14615238D02*
X14844286Y-14615238D01*
X14877619Y-14653333D01*
X14863333Y-14653333D01*
X14853809Y-14658095D01*
X14849048Y-14662857D01*
X14844286Y-14672381D01*
X14844286Y-14696190D01*
X14849048Y-14705714D01*
X14853809Y-14710476D01*
X14863333Y-14715238D01*
X14891905Y-14715238D01*
X14901429Y-14710476D01*
X14906190Y-14705714D01*
X15115952Y-9237738D02*
X15115952Y-9137738D01*
X15082619Y-9209167D01*
X15049286Y-9137738D01*
X15049286Y-9237738D01*
X15001667Y-9237738D02*
X15001667Y-9137738D01*
X14944524Y-9237738D02*
X14987381Y-9180595D01*
X14944524Y-9137738D02*
X15001667Y-9194881D01*
X14858809Y-9171071D02*
X14858809Y-9237738D01*
X14882619Y-9132976D02*
X14906429Y-9204405D01*
X14844524Y-9204405D01*
X13596190Y-12625238D02*
X13596190Y-12706190D01*
X13591429Y-12715714D01*
X13586667Y-12720476D01*
X13577143Y-12725238D01*
X13558095Y-12725238D01*
X13548571Y-12720476D01*
X13543809Y-12715714D01*
X13539048Y-12706190D01*
X13539048Y-12625238D01*
X13443809Y-12625238D02*
X13491429Y-12625238D01*
X13496190Y-12672857D01*
X13491429Y-12668095D01*
X13481905Y-12663333D01*
X13458095Y-12663333D01*
X13448571Y-12668095D01*
X13443809Y-12672857D01*
X13439048Y-12682381D01*
X13439048Y-12706190D01*
X13443809Y-12715714D01*
X13448571Y-12720476D01*
X13458095Y-12725238D01*
X13481905Y-12725238D01*
X13491429Y-12720476D01*
X13496190Y-12715714D01*
X13616190Y-9815238D02*
X13616190Y-9896191D01*
X13611429Y-9905714D01*
X13606667Y-9910476D01*
X13597143Y-9915238D01*
X13578095Y-9915238D01*
X13568571Y-9910476D01*
X13563809Y-9905714D01*
X13559048Y-9896191D01*
X13559048Y-9815238D01*
X13520952Y-9815238D02*
X13459048Y-9815238D01*
X13492381Y-9853333D01*
X13478095Y-9853333D01*
X13468571Y-9858095D01*
X13463809Y-9862857D01*
X13459048Y-9872381D01*
X13459048Y-9896191D01*
X13463809Y-9905714D01*
X13468571Y-9910476D01*
X13478095Y-9915238D01*
X13506667Y-9915238D01*
X13516190Y-9910476D01*
X13520952Y-9905714D01*
X13596190Y-11225238D02*
X13596190Y-11306190D01*
X13591429Y-11315714D01*
X13586667Y-11320476D01*
X13577143Y-11325238D01*
X13558095Y-11325238D01*
X13548571Y-11320476D01*
X13543809Y-11315714D01*
X13539048Y-11306190D01*
X13539048Y-11225238D01*
X13448571Y-11258571D02*
X13448571Y-11325238D01*
X13472381Y-11220476D02*
X13496190Y-11291905D01*
X13434286Y-11291905D01*
X13586190Y-14015238D02*
X13586190Y-14096190D01*
X13581429Y-14105714D01*
X13576667Y-14110476D01*
X13567143Y-14115238D01*
X13548095Y-14115238D01*
X13538571Y-14110476D01*
X13533809Y-14105714D01*
X13529048Y-14096190D01*
X13529048Y-14015238D01*
X13438571Y-14015238D02*
X13457619Y-14015238D01*
X13467143Y-14020000D01*
X13471905Y-14024762D01*
X13481429Y-14039048D01*
X13486190Y-14058095D01*
X13486190Y-14096190D01*
X13481429Y-14105714D01*
X13476667Y-14110476D01*
X13467143Y-14115238D01*
X13448095Y-14115238D01*
X13438571Y-14110476D01*
X13433809Y-14105714D01*
X13429048Y-14096190D01*
X13429048Y-14072381D01*
X13433809Y-14062857D01*
X13438571Y-14058095D01*
X13448095Y-14053333D01*
X13467143Y-14053333D01*
X13476667Y-14058095D01*
X13481429Y-14062857D01*
X13486190Y-14072381D01*
X16374286Y-9530714D02*
X16379048Y-9535476D01*
X16393333Y-9540238D01*
X16402857Y-9540238D01*
X16417143Y-9535476D01*
X16426667Y-9525952D01*
X16431429Y-9516429D01*
X16436190Y-9497381D01*
X16436190Y-9483095D01*
X16431429Y-9464048D01*
X16426667Y-9454524D01*
X16417143Y-9445000D01*
X16402857Y-9440238D01*
X16393333Y-9440238D01*
X16379048Y-9445000D01*
X16374286Y-9449762D01*
X16279048Y-9540238D02*
X16336190Y-9540238D01*
X16307619Y-9540238D02*
X16307619Y-9440238D01*
X16317143Y-9454524D01*
X16326667Y-9464048D01*
X16336190Y-9468810D01*
X16245714Y-9440238D02*
X16179048Y-9440238D01*
X16221905Y-9540238D01*
X16555714Y-14495714D02*
X16560476Y-14490952D01*
X16565238Y-14476667D01*
X16565238Y-14467143D01*
X16560476Y-14452857D01*
X16550952Y-14443333D01*
X16541429Y-14438571D01*
X16522381Y-14433809D01*
X16508095Y-14433809D01*
X16489048Y-14438571D01*
X16479524Y-14443333D01*
X16470000Y-14452857D01*
X16465238Y-14467143D01*
X16465238Y-14476667D01*
X16470000Y-14490952D01*
X16474762Y-14495714D01*
X16565238Y-14590952D02*
X16565238Y-14533809D01*
X16565238Y-14562381D02*
X16465238Y-14562381D01*
X16479524Y-14552857D01*
X16489048Y-14543333D01*
X16493809Y-14533809D01*
X16508095Y-14648095D02*
X16503333Y-14638571D01*
X16498571Y-14633809D01*
X16489048Y-14629048D01*
X16484286Y-14629048D01*
X16474762Y-14633809D01*
X16470000Y-14638571D01*
X16465238Y-14648095D01*
X16465238Y-14667143D01*
X16470000Y-14676667D01*
X16474762Y-14681429D01*
X16484286Y-14686190D01*
X16489048Y-14686190D01*
X16498571Y-14681429D01*
X16503333Y-14676667D01*
X16508095Y-14667143D01*
X16508095Y-14648095D01*
X16512857Y-14638571D01*
X16517619Y-14633809D01*
X16527143Y-14629048D01*
X16546190Y-14629048D01*
X16555714Y-14633809D01*
X16560476Y-14638571D01*
X16565238Y-14648095D01*
X16565238Y-14667143D01*
X16560476Y-14676667D01*
X16555714Y-14681429D01*
X16546190Y-14686190D01*
X16527143Y-14686190D01*
X16517619Y-14681429D01*
X16512857Y-14676667D01*
X16508095Y-14667143D01*
X18354286Y-9625714D02*
X18359048Y-9630476D01*
X18373333Y-9635238D01*
X18382857Y-9635238D01*
X18397143Y-9630476D01*
X18406667Y-9620952D01*
X18411429Y-9611429D01*
X18416191Y-9592381D01*
X18416191Y-9578095D01*
X18411429Y-9559048D01*
X18406667Y-9549524D01*
X18397143Y-9540000D01*
X18382857Y-9535238D01*
X18373333Y-9535238D01*
X18359048Y-9540000D01*
X18354286Y-9544762D01*
X18316191Y-9544762D02*
X18311429Y-9540000D01*
X18301905Y-9535238D01*
X18278095Y-9535238D01*
X18268571Y-9540000D01*
X18263810Y-9544762D01*
X18259048Y-9554286D01*
X18259048Y-9563810D01*
X18263810Y-9578095D01*
X18320952Y-9635238D01*
X18259048Y-9635238D01*
X18197143Y-9535238D02*
X18187619Y-9535238D01*
X18178095Y-9540000D01*
X18173333Y-9544762D01*
X18168571Y-9554286D01*
X18163810Y-9573333D01*
X18163810Y-9597143D01*
X18168571Y-9616191D01*
X18173333Y-9625714D01*
X18178095Y-9630476D01*
X18187619Y-9635238D01*
X18197143Y-9635238D01*
X18206667Y-9630476D01*
X18211429Y-9625714D01*
X18216191Y-9616191D01*
X18220952Y-9597143D01*
X18220952Y-9573333D01*
X18216191Y-9554286D01*
X18211429Y-9544762D01*
X18206667Y-9540000D01*
X18197143Y-9535238D01*
X18629286Y-16233214D02*
X18634048Y-16237976D01*
X18648333Y-16242738D01*
X18657857Y-16242738D01*
X18672143Y-16237976D01*
X18681667Y-16228452D01*
X18686429Y-16218929D01*
X18691191Y-16199881D01*
X18691191Y-16185595D01*
X18686429Y-16166548D01*
X18681667Y-16157024D01*
X18672143Y-16147500D01*
X18657857Y-16142738D01*
X18648333Y-16142738D01*
X18634048Y-16147500D01*
X18629286Y-16152262D01*
X18591191Y-16152262D02*
X18586429Y-16147500D01*
X18576905Y-16142738D01*
X18553095Y-16142738D01*
X18543571Y-16147500D01*
X18538810Y-16152262D01*
X18534048Y-16161786D01*
X18534048Y-16171309D01*
X18538810Y-16185595D01*
X18595952Y-16242738D01*
X18534048Y-16242738D01*
X18438810Y-16242738D02*
X18495952Y-16242738D01*
X18467381Y-16242738D02*
X18467381Y-16142738D01*
X18476905Y-16157024D01*
X18486429Y-16166548D01*
X18495952Y-16171309D01*
X17605714Y-14095714D02*
X17610476Y-14090952D01*
X17615238Y-14076667D01*
X17615238Y-14067143D01*
X17610476Y-14052857D01*
X17600952Y-14043333D01*
X17591429Y-14038571D01*
X17572381Y-14033809D01*
X17558095Y-14033809D01*
X17539048Y-14038571D01*
X17529524Y-14043333D01*
X17520000Y-14052857D01*
X17515238Y-14067143D01*
X17515238Y-14076667D01*
X17520000Y-14090952D01*
X17524762Y-14095714D01*
X17524762Y-14133809D02*
X17520000Y-14138571D01*
X17515238Y-14148095D01*
X17515238Y-14171905D01*
X17520000Y-14181429D01*
X17524762Y-14186190D01*
X17534286Y-14190952D01*
X17543810Y-14190952D01*
X17558095Y-14186190D01*
X17615238Y-14129048D01*
X17615238Y-14190952D01*
X17524762Y-14229048D02*
X17520000Y-14233809D01*
X17515238Y-14243333D01*
X17515238Y-14267143D01*
X17520000Y-14276667D01*
X17524762Y-14281429D01*
X17534286Y-14286190D01*
X17543810Y-14286190D01*
X17558095Y-14281429D01*
X17615238Y-14224286D01*
X17615238Y-14286190D01*
X16555714Y-13095714D02*
X16560476Y-13090952D01*
X16565238Y-13076667D01*
X16565238Y-13067143D01*
X16560476Y-13052857D01*
X16550952Y-13043333D01*
X16541429Y-13038571D01*
X16522381Y-13033809D01*
X16508095Y-13033809D01*
X16489048Y-13038571D01*
X16479524Y-13043333D01*
X16470000Y-13052857D01*
X16465238Y-13067143D01*
X16465238Y-13076667D01*
X16470000Y-13090952D01*
X16474762Y-13095714D01*
X16474762Y-13133809D02*
X16470000Y-13138571D01*
X16465238Y-13148095D01*
X16465238Y-13171905D01*
X16470000Y-13181429D01*
X16474762Y-13186190D01*
X16484286Y-13190952D01*
X16493809Y-13190952D01*
X16508095Y-13186190D01*
X16565238Y-13129048D01*
X16565238Y-13190952D01*
X16465238Y-13224286D02*
X16465238Y-13286190D01*
X16503333Y-13252857D01*
X16503333Y-13267143D01*
X16508095Y-13276667D01*
X16512857Y-13281429D01*
X16522381Y-13286190D01*
X16546190Y-13286190D01*
X16555714Y-13281429D01*
X16560476Y-13276667D01*
X16565238Y-13267143D01*
X16565238Y-13238571D01*
X16560476Y-13229048D01*
X16555714Y-13224286D01*
X17526095Y-13857143D02*
X17449905Y-13857143D01*
X17488000Y-13895238D02*
X17488000Y-13819048D01*
X17754286Y-14480714D02*
X17759048Y-14485476D01*
X17773333Y-14490238D01*
X17782857Y-14490238D01*
X17797143Y-14485476D01*
X17806667Y-14475952D01*
X17811429Y-14466429D01*
X17816191Y-14447381D01*
X17816191Y-14433095D01*
X17811429Y-14414048D01*
X17806667Y-14404524D01*
X17797143Y-14395000D01*
X17782857Y-14390238D01*
X17773333Y-14390238D01*
X17759048Y-14395000D01*
X17754286Y-14399762D01*
X17716191Y-14399762D02*
X17711429Y-14395000D01*
X17701905Y-14390238D01*
X17678095Y-14390238D01*
X17668571Y-14395000D01*
X17663810Y-14399762D01*
X17659048Y-14409286D01*
X17659048Y-14418809D01*
X17663810Y-14433095D01*
X17720952Y-14490238D01*
X17659048Y-14490238D01*
X17568571Y-14390238D02*
X17616191Y-14390238D01*
X17620952Y-14437857D01*
X17616191Y-14433095D01*
X17606667Y-14428333D01*
X17582857Y-14428333D01*
X17573333Y-14433095D01*
X17568571Y-14437857D01*
X17563810Y-14447381D01*
X17563810Y-14471190D01*
X17568571Y-14480714D01*
X17573333Y-14485476D01*
X17582857Y-14490238D01*
X17606667Y-14490238D01*
X17616191Y-14485476D01*
X17620952Y-14480714D01*
X17765714Y-8955714D02*
X17770476Y-8950952D01*
X17775238Y-8936667D01*
X17775238Y-8927143D01*
X17770476Y-8912857D01*
X17760952Y-8903333D01*
X17751429Y-8898571D01*
X17732381Y-8893810D01*
X17718095Y-8893810D01*
X17699048Y-8898571D01*
X17689524Y-8903333D01*
X17680000Y-8912857D01*
X17675238Y-8927143D01*
X17675238Y-8936667D01*
X17680000Y-8950952D01*
X17684762Y-8955714D01*
X17684762Y-8993810D02*
X17680000Y-8998571D01*
X17675238Y-9008095D01*
X17675238Y-9031905D01*
X17680000Y-9041429D01*
X17684762Y-9046191D01*
X17694286Y-9050952D01*
X17703810Y-9050952D01*
X17718095Y-9046191D01*
X17775238Y-8989048D01*
X17775238Y-9050952D01*
X17675238Y-9136667D02*
X17675238Y-9117619D01*
X17680000Y-9108095D01*
X17684762Y-9103333D01*
X17699048Y-9093810D01*
X17718095Y-9089048D01*
X17756191Y-9089048D01*
X17765714Y-9093810D01*
X17770476Y-9098571D01*
X17775238Y-9108095D01*
X17775238Y-9127143D01*
X17770476Y-9136667D01*
X17765714Y-9141429D01*
X17756191Y-9146191D01*
X17732381Y-9146191D01*
X17722857Y-9141429D01*
X17718095Y-9136667D01*
X17713333Y-9127143D01*
X17713333Y-9108095D01*
X17718095Y-9098571D01*
X17722857Y-9093810D01*
X17732381Y-9089048D01*
X18866786Y-15753214D02*
X18871548Y-15757976D01*
X18885833Y-15762738D01*
X18895357Y-15762738D01*
X18909643Y-15757976D01*
X18919167Y-15748452D01*
X18923929Y-15738929D01*
X18928691Y-15719881D01*
X18928691Y-15705595D01*
X18923929Y-15686548D01*
X18919167Y-15677024D01*
X18909643Y-15667500D01*
X18895357Y-15662738D01*
X18885833Y-15662738D01*
X18871548Y-15667500D01*
X18866786Y-15672262D01*
X18828691Y-15672262D02*
X18823929Y-15667500D01*
X18814405Y-15662738D01*
X18790595Y-15662738D01*
X18781071Y-15667500D01*
X18776310Y-15672262D01*
X18771548Y-15681786D01*
X18771548Y-15691309D01*
X18776310Y-15705595D01*
X18833452Y-15762738D01*
X18771548Y-15762738D01*
X18738214Y-15662738D02*
X18671548Y-15662738D01*
X18714405Y-15762738D01*
X16585714Y-11175714D02*
X16590476Y-11170952D01*
X16595238Y-11156667D01*
X16595238Y-11147143D01*
X16590476Y-11132857D01*
X16580952Y-11123333D01*
X16571429Y-11118571D01*
X16552381Y-11113810D01*
X16538095Y-11113810D01*
X16519048Y-11118571D01*
X16509524Y-11123333D01*
X16500000Y-11132857D01*
X16495238Y-11147143D01*
X16495238Y-11156667D01*
X16500000Y-11170952D01*
X16504762Y-11175714D01*
X16504762Y-11213809D02*
X16500000Y-11218571D01*
X16495238Y-11228095D01*
X16495238Y-11251905D01*
X16500000Y-11261429D01*
X16504762Y-11266190D01*
X16514286Y-11270952D01*
X16523809Y-11270952D01*
X16538095Y-11266190D01*
X16595238Y-11209048D01*
X16595238Y-11270952D01*
X16538095Y-11328095D02*
X16533333Y-11318571D01*
X16528571Y-11313809D01*
X16519048Y-11309048D01*
X16514286Y-11309048D01*
X16504762Y-11313809D01*
X16500000Y-11318571D01*
X16495238Y-11328095D01*
X16495238Y-11347143D01*
X16500000Y-11356667D01*
X16504762Y-11361429D01*
X16514286Y-11366190D01*
X16519048Y-11366190D01*
X16528571Y-11361429D01*
X16533333Y-11356667D01*
X16538095Y-11347143D01*
X16538095Y-11328095D01*
X16542857Y-11318571D01*
X16547619Y-11313809D01*
X16557143Y-11309048D01*
X16576190Y-11309048D01*
X16585714Y-11313809D01*
X16590476Y-11318571D01*
X16595238Y-11328095D01*
X16595238Y-11347143D01*
X16590476Y-11356667D01*
X16585714Y-11361429D01*
X16576190Y-11366190D01*
X16557143Y-11366190D01*
X16547619Y-11361429D01*
X16542857Y-11356667D01*
X16538095Y-11347143D01*
X16647143Y-11659905D02*
X16647143Y-11736095D01*
X16685238Y-11698000D02*
X16609048Y-11698000D01*
X17435714Y-11935714D02*
X17440476Y-11930952D01*
X17445238Y-11916667D01*
X17445238Y-11907143D01*
X17440476Y-11892857D01*
X17430952Y-11883333D01*
X17421429Y-11878571D01*
X17402381Y-11873809D01*
X17388095Y-11873809D01*
X17369048Y-11878571D01*
X17359524Y-11883333D01*
X17350000Y-11892857D01*
X17345238Y-11907143D01*
X17345238Y-11916667D01*
X17350000Y-11930952D01*
X17354762Y-11935714D01*
X17354762Y-11973809D02*
X17350000Y-11978571D01*
X17345238Y-11988095D01*
X17345238Y-12011905D01*
X17350000Y-12021429D01*
X17354762Y-12026190D01*
X17364286Y-12030952D01*
X17373810Y-12030952D01*
X17388095Y-12026190D01*
X17445238Y-11969048D01*
X17445238Y-12030952D01*
X17445238Y-12078571D02*
X17445238Y-12097619D01*
X17440476Y-12107143D01*
X17435714Y-12111905D01*
X17421429Y-12121429D01*
X17402381Y-12126190D01*
X17364286Y-12126190D01*
X17354762Y-12121429D01*
X17350000Y-12116667D01*
X17345238Y-12107143D01*
X17345238Y-12088095D01*
X17350000Y-12078571D01*
X17354762Y-12073809D01*
X17364286Y-12069048D01*
X17388095Y-12069048D01*
X17397619Y-12073809D01*
X17402381Y-12078571D01*
X17407143Y-12088095D01*
X17407143Y-12107143D01*
X17402381Y-12116667D01*
X17397619Y-12121429D01*
X17388095Y-12126190D01*
X17406786Y-13040714D02*
X17411548Y-13045476D01*
X17425833Y-13050238D01*
X17435357Y-13050238D01*
X17449643Y-13045476D01*
X17459167Y-13035952D01*
X17463929Y-13026429D01*
X17468691Y-13007381D01*
X17468691Y-12993095D01*
X17463929Y-12974048D01*
X17459167Y-12964524D01*
X17449643Y-12955000D01*
X17435357Y-12950238D01*
X17425833Y-12950238D01*
X17411548Y-12955000D01*
X17406786Y-12959762D01*
X17373452Y-12950238D02*
X17311548Y-12950238D01*
X17344881Y-12988333D01*
X17330595Y-12988333D01*
X17321071Y-12993095D01*
X17316310Y-12997857D01*
X17311548Y-13007381D01*
X17311548Y-13031190D01*
X17316310Y-13040714D01*
X17321071Y-13045476D01*
X17330595Y-13050238D01*
X17359167Y-13050238D01*
X17368691Y-13045476D01*
X17373452Y-13040714D01*
X17249643Y-12950238D02*
X17240119Y-12950238D01*
X17230595Y-12955000D01*
X17225833Y-12959762D01*
X17221071Y-12969286D01*
X17216310Y-12988333D01*
X17216310Y-13012143D01*
X17221071Y-13031190D01*
X17225833Y-13040714D01*
X17230595Y-13045476D01*
X17240119Y-13050238D01*
X17249643Y-13050238D01*
X17259167Y-13045476D01*
X17263929Y-13040714D01*
X17268691Y-13031190D01*
X17273452Y-13012143D01*
X17273452Y-12988333D01*
X17268691Y-12969286D01*
X17263929Y-12959762D01*
X17259167Y-12955000D01*
X17249643Y-12950238D01*
X17374286Y-10670714D02*
X17379048Y-10675476D01*
X17393333Y-10680238D01*
X17402857Y-10680238D01*
X17417143Y-10675476D01*
X17426667Y-10665952D01*
X17431429Y-10656429D01*
X17436191Y-10637381D01*
X17436191Y-10623095D01*
X17431429Y-10604048D01*
X17426667Y-10594524D01*
X17417143Y-10585000D01*
X17402857Y-10580238D01*
X17393333Y-10580238D01*
X17379048Y-10585000D01*
X17374286Y-10589762D01*
X17340952Y-10580238D02*
X17279048Y-10580238D01*
X17312381Y-10618333D01*
X17298095Y-10618333D01*
X17288571Y-10623095D01*
X17283810Y-10627857D01*
X17279048Y-10637381D01*
X17279048Y-10661191D01*
X17283810Y-10670714D01*
X17288571Y-10675476D01*
X17298095Y-10680238D01*
X17326667Y-10680238D01*
X17336191Y-10675476D01*
X17340952Y-10670714D01*
X17183810Y-10680238D02*
X17240952Y-10680238D01*
X17212381Y-10680238D02*
X17212381Y-10580238D01*
X17221905Y-10594524D01*
X17231429Y-10604048D01*
X17240952Y-10608810D01*
X17826095Y-10487143D02*
X17749905Y-10487143D01*
X17788000Y-10525238D02*
X17788000Y-10449048D01*
X19265714Y-9705714D02*
X19270476Y-9700952D01*
X19275238Y-9686667D01*
X19275238Y-9677143D01*
X19270476Y-9662857D01*
X19260952Y-9653333D01*
X19251429Y-9648571D01*
X19232381Y-9643810D01*
X19218095Y-9643810D01*
X19199048Y-9648571D01*
X19189524Y-9653333D01*
X19180000Y-9662857D01*
X19175238Y-9677143D01*
X19175238Y-9686667D01*
X19180000Y-9700952D01*
X19184762Y-9705714D01*
X19175238Y-9739048D02*
X19175238Y-9800952D01*
X19213333Y-9767619D01*
X19213333Y-9781905D01*
X19218095Y-9791429D01*
X19222857Y-9796191D01*
X19232381Y-9800952D01*
X19256191Y-9800952D01*
X19265714Y-9796191D01*
X19270476Y-9791429D01*
X19275238Y-9781905D01*
X19275238Y-9753333D01*
X19270476Y-9743810D01*
X19265714Y-9739048D01*
X19184762Y-9839048D02*
X19180000Y-9843810D01*
X19175238Y-9853333D01*
X19175238Y-9877143D01*
X19180000Y-9886667D01*
X19184762Y-9891429D01*
X19194286Y-9896191D01*
X19203810Y-9896191D01*
X19218095Y-9891429D01*
X19275238Y-9834286D01*
X19275238Y-9896191D01*
X18280095Y-9707143D02*
X18203905Y-9707143D01*
X18242000Y-9745238D02*
X18242000Y-9669048D01*
X16845714Y-9695714D02*
X16850476Y-9690952D01*
X16855238Y-9676667D01*
X16855238Y-9667143D01*
X16850476Y-9652857D01*
X16840952Y-9643333D01*
X16831429Y-9638571D01*
X16812381Y-9633810D01*
X16798095Y-9633810D01*
X16779048Y-9638571D01*
X16769524Y-9643333D01*
X16760000Y-9652857D01*
X16755238Y-9667143D01*
X16755238Y-9676667D01*
X16760000Y-9690952D01*
X16764762Y-9695714D01*
X16755238Y-9729048D02*
X16755238Y-9790952D01*
X16793333Y-9757619D01*
X16793333Y-9771905D01*
X16798095Y-9781429D01*
X16802857Y-9786191D01*
X16812381Y-9790952D01*
X16836191Y-9790952D01*
X16845714Y-9786191D01*
X16850476Y-9781429D01*
X16855238Y-9771905D01*
X16855238Y-9743333D01*
X16850476Y-9733810D01*
X16845714Y-9729048D01*
X16755238Y-9824286D02*
X16755238Y-9886191D01*
X16793333Y-9852857D01*
X16793333Y-9867143D01*
X16798095Y-9876667D01*
X16802857Y-9881429D01*
X16812381Y-9886191D01*
X16836191Y-9886191D01*
X16845714Y-9881429D01*
X16850476Y-9876667D01*
X16855238Y-9867143D01*
X16855238Y-9838571D01*
X16850476Y-9829048D01*
X16845714Y-9824286D01*
X19264286Y-13045714D02*
X19269048Y-13050476D01*
X19283333Y-13055238D01*
X19292857Y-13055238D01*
X19307143Y-13050476D01*
X19316667Y-13040952D01*
X19321429Y-13031429D01*
X19326191Y-13012381D01*
X19326191Y-12998095D01*
X19321429Y-12979048D01*
X19316667Y-12969524D01*
X19307143Y-12960000D01*
X19292857Y-12955238D01*
X19283333Y-12955238D01*
X19269048Y-12960000D01*
X19264286Y-12964762D01*
X19230952Y-12955238D02*
X19169048Y-12955238D01*
X19202381Y-12993333D01*
X19188095Y-12993333D01*
X19178571Y-12998095D01*
X19173810Y-13002857D01*
X19169048Y-13012381D01*
X19169048Y-13036190D01*
X19173810Y-13045714D01*
X19178571Y-13050476D01*
X19188095Y-13055238D01*
X19216667Y-13055238D01*
X19226191Y-13050476D01*
X19230952Y-13045714D01*
X19083333Y-12988571D02*
X19083333Y-13055238D01*
X19107143Y-12950476D02*
X19130952Y-13021905D01*
X19069048Y-13021905D01*
X11014286Y-6575714D02*
X11019048Y-6580476D01*
X11033333Y-6585238D01*
X11042857Y-6585238D01*
X11057143Y-6580476D01*
X11066667Y-6570952D01*
X11071429Y-6561429D01*
X11076191Y-6542381D01*
X11076191Y-6528095D01*
X11071429Y-6509048D01*
X11066667Y-6499524D01*
X11057143Y-6490000D01*
X11042857Y-6485238D01*
X11033333Y-6485238D01*
X11019048Y-6490000D01*
X11014286Y-6494762D01*
X10980952Y-6485238D02*
X10919048Y-6485238D01*
X10952381Y-6523333D01*
X10938095Y-6523333D01*
X10928571Y-6528095D01*
X10923810Y-6532857D01*
X10919048Y-6542381D01*
X10919048Y-6566190D01*
X10923810Y-6575714D01*
X10928571Y-6580476D01*
X10938095Y-6585238D01*
X10966667Y-6585238D01*
X10976191Y-6580476D01*
X10980952Y-6575714D01*
X10833333Y-6485238D02*
X10852381Y-6485238D01*
X10861905Y-6490000D01*
X10866667Y-6494762D01*
X10876191Y-6509048D01*
X10880952Y-6528095D01*
X10880952Y-6566190D01*
X10876191Y-6575714D01*
X10871429Y-6580476D01*
X10861905Y-6585238D01*
X10842857Y-6585238D01*
X10833333Y-6580476D01*
X10828571Y-6575714D01*
X10823810Y-6566190D01*
X10823810Y-6542381D01*
X10828571Y-6532857D01*
X10833333Y-6528095D01*
X10842857Y-6523333D01*
X10861905Y-6523333D01*
X10871429Y-6528095D01*
X10876191Y-6532857D01*
X10880952Y-6542381D01*
X10366143Y-7349905D02*
X10366143Y-7426095D01*
X10404238Y-7388000D02*
X10328048Y-7388000D01*
X12154286Y-6525714D02*
X12159048Y-6530476D01*
X12173333Y-6535238D01*
X12182857Y-6535238D01*
X12197143Y-6530476D01*
X12206667Y-6520952D01*
X12211429Y-6511429D01*
X12216190Y-6492381D01*
X12216190Y-6478095D01*
X12211429Y-6459048D01*
X12206667Y-6449524D01*
X12197143Y-6440000D01*
X12182857Y-6435238D01*
X12173333Y-6435238D01*
X12159048Y-6440000D01*
X12154286Y-6444762D01*
X12120952Y-6435238D02*
X12059048Y-6435238D01*
X12092381Y-6473333D01*
X12078095Y-6473333D01*
X12068571Y-6478095D01*
X12063809Y-6482857D01*
X12059048Y-6492381D01*
X12059048Y-6516190D01*
X12063809Y-6525714D01*
X12068571Y-6530476D01*
X12078095Y-6535238D01*
X12106667Y-6535238D01*
X12116190Y-6530476D01*
X12120952Y-6525714D01*
X12025714Y-6435238D02*
X11959048Y-6435238D01*
X12001905Y-6535238D01*
X11576143Y-7409905D02*
X11576143Y-7486095D01*
X11614238Y-7448000D02*
X11538048Y-7448000D01*
X14281786Y-8723214D02*
X14286548Y-8727976D01*
X14300833Y-8732738D01*
X14310357Y-8732738D01*
X14324643Y-8727976D01*
X14334167Y-8718452D01*
X14338929Y-8708929D01*
X14343690Y-8689881D01*
X14343690Y-8675595D01*
X14338929Y-8656548D01*
X14334167Y-8647024D01*
X14324643Y-8637500D01*
X14310357Y-8632738D01*
X14300833Y-8632738D01*
X14286548Y-8637500D01*
X14281786Y-8642262D01*
X14248452Y-8632738D02*
X14186548Y-8632738D01*
X14219881Y-8670833D01*
X14205595Y-8670833D01*
X14196071Y-8675595D01*
X14191309Y-8680357D01*
X14186548Y-8689881D01*
X14186548Y-8713691D01*
X14191309Y-8723214D01*
X14196071Y-8727976D01*
X14205595Y-8732738D01*
X14234167Y-8732738D01*
X14243690Y-8727976D01*
X14248452Y-8723214D01*
X14129405Y-8675595D02*
X14138929Y-8670833D01*
X14143690Y-8666071D01*
X14148452Y-8656548D01*
X14148452Y-8651786D01*
X14143690Y-8642262D01*
X14138929Y-8637500D01*
X14129405Y-8632738D01*
X14110357Y-8632738D01*
X14100833Y-8637500D01*
X14096071Y-8642262D01*
X14091309Y-8651786D01*
X14091309Y-8656548D01*
X14096071Y-8666071D01*
X14100833Y-8670833D01*
X14110357Y-8675595D01*
X14129405Y-8675595D01*
X14138929Y-8680357D01*
X14143690Y-8685119D01*
X14148452Y-8694643D01*
X14148452Y-8713691D01*
X14143690Y-8723214D01*
X14138929Y-8727976D01*
X14129405Y-8732738D01*
X14110357Y-8732738D01*
X14100833Y-8727976D01*
X14096071Y-8723214D01*
X14091309Y-8713691D01*
X14091309Y-8694643D01*
X14096071Y-8685119D01*
X14100833Y-8680357D01*
X14110357Y-8675595D01*
X14686095Y-9418143D02*
X14609905Y-9418143D01*
X14648000Y-9456238D02*
X14648000Y-9380048D01*
X13420714Y-8255714D02*
X13425476Y-8250952D01*
X13430238Y-8236667D01*
X13430238Y-8227143D01*
X13425476Y-8212857D01*
X13415952Y-8203333D01*
X13406429Y-8198571D01*
X13387381Y-8193809D01*
X13373095Y-8193809D01*
X13354048Y-8198571D01*
X13344524Y-8203333D01*
X13335000Y-8212857D01*
X13330238Y-8227143D01*
X13330238Y-8236667D01*
X13335000Y-8250952D01*
X13339762Y-8255714D01*
X13330238Y-8289048D02*
X13330238Y-8350952D01*
X13368333Y-8317619D01*
X13368333Y-8331905D01*
X13373095Y-8341429D01*
X13377857Y-8346190D01*
X13387381Y-8350952D01*
X13411190Y-8350952D01*
X13420714Y-8346190D01*
X13425476Y-8341429D01*
X13430238Y-8331905D01*
X13430238Y-8303333D01*
X13425476Y-8293809D01*
X13420714Y-8289048D01*
X13430238Y-8398571D02*
X13430238Y-8417619D01*
X13425476Y-8427143D01*
X13420714Y-8431905D01*
X13406429Y-8441429D01*
X13387381Y-8446191D01*
X13349286Y-8446191D01*
X13339762Y-8441429D01*
X13335000Y-8436667D01*
X13330238Y-8427143D01*
X13330238Y-8408095D01*
X13335000Y-8398571D01*
X13339762Y-8393810D01*
X13349286Y-8389048D01*
X13373095Y-8389048D01*
X13382619Y-8393810D01*
X13387381Y-8398571D01*
X13392143Y-8408095D01*
X13392143Y-8427143D01*
X13387381Y-8436667D01*
X13382619Y-8441429D01*
X13373095Y-8446191D01*
X11204286Y-13315714D02*
X11209048Y-13320476D01*
X11223333Y-13325238D01*
X11232857Y-13325238D01*
X11247143Y-13320476D01*
X11256667Y-13310952D01*
X11261429Y-13301429D01*
X11266190Y-13282381D01*
X11266190Y-13268095D01*
X11261429Y-13249048D01*
X11256667Y-13239524D01*
X11247143Y-13230000D01*
X11232857Y-13225238D01*
X11223333Y-13225238D01*
X11209048Y-13230000D01*
X11204286Y-13234762D01*
X11118571Y-13258571D02*
X11118571Y-13325238D01*
X11142381Y-13220476D02*
X11166191Y-13291905D01*
X11104286Y-13291905D01*
X11023333Y-13258571D02*
X11023333Y-13325238D01*
X11047143Y-13220476D02*
X11070952Y-13291905D01*
X11009048Y-13291905D01*
X11174286Y-9085714D02*
X11179048Y-9090476D01*
X11193333Y-9095238D01*
X11202857Y-9095238D01*
X11217143Y-9090476D01*
X11226667Y-9080952D01*
X11231429Y-9071429D01*
X11236190Y-9052381D01*
X11236190Y-9038095D01*
X11231429Y-9019048D01*
X11226667Y-9009524D01*
X11217143Y-9000000D01*
X11202857Y-8995238D01*
X11193333Y-8995238D01*
X11179048Y-9000000D01*
X11174286Y-9004762D01*
X11088571Y-9028571D02*
X11088571Y-9095238D01*
X11112381Y-8990476D02*
X11136191Y-9061905D01*
X11074286Y-9061905D01*
X10988571Y-8995238D02*
X11036191Y-8995238D01*
X11040952Y-9042857D01*
X11036191Y-9038095D01*
X11026667Y-9033333D01*
X11002857Y-9033333D01*
X10993333Y-9038095D01*
X10988571Y-9042857D01*
X10983810Y-9052381D01*
X10983810Y-9076191D01*
X10988571Y-9085714D01*
X10993333Y-9090476D01*
X11002857Y-9095238D01*
X11026667Y-9095238D01*
X11036191Y-9090476D01*
X11040952Y-9085714D01*
X11184286Y-10495714D02*
X11189048Y-10500476D01*
X11203333Y-10505238D01*
X11212857Y-10505238D01*
X11227143Y-10500476D01*
X11236667Y-10490952D01*
X11241429Y-10481429D01*
X11246190Y-10462381D01*
X11246190Y-10448095D01*
X11241429Y-10429048D01*
X11236667Y-10419524D01*
X11227143Y-10410000D01*
X11212857Y-10405238D01*
X11203333Y-10405238D01*
X11189048Y-10410000D01*
X11184286Y-10414762D01*
X11098571Y-10438571D02*
X11098571Y-10505238D01*
X11122381Y-10400476D02*
X11146191Y-10471905D01*
X11084286Y-10471905D01*
X11003333Y-10405238D02*
X11022381Y-10405238D01*
X11031905Y-10410000D01*
X11036667Y-10414762D01*
X11046191Y-10429048D01*
X11050952Y-10448095D01*
X11050952Y-10486191D01*
X11046191Y-10495714D01*
X11041429Y-10500476D01*
X11031905Y-10505238D01*
X11012857Y-10505238D01*
X11003333Y-10500476D01*
X10998571Y-10495714D01*
X10993810Y-10486191D01*
X10993810Y-10462381D01*
X10998571Y-10452857D01*
X11003333Y-10448095D01*
X11012857Y-10443333D01*
X11031905Y-10443333D01*
X11041429Y-10448095D01*
X11046191Y-10452857D01*
X11050952Y-10462381D01*
X11174286Y-11885714D02*
X11179048Y-11890476D01*
X11193333Y-11895238D01*
X11202857Y-11895238D01*
X11217143Y-11890476D01*
X11226667Y-11880952D01*
X11231429Y-11871429D01*
X11236190Y-11852381D01*
X11236190Y-11838095D01*
X11231429Y-11819048D01*
X11226667Y-11809524D01*
X11217143Y-11800000D01*
X11202857Y-11795238D01*
X11193333Y-11795238D01*
X11179048Y-11800000D01*
X11174286Y-11804762D01*
X11088571Y-11828571D02*
X11088571Y-11895238D01*
X11112381Y-11790476D02*
X11136191Y-11861905D01*
X11074286Y-11861905D01*
X11045714Y-11795238D02*
X10979048Y-11795238D01*
X11021905Y-11895238D01*
X20934286Y-13770238D02*
X20967619Y-13722619D01*
X20991429Y-13770238D02*
X20991429Y-13670238D01*
X20953333Y-13670238D01*
X20943810Y-13675000D01*
X20939048Y-13679762D01*
X20934286Y-13689286D01*
X20934286Y-13703571D01*
X20939048Y-13713095D01*
X20943810Y-13717857D01*
X20953333Y-13722619D01*
X20991429Y-13722619D01*
X20839048Y-13770238D02*
X20896191Y-13770238D01*
X20867619Y-13770238D02*
X20867619Y-13670238D01*
X20877143Y-13684524D01*
X20886667Y-13694048D01*
X20896191Y-13698809D01*
X20791429Y-13770238D02*
X20772381Y-13770238D01*
X20762857Y-13765476D01*
X20758095Y-13760714D01*
X20748571Y-13746429D01*
X20743810Y-13727381D01*
X20743810Y-13689286D01*
X20748571Y-13679762D01*
X20753333Y-13675000D01*
X20762857Y-13670238D01*
X20781905Y-13670238D01*
X20791429Y-13675000D01*
X20796191Y-13679762D01*
X20800952Y-13689286D01*
X20800952Y-13713095D01*
X20796191Y-13722619D01*
X20791429Y-13727381D01*
X20781905Y-13732143D01*
X20762857Y-13732143D01*
X20753333Y-13727381D01*
X20748571Y-13722619D01*
X20743810Y-13713095D01*
X21309286Y-14427738D02*
X21342619Y-14380119D01*
X21366429Y-14427738D02*
X21366429Y-14327738D01*
X21328333Y-14327738D01*
X21318810Y-14332500D01*
X21314048Y-14337262D01*
X21309286Y-14346786D01*
X21309286Y-14361071D01*
X21314048Y-14370595D01*
X21318810Y-14375357D01*
X21328333Y-14380119D01*
X21366429Y-14380119D01*
X21271191Y-14337262D02*
X21266429Y-14332500D01*
X21256905Y-14327738D01*
X21233095Y-14327738D01*
X21223571Y-14332500D01*
X21218810Y-14337262D01*
X21214048Y-14346786D01*
X21214048Y-14356309D01*
X21218810Y-14370595D01*
X21275952Y-14427738D01*
X21214048Y-14427738D01*
X21152143Y-14327738D02*
X21142619Y-14327738D01*
X21133095Y-14332500D01*
X21128333Y-14337262D01*
X21123571Y-14346786D01*
X21118810Y-14365833D01*
X21118810Y-14389643D01*
X21123571Y-14408690D01*
X21128333Y-14418214D01*
X21133095Y-14422976D01*
X21142619Y-14427738D01*
X21152143Y-14427738D01*
X21161667Y-14422976D01*
X21166429Y-14418214D01*
X21171191Y-14408690D01*
X21175952Y-14389643D01*
X21175952Y-14365833D01*
X21171191Y-14346786D01*
X21166429Y-14337262D01*
X21161667Y-14332500D01*
X21152143Y-14327738D01*
X21326786Y-13332738D02*
X21360119Y-13285119D01*
X21383929Y-13332738D02*
X21383929Y-13232738D01*
X21345833Y-13232738D01*
X21336310Y-13237500D01*
X21331548Y-13242262D01*
X21326786Y-13251786D01*
X21326786Y-13266071D01*
X21331548Y-13275595D01*
X21336310Y-13280357D01*
X21345833Y-13285119D01*
X21383929Y-13285119D01*
X21288691Y-13242262D02*
X21283929Y-13237500D01*
X21274405Y-13232738D01*
X21250595Y-13232738D01*
X21241071Y-13237500D01*
X21236310Y-13242262D01*
X21231548Y-13251786D01*
X21231548Y-13261309D01*
X21236310Y-13275595D01*
X21293452Y-13332738D01*
X21231548Y-13332738D01*
X21136310Y-13332738D02*
X21193452Y-13332738D01*
X21164881Y-13332738D02*
X21164881Y-13232738D01*
X21174405Y-13247024D01*
X21183929Y-13256548D01*
X21193452Y-13261309D01*
X15961429Y-7800238D02*
X15961429Y-7700238D01*
X15937619Y-7700238D01*
X15923333Y-7705000D01*
X15913809Y-7714524D01*
X15909048Y-7724048D01*
X15904286Y-7743095D01*
X15904286Y-7757381D01*
X15909048Y-7776429D01*
X15913809Y-7785952D01*
X15923333Y-7795476D01*
X15937619Y-7800238D01*
X15961429Y-7800238D01*
X15809048Y-7800238D02*
X15866190Y-7800238D01*
X15837619Y-7800238D02*
X15837619Y-7700238D01*
X15847143Y-7714524D01*
X15856667Y-7724048D01*
X15866190Y-7728809D01*
X15775714Y-7700238D02*
X15713809Y-7700238D01*
X15747143Y-7738333D01*
X15732857Y-7738333D01*
X15723333Y-7743095D01*
X15718571Y-7747857D01*
X15713809Y-7757381D01*
X15713809Y-7781190D01*
X15718571Y-7790714D01*
X15723333Y-7795476D01*
X15732857Y-7800238D01*
X15761429Y-7800238D01*
X15770952Y-7795476D01*
X15775714Y-7790714D01*
X17521429Y-7800238D02*
X17521429Y-7700238D01*
X17497619Y-7700238D01*
X17483333Y-7705000D01*
X17473810Y-7714524D01*
X17469048Y-7724048D01*
X17464286Y-7743095D01*
X17464286Y-7757381D01*
X17469048Y-7776429D01*
X17473810Y-7785952D01*
X17483333Y-7795476D01*
X17497619Y-7800238D01*
X17521429Y-7800238D01*
X17369048Y-7800238D02*
X17426191Y-7800238D01*
X17397619Y-7800238D02*
X17397619Y-7700238D01*
X17407143Y-7714524D01*
X17416667Y-7724048D01*
X17426191Y-7728809D01*
X17283333Y-7733571D02*
X17283333Y-7800238D01*
X17307143Y-7695476D02*
X17330952Y-7766905D01*
X17269048Y-7766905D01*
X21171429Y-7975238D02*
X21171429Y-7875238D01*
X21147619Y-7875238D01*
X21133333Y-7880000D01*
X21123810Y-7889524D01*
X21119048Y-7899048D01*
X21114286Y-7918095D01*
X21114286Y-7932381D01*
X21119048Y-7951429D01*
X21123810Y-7960952D01*
X21133333Y-7970476D01*
X21147619Y-7975238D01*
X21171429Y-7975238D01*
X21019048Y-7975238D02*
X21076191Y-7975238D01*
X21047619Y-7975238D02*
X21047619Y-7875238D01*
X21057143Y-7889524D01*
X21066667Y-7899048D01*
X21076191Y-7903809D01*
X20933333Y-7875238D02*
X20952381Y-7875238D01*
X20961905Y-7880000D01*
X20966667Y-7884762D01*
X20976191Y-7899048D01*
X20980952Y-7918095D01*
X20980952Y-7956190D01*
X20976191Y-7965714D01*
X20971429Y-7970476D01*
X20961905Y-7975238D01*
X20942857Y-7975238D01*
X20933333Y-7970476D01*
X20928571Y-7965714D01*
X20923810Y-7956190D01*
X20923810Y-7932381D01*
X20928571Y-7922857D01*
X20933333Y-7918095D01*
X20942857Y-7913333D01*
X20961905Y-7913333D01*
X20971429Y-7918095D01*
X20976191Y-7922857D01*
X20980952Y-7932381D01*
X16803810Y-8445238D02*
X16746667Y-8445238D01*
X16775238Y-8545238D02*
X16775238Y-8445238D01*
X16713333Y-8545238D02*
X16713333Y-8445238D01*
X16675238Y-8445238D01*
X16665714Y-8450000D01*
X16660952Y-8454762D01*
X16656190Y-8464286D01*
X16656190Y-8478571D01*
X16660952Y-8488095D01*
X16665714Y-8492857D01*
X16675238Y-8497619D01*
X16713333Y-8497619D01*
X16622857Y-8445238D02*
X16560952Y-8445238D01*
X16594286Y-8483333D01*
X16580000Y-8483333D01*
X16570476Y-8488095D01*
X16565714Y-8492857D01*
X16560952Y-8502381D01*
X16560952Y-8526191D01*
X16565714Y-8535714D01*
X16570476Y-8540476D01*
X16580000Y-8545238D01*
X16608571Y-8545238D01*
X16618095Y-8540476D01*
X16622857Y-8535714D01*
X16465714Y-8545238D02*
X16522857Y-8545238D01*
X16494286Y-8545238D02*
X16494286Y-8445238D01*
X16503809Y-8459524D01*
X16513333Y-8469048D01*
X16522857Y-8473810D01*
X19963810Y-11690038D02*
X19906667Y-11690038D01*
X19935238Y-11790038D02*
X19935238Y-11690038D01*
X19873333Y-11790038D02*
X19873333Y-11690038D01*
X19835238Y-11690038D01*
X19825714Y-11694800D01*
X19820952Y-11699562D01*
X19816190Y-11709086D01*
X19816190Y-11723371D01*
X19820952Y-11732895D01*
X19825714Y-11737657D01*
X19835238Y-11742419D01*
X19873333Y-11742419D01*
X19782857Y-11690038D02*
X19720952Y-11690038D01*
X19754286Y-11728133D01*
X19740000Y-11728133D01*
X19730476Y-11732895D01*
X19725714Y-11737657D01*
X19720952Y-11747181D01*
X19720952Y-11770990D01*
X19725714Y-11780514D01*
X19730476Y-11785276D01*
X19740000Y-11790038D01*
X19768571Y-11790038D01*
X19778095Y-11785276D01*
X19782857Y-11780514D01*
X19687619Y-11690038D02*
X19625714Y-11690038D01*
X19659048Y-11728133D01*
X19644762Y-11728133D01*
X19635238Y-11732895D01*
X19630476Y-11737657D01*
X19625714Y-11747181D01*
X19625714Y-11770990D01*
X19630476Y-11780514D01*
X19635238Y-11785276D01*
X19644762Y-11790038D01*
X19673333Y-11790038D01*
X19682857Y-11785276D01*
X19687619Y-11780514D01*
X19303810Y-11955238D02*
X19246667Y-11955238D01*
X19275238Y-12055238D02*
X19275238Y-11955238D01*
X19213333Y-12055238D02*
X19213333Y-11955238D01*
X19175238Y-11955238D01*
X19165714Y-11960000D01*
X19160952Y-11964762D01*
X19156190Y-11974286D01*
X19156190Y-11988571D01*
X19160952Y-11998095D01*
X19165714Y-12002857D01*
X19175238Y-12007619D01*
X19213333Y-12007619D01*
X19122857Y-11955238D02*
X19060952Y-11955238D01*
X19094286Y-11993333D01*
X19080000Y-11993333D01*
X19070476Y-11998095D01*
X19065714Y-12002857D01*
X19060952Y-12012381D01*
X19060952Y-12036190D01*
X19065714Y-12045714D01*
X19070476Y-12050476D01*
X19080000Y-12055238D01*
X19108571Y-12055238D01*
X19118095Y-12050476D01*
X19122857Y-12045714D01*
X18975238Y-11988571D02*
X18975238Y-12055238D01*
X18999048Y-11950476D02*
X19022857Y-12021905D01*
X18960952Y-12021905D01*
X12267738Y-7403690D02*
X12267738Y-7460833D01*
X12367738Y-7432262D02*
X12267738Y-7432262D01*
X12367738Y-7494167D02*
X12267738Y-7494167D01*
X12267738Y-7532262D01*
X12272500Y-7541786D01*
X12277262Y-7546548D01*
X12286786Y-7551310D01*
X12301071Y-7551310D01*
X12310595Y-7546548D01*
X12315357Y-7541786D01*
X12320119Y-7532262D01*
X12320119Y-7494167D01*
X12267738Y-7584643D02*
X12267738Y-7646548D01*
X12305833Y-7613214D01*
X12305833Y-7627500D01*
X12310595Y-7637024D01*
X12315357Y-7641786D01*
X12324881Y-7646548D01*
X12348690Y-7646548D01*
X12358214Y-7641786D01*
X12362976Y-7637024D01*
X12367738Y-7627500D01*
X12367738Y-7598929D01*
X12362976Y-7589405D01*
X12358214Y-7584643D01*
X12267738Y-7732262D02*
X12267738Y-7713214D01*
X12272500Y-7703690D01*
X12277262Y-7698929D01*
X12291548Y-7689405D01*
X12310595Y-7684643D01*
X12348690Y-7684643D01*
X12358214Y-7689405D01*
X12362976Y-7694167D01*
X12367738Y-7703690D01*
X12367738Y-7722738D01*
X12362976Y-7732262D01*
X12358214Y-7737024D01*
X12348690Y-7741786D01*
X12324881Y-7741786D01*
X12315357Y-7737024D01*
X12310595Y-7732262D01*
X12305833Y-7722738D01*
X12305833Y-7703690D01*
X12310595Y-7694167D01*
X12315357Y-7689405D01*
X12324881Y-7684643D01*
X14223809Y-8355238D02*
X14166667Y-8355238D01*
X14195238Y-8455238D02*
X14195238Y-8355238D01*
X14133333Y-8455238D02*
X14133333Y-8355238D01*
X14095238Y-8355238D01*
X14085714Y-8360000D01*
X14080952Y-8364762D01*
X14076190Y-8374286D01*
X14076190Y-8388571D01*
X14080952Y-8398095D01*
X14085714Y-8402857D01*
X14095238Y-8407619D01*
X14133333Y-8407619D01*
X14042857Y-8355238D02*
X13980952Y-8355238D01*
X14014286Y-8393333D01*
X14000000Y-8393333D01*
X13990476Y-8398095D01*
X13985714Y-8402857D01*
X13980952Y-8412381D01*
X13980952Y-8436191D01*
X13985714Y-8445714D01*
X13990476Y-8450476D01*
X14000000Y-8455238D01*
X14028571Y-8455238D01*
X14038095Y-8450476D01*
X14042857Y-8445714D01*
X13947619Y-8355238D02*
X13880952Y-8355238D01*
X13923809Y-8455238D01*
X19241429Y-7800238D02*
X19241429Y-7700238D01*
X19217619Y-7700238D01*
X19203333Y-7705000D01*
X19193810Y-7714524D01*
X19189048Y-7724048D01*
X19184286Y-7743095D01*
X19184286Y-7757381D01*
X19189048Y-7776429D01*
X19193810Y-7785952D01*
X19203333Y-7795476D01*
X19217619Y-7800238D01*
X19241429Y-7800238D01*
X19089048Y-7800238D02*
X19146191Y-7800238D01*
X19117619Y-7800238D02*
X19117619Y-7700238D01*
X19127143Y-7714524D01*
X19136667Y-7724048D01*
X19146191Y-7728809D01*
X18998571Y-7700238D02*
X19046191Y-7700238D01*
X19050952Y-7747857D01*
X19046191Y-7743095D01*
X19036667Y-7738333D01*
X19012857Y-7738333D01*
X19003333Y-7743095D01*
X18998571Y-7747857D01*
X18993810Y-7757381D01*
X18993810Y-7781190D01*
X18998571Y-7790714D01*
X19003333Y-7795476D01*
X19012857Y-7800238D01*
X19036667Y-7800238D01*
X19046191Y-7795476D01*
X19050952Y-7790714D01*
X12831429Y-7945238D02*
X12831429Y-7845238D01*
X12807619Y-7845238D01*
X12793333Y-7850000D01*
X12783809Y-7859524D01*
X12779048Y-7869048D01*
X12774286Y-7888095D01*
X12774286Y-7902381D01*
X12779048Y-7921429D01*
X12783809Y-7930952D01*
X12793333Y-7940476D01*
X12807619Y-7945238D01*
X12831429Y-7945238D01*
X12679048Y-7945238D02*
X12736190Y-7945238D01*
X12707619Y-7945238D02*
X12707619Y-7845238D01*
X12717143Y-7859524D01*
X12726667Y-7869048D01*
X12736190Y-7873809D01*
X12645714Y-7845238D02*
X12579048Y-7845238D01*
X12621905Y-7945238D01*
X14281429Y-8100238D02*
X14281429Y-8000238D01*
X14257619Y-8000238D01*
X14243333Y-8005000D01*
X14233809Y-8014524D01*
X14229048Y-8024048D01*
X14224286Y-8043095D01*
X14224286Y-8057381D01*
X14229048Y-8076429D01*
X14233809Y-8085952D01*
X14243333Y-8095476D01*
X14257619Y-8100238D01*
X14281429Y-8100238D01*
X14129048Y-8100238D02*
X14186190Y-8100238D01*
X14157619Y-8100238D02*
X14157619Y-8000238D01*
X14167143Y-8014524D01*
X14176667Y-8024048D01*
X14186190Y-8028809D01*
X14071905Y-8043095D02*
X14081429Y-8038333D01*
X14086190Y-8033571D01*
X14090952Y-8024048D01*
X14090952Y-8019286D01*
X14086190Y-8009762D01*
X14081429Y-8005000D01*
X14071905Y-8000238D01*
X14052857Y-8000238D01*
X14043333Y-8005000D01*
X14038571Y-8009762D01*
X14033809Y-8019286D01*
X14033809Y-8024048D01*
X14038571Y-8033571D01*
X14043333Y-8038333D01*
X14052857Y-8043095D01*
X14071905Y-8043095D01*
X14081429Y-8047857D01*
X14086190Y-8052619D01*
X14090952Y-8062143D01*
X14090952Y-8081190D01*
X14086190Y-8090714D01*
X14081429Y-8095476D01*
X14071905Y-8100238D01*
X14052857Y-8100238D01*
X14043333Y-8095476D01*
X14038571Y-8090714D01*
X14033809Y-8081190D01*
X14033809Y-8062143D01*
X14038571Y-8052619D01*
X14043333Y-8047857D01*
X14052857Y-8043095D01*
X12024286Y-12785714D02*
X12029048Y-12790476D01*
X12043333Y-12795238D01*
X12052857Y-12795238D01*
X12067143Y-12790476D01*
X12076667Y-12780952D01*
X12081429Y-12771429D01*
X12086190Y-12752381D01*
X12086190Y-12738095D01*
X12081429Y-12719048D01*
X12076667Y-12709524D01*
X12067143Y-12700000D01*
X12052857Y-12695238D01*
X12043333Y-12695238D01*
X12029048Y-12700000D01*
X12024286Y-12704762D01*
X11938571Y-12728571D02*
X11938571Y-12795238D01*
X11962381Y-12690476D02*
X11986190Y-12761905D01*
X11924286Y-12761905D01*
X11867143Y-12695238D02*
X11857619Y-12695238D01*
X11848095Y-12700000D01*
X11843333Y-12704762D01*
X11838571Y-12714286D01*
X11833809Y-12733333D01*
X11833809Y-12757143D01*
X11838571Y-12776190D01*
X11843333Y-12785714D01*
X11848095Y-12790476D01*
X11857619Y-12795238D01*
X11867143Y-12795238D01*
X11876667Y-12790476D01*
X11881429Y-12785714D01*
X11886190Y-12776190D01*
X11890952Y-12757143D01*
X11890952Y-12733333D01*
X11886190Y-12714286D01*
X11881429Y-12704762D01*
X11876667Y-12700000D01*
X11867143Y-12695238D01*
X12074286Y-11385714D02*
X12079048Y-11390476D01*
X12093333Y-11395238D01*
X12102857Y-11395238D01*
X12117143Y-11390476D01*
X12126667Y-11380952D01*
X12131429Y-11371429D01*
X12136190Y-11352381D01*
X12136190Y-11338095D01*
X12131429Y-11319048D01*
X12126667Y-11309524D01*
X12117143Y-11300000D01*
X12102857Y-11295238D01*
X12093333Y-11295238D01*
X12079048Y-11300000D01*
X12074286Y-11304762D01*
X11988571Y-11328571D02*
X11988571Y-11395238D01*
X12012381Y-11290476D02*
X12036190Y-11361905D01*
X11974286Y-11361905D01*
X11883809Y-11395238D02*
X11940952Y-11395238D01*
X11912381Y-11395238D02*
X11912381Y-11295238D01*
X11921905Y-11309524D01*
X11931429Y-11319048D01*
X11940952Y-11323809D01*
X12054286Y-9995714D02*
X12059048Y-10000476D01*
X12073333Y-10005238D01*
X12082857Y-10005238D01*
X12097143Y-10000476D01*
X12106667Y-9990952D01*
X12111429Y-9981429D01*
X12116190Y-9962381D01*
X12116190Y-9948095D01*
X12111429Y-9929048D01*
X12106667Y-9919524D01*
X12097143Y-9910000D01*
X12082857Y-9905238D01*
X12073333Y-9905238D01*
X12059048Y-9910000D01*
X12054286Y-9914762D01*
X11968571Y-9938571D02*
X11968571Y-10005238D01*
X11992381Y-9900476D02*
X12016190Y-9971905D01*
X11954286Y-9971905D01*
X11911429Y-10005238D02*
X11892381Y-10005238D01*
X11882857Y-10000476D01*
X11878095Y-9995714D01*
X11868571Y-9981429D01*
X11863809Y-9962381D01*
X11863809Y-9924286D01*
X11868571Y-9914762D01*
X11873333Y-9910000D01*
X11882857Y-9905238D01*
X11901905Y-9905238D01*
X11911429Y-9910000D01*
X11916190Y-9914762D01*
X11920952Y-9924286D01*
X11920952Y-9948095D01*
X11916190Y-9957619D01*
X11911429Y-9962381D01*
X11901905Y-9967143D01*
X11882857Y-9967143D01*
X11873333Y-9962381D01*
X11868571Y-9957619D01*
X11863809Y-9948095D01*
M02*
