G04 #@! TF.FileFunction,Copper,L1,Top,Mixed*
%FSLAX45Y45*%
G04 Gerber Fmt 4.5, Leading zero omitted, Abs format (unit mm)*
G04 Created by KiCad (PCBNEW 4.0.7-e2-6376~58~ubuntu16.04.1) date Mon Mar 12 22:22:28 2018*
%MOMM*%
%LPD*%
G01*
G04 APERTURE LIST*
%ADD10C,0.100000*%
%ADD11R,1.700000X1.700000*%
%ADD12O,1.700000X1.700000*%
%ADD13R,3.960000X1.980000*%
%ADD14O,3.960000X1.980000*%
%ADD15R,2.400000X2.400000*%
%ADD16C,2.400000*%
%ADD17R,1.980000X3.960000*%
%ADD18O,1.980000X3.960000*%
%ADD19R,1.800000X1.800000*%
%ADD20O,1.800000X1.800000*%
%ADD21C,1.000000*%
%ADD22R,1.500000X0.970000*%
%ADD23R,4.000000X4.000000*%
%ADD24C,4.000000*%
%ADD25R,2.000000X2.000000*%
%ADD26C,2.000000*%
%ADD27C,1.500000*%
%ADD28C,0.800000*%
%ADD29C,1.600000*%
%ADD30C,0.400000*%
%ADD31C,0.700000*%
%ADD32C,1.800000*%
%ADD33C,1.000000*%
%ADD34C,5.000000*%
%ADD35C,0.025400*%
G04 APERTURE END LIST*
D10*
D11*
X19300000Y-14900000D03*
D12*
X19046000Y-14900000D03*
X18792000Y-14900000D03*
X18538000Y-14900000D03*
X18284000Y-14900000D03*
X18030000Y-14900000D03*
X17776000Y-14900000D03*
X17522000Y-14900000D03*
D13*
X8640000Y-10780000D03*
D14*
X8640000Y-11280000D03*
X8640000Y-12280000D03*
X8640000Y-11780000D03*
D15*
X9900000Y-15480000D03*
D16*
X9400000Y-15480000D03*
D11*
X16000000Y-8480000D03*
D12*
X16000000Y-8734000D03*
X16000000Y-8988000D03*
X16000000Y-9242000D03*
X16000000Y-9496000D03*
X16000000Y-9750000D03*
X16000000Y-10004000D03*
X16000000Y-10258000D03*
X16000000Y-10512000D03*
X16000000Y-10766000D03*
X16000000Y-11020000D03*
X16000000Y-11274000D03*
X16000000Y-11528000D03*
X16000000Y-11782000D03*
X16000000Y-12036000D03*
X16000000Y-12290000D03*
X16000000Y-12544000D03*
X16000000Y-12798000D03*
X16000000Y-13052000D03*
X16000000Y-13306000D03*
X16000000Y-13560000D03*
X16000000Y-13814000D03*
X16000000Y-14068000D03*
X16000000Y-14322000D03*
X16000000Y-14576000D03*
X16000000Y-14830000D03*
X16000000Y-15084000D03*
D17*
X8400000Y-7160000D03*
D18*
X8900000Y-7160000D03*
D19*
X12670000Y-12670000D03*
D20*
X12670000Y-12416000D03*
X12670000Y-12162000D03*
D19*
X11960000Y-10510000D03*
D20*
X11960000Y-10764000D03*
X11960000Y-11018000D03*
D19*
X11960000Y-11910000D03*
D20*
X11960000Y-12164000D03*
X11960000Y-12418000D03*
D19*
X11960000Y-9110000D03*
D20*
X11960000Y-9364000D03*
X11960000Y-9618000D03*
D19*
X12670000Y-9870000D03*
D20*
X12670000Y-9616000D03*
X12670000Y-9362000D03*
D21*
X7830000Y-15917500D03*
X21540000Y-8640000D03*
X20540000Y-15790000D03*
X20040000Y-15790000D03*
X15015000Y-11795000D03*
D22*
X14150000Y-11104500D03*
X14150000Y-11295500D03*
X14170000Y-14185500D03*
X14170000Y-13994500D03*
D19*
X12670000Y-11270000D03*
D20*
X12670000Y-11016000D03*
X12670000Y-10762000D03*
D19*
X11960000Y-13310000D03*
D20*
X11960000Y-13564000D03*
X11960000Y-13818000D03*
D19*
X12670000Y-14070000D03*
D20*
X12670000Y-13816000D03*
X12670000Y-13562000D03*
D17*
X12570000Y-15460000D03*
D18*
X12070000Y-15460000D03*
D17*
X15510000Y-15470000D03*
D18*
X15010000Y-15470000D03*
D11*
X20572000Y-8480000D03*
D12*
X20572000Y-8734000D03*
X20572000Y-8988000D03*
X20572000Y-9242000D03*
X20572000Y-9496000D03*
X20572000Y-9750000D03*
X20572000Y-10004000D03*
X20572000Y-10258000D03*
X20572000Y-10512000D03*
X20572000Y-10766000D03*
X20572000Y-11020000D03*
X20572000Y-11274000D03*
X20572000Y-11528000D03*
X20572000Y-11782000D03*
X20572000Y-12036000D03*
X20572000Y-12290000D03*
X20572000Y-12544000D03*
X20572000Y-12798000D03*
X20572000Y-13052000D03*
X20572000Y-13306000D03*
X20572000Y-13560000D03*
X20572000Y-13814000D03*
X20572000Y-14068000D03*
X20572000Y-14322000D03*
X20572000Y-14576000D03*
X20572000Y-14830000D03*
X20572000Y-15084000D03*
D23*
X8740000Y-9360000D03*
D24*
X7740000Y-9360000D03*
D23*
X8740000Y-13680000D03*
D24*
X7740000Y-13680000D03*
D15*
X10950000Y-15260000D03*
D16*
X10950000Y-15760000D03*
D17*
X16320000Y-7160000D03*
D18*
X15820000Y-7160000D03*
X15320000Y-7160000D03*
D17*
X17960000Y-7160000D03*
D18*
X17460000Y-7160000D03*
X16960000Y-7160000D03*
D17*
X19600000Y-7160000D03*
D18*
X19100000Y-7160000D03*
X18600000Y-7160000D03*
D17*
X21240000Y-7160000D03*
D18*
X20740000Y-7160000D03*
X20240000Y-7160000D03*
D17*
X13520000Y-7160000D03*
D18*
X13020000Y-7160000D03*
D17*
X14680000Y-7160000D03*
D18*
X14180000Y-7160000D03*
D25*
X11740000Y-11580000D03*
D26*
X12240000Y-11580000D03*
D25*
X11740000Y-8790000D03*
D26*
X12240000Y-8790000D03*
D25*
X11740000Y-10200000D03*
D26*
X12240000Y-10200000D03*
D11*
X15510000Y-8820000D03*
D12*
X15510000Y-9074000D03*
X15510000Y-9328000D03*
D27*
X7840000Y-7390000D03*
D25*
X11740000Y-13000000D03*
D26*
X12240000Y-13000000D03*
D28*
X14990000Y-12240000D03*
X18590000Y-9740000D03*
X14990000Y-13590000D03*
X15340000Y-14340000D03*
X15040000Y-15890000D03*
X15340000Y-9590000D03*
X14840000Y-9290000D03*
X14740000Y-10890000D03*
X17540000Y-8890000D03*
X18040000Y-10890000D03*
X19040000Y-12890000D03*
X20040000Y-14890000D03*
X20040000Y-12890000D03*
X20040000Y-10890000D03*
X20040000Y-9590000D03*
X20040000Y-8990000D03*
X18040000Y-8390000D03*
X16540000Y-8890000D03*
X16540000Y-9890000D03*
X16540000Y-11390000D03*
X16540000Y-12890000D03*
X16540000Y-14390000D03*
X17040000Y-15890000D03*
X19540000Y-15890000D03*
D29*
X21540000Y-15390000D03*
X21540000Y-14390000D03*
X21540000Y-13390000D03*
X21540000Y-12390000D03*
X21540000Y-11390000D03*
X21540000Y-10390000D03*
X21540000Y-9390000D03*
X21540000Y-8390000D03*
D28*
X21040000Y-15890000D03*
X19040000Y-8390000D03*
X19540000Y-8390000D03*
X11040000Y-7340000D03*
X12290000Y-7540000D03*
X8290000Y-6590000D03*
X14040000Y-15890000D03*
X13040000Y-15890000D03*
X9040000Y-15890000D03*
X9390000Y-12490000D03*
X9390000Y-11540000D03*
X9390000Y-10640000D03*
D29*
X8940000Y-14390000D03*
D28*
X11240000Y-8490000D03*
D29*
X9040000Y-8890000D03*
D28*
X20540000Y-7390000D03*
X19340000Y-7390000D03*
X18240000Y-7390000D03*
X16340000Y-7490000D03*
X15040000Y-7490000D03*
X13240000Y-7490000D03*
D29*
X21540000Y-6890000D03*
D28*
X20540000Y-6590000D03*
X19040000Y-6590000D03*
X17540000Y-6590000D03*
X16040000Y-6590000D03*
X14540000Y-6590000D03*
X13040000Y-6590000D03*
X11540000Y-6590000D03*
X10340000Y-6590000D03*
D29*
X7540000Y-6890000D03*
X13340000Y-9890000D03*
X13340000Y-11290000D03*
X13340000Y-12690000D03*
X13340000Y-14190000D03*
X13540000Y-15390000D03*
X7540000Y-15390000D03*
X7540000Y-14390000D03*
X7540000Y-12890000D03*
X7540000Y-11940000D03*
X7540000Y-10940000D03*
X7540000Y-9890000D03*
X7540000Y-8890000D03*
X7540000Y-7890000D03*
X17840000Y-13890000D03*
X18640000Y-13887500D03*
X18260000Y-13887500D03*
D28*
X10350000Y-8965000D03*
X15490000Y-8110000D03*
X20270000Y-8130000D03*
X7840000Y-15890000D03*
D29*
X9740000Y-8190000D03*
X9740000Y-7890000D03*
X9740000Y-7590000D03*
D28*
X14095000Y-9320000D03*
X13950000Y-8855000D03*
X14090000Y-12260000D03*
X14210000Y-13580000D03*
X14150000Y-10810000D03*
X14832500Y-8505000D03*
X14235000Y-11970000D03*
X13877500Y-13030000D03*
X14240000Y-10955000D03*
X13840000Y-10260000D03*
X14145000Y-8610000D03*
X17835000Y-15935000D03*
X17290000Y-9780000D03*
X19930000Y-11730000D03*
X17920000Y-12580000D03*
X11400000Y-13560000D03*
X11400000Y-12160000D03*
X11400000Y-10760000D03*
X11407500Y-9360000D03*
X19440000Y-13610000D03*
X19560000Y-13480000D03*
X19500000Y-13980000D03*
X20020000Y-10010000D03*
X18580000Y-8740000D03*
X20050000Y-8740000D03*
X20060000Y-9240000D03*
X17770000Y-8400000D03*
X18210000Y-9510000D03*
X16860000Y-8370000D03*
X15365001Y-8600000D03*
X10500000Y-9105000D03*
X10635000Y-8715000D03*
X15160000Y-9430000D03*
X10430000Y-14660000D03*
X10170000Y-14590000D03*
D30*
X21540000Y-10890000D02*
X21540000Y-10390000D01*
D31*
X10350000Y-8557364D02*
X10829864Y-8077500D01*
X10829864Y-8077500D02*
X15457500Y-8077500D01*
X10350000Y-8965000D02*
X10350000Y-8557364D01*
X15457500Y-8077500D02*
X15490000Y-8110000D01*
X8400000Y-7160000D02*
X8400000Y-7240000D01*
X8400000Y-7240000D02*
X7690000Y-7950000D01*
X13955000Y-8850000D02*
X14050000Y-8850000D01*
X13950000Y-8855000D02*
X13955000Y-8850000D01*
X14150000Y-10810000D02*
X14150000Y-10830000D01*
X14792500Y-8545000D02*
X14832500Y-8505000D01*
X14727500Y-8610000D02*
X14792500Y-8545000D01*
X14145000Y-8610000D02*
X14727500Y-8610000D01*
X14235000Y-12035000D02*
X14235000Y-11970000D01*
X14352500Y-12152500D02*
X14235000Y-12035000D01*
X14352500Y-13030000D02*
X14352500Y-12152500D01*
X13877500Y-13030000D02*
X14352500Y-13030000D01*
X14240000Y-10955000D02*
X14330000Y-10865000D01*
X14330000Y-10865000D02*
X14330000Y-10225000D01*
X14330000Y-10225000D02*
X14330000Y-10230000D01*
X14300000Y-10260000D02*
X14330000Y-10230000D01*
X13840000Y-10260000D02*
X14300000Y-10260000D01*
X14330000Y-10230000D02*
X14330000Y-10230000D01*
X14330000Y-10230000D02*
X14330000Y-8615000D01*
X14140000Y-8615000D02*
X14145000Y-8610000D01*
X14330000Y-8615000D02*
X14140000Y-8615000D01*
X17835000Y-15935000D02*
X17295000Y-15395000D01*
D32*
X17295000Y-15395000D02*
X17295000Y-9785000D01*
X17295000Y-9785000D02*
X17290000Y-9780000D01*
D33*
X18770000Y-11730000D02*
X19930000Y-11730000D01*
X19930000Y-11730000D02*
X19950000Y-11730000D01*
X17920000Y-12580000D02*
X18770000Y-11730000D01*
D34*
X8740000Y-9360000D02*
X9470000Y-9360000D01*
X9470000Y-9360000D02*
X10222500Y-10112500D01*
D31*
X11960000Y-12164000D02*
X11789000Y-12164000D01*
X11789000Y-12164000D02*
X11785000Y-12160000D01*
D34*
X8740000Y-13680000D02*
X10080000Y-13680000D01*
X10080000Y-13680000D02*
X10090000Y-13690000D01*
D33*
X8900000Y-7160000D02*
X8900000Y-6890000D01*
X13520000Y-6830000D02*
X8960000Y-6830000D01*
X8900000Y-6890000D02*
X8960000Y-6830000D01*
X13520000Y-7160000D02*
X13520000Y-6860000D01*
X13520000Y-6860000D02*
X13520000Y-6830000D01*
X14680000Y-7160000D02*
X14680000Y-6850000D01*
X14680000Y-6850000D02*
X14680000Y-6830000D01*
X18600000Y-7160000D02*
X18600000Y-6840000D01*
X18600000Y-6840000D02*
X18600000Y-6830000D01*
X16960000Y-7160000D02*
X16960000Y-6850000D01*
X16960000Y-6850000D02*
X16960000Y-6830000D01*
X15320000Y-7160000D02*
X15320000Y-6860000D01*
X15320000Y-6860000D02*
X15320000Y-6830000D01*
X20240000Y-7160000D02*
X20240000Y-6940000D01*
X20130000Y-6830000D02*
X18600000Y-6830000D01*
X18600000Y-6830000D02*
X16960000Y-6830000D01*
X16960000Y-6830000D02*
X15320000Y-6830000D01*
X15320000Y-6830000D02*
X14680000Y-6830000D01*
X14680000Y-6830000D02*
X13520000Y-6830000D01*
X20240000Y-6940000D02*
X20130000Y-6830000D01*
X8910000Y-7150000D02*
X8900000Y-7160000D01*
D30*
X19046000Y-14900000D02*
X19046000Y-14884000D01*
X19046000Y-14884000D02*
X19210000Y-14720000D01*
X19210000Y-14720000D02*
X19210000Y-13840000D01*
X19210000Y-13840000D02*
X19440000Y-13610000D01*
X19300000Y-14900000D02*
X19300000Y-13900000D01*
X19560000Y-13640000D02*
X19560000Y-13480000D01*
X19300000Y-13900000D02*
X19560000Y-13640000D01*
X20170000Y-13310000D02*
X20570000Y-13310000D01*
X19500000Y-13980000D02*
X20170000Y-13310000D01*
X20570000Y-13310000D02*
X20572000Y-13306000D01*
D31*
X14150000Y-11114500D02*
X14965500Y-11114500D01*
X16010000Y-9230000D02*
X16010000Y-9230000D01*
X15800000Y-9440000D02*
X16010000Y-9230000D01*
X15800000Y-10280000D02*
X15800000Y-9440000D01*
X14965500Y-11114500D02*
X15800000Y-10280000D01*
X16010000Y-9230000D02*
X16000000Y-9242000D01*
D30*
X20572000Y-10004000D02*
X20026000Y-10004000D01*
X20026000Y-10004000D02*
X20020000Y-10010000D01*
X20050000Y-8740000D02*
X18580000Y-8740000D01*
X17770000Y-8400000D02*
X18610000Y-9240000D01*
X18610000Y-9240000D02*
X20070000Y-9240000D01*
X20070000Y-9240000D02*
X20060000Y-9240000D01*
X17770000Y-8400000D02*
X17770000Y-8400000D01*
D31*
X14170000Y-14185500D02*
X14205500Y-14185500D01*
X15810000Y-14320000D02*
X16010000Y-14320000D01*
X15510000Y-14620000D02*
X15810000Y-14320000D01*
X14640000Y-14620000D02*
X15510000Y-14620000D01*
X14205500Y-14185500D02*
X14640000Y-14620000D01*
X16010000Y-14320000D02*
X16000000Y-14322000D01*
X16000000Y-14330000D02*
X16000000Y-14322000D01*
D30*
X16790000Y-8490000D02*
X17810000Y-9510000D01*
X18210000Y-9510000D02*
X18210000Y-9510000D01*
X17810000Y-9510000D02*
X18210000Y-9510000D01*
X15510000Y-9378000D02*
X15462000Y-9378000D01*
X15462000Y-9378000D02*
X15680000Y-9160000D01*
X15680000Y-9160000D02*
X15680000Y-8490208D01*
X15680000Y-8490208D02*
X15870208Y-8300000D01*
X15870208Y-8300000D02*
X16600000Y-8300000D01*
X16600000Y-8300000D02*
X16790000Y-8490000D01*
X15510000Y-8420000D02*
X15510000Y-8880000D01*
X16860000Y-8370000D02*
X16690000Y-8200000D01*
X16690000Y-8200000D02*
X15730000Y-8200000D01*
X15730000Y-8200000D02*
X15510000Y-8420000D01*
X15510000Y-8880000D02*
X15510000Y-8870000D01*
X15510000Y-8880000D02*
X15510000Y-8870000D01*
X15510000Y-8880000D02*
X15510000Y-8870000D01*
D31*
X14957502Y-8192501D02*
X15325001Y-8560000D01*
X10500000Y-8570000D02*
X10877499Y-8192501D01*
X15325001Y-8560000D02*
X15365001Y-8600000D01*
X10500000Y-9105000D02*
X10500000Y-8570000D01*
X10877499Y-8192501D02*
X14957502Y-8192501D01*
X15160000Y-9430000D02*
X15160000Y-9120000D01*
X15160000Y-9120000D02*
X15245000Y-9035000D01*
X15245000Y-9035000D02*
X15245000Y-8642636D01*
X15245000Y-8642636D02*
X14909866Y-8307502D01*
X14909866Y-8307502D02*
X11042498Y-8307502D01*
X10675000Y-8675000D02*
X10635000Y-8715000D01*
X11042498Y-8307502D02*
X10675000Y-8675000D01*
X15490000Y-11285500D02*
X16004500Y-11285500D01*
X16004500Y-11285500D02*
X16010000Y-11280000D01*
X16010000Y-11280000D02*
X16000000Y-11274000D01*
X14150000Y-11285500D02*
X15490000Y-11285500D01*
X14170000Y-13994500D02*
X14535500Y-13994500D01*
X14720000Y-13810000D02*
X16010000Y-13810000D01*
X14535500Y-13994500D02*
X14720000Y-13810000D01*
X16010000Y-13810000D02*
X16000000Y-13814000D01*
X10430000Y-14660000D02*
X10240000Y-14660000D01*
X10240000Y-14660000D02*
X10170000Y-14590000D01*
D35*
G36*
X14059197Y-8552560D02*
X14043748Y-8589768D01*
X14043712Y-8630056D01*
X14049521Y-8644113D01*
X14051058Y-8651841D01*
X14055397Y-8658335D01*
X14059097Y-8667290D01*
X14066003Y-8674207D01*
X14071927Y-8683073D01*
X14080715Y-8688945D01*
X14087560Y-8695803D01*
X14096587Y-8699551D01*
X14103159Y-8703942D01*
X14110843Y-8705470D01*
X14124768Y-8711252D01*
X14139978Y-8711266D01*
X14140000Y-8711270D01*
X14144969Y-8711270D01*
X14165055Y-8711288D01*
X14165098Y-8711270D01*
X14233730Y-8711270D01*
X14233730Y-10163730D01*
X13872231Y-10163730D01*
X13860232Y-10158748D01*
X13819944Y-10158713D01*
X13782710Y-10174097D01*
X13754197Y-10202560D01*
X13738748Y-10239768D01*
X13738712Y-10280056D01*
X13754097Y-10317290D01*
X13782560Y-10345803D01*
X13819768Y-10361252D01*
X13860055Y-10361288D01*
X13872199Y-10356270D01*
X14233730Y-10356270D01*
X14233730Y-10825124D01*
X14194718Y-10864136D01*
X14182710Y-10869097D01*
X14154197Y-10897560D01*
X14138748Y-10934768D01*
X14138712Y-10975056D01*
X14146346Y-10993530D01*
X14075000Y-10993530D01*
X14052295Y-10997802D01*
X14031441Y-11011221D01*
X14017451Y-11031696D01*
X14012530Y-11056000D01*
X14012530Y-11153000D01*
X14016802Y-11175705D01*
X14030221Y-11196559D01*
X14035080Y-11199879D01*
X14031441Y-11202221D01*
X14017451Y-11222696D01*
X14012530Y-11247000D01*
X14012530Y-11344000D01*
X14016802Y-11366705D01*
X14030221Y-11387559D01*
X14050696Y-11401548D01*
X14075000Y-11406470D01*
X14225000Y-11406470D01*
X14247705Y-11402198D01*
X14268559Y-11388779D01*
X14273348Y-11381770D01*
X14428730Y-11381770D01*
X14428730Y-12096634D01*
X14420573Y-12084427D01*
X14333355Y-11997209D01*
X14336252Y-11990232D01*
X14336287Y-11949944D01*
X14320903Y-11912710D01*
X14292440Y-11884197D01*
X14255232Y-11868748D01*
X14214944Y-11868712D01*
X14177710Y-11884097D01*
X14149197Y-11912560D01*
X14133748Y-11949768D01*
X14133712Y-11990055D01*
X14138730Y-12002199D01*
X14138730Y-12035000D01*
X14146058Y-12071841D01*
X14166927Y-12103073D01*
X14256230Y-12192376D01*
X14256230Y-12933730D01*
X13909731Y-12933730D01*
X13897732Y-12928748D01*
X13857444Y-12928712D01*
X13820210Y-12944097D01*
X13791697Y-12972560D01*
X13776248Y-13009768D01*
X13776212Y-13050055D01*
X13791597Y-13087290D01*
X13820060Y-13115802D01*
X13857268Y-13131252D01*
X13897555Y-13131287D01*
X13909699Y-13126270D01*
X14352500Y-13126270D01*
X14389341Y-13118942D01*
X14420573Y-13098073D01*
X14428730Y-13085866D01*
X14428730Y-13898230D01*
X14283616Y-13898230D01*
X14269304Y-13888451D01*
X14245000Y-13883530D01*
X14095000Y-13883530D01*
X14072295Y-13887802D01*
X14051441Y-13901221D01*
X14037451Y-13921696D01*
X14032530Y-13946000D01*
X14032530Y-14043000D01*
X14036802Y-14065705D01*
X14050221Y-14086559D01*
X14055080Y-14089879D01*
X14051441Y-14092221D01*
X14037451Y-14112696D01*
X14032530Y-14137000D01*
X14032530Y-14234000D01*
X14036802Y-14256705D01*
X14050221Y-14277559D01*
X14070696Y-14291548D01*
X14095000Y-14296470D01*
X14180324Y-14296470D01*
X14428730Y-14544876D01*
X14428730Y-16109875D01*
X14425759Y-16124812D01*
X14417369Y-16137369D01*
X14404812Y-16145759D01*
X14389875Y-16148730D01*
X12470125Y-16148730D01*
X12455188Y-16145759D01*
X12442631Y-16137369D01*
X12434241Y-16124812D01*
X12431270Y-16109875D01*
X12431270Y-14668329D01*
X12431257Y-14668147D01*
X12429627Y-14656846D01*
X12429525Y-14656498D01*
X12424768Y-14646117D01*
X12424571Y-14645812D01*
X12417076Y-14637199D01*
X12416947Y-14637070D01*
X12154781Y-14411065D01*
X12147465Y-14402658D01*
X12142861Y-14392610D01*
X12141270Y-14381580D01*
X12141270Y-13980000D01*
X12517530Y-13980000D01*
X12517530Y-14160000D01*
X12521802Y-14182705D01*
X12535221Y-14203559D01*
X12555696Y-14217548D01*
X12580000Y-14222470D01*
X12760000Y-14222470D01*
X12782705Y-14218198D01*
X12803559Y-14204779D01*
X12817548Y-14184304D01*
X12822470Y-14160000D01*
X12822470Y-13980000D01*
X12818198Y-13957295D01*
X12804779Y-13936441D01*
X12784304Y-13922451D01*
X12779885Y-13921556D01*
X12809755Y-13876852D01*
X12821270Y-13818964D01*
X12821270Y-13813036D01*
X12809755Y-13755148D01*
X12776964Y-13706072D01*
X12727888Y-13673281D01*
X12670000Y-13661766D01*
X12612111Y-13673281D01*
X12563036Y-13706072D01*
X12530245Y-13755148D01*
X12518730Y-13813036D01*
X12518730Y-13818964D01*
X12530245Y-13876852D01*
X12559946Y-13921303D01*
X12557295Y-13921802D01*
X12536441Y-13935221D01*
X12522451Y-13955696D01*
X12517530Y-13980000D01*
X12141270Y-13980000D01*
X12141270Y-12580000D01*
X12517530Y-12580000D01*
X12517530Y-12760000D01*
X12521802Y-12782705D01*
X12535221Y-12803559D01*
X12555696Y-12817548D01*
X12580000Y-12822470D01*
X12760000Y-12822470D01*
X12782705Y-12818198D01*
X12803559Y-12804779D01*
X12817548Y-12784304D01*
X12822470Y-12760000D01*
X12822470Y-12580000D01*
X12818198Y-12557295D01*
X12804779Y-12536441D01*
X12784304Y-12522451D01*
X12779885Y-12521556D01*
X12809755Y-12476852D01*
X12821270Y-12418964D01*
X12821270Y-12413036D01*
X12809755Y-12355148D01*
X12776964Y-12306072D01*
X12727888Y-12273281D01*
X12670000Y-12261766D01*
X12612111Y-12273281D01*
X12563036Y-12306072D01*
X12530245Y-12355148D01*
X12518730Y-12413036D01*
X12518730Y-12418964D01*
X12530245Y-12476852D01*
X12559946Y-12521303D01*
X12557295Y-12521802D01*
X12536441Y-12535221D01*
X12522451Y-12555696D01*
X12517530Y-12580000D01*
X12141270Y-12580000D01*
X12141270Y-11180000D01*
X12517530Y-11180000D01*
X12517530Y-11360000D01*
X12521802Y-11382705D01*
X12535221Y-11403559D01*
X12555696Y-11417548D01*
X12580000Y-11422470D01*
X12760000Y-11422470D01*
X12782705Y-11418198D01*
X12803559Y-11404779D01*
X12817548Y-11384304D01*
X12822470Y-11360000D01*
X12822470Y-11180000D01*
X12818198Y-11157295D01*
X12804779Y-11136441D01*
X12784304Y-11122452D01*
X12779885Y-11121557D01*
X12809755Y-11076852D01*
X12821270Y-11018964D01*
X12821270Y-11013036D01*
X12809755Y-10955148D01*
X12776964Y-10906072D01*
X12727888Y-10873281D01*
X12670000Y-10861766D01*
X12612111Y-10873281D01*
X12563036Y-10906072D01*
X12530245Y-10955148D01*
X12518730Y-11013036D01*
X12518730Y-11018964D01*
X12530245Y-11076852D01*
X12559946Y-11121303D01*
X12557295Y-11121802D01*
X12536441Y-11135221D01*
X12522451Y-11155696D01*
X12517530Y-11180000D01*
X12141270Y-11180000D01*
X12141270Y-9780000D01*
X12517530Y-9780000D01*
X12517530Y-9960000D01*
X12521802Y-9982705D01*
X12535221Y-10003559D01*
X12555696Y-10017549D01*
X12580000Y-10022470D01*
X12760000Y-10022470D01*
X12782705Y-10018198D01*
X12803559Y-10004779D01*
X12817548Y-9984304D01*
X12822470Y-9960000D01*
X12822470Y-9780000D01*
X12818198Y-9757295D01*
X12804779Y-9736441D01*
X12784304Y-9722452D01*
X12779885Y-9721557D01*
X12809755Y-9676852D01*
X12821270Y-9618964D01*
X12821270Y-9613036D01*
X12809755Y-9555148D01*
X12776964Y-9506072D01*
X12727888Y-9473281D01*
X12670000Y-9461766D01*
X12612111Y-9473281D01*
X12563036Y-9506072D01*
X12530245Y-9555148D01*
X12518730Y-9613036D01*
X12518730Y-9618964D01*
X12530245Y-9676852D01*
X12559946Y-9721303D01*
X12557295Y-9721802D01*
X12536441Y-9735221D01*
X12522451Y-9755696D01*
X12517530Y-9780000D01*
X12141270Y-9780000D01*
X12141270Y-8590125D01*
X12144241Y-8575188D01*
X12152631Y-8562631D01*
X12165188Y-8554241D01*
X12180125Y-8551270D01*
X14060490Y-8551270D01*
X14059197Y-8552560D01*
X14059197Y-8552560D01*
G37*
X14059197Y-8552560D02*
X14043748Y-8589768D01*
X14043712Y-8630056D01*
X14049521Y-8644113D01*
X14051058Y-8651841D01*
X14055397Y-8658335D01*
X14059097Y-8667290D01*
X14066003Y-8674207D01*
X14071927Y-8683073D01*
X14080715Y-8688945D01*
X14087560Y-8695803D01*
X14096587Y-8699551D01*
X14103159Y-8703942D01*
X14110843Y-8705470D01*
X14124768Y-8711252D01*
X14139978Y-8711266D01*
X14140000Y-8711270D01*
X14144969Y-8711270D01*
X14165055Y-8711288D01*
X14165098Y-8711270D01*
X14233730Y-8711270D01*
X14233730Y-10163730D01*
X13872231Y-10163730D01*
X13860232Y-10158748D01*
X13819944Y-10158713D01*
X13782710Y-10174097D01*
X13754197Y-10202560D01*
X13738748Y-10239768D01*
X13738712Y-10280056D01*
X13754097Y-10317290D01*
X13782560Y-10345803D01*
X13819768Y-10361252D01*
X13860055Y-10361288D01*
X13872199Y-10356270D01*
X14233730Y-10356270D01*
X14233730Y-10825124D01*
X14194718Y-10864136D01*
X14182710Y-10869097D01*
X14154197Y-10897560D01*
X14138748Y-10934768D01*
X14138712Y-10975056D01*
X14146346Y-10993530D01*
X14075000Y-10993530D01*
X14052295Y-10997802D01*
X14031441Y-11011221D01*
X14017451Y-11031696D01*
X14012530Y-11056000D01*
X14012530Y-11153000D01*
X14016802Y-11175705D01*
X14030221Y-11196559D01*
X14035080Y-11199879D01*
X14031441Y-11202221D01*
X14017451Y-11222696D01*
X14012530Y-11247000D01*
X14012530Y-11344000D01*
X14016802Y-11366705D01*
X14030221Y-11387559D01*
X14050696Y-11401548D01*
X14075000Y-11406470D01*
X14225000Y-11406470D01*
X14247705Y-11402198D01*
X14268559Y-11388779D01*
X14273348Y-11381770D01*
X14428730Y-11381770D01*
X14428730Y-12096634D01*
X14420573Y-12084427D01*
X14333355Y-11997209D01*
X14336252Y-11990232D01*
X14336287Y-11949944D01*
X14320903Y-11912710D01*
X14292440Y-11884197D01*
X14255232Y-11868748D01*
X14214944Y-11868712D01*
X14177710Y-11884097D01*
X14149197Y-11912560D01*
X14133748Y-11949768D01*
X14133712Y-11990055D01*
X14138730Y-12002199D01*
X14138730Y-12035000D01*
X14146058Y-12071841D01*
X14166927Y-12103073D01*
X14256230Y-12192376D01*
X14256230Y-12933730D01*
X13909731Y-12933730D01*
X13897732Y-12928748D01*
X13857444Y-12928712D01*
X13820210Y-12944097D01*
X13791697Y-12972560D01*
X13776248Y-13009768D01*
X13776212Y-13050055D01*
X13791597Y-13087290D01*
X13820060Y-13115802D01*
X13857268Y-13131252D01*
X13897555Y-13131287D01*
X13909699Y-13126270D01*
X14352500Y-13126270D01*
X14389341Y-13118942D01*
X14420573Y-13098073D01*
X14428730Y-13085866D01*
X14428730Y-13898230D01*
X14283616Y-13898230D01*
X14269304Y-13888451D01*
X14245000Y-13883530D01*
X14095000Y-13883530D01*
X14072295Y-13887802D01*
X14051441Y-13901221D01*
X14037451Y-13921696D01*
X14032530Y-13946000D01*
X14032530Y-14043000D01*
X14036802Y-14065705D01*
X14050221Y-14086559D01*
X14055080Y-14089879D01*
X14051441Y-14092221D01*
X14037451Y-14112696D01*
X14032530Y-14137000D01*
X14032530Y-14234000D01*
X14036802Y-14256705D01*
X14050221Y-14277559D01*
X14070696Y-14291548D01*
X14095000Y-14296470D01*
X14180324Y-14296470D01*
X14428730Y-14544876D01*
X14428730Y-16109875D01*
X14425759Y-16124812D01*
X14417369Y-16137369D01*
X14404812Y-16145759D01*
X14389875Y-16148730D01*
X12470125Y-16148730D01*
X12455188Y-16145759D01*
X12442631Y-16137369D01*
X12434241Y-16124812D01*
X12431270Y-16109875D01*
X12431270Y-14668329D01*
X12431257Y-14668147D01*
X12429627Y-14656846D01*
X12429525Y-14656498D01*
X12424768Y-14646117D01*
X12424571Y-14645812D01*
X12417076Y-14637199D01*
X12416947Y-14637070D01*
X12154781Y-14411065D01*
X12147465Y-14402658D01*
X12142861Y-14392610D01*
X12141270Y-14381580D01*
X12141270Y-13980000D01*
X12517530Y-13980000D01*
X12517530Y-14160000D01*
X12521802Y-14182705D01*
X12535221Y-14203559D01*
X12555696Y-14217548D01*
X12580000Y-14222470D01*
X12760000Y-14222470D01*
X12782705Y-14218198D01*
X12803559Y-14204779D01*
X12817548Y-14184304D01*
X12822470Y-14160000D01*
X12822470Y-13980000D01*
X12818198Y-13957295D01*
X12804779Y-13936441D01*
X12784304Y-13922451D01*
X12779885Y-13921556D01*
X12809755Y-13876852D01*
X12821270Y-13818964D01*
X12821270Y-13813036D01*
X12809755Y-13755148D01*
X12776964Y-13706072D01*
X12727888Y-13673281D01*
X12670000Y-13661766D01*
X12612111Y-13673281D01*
X12563036Y-13706072D01*
X12530245Y-13755148D01*
X12518730Y-13813036D01*
X12518730Y-13818964D01*
X12530245Y-13876852D01*
X12559946Y-13921303D01*
X12557295Y-13921802D01*
X12536441Y-13935221D01*
X12522451Y-13955696D01*
X12517530Y-13980000D01*
X12141270Y-13980000D01*
X12141270Y-12580000D01*
X12517530Y-12580000D01*
X12517530Y-12760000D01*
X12521802Y-12782705D01*
X12535221Y-12803559D01*
X12555696Y-12817548D01*
X12580000Y-12822470D01*
X12760000Y-12822470D01*
X12782705Y-12818198D01*
X12803559Y-12804779D01*
X12817548Y-12784304D01*
X12822470Y-12760000D01*
X12822470Y-12580000D01*
X12818198Y-12557295D01*
X12804779Y-12536441D01*
X12784304Y-12522451D01*
X12779885Y-12521556D01*
X12809755Y-12476852D01*
X12821270Y-12418964D01*
X12821270Y-12413036D01*
X12809755Y-12355148D01*
X12776964Y-12306072D01*
X12727888Y-12273281D01*
X12670000Y-12261766D01*
X12612111Y-12273281D01*
X12563036Y-12306072D01*
X12530245Y-12355148D01*
X12518730Y-12413036D01*
X12518730Y-12418964D01*
X12530245Y-12476852D01*
X12559946Y-12521303D01*
X12557295Y-12521802D01*
X12536441Y-12535221D01*
X12522451Y-12555696D01*
X12517530Y-12580000D01*
X12141270Y-12580000D01*
X12141270Y-11180000D01*
X12517530Y-11180000D01*
X12517530Y-11360000D01*
X12521802Y-11382705D01*
X12535221Y-11403559D01*
X12555696Y-11417548D01*
X12580000Y-11422470D01*
X12760000Y-11422470D01*
X12782705Y-11418198D01*
X12803559Y-11404779D01*
X12817548Y-11384304D01*
X12822470Y-11360000D01*
X12822470Y-11180000D01*
X12818198Y-11157295D01*
X12804779Y-11136441D01*
X12784304Y-11122452D01*
X12779885Y-11121557D01*
X12809755Y-11076852D01*
X12821270Y-11018964D01*
X12821270Y-11013036D01*
X12809755Y-10955148D01*
X12776964Y-10906072D01*
X12727888Y-10873281D01*
X12670000Y-10861766D01*
X12612111Y-10873281D01*
X12563036Y-10906072D01*
X12530245Y-10955148D01*
X12518730Y-11013036D01*
X12518730Y-11018964D01*
X12530245Y-11076852D01*
X12559946Y-11121303D01*
X12557295Y-11121802D01*
X12536441Y-11135221D01*
X12522451Y-11155696D01*
X12517530Y-11180000D01*
X12141270Y-11180000D01*
X12141270Y-9780000D01*
X12517530Y-9780000D01*
X12517530Y-9960000D01*
X12521802Y-9982705D01*
X12535221Y-10003559D01*
X12555696Y-10017549D01*
X12580000Y-10022470D01*
X12760000Y-10022470D01*
X12782705Y-10018198D01*
X12803559Y-10004779D01*
X12817548Y-9984304D01*
X12822470Y-9960000D01*
X12822470Y-9780000D01*
X12818198Y-9757295D01*
X12804779Y-9736441D01*
X12784304Y-9722452D01*
X12779885Y-9721557D01*
X12809755Y-9676852D01*
X12821270Y-9618964D01*
X12821270Y-9613036D01*
X12809755Y-9555148D01*
X12776964Y-9506072D01*
X12727888Y-9473281D01*
X12670000Y-9461766D01*
X12612111Y-9473281D01*
X12563036Y-9506072D01*
X12530245Y-9555148D01*
X12518730Y-9613036D01*
X12518730Y-9618964D01*
X12530245Y-9676852D01*
X12559946Y-9721303D01*
X12557295Y-9721802D01*
X12536441Y-9735221D01*
X12522451Y-9755696D01*
X12517530Y-9780000D01*
X12141270Y-9780000D01*
X12141270Y-8590125D01*
X12144241Y-8575188D01*
X12152631Y-8562631D01*
X12165188Y-8554241D01*
X12180125Y-8551270D01*
X14060490Y-8551270D01*
X14059197Y-8552560D01*
G36*
X11954812Y-8584241D02*
X11967369Y-8592631D01*
X11975759Y-8605188D01*
X11978730Y-8620125D01*
X11978730Y-8957530D01*
X11870000Y-8957530D01*
X11847295Y-8961802D01*
X11826441Y-8975221D01*
X11812451Y-8995696D01*
X11807530Y-9020000D01*
X11807530Y-9200000D01*
X11811802Y-9222705D01*
X11825221Y-9243559D01*
X11845696Y-9257549D01*
X11870000Y-9262470D01*
X11978730Y-9262470D01*
X11978730Y-9467492D01*
X11960000Y-9463766D01*
X11902111Y-9475281D01*
X11853036Y-9508072D01*
X11820245Y-9557148D01*
X11808730Y-9615036D01*
X11808730Y-9620964D01*
X11820245Y-9678852D01*
X11853036Y-9727928D01*
X11902111Y-9760719D01*
X11960000Y-9772234D01*
X11978730Y-9768508D01*
X11978730Y-10357530D01*
X11870000Y-10357530D01*
X11847295Y-10361802D01*
X11826441Y-10375221D01*
X11812451Y-10395696D01*
X11807530Y-10420000D01*
X11807530Y-10600000D01*
X11811802Y-10622705D01*
X11825221Y-10643559D01*
X11845696Y-10657549D01*
X11870000Y-10662470D01*
X11978730Y-10662470D01*
X11978730Y-10867492D01*
X11960000Y-10863766D01*
X11902111Y-10875281D01*
X11853036Y-10908072D01*
X11820245Y-10957148D01*
X11808730Y-11015036D01*
X11808730Y-11020964D01*
X11820245Y-11078852D01*
X11853036Y-11127928D01*
X11902111Y-11160719D01*
X11960000Y-11172234D01*
X11978730Y-11168508D01*
X11978730Y-11757530D01*
X11870000Y-11757530D01*
X11847295Y-11761802D01*
X11826441Y-11775221D01*
X11812451Y-11795696D01*
X11807530Y-11820000D01*
X11807530Y-12000000D01*
X11811802Y-12022705D01*
X11825221Y-12043559D01*
X11845696Y-12057548D01*
X11870000Y-12062470D01*
X11978730Y-12062470D01*
X11978730Y-12267492D01*
X11960000Y-12263766D01*
X11902111Y-12275281D01*
X11853036Y-12308072D01*
X11820245Y-12357148D01*
X11808730Y-12415036D01*
X11808730Y-12420964D01*
X11820245Y-12478852D01*
X11853036Y-12527928D01*
X11902111Y-12560719D01*
X11960000Y-12572234D01*
X11978730Y-12568508D01*
X11978730Y-13157530D01*
X11870000Y-13157530D01*
X11847295Y-13161802D01*
X11826441Y-13175221D01*
X11812451Y-13195696D01*
X11807530Y-13220000D01*
X11807530Y-13400000D01*
X11811802Y-13422705D01*
X11825221Y-13443559D01*
X11845696Y-13457548D01*
X11870000Y-13462470D01*
X11978730Y-13462470D01*
X11978730Y-13667492D01*
X11960000Y-13663766D01*
X11902111Y-13675281D01*
X11853036Y-13708072D01*
X11820245Y-13757148D01*
X11808730Y-13815036D01*
X11808730Y-13820964D01*
X11820245Y-13878852D01*
X11853036Y-13927928D01*
X11902111Y-13960719D01*
X11960000Y-13972234D01*
X11978730Y-13968508D01*
X11978730Y-14442795D01*
X11978742Y-14442966D01*
X11980199Y-14453666D01*
X11980291Y-14453997D01*
X11984558Y-14463917D01*
X11984735Y-14464211D01*
X11991500Y-14472628D01*
X11991617Y-14472755D01*
X12156574Y-14629030D01*
X12163177Y-14637245D01*
X12167307Y-14646848D01*
X12168730Y-14657292D01*
X12168730Y-16109875D01*
X12165759Y-16124812D01*
X12157369Y-16137369D01*
X12144812Y-16145759D01*
X12129875Y-16148730D01*
X9790163Y-16148730D01*
X9778088Y-16146816D01*
X9767288Y-16141306D01*
X9758721Y-16132726D01*
X9753229Y-16121917D01*
X9751333Y-16109839D01*
X9751827Y-15795899D01*
X10768699Y-15795899D01*
X10796237Y-15862547D01*
X10847185Y-15913584D01*
X10913785Y-15941238D01*
X10985899Y-15941301D01*
X11052547Y-15913763D01*
X11103584Y-15862815D01*
X11131239Y-15796215D01*
X11131301Y-15724101D01*
X11103763Y-15657453D01*
X11052815Y-15606416D01*
X10986215Y-15578761D01*
X10914101Y-15578699D01*
X10847453Y-15606237D01*
X10796416Y-15657185D01*
X10768762Y-15723785D01*
X10768699Y-15795899D01*
X9751827Y-15795899D01*
X9753691Y-14610055D01*
X10068713Y-14610055D01*
X10084097Y-14647290D01*
X10112560Y-14675802D01*
X10124695Y-14680841D01*
X10171927Y-14728073D01*
X10171927Y-14728073D01*
X10203159Y-14748942D01*
X10240000Y-14756270D01*
X10397769Y-14756270D01*
X10409768Y-14761252D01*
X10450056Y-14761287D01*
X10487290Y-14745903D01*
X10515803Y-14717440D01*
X10531252Y-14680232D01*
X10531288Y-14639944D01*
X10515903Y-14602710D01*
X10487440Y-14574197D01*
X10450232Y-14558748D01*
X10409945Y-14558712D01*
X10397801Y-14563730D01*
X10279876Y-14563730D01*
X10260864Y-14544718D01*
X10255903Y-14532710D01*
X10227440Y-14504197D01*
X10190232Y-14488748D01*
X10149945Y-14488712D01*
X10112710Y-14504097D01*
X10084198Y-14532560D01*
X10068748Y-14569768D01*
X10068713Y-14610055D01*
X9753691Y-14610055D01*
X9753983Y-14424416D01*
X9763661Y-14420417D01*
X9830183Y-14354011D01*
X9866229Y-14267203D01*
X9866311Y-14173209D01*
X9830417Y-14086339D01*
X9764011Y-14019817D01*
X9754626Y-14015920D01*
X9761261Y-9795797D01*
X9762848Y-9784796D01*
X9855268Y-9469213D01*
X9860654Y-9457938D01*
X9869255Y-9449017D01*
X9880234Y-9443270D01*
X9892568Y-9441270D01*
X10773071Y-9441270D01*
X10773262Y-9441256D01*
X10785138Y-9439452D01*
X10785502Y-9439339D01*
X10796307Y-9434091D01*
X10796621Y-9433874D01*
X10805380Y-9425655D01*
X10805510Y-9425514D01*
X10968061Y-9218841D01*
X10968074Y-9218824D01*
X10968930Y-9217696D01*
X10968943Y-9217678D01*
X11110242Y-9024322D01*
X11111826Y-9022297D01*
X11468923Y-8595227D01*
X11477382Y-8587677D01*
X11487569Y-8582916D01*
X11498787Y-8581270D01*
X11939875Y-8581270D01*
X11954812Y-8584241D01*
X11954812Y-8584241D01*
G37*
X11954812Y-8584241D02*
X11967369Y-8592631D01*
X11975759Y-8605188D01*
X11978730Y-8620125D01*
X11978730Y-8957530D01*
X11870000Y-8957530D01*
X11847295Y-8961802D01*
X11826441Y-8975221D01*
X11812451Y-8995696D01*
X11807530Y-9020000D01*
X11807530Y-9200000D01*
X11811802Y-9222705D01*
X11825221Y-9243559D01*
X11845696Y-9257549D01*
X11870000Y-9262470D01*
X11978730Y-9262470D01*
X11978730Y-9467492D01*
X11960000Y-9463766D01*
X11902111Y-9475281D01*
X11853036Y-9508072D01*
X11820245Y-9557148D01*
X11808730Y-9615036D01*
X11808730Y-9620964D01*
X11820245Y-9678852D01*
X11853036Y-9727928D01*
X11902111Y-9760719D01*
X11960000Y-9772234D01*
X11978730Y-9768508D01*
X11978730Y-10357530D01*
X11870000Y-10357530D01*
X11847295Y-10361802D01*
X11826441Y-10375221D01*
X11812451Y-10395696D01*
X11807530Y-10420000D01*
X11807530Y-10600000D01*
X11811802Y-10622705D01*
X11825221Y-10643559D01*
X11845696Y-10657549D01*
X11870000Y-10662470D01*
X11978730Y-10662470D01*
X11978730Y-10867492D01*
X11960000Y-10863766D01*
X11902111Y-10875281D01*
X11853036Y-10908072D01*
X11820245Y-10957148D01*
X11808730Y-11015036D01*
X11808730Y-11020964D01*
X11820245Y-11078852D01*
X11853036Y-11127928D01*
X11902111Y-11160719D01*
X11960000Y-11172234D01*
X11978730Y-11168508D01*
X11978730Y-11757530D01*
X11870000Y-11757530D01*
X11847295Y-11761802D01*
X11826441Y-11775221D01*
X11812451Y-11795696D01*
X11807530Y-11820000D01*
X11807530Y-12000000D01*
X11811802Y-12022705D01*
X11825221Y-12043559D01*
X11845696Y-12057548D01*
X11870000Y-12062470D01*
X11978730Y-12062470D01*
X11978730Y-12267492D01*
X11960000Y-12263766D01*
X11902111Y-12275281D01*
X11853036Y-12308072D01*
X11820245Y-12357148D01*
X11808730Y-12415036D01*
X11808730Y-12420964D01*
X11820245Y-12478852D01*
X11853036Y-12527928D01*
X11902111Y-12560719D01*
X11960000Y-12572234D01*
X11978730Y-12568508D01*
X11978730Y-13157530D01*
X11870000Y-13157530D01*
X11847295Y-13161802D01*
X11826441Y-13175221D01*
X11812451Y-13195696D01*
X11807530Y-13220000D01*
X11807530Y-13400000D01*
X11811802Y-13422705D01*
X11825221Y-13443559D01*
X11845696Y-13457548D01*
X11870000Y-13462470D01*
X11978730Y-13462470D01*
X11978730Y-13667492D01*
X11960000Y-13663766D01*
X11902111Y-13675281D01*
X11853036Y-13708072D01*
X11820245Y-13757148D01*
X11808730Y-13815036D01*
X11808730Y-13820964D01*
X11820245Y-13878852D01*
X11853036Y-13927928D01*
X11902111Y-13960719D01*
X11960000Y-13972234D01*
X11978730Y-13968508D01*
X11978730Y-14442795D01*
X11978742Y-14442966D01*
X11980199Y-14453666D01*
X11980291Y-14453997D01*
X11984558Y-14463917D01*
X11984735Y-14464211D01*
X11991500Y-14472628D01*
X11991617Y-14472755D01*
X12156574Y-14629030D01*
X12163177Y-14637245D01*
X12167307Y-14646848D01*
X12168730Y-14657292D01*
X12168730Y-16109875D01*
X12165759Y-16124812D01*
X12157369Y-16137369D01*
X12144812Y-16145759D01*
X12129875Y-16148730D01*
X9790163Y-16148730D01*
X9778088Y-16146816D01*
X9767288Y-16141306D01*
X9758721Y-16132726D01*
X9753229Y-16121917D01*
X9751333Y-16109839D01*
X9751827Y-15795899D01*
X10768699Y-15795899D01*
X10796237Y-15862547D01*
X10847185Y-15913584D01*
X10913785Y-15941238D01*
X10985899Y-15941301D01*
X11052547Y-15913763D01*
X11103584Y-15862815D01*
X11131239Y-15796215D01*
X11131301Y-15724101D01*
X11103763Y-15657453D01*
X11052815Y-15606416D01*
X10986215Y-15578761D01*
X10914101Y-15578699D01*
X10847453Y-15606237D01*
X10796416Y-15657185D01*
X10768762Y-15723785D01*
X10768699Y-15795899D01*
X9751827Y-15795899D01*
X9753691Y-14610055D01*
X10068713Y-14610055D01*
X10084097Y-14647290D01*
X10112560Y-14675802D01*
X10124695Y-14680841D01*
X10171927Y-14728073D01*
X10171927Y-14728073D01*
X10203159Y-14748942D01*
X10240000Y-14756270D01*
X10397769Y-14756270D01*
X10409768Y-14761252D01*
X10450056Y-14761287D01*
X10487290Y-14745903D01*
X10515803Y-14717440D01*
X10531252Y-14680232D01*
X10531288Y-14639944D01*
X10515903Y-14602710D01*
X10487440Y-14574197D01*
X10450232Y-14558748D01*
X10409945Y-14558712D01*
X10397801Y-14563730D01*
X10279876Y-14563730D01*
X10260864Y-14544718D01*
X10255903Y-14532710D01*
X10227440Y-14504197D01*
X10190232Y-14488748D01*
X10149945Y-14488712D01*
X10112710Y-14504097D01*
X10084198Y-14532560D01*
X10068748Y-14569768D01*
X10068713Y-14610055D01*
X9753691Y-14610055D01*
X9753983Y-14424416D01*
X9763661Y-14420417D01*
X9830183Y-14354011D01*
X9866229Y-14267203D01*
X9866311Y-14173209D01*
X9830417Y-14086339D01*
X9764011Y-14019817D01*
X9754626Y-14015920D01*
X9761261Y-9795797D01*
X9762848Y-9784796D01*
X9855268Y-9469213D01*
X9860654Y-9457938D01*
X9869255Y-9449017D01*
X9880234Y-9443270D01*
X9892568Y-9441270D01*
X10773071Y-9441270D01*
X10773262Y-9441256D01*
X10785138Y-9439452D01*
X10785502Y-9439339D01*
X10796307Y-9434091D01*
X10796621Y-9433874D01*
X10805380Y-9425655D01*
X10805510Y-9425514D01*
X10968061Y-9218841D01*
X10968074Y-9218824D01*
X10968930Y-9217696D01*
X10968943Y-9217678D01*
X11110242Y-9024322D01*
X11111826Y-9022297D01*
X11468923Y-8595227D01*
X11477382Y-8587677D01*
X11487569Y-8582916D01*
X11498787Y-8581270D01*
X11939875Y-8581270D01*
X11954812Y-8584241D01*
G36*
X21904812Y-6424241D02*
X21917369Y-6432631D01*
X21925759Y-6445188D01*
X21928730Y-6460125D01*
X21928730Y-7829875D01*
X21925759Y-7844812D01*
X21917369Y-7857369D01*
X21904812Y-7865759D01*
X21889875Y-7868730D01*
X20870681Y-7868730D01*
X20866680Y-7848617D01*
X20837574Y-7805057D01*
X20794013Y-7775951D01*
X20742631Y-7765730D01*
X20737370Y-7765730D01*
X20685987Y-7775951D01*
X20642426Y-7805057D01*
X20613320Y-7848617D01*
X20609320Y-7868730D01*
X19246702Y-7868730D01*
X19246680Y-7868617D01*
X19217574Y-7825057D01*
X19174013Y-7795951D01*
X19122631Y-7785730D01*
X19117370Y-7785730D01*
X19065987Y-7795951D01*
X19022426Y-7825057D01*
X18993320Y-7868617D01*
X18993298Y-7868730D01*
X17526702Y-7868730D01*
X17526680Y-7868617D01*
X17497574Y-7825057D01*
X17454013Y-7795951D01*
X17402631Y-7785730D01*
X17397370Y-7785730D01*
X17345987Y-7795951D01*
X17302426Y-7825057D01*
X17273320Y-7868617D01*
X17273298Y-7868730D01*
X15966702Y-7868730D01*
X15966680Y-7868617D01*
X15937574Y-7825057D01*
X15894013Y-7795951D01*
X15842630Y-7785730D01*
X15837369Y-7785730D01*
X15785987Y-7795951D01*
X15742426Y-7825057D01*
X15713320Y-7868617D01*
X15713298Y-7868730D01*
X15070000Y-7868730D01*
X15069752Y-7868754D01*
X15054445Y-7871799D01*
X15053987Y-7871989D01*
X15041010Y-7880660D01*
X15040660Y-7881010D01*
X15031989Y-7893987D01*
X15031799Y-7894445D01*
X15028754Y-7909752D01*
X15028730Y-7910000D01*
X15028730Y-7981230D01*
X14260055Y-7981230D01*
X14286680Y-7941383D01*
X14296900Y-7890000D01*
X14286680Y-7838617D01*
X14257574Y-7795057D01*
X14214013Y-7765951D01*
X14162630Y-7755730D01*
X14157369Y-7755730D01*
X14105987Y-7765951D01*
X14062426Y-7795057D01*
X14033320Y-7838617D01*
X14023099Y-7890000D01*
X14033320Y-7941383D01*
X14059945Y-7981230D01*
X13120055Y-7981230D01*
X13146680Y-7941383D01*
X13156900Y-7890000D01*
X13146680Y-7838617D01*
X13117574Y-7795057D01*
X13074013Y-7765951D01*
X13022630Y-7755730D01*
X13017369Y-7755730D01*
X12965987Y-7765951D01*
X12922426Y-7795057D01*
X12893320Y-7838617D01*
X12883099Y-7890000D01*
X12893320Y-7941383D01*
X12919945Y-7981230D01*
X10829865Y-7981230D01*
X10829864Y-7981230D01*
X10793023Y-7988558D01*
X10761791Y-8009427D01*
X10761791Y-8009427D01*
X10281927Y-8489291D01*
X10261058Y-8520523D01*
X10255657Y-8547675D01*
X10253730Y-8557364D01*
X10253730Y-8932769D01*
X10248748Y-8944768D01*
X10248713Y-8985056D01*
X10264097Y-9022290D01*
X10292560Y-9050803D01*
X10329768Y-9066252D01*
X10370056Y-9066288D01*
X10403730Y-9052374D01*
X10403730Y-9072769D01*
X10398748Y-9084768D01*
X10398713Y-9125056D01*
X10414097Y-9162290D01*
X10442560Y-9190803D01*
X10479768Y-9206252D01*
X10520056Y-9206288D01*
X10557290Y-9190903D01*
X10585803Y-9162440D01*
X10601252Y-9125232D01*
X10601288Y-9084945D01*
X10596270Y-9072801D01*
X10596270Y-8808571D01*
X10614768Y-8816252D01*
X10655056Y-8816288D01*
X10692290Y-8800903D01*
X10720803Y-8772440D01*
X10725841Y-8760305D01*
X11082374Y-8403772D01*
X14812300Y-8403772D01*
X14775210Y-8419097D01*
X14746697Y-8447560D01*
X14741659Y-8459695D01*
X14701939Y-8499415D01*
X11453949Y-8506191D01*
X11453762Y-8506205D01*
X11442137Y-8507957D01*
X11441780Y-8508066D01*
X11431167Y-8513121D01*
X11430857Y-8513330D01*
X11422172Y-8521252D01*
X11422043Y-8521388D01*
X10916618Y-9141572D01*
X10916418Y-9141815D01*
X10783532Y-9302195D01*
X10775090Y-9309794D01*
X10764905Y-9314601D01*
X10753673Y-9316287D01*
X9959411Y-9318679D01*
X9949162Y-9317342D01*
X9939702Y-9313395D01*
X9931543Y-9307052D01*
X9802479Y-9175872D01*
X9794181Y-9163288D01*
X9791270Y-9148498D01*
X9791270Y-9042856D01*
X9830183Y-9004011D01*
X9866229Y-8917203D01*
X9866311Y-8823209D01*
X9830417Y-8736339D01*
X9764011Y-8669817D01*
X9677203Y-8633771D01*
X9583209Y-8633689D01*
X9496339Y-8669583D01*
X9429817Y-8735989D01*
X9393771Y-8822797D01*
X9393689Y-8916791D01*
X9429583Y-9003661D01*
X9475706Y-9049865D01*
X9470000Y-9048730D01*
X8740000Y-9048730D01*
X8620882Y-9072424D01*
X8583309Y-9097530D01*
X8540000Y-9097530D01*
X8517295Y-9101802D01*
X8496441Y-9115221D01*
X8482452Y-9135696D01*
X8477530Y-9160000D01*
X8477530Y-9203309D01*
X8452424Y-9240882D01*
X8428730Y-9360000D01*
X8452424Y-9479118D01*
X8477530Y-9516691D01*
X8477530Y-9560000D01*
X8481802Y-9582705D01*
X8495221Y-9603559D01*
X8515696Y-9617549D01*
X8540000Y-9622470D01*
X8583309Y-9622470D01*
X8620882Y-9647576D01*
X8740000Y-9671270D01*
X9341068Y-9671270D01*
X9640463Y-9970665D01*
X9645016Y-13368730D01*
X8740000Y-13368730D01*
X8620882Y-13392424D01*
X8583309Y-13417530D01*
X8540000Y-13417530D01*
X8517295Y-13421802D01*
X8496441Y-13435221D01*
X8482452Y-13455696D01*
X8477530Y-13480000D01*
X8477530Y-13523309D01*
X8452424Y-13560882D01*
X8428730Y-13680000D01*
X8452424Y-13799118D01*
X8477530Y-13836691D01*
X8477530Y-13880000D01*
X8481802Y-13902705D01*
X8495221Y-13923559D01*
X8515696Y-13937548D01*
X8540000Y-13942470D01*
X8583309Y-13942470D01*
X8620882Y-13967576D01*
X8740000Y-13991270D01*
X9564862Y-13991270D01*
X9496339Y-14019583D01*
X9429817Y-14085989D01*
X9393771Y-14172797D01*
X9393689Y-14266791D01*
X9429583Y-14353661D01*
X9495989Y-14420183D01*
X9582797Y-14456229D01*
X9646474Y-14456284D01*
X9648676Y-16099848D01*
X9646779Y-16111924D01*
X9641285Y-16122730D01*
X9632719Y-16131308D01*
X9621920Y-16136816D01*
X9609847Y-16138730D01*
X7160084Y-16138730D01*
X7145156Y-16135763D01*
X7132604Y-16127383D01*
X7124211Y-16114839D01*
X7121229Y-16099915D01*
X7117299Y-12280000D01*
X8375651Y-12280000D01*
X8387850Y-12341333D01*
X8422593Y-12393328D01*
X8474588Y-12428070D01*
X8535921Y-12440270D01*
X8744079Y-12440270D01*
X8805412Y-12428070D01*
X8857407Y-12393328D01*
X8892150Y-12341333D01*
X8904349Y-12280000D01*
X8892150Y-12218667D01*
X8857407Y-12166672D01*
X8805412Y-12131930D01*
X8744079Y-12119730D01*
X8535921Y-12119730D01*
X8474588Y-12131930D01*
X8422593Y-12166672D01*
X8387850Y-12218667D01*
X8375651Y-12280000D01*
X7117299Y-12280000D01*
X7116784Y-11780000D01*
X8375651Y-11780000D01*
X8387850Y-11841333D01*
X8422593Y-11893328D01*
X8474588Y-11928070D01*
X8535921Y-11940270D01*
X8744079Y-11940270D01*
X8805412Y-11928070D01*
X8857407Y-11893328D01*
X8892150Y-11841333D01*
X8904349Y-11780000D01*
X8892150Y-11718667D01*
X8857407Y-11666672D01*
X8805412Y-11631930D01*
X8744079Y-11619730D01*
X8535921Y-11619730D01*
X8474588Y-11631930D01*
X8422593Y-11666672D01*
X8387850Y-11718667D01*
X8375651Y-11780000D01*
X7116784Y-11780000D01*
X7116270Y-11280000D01*
X8375651Y-11280000D01*
X8387850Y-11341333D01*
X8422593Y-11393328D01*
X8474588Y-11428070D01*
X8535921Y-11440270D01*
X8744079Y-11440270D01*
X8805412Y-11428070D01*
X8857407Y-11393328D01*
X8892150Y-11341333D01*
X8904349Y-11280000D01*
X8892150Y-11218667D01*
X8857407Y-11166672D01*
X8805412Y-11131930D01*
X8744079Y-11119730D01*
X8535921Y-11119730D01*
X8474588Y-11131930D01*
X8422593Y-11166672D01*
X8387850Y-11218667D01*
X8375651Y-11280000D01*
X7116270Y-11280000D01*
X7115654Y-10681000D01*
X8379530Y-10681000D01*
X8379530Y-10879000D01*
X8383802Y-10901705D01*
X8397221Y-10922559D01*
X8417696Y-10936549D01*
X8442000Y-10941470D01*
X8838000Y-10941470D01*
X8860705Y-10937198D01*
X8881559Y-10923779D01*
X8895549Y-10903304D01*
X8900470Y-10879000D01*
X8900470Y-10681000D01*
X8896198Y-10658295D01*
X8882779Y-10637441D01*
X8862304Y-10623452D01*
X8838000Y-10618530D01*
X8442000Y-10618530D01*
X8419295Y-10622802D01*
X8398441Y-10636221D01*
X8384451Y-10656696D01*
X8379530Y-10681000D01*
X7115654Y-10681000D01*
X7111924Y-7055921D01*
X8739730Y-7055921D01*
X8739730Y-7264079D01*
X8751930Y-7325412D01*
X8786672Y-7377407D01*
X8838667Y-7412150D01*
X8900000Y-7424349D01*
X8961333Y-7412150D01*
X9013328Y-7377407D01*
X9048070Y-7325412D01*
X9060270Y-7264079D01*
X9060270Y-7055921D01*
X9048070Y-6994588D01*
X9013328Y-6942593D01*
X9011349Y-6941270D01*
X12908651Y-6941270D01*
X12906672Y-6942593D01*
X12871930Y-6994588D01*
X12859730Y-7055921D01*
X12859730Y-7264079D01*
X12871930Y-7325412D01*
X12906672Y-7377407D01*
X12958667Y-7412150D01*
X13020000Y-7424349D01*
X13081333Y-7412150D01*
X13133328Y-7377407D01*
X13168070Y-7325412D01*
X13180270Y-7264079D01*
X13180270Y-7055921D01*
X13168070Y-6994588D01*
X13133328Y-6942593D01*
X13131349Y-6941270D01*
X13362728Y-6941270D01*
X13358530Y-6962000D01*
X13358530Y-7358000D01*
X13362802Y-7380705D01*
X13376221Y-7401559D01*
X13396696Y-7415548D01*
X13421000Y-7420470D01*
X13619000Y-7420470D01*
X13641705Y-7416198D01*
X13662559Y-7402779D01*
X13676548Y-7382304D01*
X13681470Y-7358000D01*
X13681470Y-6962000D01*
X13677570Y-6941270D01*
X14068651Y-6941270D01*
X14066672Y-6942593D01*
X14031930Y-6994588D01*
X14019730Y-7055921D01*
X14019730Y-7264079D01*
X14031930Y-7325412D01*
X14066672Y-7377407D01*
X14118667Y-7412150D01*
X14180000Y-7424349D01*
X14241333Y-7412150D01*
X14293328Y-7377407D01*
X14328070Y-7325412D01*
X14340270Y-7264079D01*
X14340270Y-7055921D01*
X14328070Y-6994588D01*
X14293328Y-6942593D01*
X14291349Y-6941270D01*
X14522728Y-6941270D01*
X14518530Y-6962000D01*
X14518530Y-7358000D01*
X14522802Y-7380705D01*
X14536221Y-7401559D01*
X14556696Y-7415548D01*
X14581000Y-7420470D01*
X14779000Y-7420470D01*
X14801705Y-7416198D01*
X14822559Y-7402779D01*
X14836548Y-7382304D01*
X14841470Y-7358000D01*
X14841470Y-6962000D01*
X14837570Y-6941270D01*
X15208651Y-6941270D01*
X15206672Y-6942593D01*
X15171930Y-6994588D01*
X15159730Y-7055921D01*
X15159730Y-7264079D01*
X15171930Y-7325412D01*
X15206672Y-7377407D01*
X15258667Y-7412150D01*
X15320000Y-7424349D01*
X15381333Y-7412150D01*
X15433328Y-7377407D01*
X15468070Y-7325412D01*
X15480270Y-7264079D01*
X15480270Y-7055921D01*
X15468070Y-6994588D01*
X15433328Y-6942593D01*
X15431349Y-6941270D01*
X15708651Y-6941270D01*
X15706672Y-6942593D01*
X15671930Y-6994588D01*
X15659730Y-7055921D01*
X15659730Y-7264079D01*
X15671930Y-7325412D01*
X15706672Y-7377407D01*
X15758667Y-7412150D01*
X15820000Y-7424349D01*
X15881333Y-7412150D01*
X15933328Y-7377407D01*
X15968070Y-7325412D01*
X15980270Y-7264079D01*
X15980270Y-7055921D01*
X15968070Y-6994588D01*
X15933328Y-6942593D01*
X15931349Y-6941270D01*
X16848651Y-6941270D01*
X16846672Y-6942593D01*
X16811930Y-6994588D01*
X16799730Y-7055921D01*
X16799730Y-7264079D01*
X16811930Y-7325412D01*
X16846672Y-7377407D01*
X16898667Y-7412150D01*
X16960000Y-7424349D01*
X17021333Y-7412150D01*
X17073328Y-7377407D01*
X17108070Y-7325412D01*
X17120270Y-7264079D01*
X17120270Y-7055921D01*
X17108070Y-6994588D01*
X17073328Y-6942593D01*
X17071349Y-6941270D01*
X17348651Y-6941270D01*
X17346672Y-6942593D01*
X17311930Y-6994588D01*
X17299730Y-7055921D01*
X17299730Y-7264079D01*
X17311930Y-7325412D01*
X17346672Y-7377407D01*
X17398667Y-7412150D01*
X17460000Y-7424349D01*
X17521333Y-7412150D01*
X17573328Y-7377407D01*
X17608070Y-7325412D01*
X17620270Y-7264079D01*
X17620270Y-7055921D01*
X17608070Y-6994588D01*
X17573328Y-6942593D01*
X17571349Y-6941270D01*
X18488651Y-6941270D01*
X18486672Y-6942593D01*
X18451930Y-6994588D01*
X18439730Y-7055921D01*
X18439730Y-7264079D01*
X18451930Y-7325412D01*
X18486672Y-7377407D01*
X18538667Y-7412150D01*
X18600000Y-7424349D01*
X18661333Y-7412150D01*
X18713328Y-7377407D01*
X18748070Y-7325412D01*
X18760270Y-7264079D01*
X18760270Y-7055921D01*
X18748070Y-6994588D01*
X18713328Y-6942593D01*
X18711349Y-6941270D01*
X18988651Y-6941270D01*
X18986672Y-6942593D01*
X18951930Y-6994588D01*
X18939730Y-7055921D01*
X18939730Y-7264079D01*
X18951930Y-7325412D01*
X18986672Y-7377407D01*
X19038667Y-7412150D01*
X19100000Y-7424349D01*
X19161333Y-7412150D01*
X19213328Y-7377407D01*
X19248070Y-7325412D01*
X19260270Y-7264079D01*
X19260270Y-7055921D01*
X19248070Y-6994588D01*
X19213328Y-6942593D01*
X19211349Y-6941270D01*
X20083910Y-6941270D01*
X20110074Y-6967433D01*
X20091930Y-6994588D01*
X20079730Y-7055921D01*
X20079730Y-7264079D01*
X20091930Y-7325412D01*
X20126672Y-7377407D01*
X20178667Y-7412150D01*
X20240000Y-7424349D01*
X20301333Y-7412150D01*
X20353328Y-7377407D01*
X20388070Y-7325412D01*
X20400270Y-7264079D01*
X20400270Y-7055921D01*
X20579730Y-7055921D01*
X20579730Y-7264079D01*
X20591930Y-7325412D01*
X20626672Y-7377407D01*
X20678667Y-7412150D01*
X20740000Y-7424349D01*
X20801333Y-7412150D01*
X20853328Y-7377407D01*
X20888070Y-7325412D01*
X20900270Y-7264079D01*
X20900270Y-7055921D01*
X20888070Y-6994588D01*
X20853328Y-6942593D01*
X20801333Y-6907850D01*
X20740000Y-6895651D01*
X20678667Y-6907850D01*
X20626672Y-6942593D01*
X20591930Y-6994588D01*
X20579730Y-7055921D01*
X20400270Y-7055921D01*
X20388070Y-6994588D01*
X20353328Y-6942593D01*
X20351270Y-6941217D01*
X20351270Y-6940000D01*
X20342800Y-6897419D01*
X20318680Y-6861320D01*
X20208680Y-6751320D01*
X20172581Y-6727200D01*
X20130000Y-6718730D01*
X8960000Y-6718730D01*
X8917419Y-6727200D01*
X8881320Y-6751320D01*
X8821320Y-6811320D01*
X8797200Y-6847419D01*
X8788730Y-6890000D01*
X8788730Y-6941217D01*
X8786672Y-6942593D01*
X8751930Y-6994588D01*
X8739730Y-7055921D01*
X7111924Y-7055921D01*
X7111311Y-6460140D01*
X7113212Y-6448067D01*
X7118707Y-6437264D01*
X7127273Y-6428689D01*
X7138070Y-6423183D01*
X7150141Y-6421270D01*
X21889875Y-6421270D01*
X21904812Y-6424241D01*
X21904812Y-6424241D01*
G37*
X21904812Y-6424241D02*
X21917369Y-6432631D01*
X21925759Y-6445188D01*
X21928730Y-6460125D01*
X21928730Y-7829875D01*
X21925759Y-7844812D01*
X21917369Y-7857369D01*
X21904812Y-7865759D01*
X21889875Y-7868730D01*
X20870681Y-7868730D01*
X20866680Y-7848617D01*
X20837574Y-7805057D01*
X20794013Y-7775951D01*
X20742631Y-7765730D01*
X20737370Y-7765730D01*
X20685987Y-7775951D01*
X20642426Y-7805057D01*
X20613320Y-7848617D01*
X20609320Y-7868730D01*
X19246702Y-7868730D01*
X19246680Y-7868617D01*
X19217574Y-7825057D01*
X19174013Y-7795951D01*
X19122631Y-7785730D01*
X19117370Y-7785730D01*
X19065987Y-7795951D01*
X19022426Y-7825057D01*
X18993320Y-7868617D01*
X18993298Y-7868730D01*
X17526702Y-7868730D01*
X17526680Y-7868617D01*
X17497574Y-7825057D01*
X17454013Y-7795951D01*
X17402631Y-7785730D01*
X17397370Y-7785730D01*
X17345987Y-7795951D01*
X17302426Y-7825057D01*
X17273320Y-7868617D01*
X17273298Y-7868730D01*
X15966702Y-7868730D01*
X15966680Y-7868617D01*
X15937574Y-7825057D01*
X15894013Y-7795951D01*
X15842630Y-7785730D01*
X15837369Y-7785730D01*
X15785987Y-7795951D01*
X15742426Y-7825057D01*
X15713320Y-7868617D01*
X15713298Y-7868730D01*
X15070000Y-7868730D01*
X15069752Y-7868754D01*
X15054445Y-7871799D01*
X15053987Y-7871989D01*
X15041010Y-7880660D01*
X15040660Y-7881010D01*
X15031989Y-7893987D01*
X15031799Y-7894445D01*
X15028754Y-7909752D01*
X15028730Y-7910000D01*
X15028730Y-7981230D01*
X14260055Y-7981230D01*
X14286680Y-7941383D01*
X14296900Y-7890000D01*
X14286680Y-7838617D01*
X14257574Y-7795057D01*
X14214013Y-7765951D01*
X14162630Y-7755730D01*
X14157369Y-7755730D01*
X14105987Y-7765951D01*
X14062426Y-7795057D01*
X14033320Y-7838617D01*
X14023099Y-7890000D01*
X14033320Y-7941383D01*
X14059945Y-7981230D01*
X13120055Y-7981230D01*
X13146680Y-7941383D01*
X13156900Y-7890000D01*
X13146680Y-7838617D01*
X13117574Y-7795057D01*
X13074013Y-7765951D01*
X13022630Y-7755730D01*
X13017369Y-7755730D01*
X12965987Y-7765951D01*
X12922426Y-7795057D01*
X12893320Y-7838617D01*
X12883099Y-7890000D01*
X12893320Y-7941383D01*
X12919945Y-7981230D01*
X10829865Y-7981230D01*
X10829864Y-7981230D01*
X10793023Y-7988558D01*
X10761791Y-8009427D01*
X10761791Y-8009427D01*
X10281927Y-8489291D01*
X10261058Y-8520523D01*
X10255657Y-8547675D01*
X10253730Y-8557364D01*
X10253730Y-8932769D01*
X10248748Y-8944768D01*
X10248713Y-8985056D01*
X10264097Y-9022290D01*
X10292560Y-9050803D01*
X10329768Y-9066252D01*
X10370056Y-9066288D01*
X10403730Y-9052374D01*
X10403730Y-9072769D01*
X10398748Y-9084768D01*
X10398713Y-9125056D01*
X10414097Y-9162290D01*
X10442560Y-9190803D01*
X10479768Y-9206252D01*
X10520056Y-9206288D01*
X10557290Y-9190903D01*
X10585803Y-9162440D01*
X10601252Y-9125232D01*
X10601288Y-9084945D01*
X10596270Y-9072801D01*
X10596270Y-8808571D01*
X10614768Y-8816252D01*
X10655056Y-8816288D01*
X10692290Y-8800903D01*
X10720803Y-8772440D01*
X10725841Y-8760305D01*
X11082374Y-8403772D01*
X14812300Y-8403772D01*
X14775210Y-8419097D01*
X14746697Y-8447560D01*
X14741659Y-8459695D01*
X14701939Y-8499415D01*
X11453949Y-8506191D01*
X11453762Y-8506205D01*
X11442137Y-8507957D01*
X11441780Y-8508066D01*
X11431167Y-8513121D01*
X11430857Y-8513330D01*
X11422172Y-8521252D01*
X11422043Y-8521388D01*
X10916618Y-9141572D01*
X10916418Y-9141815D01*
X10783532Y-9302195D01*
X10775090Y-9309794D01*
X10764905Y-9314601D01*
X10753673Y-9316287D01*
X9959411Y-9318679D01*
X9949162Y-9317342D01*
X9939702Y-9313395D01*
X9931543Y-9307052D01*
X9802479Y-9175872D01*
X9794181Y-9163288D01*
X9791270Y-9148498D01*
X9791270Y-9042856D01*
X9830183Y-9004011D01*
X9866229Y-8917203D01*
X9866311Y-8823209D01*
X9830417Y-8736339D01*
X9764011Y-8669817D01*
X9677203Y-8633771D01*
X9583209Y-8633689D01*
X9496339Y-8669583D01*
X9429817Y-8735989D01*
X9393771Y-8822797D01*
X9393689Y-8916791D01*
X9429583Y-9003661D01*
X9475706Y-9049865D01*
X9470000Y-9048730D01*
X8740000Y-9048730D01*
X8620882Y-9072424D01*
X8583309Y-9097530D01*
X8540000Y-9097530D01*
X8517295Y-9101802D01*
X8496441Y-9115221D01*
X8482452Y-9135696D01*
X8477530Y-9160000D01*
X8477530Y-9203309D01*
X8452424Y-9240882D01*
X8428730Y-9360000D01*
X8452424Y-9479118D01*
X8477530Y-9516691D01*
X8477530Y-9560000D01*
X8481802Y-9582705D01*
X8495221Y-9603559D01*
X8515696Y-9617549D01*
X8540000Y-9622470D01*
X8583309Y-9622470D01*
X8620882Y-9647576D01*
X8740000Y-9671270D01*
X9341068Y-9671270D01*
X9640463Y-9970665D01*
X9645016Y-13368730D01*
X8740000Y-13368730D01*
X8620882Y-13392424D01*
X8583309Y-13417530D01*
X8540000Y-13417530D01*
X8517295Y-13421802D01*
X8496441Y-13435221D01*
X8482452Y-13455696D01*
X8477530Y-13480000D01*
X8477530Y-13523309D01*
X8452424Y-13560882D01*
X8428730Y-13680000D01*
X8452424Y-13799118D01*
X8477530Y-13836691D01*
X8477530Y-13880000D01*
X8481802Y-13902705D01*
X8495221Y-13923559D01*
X8515696Y-13937548D01*
X8540000Y-13942470D01*
X8583309Y-13942470D01*
X8620882Y-13967576D01*
X8740000Y-13991270D01*
X9564862Y-13991270D01*
X9496339Y-14019583D01*
X9429817Y-14085989D01*
X9393771Y-14172797D01*
X9393689Y-14266791D01*
X9429583Y-14353661D01*
X9495989Y-14420183D01*
X9582797Y-14456229D01*
X9646474Y-14456284D01*
X9648676Y-16099848D01*
X9646779Y-16111924D01*
X9641285Y-16122730D01*
X9632719Y-16131308D01*
X9621920Y-16136816D01*
X9609847Y-16138730D01*
X7160084Y-16138730D01*
X7145156Y-16135763D01*
X7132604Y-16127383D01*
X7124211Y-16114839D01*
X7121229Y-16099915D01*
X7117299Y-12280000D01*
X8375651Y-12280000D01*
X8387850Y-12341333D01*
X8422593Y-12393328D01*
X8474588Y-12428070D01*
X8535921Y-12440270D01*
X8744079Y-12440270D01*
X8805412Y-12428070D01*
X8857407Y-12393328D01*
X8892150Y-12341333D01*
X8904349Y-12280000D01*
X8892150Y-12218667D01*
X8857407Y-12166672D01*
X8805412Y-12131930D01*
X8744079Y-12119730D01*
X8535921Y-12119730D01*
X8474588Y-12131930D01*
X8422593Y-12166672D01*
X8387850Y-12218667D01*
X8375651Y-12280000D01*
X7117299Y-12280000D01*
X7116784Y-11780000D01*
X8375651Y-11780000D01*
X8387850Y-11841333D01*
X8422593Y-11893328D01*
X8474588Y-11928070D01*
X8535921Y-11940270D01*
X8744079Y-11940270D01*
X8805412Y-11928070D01*
X8857407Y-11893328D01*
X8892150Y-11841333D01*
X8904349Y-11780000D01*
X8892150Y-11718667D01*
X8857407Y-11666672D01*
X8805412Y-11631930D01*
X8744079Y-11619730D01*
X8535921Y-11619730D01*
X8474588Y-11631930D01*
X8422593Y-11666672D01*
X8387850Y-11718667D01*
X8375651Y-11780000D01*
X7116784Y-11780000D01*
X7116270Y-11280000D01*
X8375651Y-11280000D01*
X8387850Y-11341333D01*
X8422593Y-11393328D01*
X8474588Y-11428070D01*
X8535921Y-11440270D01*
X8744079Y-11440270D01*
X8805412Y-11428070D01*
X8857407Y-11393328D01*
X8892150Y-11341333D01*
X8904349Y-11280000D01*
X8892150Y-11218667D01*
X8857407Y-11166672D01*
X8805412Y-11131930D01*
X8744079Y-11119730D01*
X8535921Y-11119730D01*
X8474588Y-11131930D01*
X8422593Y-11166672D01*
X8387850Y-11218667D01*
X8375651Y-11280000D01*
X7116270Y-11280000D01*
X7115654Y-10681000D01*
X8379530Y-10681000D01*
X8379530Y-10879000D01*
X8383802Y-10901705D01*
X8397221Y-10922559D01*
X8417696Y-10936549D01*
X8442000Y-10941470D01*
X8838000Y-10941470D01*
X8860705Y-10937198D01*
X8881559Y-10923779D01*
X8895549Y-10903304D01*
X8900470Y-10879000D01*
X8900470Y-10681000D01*
X8896198Y-10658295D01*
X8882779Y-10637441D01*
X8862304Y-10623452D01*
X8838000Y-10618530D01*
X8442000Y-10618530D01*
X8419295Y-10622802D01*
X8398441Y-10636221D01*
X8384451Y-10656696D01*
X8379530Y-10681000D01*
X7115654Y-10681000D01*
X7111924Y-7055921D01*
X8739730Y-7055921D01*
X8739730Y-7264079D01*
X8751930Y-7325412D01*
X8786672Y-7377407D01*
X8838667Y-7412150D01*
X8900000Y-7424349D01*
X8961333Y-7412150D01*
X9013328Y-7377407D01*
X9048070Y-7325412D01*
X9060270Y-7264079D01*
X9060270Y-7055921D01*
X9048070Y-6994588D01*
X9013328Y-6942593D01*
X9011349Y-6941270D01*
X12908651Y-6941270D01*
X12906672Y-6942593D01*
X12871930Y-6994588D01*
X12859730Y-7055921D01*
X12859730Y-7264079D01*
X12871930Y-7325412D01*
X12906672Y-7377407D01*
X12958667Y-7412150D01*
X13020000Y-7424349D01*
X13081333Y-7412150D01*
X13133328Y-7377407D01*
X13168070Y-7325412D01*
X13180270Y-7264079D01*
X13180270Y-7055921D01*
X13168070Y-6994588D01*
X13133328Y-6942593D01*
X13131349Y-6941270D01*
X13362728Y-6941270D01*
X13358530Y-6962000D01*
X13358530Y-7358000D01*
X13362802Y-7380705D01*
X13376221Y-7401559D01*
X13396696Y-7415548D01*
X13421000Y-7420470D01*
X13619000Y-7420470D01*
X13641705Y-7416198D01*
X13662559Y-7402779D01*
X13676548Y-7382304D01*
X13681470Y-7358000D01*
X13681470Y-6962000D01*
X13677570Y-6941270D01*
X14068651Y-6941270D01*
X14066672Y-6942593D01*
X14031930Y-6994588D01*
X14019730Y-7055921D01*
X14019730Y-7264079D01*
X14031930Y-7325412D01*
X14066672Y-7377407D01*
X14118667Y-7412150D01*
X14180000Y-7424349D01*
X14241333Y-7412150D01*
X14293328Y-7377407D01*
X14328070Y-7325412D01*
X14340270Y-7264079D01*
X14340270Y-7055921D01*
X14328070Y-6994588D01*
X14293328Y-6942593D01*
X14291349Y-6941270D01*
X14522728Y-6941270D01*
X14518530Y-6962000D01*
X14518530Y-7358000D01*
X14522802Y-7380705D01*
X14536221Y-7401559D01*
X14556696Y-7415548D01*
X14581000Y-7420470D01*
X14779000Y-7420470D01*
X14801705Y-7416198D01*
X14822559Y-7402779D01*
X14836548Y-7382304D01*
X14841470Y-7358000D01*
X14841470Y-6962000D01*
X14837570Y-6941270D01*
X15208651Y-6941270D01*
X15206672Y-6942593D01*
X15171930Y-6994588D01*
X15159730Y-7055921D01*
X15159730Y-7264079D01*
X15171930Y-7325412D01*
X15206672Y-7377407D01*
X15258667Y-7412150D01*
X15320000Y-7424349D01*
X15381333Y-7412150D01*
X15433328Y-7377407D01*
X15468070Y-7325412D01*
X15480270Y-7264079D01*
X15480270Y-7055921D01*
X15468070Y-6994588D01*
X15433328Y-6942593D01*
X15431349Y-6941270D01*
X15708651Y-6941270D01*
X15706672Y-6942593D01*
X15671930Y-6994588D01*
X15659730Y-7055921D01*
X15659730Y-7264079D01*
X15671930Y-7325412D01*
X15706672Y-7377407D01*
X15758667Y-7412150D01*
X15820000Y-7424349D01*
X15881333Y-7412150D01*
X15933328Y-7377407D01*
X15968070Y-7325412D01*
X15980270Y-7264079D01*
X15980270Y-7055921D01*
X15968070Y-6994588D01*
X15933328Y-6942593D01*
X15931349Y-6941270D01*
X16848651Y-6941270D01*
X16846672Y-6942593D01*
X16811930Y-6994588D01*
X16799730Y-7055921D01*
X16799730Y-7264079D01*
X16811930Y-7325412D01*
X16846672Y-7377407D01*
X16898667Y-7412150D01*
X16960000Y-7424349D01*
X17021333Y-7412150D01*
X17073328Y-7377407D01*
X17108070Y-7325412D01*
X17120270Y-7264079D01*
X17120270Y-7055921D01*
X17108070Y-6994588D01*
X17073328Y-6942593D01*
X17071349Y-6941270D01*
X17348651Y-6941270D01*
X17346672Y-6942593D01*
X17311930Y-6994588D01*
X17299730Y-7055921D01*
X17299730Y-7264079D01*
X17311930Y-7325412D01*
X17346672Y-7377407D01*
X17398667Y-7412150D01*
X17460000Y-7424349D01*
X17521333Y-7412150D01*
X17573328Y-7377407D01*
X17608070Y-7325412D01*
X17620270Y-7264079D01*
X17620270Y-7055921D01*
X17608070Y-6994588D01*
X17573328Y-6942593D01*
X17571349Y-6941270D01*
X18488651Y-6941270D01*
X18486672Y-6942593D01*
X18451930Y-6994588D01*
X18439730Y-7055921D01*
X18439730Y-7264079D01*
X18451930Y-7325412D01*
X18486672Y-7377407D01*
X18538667Y-7412150D01*
X18600000Y-7424349D01*
X18661333Y-7412150D01*
X18713328Y-7377407D01*
X18748070Y-7325412D01*
X18760270Y-7264079D01*
X18760270Y-7055921D01*
X18748070Y-6994588D01*
X18713328Y-6942593D01*
X18711349Y-6941270D01*
X18988651Y-6941270D01*
X18986672Y-6942593D01*
X18951930Y-6994588D01*
X18939730Y-7055921D01*
X18939730Y-7264079D01*
X18951930Y-7325412D01*
X18986672Y-7377407D01*
X19038667Y-7412150D01*
X19100000Y-7424349D01*
X19161333Y-7412150D01*
X19213328Y-7377407D01*
X19248070Y-7325412D01*
X19260270Y-7264079D01*
X19260270Y-7055921D01*
X19248070Y-6994588D01*
X19213328Y-6942593D01*
X19211349Y-6941270D01*
X20083910Y-6941270D01*
X20110074Y-6967433D01*
X20091930Y-6994588D01*
X20079730Y-7055921D01*
X20079730Y-7264079D01*
X20091930Y-7325412D01*
X20126672Y-7377407D01*
X20178667Y-7412150D01*
X20240000Y-7424349D01*
X20301333Y-7412150D01*
X20353328Y-7377407D01*
X20388070Y-7325412D01*
X20400270Y-7264079D01*
X20400270Y-7055921D01*
X20579730Y-7055921D01*
X20579730Y-7264079D01*
X20591930Y-7325412D01*
X20626672Y-7377407D01*
X20678667Y-7412150D01*
X20740000Y-7424349D01*
X20801333Y-7412150D01*
X20853328Y-7377407D01*
X20888070Y-7325412D01*
X20900270Y-7264079D01*
X20900270Y-7055921D01*
X20888070Y-6994588D01*
X20853328Y-6942593D01*
X20801333Y-6907850D01*
X20740000Y-6895651D01*
X20678667Y-6907850D01*
X20626672Y-6942593D01*
X20591930Y-6994588D01*
X20579730Y-7055921D01*
X20400270Y-7055921D01*
X20388070Y-6994588D01*
X20353328Y-6942593D01*
X20351270Y-6941217D01*
X20351270Y-6940000D01*
X20342800Y-6897419D01*
X20318680Y-6861320D01*
X20208680Y-6751320D01*
X20172581Y-6727200D01*
X20130000Y-6718730D01*
X8960000Y-6718730D01*
X8917419Y-6727200D01*
X8881320Y-6751320D01*
X8821320Y-6811320D01*
X8797200Y-6847419D01*
X8788730Y-6890000D01*
X8788730Y-6941217D01*
X8786672Y-6942593D01*
X8751930Y-6994588D01*
X8739730Y-7055921D01*
X7111924Y-7055921D01*
X7111311Y-6460140D01*
X7113212Y-6448067D01*
X7118707Y-6437264D01*
X7127273Y-6428689D01*
X7138070Y-6423183D01*
X7150141Y-6421270D01*
X21889875Y-6421270D01*
X21904812Y-6424241D01*
G36*
X15713320Y-7971383D02*
X15742426Y-8014943D01*
X15785987Y-8044049D01*
X15837369Y-8054270D01*
X15842630Y-8054270D01*
X15894013Y-8044049D01*
X15937574Y-8014943D01*
X15966680Y-7971383D01*
X15976648Y-7921270D01*
X17263352Y-7921270D01*
X17273320Y-7971383D01*
X17302426Y-8014943D01*
X17345987Y-8044049D01*
X17397370Y-8054270D01*
X17402631Y-8054270D01*
X17454013Y-8044049D01*
X17497574Y-8014943D01*
X17526680Y-7971383D01*
X17536648Y-7921270D01*
X18983352Y-7921270D01*
X18993320Y-7971383D01*
X19022426Y-8014943D01*
X19065987Y-8044049D01*
X19117370Y-8054270D01*
X19122631Y-8054270D01*
X19174013Y-8044049D01*
X19217574Y-8014943D01*
X19246680Y-7971383D01*
X19256648Y-7921270D01*
X20607330Y-7921270D01*
X20613320Y-7951383D01*
X20642426Y-7994943D01*
X20685987Y-8024049D01*
X20737370Y-8034270D01*
X20742631Y-8034270D01*
X20794013Y-8024049D01*
X20837574Y-7994943D01*
X20866680Y-7951383D01*
X20872670Y-7921270D01*
X21889875Y-7921270D01*
X21904812Y-7924241D01*
X21917369Y-7932631D01*
X21925759Y-7945188D01*
X21928730Y-7960125D01*
X21928730Y-16109875D01*
X21925759Y-16124812D01*
X21917369Y-16137369D01*
X21904812Y-16145759D01*
X21889875Y-16148730D01*
X14560125Y-16148730D01*
X14545188Y-16145759D01*
X14532631Y-16137369D01*
X14524241Y-16124812D01*
X14521270Y-16109875D01*
X14521270Y-15272000D01*
X15348530Y-15272000D01*
X15348530Y-15668000D01*
X15352802Y-15690705D01*
X15366221Y-15711559D01*
X15386696Y-15725548D01*
X15411000Y-15730470D01*
X15609000Y-15730470D01*
X15631705Y-15726198D01*
X15652559Y-15712779D01*
X15666548Y-15692304D01*
X15671470Y-15668000D01*
X15671470Y-15272000D01*
X15667198Y-15249295D01*
X15653779Y-15228441D01*
X15633304Y-15214451D01*
X15609000Y-15209530D01*
X15411000Y-15209530D01*
X15388295Y-15213802D01*
X15367441Y-15227221D01*
X15353451Y-15247696D01*
X15348530Y-15272000D01*
X14521270Y-15272000D01*
X14521270Y-14830000D01*
X15850864Y-14830000D01*
X15861998Y-14885975D01*
X15893706Y-14933428D01*
X15928983Y-14957000D01*
X15893706Y-14980571D01*
X15861998Y-15028025D01*
X15850864Y-15084000D01*
X15861998Y-15139975D01*
X15893706Y-15187428D01*
X15941159Y-15219136D01*
X15997134Y-15230270D01*
X16002866Y-15230270D01*
X16058841Y-15219136D01*
X16106294Y-15187428D01*
X16138001Y-15139975D01*
X16149136Y-15084000D01*
X16138001Y-15028025D01*
X16106294Y-14980571D01*
X16071017Y-14957000D01*
X16106294Y-14933428D01*
X16138001Y-14885975D01*
X16149136Y-14830000D01*
X16138001Y-14774025D01*
X16106294Y-14726571D01*
X16058841Y-14694864D01*
X16002866Y-14683730D01*
X15997134Y-14683730D01*
X15941159Y-14694864D01*
X15893706Y-14726571D01*
X15861998Y-14774025D01*
X15850864Y-14830000D01*
X14521270Y-14830000D01*
X14521270Y-14637416D01*
X14571927Y-14688073D01*
X14603159Y-14708942D01*
X14640000Y-14716270D01*
X15510000Y-14716270D01*
X15546841Y-14708942D01*
X15578073Y-14688073D01*
X15849876Y-14416270D01*
X15887586Y-14416270D01*
X15893706Y-14425428D01*
X15941159Y-14457136D01*
X15997134Y-14468270D01*
X16002866Y-14468270D01*
X16058841Y-14457136D01*
X16106294Y-14425428D01*
X16138001Y-14377975D01*
X16149136Y-14322000D01*
X16138001Y-14266025D01*
X16106294Y-14218571D01*
X16058841Y-14186864D01*
X16002866Y-14175730D01*
X15997134Y-14175730D01*
X15941159Y-14186864D01*
X15893706Y-14218571D01*
X15890259Y-14223730D01*
X15810000Y-14223730D01*
X15810000Y-14223730D01*
X15773159Y-14231058D01*
X15741927Y-14251927D01*
X15741927Y-14251927D01*
X15470124Y-14523730D01*
X14679876Y-14523730D01*
X14521270Y-14365124D01*
X14521270Y-14266791D01*
X14743689Y-14266791D01*
X14779583Y-14353661D01*
X14845989Y-14420183D01*
X14932797Y-14456229D01*
X15026791Y-14456311D01*
X15113661Y-14420417D01*
X15180183Y-14354011D01*
X15216229Y-14267203D01*
X15216311Y-14173209D01*
X15180417Y-14086339D01*
X15114011Y-14019817D01*
X15027203Y-13983771D01*
X14933209Y-13983689D01*
X14846339Y-14019583D01*
X14779817Y-14085989D01*
X14743771Y-14172797D01*
X14743689Y-14266791D01*
X14521270Y-14266791D01*
X14521270Y-14090770D01*
X14535500Y-14090770D01*
X14572341Y-14083442D01*
X14603573Y-14062573D01*
X14759876Y-13906270D01*
X15886250Y-13906270D01*
X15893706Y-13917428D01*
X15941159Y-13949136D01*
X15997134Y-13960270D01*
X16002866Y-13960270D01*
X16058841Y-13949136D01*
X16106294Y-13917428D01*
X16138001Y-13869975D01*
X16149136Y-13814000D01*
X16138001Y-13758025D01*
X16106294Y-13710571D01*
X16071017Y-13687000D01*
X16106294Y-13663428D01*
X16138001Y-13615975D01*
X16149136Y-13560000D01*
X16138001Y-13504025D01*
X16106294Y-13456571D01*
X16071017Y-13433000D01*
X16106294Y-13409428D01*
X16138001Y-13361975D01*
X16149136Y-13306000D01*
X16138001Y-13250025D01*
X16106294Y-13202571D01*
X16058841Y-13170864D01*
X16002866Y-13159730D01*
X15997134Y-13159730D01*
X15941159Y-13170864D01*
X15893706Y-13202571D01*
X15861998Y-13250025D01*
X15850864Y-13306000D01*
X15861998Y-13361975D01*
X15893706Y-13409428D01*
X15928983Y-13433000D01*
X15893706Y-13456571D01*
X15861998Y-13504025D01*
X15850864Y-13560000D01*
X15861998Y-13615975D01*
X15893706Y-13663428D01*
X15928983Y-13687000D01*
X15893706Y-13710571D01*
X15891595Y-13713730D01*
X14720000Y-13713730D01*
X14683159Y-13721058D01*
X14651927Y-13741927D01*
X14521270Y-13872584D01*
X14521270Y-12544000D01*
X15850864Y-12544000D01*
X15861998Y-12599975D01*
X15893706Y-12647428D01*
X15928983Y-12671000D01*
X15893706Y-12694571D01*
X15861998Y-12742025D01*
X15850864Y-12798000D01*
X15861998Y-12853975D01*
X15893706Y-12901428D01*
X15941159Y-12933136D01*
X15997134Y-12944270D01*
X16002866Y-12944270D01*
X16058841Y-12933136D01*
X16106294Y-12901428D01*
X16138001Y-12853975D01*
X16149136Y-12798000D01*
X16138001Y-12742025D01*
X16106294Y-12694571D01*
X16071017Y-12671000D01*
X16106294Y-12647428D01*
X16138001Y-12599975D01*
X16149136Y-12544000D01*
X16138001Y-12488025D01*
X16106294Y-12440571D01*
X16058841Y-12408864D01*
X16002866Y-12397730D01*
X15997134Y-12397730D01*
X15941159Y-12408864D01*
X15893706Y-12440571D01*
X15861998Y-12488025D01*
X15850864Y-12544000D01*
X14521270Y-12544000D01*
X14521270Y-11782000D01*
X15850864Y-11782000D01*
X15861998Y-11837975D01*
X15893706Y-11885428D01*
X15928983Y-11909000D01*
X15893706Y-11932571D01*
X15861998Y-11980025D01*
X15850864Y-12036000D01*
X15861998Y-12091975D01*
X15893706Y-12139428D01*
X15941159Y-12171136D01*
X15997134Y-12182270D01*
X16002866Y-12182270D01*
X16058841Y-12171136D01*
X16106294Y-12139428D01*
X16138001Y-12091975D01*
X16149136Y-12036000D01*
X16138001Y-11980025D01*
X16106294Y-11932571D01*
X16071017Y-11909000D01*
X16106294Y-11885428D01*
X16138001Y-11837975D01*
X16149136Y-11782000D01*
X16138001Y-11726025D01*
X16106294Y-11678571D01*
X16058841Y-11646864D01*
X16002866Y-11635730D01*
X15997134Y-11635730D01*
X15941159Y-11646864D01*
X15893706Y-11678571D01*
X15861998Y-11726025D01*
X15850864Y-11782000D01*
X14521270Y-11782000D01*
X14521270Y-11381770D01*
X15900203Y-11381770D01*
X15941159Y-11409136D01*
X15997134Y-11420270D01*
X16002866Y-11420270D01*
X16058841Y-11409136D01*
X16106294Y-11377428D01*
X16138001Y-11329975D01*
X16149136Y-11274000D01*
X16138001Y-11218025D01*
X16106294Y-11170572D01*
X16071017Y-11147000D01*
X16106294Y-11123429D01*
X16138001Y-11075975D01*
X16149136Y-11020000D01*
X16138001Y-10964025D01*
X16106294Y-10916572D01*
X16071017Y-10893000D01*
X16106294Y-10869429D01*
X16138001Y-10821975D01*
X16149136Y-10766000D01*
X16138001Y-10710025D01*
X16106294Y-10662572D01*
X16058841Y-10630864D01*
X16002866Y-10619730D01*
X15997134Y-10619730D01*
X15941159Y-10630864D01*
X15893706Y-10662572D01*
X15861998Y-10710025D01*
X15850864Y-10766000D01*
X15861998Y-10821975D01*
X15893706Y-10869429D01*
X15928983Y-10893000D01*
X15893706Y-10916572D01*
X15861998Y-10964025D01*
X15850864Y-11020000D01*
X15861998Y-11075975D01*
X15893706Y-11123429D01*
X15928983Y-11147000D01*
X15893706Y-11170572D01*
X15881239Y-11189230D01*
X15023611Y-11189230D01*
X15033573Y-11182573D01*
X15868073Y-10348073D01*
X15876428Y-10335570D01*
X15893706Y-10361429D01*
X15941159Y-10393136D01*
X15997134Y-10404270D01*
X16002866Y-10404270D01*
X16058841Y-10393136D01*
X16106294Y-10361429D01*
X16138001Y-10313975D01*
X16149136Y-10258000D01*
X16138001Y-10202025D01*
X16106294Y-10154572D01*
X16071017Y-10131000D01*
X16106294Y-10107429D01*
X16138001Y-10059975D01*
X16149136Y-10004000D01*
X16138001Y-9948025D01*
X16106294Y-9900572D01*
X16058841Y-9868864D01*
X16002866Y-9857730D01*
X15997134Y-9857730D01*
X15941159Y-9868864D01*
X15896270Y-9898858D01*
X15896270Y-9780000D01*
X17138730Y-9780000D01*
X17143730Y-9805137D01*
X17143730Y-15395000D01*
X17155245Y-15452888D01*
X17188036Y-15501964D01*
X17237112Y-15534755D01*
X17295000Y-15546270D01*
X17307614Y-15543761D01*
X17744136Y-15980282D01*
X17749097Y-15992290D01*
X17777560Y-16020802D01*
X17814768Y-16036252D01*
X17855056Y-16036287D01*
X17892290Y-16020903D01*
X17920803Y-15992440D01*
X17936252Y-15955232D01*
X17936288Y-15914944D01*
X17920903Y-15877710D01*
X17892440Y-15849197D01*
X17880305Y-15844159D01*
X17443761Y-15407614D01*
X17446270Y-15395000D01*
X17446270Y-14897134D01*
X17629730Y-14897134D01*
X17629730Y-14902866D01*
X17640864Y-14958841D01*
X17672572Y-15006294D01*
X17720025Y-15038001D01*
X17776000Y-15049136D01*
X17831975Y-15038001D01*
X17879429Y-15006294D01*
X17903000Y-14971017D01*
X17926572Y-15006294D01*
X17974025Y-15038001D01*
X18030000Y-15049136D01*
X18085975Y-15038001D01*
X18133429Y-15006294D01*
X18157000Y-14971017D01*
X18180572Y-15006294D01*
X18228025Y-15038001D01*
X18284000Y-15049136D01*
X18339975Y-15038001D01*
X18387429Y-15006294D01*
X18411000Y-14971017D01*
X18434572Y-15006294D01*
X18482025Y-15038001D01*
X18538000Y-15049136D01*
X18593975Y-15038001D01*
X18641429Y-15006294D01*
X18665000Y-14971017D01*
X18688572Y-15006294D01*
X18736025Y-15038001D01*
X18792000Y-15049136D01*
X18847975Y-15038001D01*
X18895429Y-15006294D01*
X18919000Y-14971017D01*
X18942572Y-15006294D01*
X18990025Y-15038001D01*
X19046000Y-15049136D01*
X19101975Y-15038001D01*
X19149429Y-15006294D01*
X19154975Y-14997994D01*
X19156802Y-15007705D01*
X19170221Y-15028559D01*
X19190696Y-15042548D01*
X19215000Y-15047470D01*
X19385000Y-15047470D01*
X19407705Y-15043198D01*
X19428559Y-15029779D01*
X19442549Y-15009304D01*
X19447470Y-14985000D01*
X19447470Y-14830000D01*
X20422864Y-14830000D01*
X20433999Y-14885975D01*
X20465706Y-14933428D01*
X20500983Y-14957000D01*
X20465706Y-14980571D01*
X20433999Y-15028025D01*
X20422864Y-15084000D01*
X20433999Y-15139975D01*
X20465706Y-15187428D01*
X20513159Y-15219136D01*
X20569134Y-15230270D01*
X20574866Y-15230270D01*
X20630841Y-15219136D01*
X20678294Y-15187428D01*
X20710002Y-15139975D01*
X20721136Y-15084000D01*
X20710002Y-15028025D01*
X20678294Y-14980571D01*
X20643017Y-14957000D01*
X20678294Y-14933428D01*
X20710002Y-14885975D01*
X20721136Y-14830000D01*
X20710002Y-14774025D01*
X20678294Y-14726571D01*
X20630841Y-14694864D01*
X20574866Y-14683730D01*
X20569134Y-14683730D01*
X20513159Y-14694864D01*
X20465706Y-14726571D01*
X20433999Y-14774025D01*
X20422864Y-14830000D01*
X19447470Y-14830000D01*
X19447470Y-14815000D01*
X19443198Y-14792295D01*
X19429779Y-14771441D01*
X19409304Y-14757451D01*
X19385000Y-14752530D01*
X19381270Y-14752530D01*
X19381270Y-14322000D01*
X20422864Y-14322000D01*
X20433999Y-14377975D01*
X20465706Y-14425428D01*
X20513159Y-14457136D01*
X20569134Y-14468270D01*
X20574866Y-14468270D01*
X20630841Y-14457136D01*
X20678294Y-14425428D01*
X20710002Y-14377975D01*
X20721136Y-14322000D01*
X20710002Y-14266025D01*
X20678294Y-14218571D01*
X20630841Y-14186864D01*
X20574866Y-14175730D01*
X20569134Y-14175730D01*
X20513159Y-14186864D01*
X20465706Y-14218571D01*
X20433999Y-14266025D01*
X20422864Y-14322000D01*
X19381270Y-14322000D01*
X19381270Y-14000055D01*
X19398713Y-14000055D01*
X19414097Y-14037290D01*
X19442560Y-14065802D01*
X19479768Y-14081252D01*
X19520056Y-14081287D01*
X19557290Y-14065903D01*
X19585803Y-14037440D01*
X19601252Y-14000232D01*
X19601258Y-13993675D01*
X20203663Y-13391270D01*
X20453573Y-13391270D01*
X20465706Y-13409428D01*
X20500983Y-13433000D01*
X20465706Y-13456571D01*
X20433999Y-13504025D01*
X20422864Y-13560000D01*
X20433999Y-13615975D01*
X20465706Y-13663428D01*
X20500983Y-13687000D01*
X20465706Y-13710571D01*
X20433999Y-13758025D01*
X20422864Y-13814000D01*
X20433999Y-13869975D01*
X20465706Y-13917428D01*
X20513159Y-13949136D01*
X20569134Y-13960270D01*
X20574866Y-13960270D01*
X20630841Y-13949136D01*
X20678294Y-13917428D01*
X20710002Y-13869975D01*
X20721136Y-13814000D01*
X20710002Y-13758025D01*
X20678294Y-13710571D01*
X20643017Y-13687000D01*
X20678294Y-13663428D01*
X20710002Y-13615975D01*
X20721136Y-13560000D01*
X20710002Y-13504025D01*
X20678294Y-13456571D01*
X20643017Y-13433000D01*
X20678294Y-13409428D01*
X20710002Y-13361975D01*
X20721136Y-13306000D01*
X20710002Y-13250025D01*
X20678294Y-13202571D01*
X20630841Y-13170864D01*
X20574866Y-13159730D01*
X20569134Y-13159730D01*
X20513159Y-13170864D01*
X20465706Y-13202571D01*
X20448227Y-13228730D01*
X20170001Y-13228730D01*
X20170000Y-13228730D01*
X20138899Y-13234916D01*
X20112533Y-13252533D01*
X19486349Y-13878718D01*
X19479945Y-13878712D01*
X19442710Y-13894097D01*
X19414198Y-13922560D01*
X19398748Y-13959768D01*
X19398713Y-14000055D01*
X19381270Y-14000055D01*
X19381270Y-13933663D01*
X19617466Y-13697467D01*
X19617467Y-13697467D01*
X19635084Y-13671101D01*
X19641270Y-13640000D01*
X19641270Y-13541964D01*
X19645803Y-13537440D01*
X19661252Y-13500232D01*
X19661288Y-13459944D01*
X19645903Y-13422710D01*
X19617440Y-13394197D01*
X19580232Y-13378748D01*
X19539945Y-13378712D01*
X19502710Y-13394097D01*
X19474198Y-13422560D01*
X19458748Y-13459768D01*
X19458713Y-13500055D01*
X19462733Y-13509786D01*
X19460232Y-13508748D01*
X19419945Y-13508712D01*
X19382710Y-13524097D01*
X19354198Y-13552560D01*
X19338748Y-13589768D01*
X19338742Y-13596325D01*
X19152533Y-13782533D01*
X19134916Y-13808899D01*
X19128730Y-13840000D01*
X19128730Y-14686337D01*
X19061182Y-14753884D01*
X19046000Y-14750864D01*
X18990025Y-14761998D01*
X18942572Y-14793706D01*
X18919000Y-14828983D01*
X18895429Y-14793706D01*
X18847975Y-14761998D01*
X18792000Y-14750864D01*
X18736025Y-14761998D01*
X18688572Y-14793706D01*
X18665000Y-14828983D01*
X18641429Y-14793706D01*
X18593975Y-14761998D01*
X18538000Y-14750864D01*
X18482025Y-14761998D01*
X18434572Y-14793706D01*
X18411000Y-14828983D01*
X18387429Y-14793706D01*
X18339975Y-14761998D01*
X18284000Y-14750864D01*
X18228025Y-14761998D01*
X18180572Y-14793706D01*
X18157000Y-14828983D01*
X18133429Y-14793706D01*
X18085975Y-14761998D01*
X18030000Y-14750864D01*
X17974025Y-14761998D01*
X17926572Y-14793706D01*
X17903000Y-14828983D01*
X17879429Y-14793706D01*
X17831975Y-14761998D01*
X17776000Y-14750864D01*
X17720025Y-14761998D01*
X17672572Y-14793706D01*
X17640864Y-14841159D01*
X17629730Y-14897134D01*
X17446270Y-14897134D01*
X17446270Y-12580000D01*
X17808730Y-12580000D01*
X17817200Y-12622581D01*
X17841320Y-12658680D01*
X17877419Y-12682800D01*
X17920000Y-12691270D01*
X17962581Y-12682800D01*
X17998680Y-12658680D01*
X18113360Y-12544000D01*
X20422864Y-12544000D01*
X20433999Y-12599975D01*
X20465706Y-12647428D01*
X20500983Y-12671000D01*
X20465706Y-12694571D01*
X20433999Y-12742025D01*
X20422864Y-12798000D01*
X20433999Y-12853975D01*
X20465706Y-12901428D01*
X20513159Y-12933136D01*
X20569134Y-12944270D01*
X20574866Y-12944270D01*
X20630841Y-12933136D01*
X20678294Y-12901428D01*
X20710002Y-12853975D01*
X20721136Y-12798000D01*
X20710002Y-12742025D01*
X20678294Y-12694571D01*
X20643017Y-12671000D01*
X20678294Y-12647428D01*
X20710002Y-12599975D01*
X20721136Y-12544000D01*
X20710002Y-12488025D01*
X20678294Y-12440571D01*
X20630841Y-12408864D01*
X20574866Y-12397730D01*
X20569134Y-12397730D01*
X20513159Y-12408864D01*
X20465706Y-12440571D01*
X20433999Y-12488025D01*
X20422864Y-12544000D01*
X18113360Y-12544000D01*
X18816090Y-11841270D01*
X19950000Y-11841270D01*
X19992581Y-11832800D01*
X20028680Y-11808680D01*
X20046507Y-11782000D01*
X20422864Y-11782000D01*
X20433999Y-11837975D01*
X20465706Y-11885428D01*
X20500983Y-11909000D01*
X20465706Y-11932571D01*
X20433999Y-11980025D01*
X20422864Y-12036000D01*
X20433999Y-12091975D01*
X20465706Y-12139428D01*
X20513159Y-12171136D01*
X20569134Y-12182270D01*
X20574866Y-12182270D01*
X20630841Y-12171136D01*
X20678294Y-12139428D01*
X20710002Y-12091975D01*
X20721136Y-12036000D01*
X20710002Y-11980025D01*
X20678294Y-11932571D01*
X20643017Y-11909000D01*
X20678294Y-11885428D01*
X20710002Y-11837975D01*
X20721136Y-11782000D01*
X20710002Y-11726025D01*
X20678294Y-11678571D01*
X20630841Y-11646864D01*
X20574866Y-11635730D01*
X20569134Y-11635730D01*
X20513159Y-11646864D01*
X20465706Y-11678571D01*
X20433999Y-11726025D01*
X20422864Y-11782000D01*
X20046507Y-11782000D01*
X20052800Y-11772581D01*
X20061270Y-11730000D01*
X20052800Y-11687419D01*
X20028680Y-11651320D01*
X19992581Y-11627200D01*
X19950000Y-11618730D01*
X18770000Y-11618730D01*
X18727419Y-11627200D01*
X18691320Y-11651320D01*
X17841320Y-12501320D01*
X17817200Y-12537419D01*
X17808730Y-12580000D01*
X17446270Y-12580000D01*
X17446270Y-10766000D01*
X20422864Y-10766000D01*
X20433999Y-10821975D01*
X20465706Y-10869429D01*
X20500983Y-10893000D01*
X20465706Y-10916572D01*
X20433999Y-10964025D01*
X20422864Y-11020000D01*
X20433999Y-11075975D01*
X20465706Y-11123429D01*
X20500983Y-11147000D01*
X20465706Y-11170572D01*
X20433999Y-11218025D01*
X20422864Y-11274000D01*
X20433999Y-11329975D01*
X20465706Y-11377428D01*
X20513159Y-11409136D01*
X20569134Y-11420270D01*
X20574866Y-11420270D01*
X20630841Y-11409136D01*
X20678294Y-11377428D01*
X20710002Y-11329975D01*
X20721136Y-11274000D01*
X20710002Y-11218025D01*
X20678294Y-11170572D01*
X20643017Y-11147000D01*
X20678294Y-11123429D01*
X20710002Y-11075975D01*
X20721136Y-11020000D01*
X20710002Y-10964025D01*
X20678294Y-10916572D01*
X20643017Y-10893000D01*
X20678294Y-10869429D01*
X20710002Y-10821975D01*
X20721136Y-10766000D01*
X20710002Y-10710025D01*
X20678294Y-10662572D01*
X20630841Y-10630864D01*
X20574866Y-10619730D01*
X20569134Y-10619730D01*
X20513159Y-10630864D01*
X20465706Y-10662572D01*
X20433999Y-10710025D01*
X20422864Y-10766000D01*
X17446270Y-10766000D01*
X17446270Y-10030056D01*
X19918713Y-10030056D01*
X19934097Y-10067290D01*
X19962560Y-10095803D01*
X19999768Y-10111252D01*
X20040056Y-10111288D01*
X20077290Y-10095903D01*
X20087941Y-10085270D01*
X20450900Y-10085270D01*
X20465706Y-10107429D01*
X20500983Y-10131000D01*
X20465706Y-10154572D01*
X20433999Y-10202025D01*
X20422864Y-10258000D01*
X20433999Y-10313975D01*
X20465706Y-10361429D01*
X20513159Y-10393136D01*
X20569134Y-10404270D01*
X20574866Y-10404270D01*
X20630841Y-10393136D01*
X20678294Y-10361429D01*
X20710002Y-10313975D01*
X20721136Y-10258000D01*
X20710002Y-10202025D01*
X20678294Y-10154572D01*
X20643017Y-10131000D01*
X20678294Y-10107429D01*
X20710002Y-10059975D01*
X20721136Y-10004000D01*
X20710002Y-9948025D01*
X20678294Y-9900572D01*
X20630841Y-9868864D01*
X20574866Y-9857730D01*
X20569134Y-9857730D01*
X20513159Y-9868864D01*
X20465706Y-9900572D01*
X20450900Y-9922730D01*
X20073906Y-9922730D01*
X20040232Y-9908748D01*
X19999945Y-9908713D01*
X19962710Y-9924097D01*
X19934198Y-9952560D01*
X19918748Y-9989768D01*
X19918713Y-10030056D01*
X17446270Y-10030056D01*
X17446270Y-9785000D01*
X17434755Y-9727112D01*
X17431414Y-9722111D01*
X17401964Y-9678036D01*
X17396964Y-9673036D01*
X17347889Y-9640245D01*
X17290000Y-9628730D01*
X17232111Y-9640245D01*
X17183036Y-9673036D01*
X17150245Y-9722111D01*
X17138730Y-9780000D01*
X15896270Y-9780000D01*
X15896270Y-9601142D01*
X15941159Y-9631136D01*
X15997134Y-9642270D01*
X16002866Y-9642270D01*
X16058841Y-9631136D01*
X16106294Y-9599429D01*
X16138001Y-9551975D01*
X16149136Y-9496000D01*
X16138001Y-9440025D01*
X16106294Y-9392572D01*
X16071017Y-9369000D01*
X16106294Y-9345429D01*
X16138001Y-9297975D01*
X16149136Y-9242000D01*
X16138001Y-9186025D01*
X16106294Y-9138572D01*
X16058841Y-9106864D01*
X16002866Y-9095730D01*
X15997134Y-9095730D01*
X15941159Y-9106864D01*
X15893706Y-9138572D01*
X15861998Y-9186025D01*
X15850864Y-9242000D01*
X15852688Y-9251166D01*
X15731927Y-9371927D01*
X15711058Y-9403159D01*
X15709946Y-9408748D01*
X15703730Y-9440000D01*
X15703730Y-10240124D01*
X14925624Y-11018230D01*
X14521270Y-11018230D01*
X14521270Y-9586652D01*
X14522600Y-9576547D01*
X14526468Y-9567209D01*
X14532673Y-9559123D01*
X14659182Y-9432614D01*
X14659292Y-9432489D01*
X14665649Y-9424205D01*
X14665814Y-9423918D01*
X14669810Y-9414270D01*
X14669896Y-9413950D01*
X14671259Y-9403597D01*
X14671270Y-9403432D01*
X14671270Y-9076652D01*
X14672600Y-9066547D01*
X14676468Y-9057209D01*
X14682673Y-9049123D01*
X14764541Y-8967255D01*
X14779583Y-9003661D01*
X14845989Y-9070183D01*
X14932797Y-9106229D01*
X15026791Y-9106311D01*
X15070005Y-9088455D01*
X15063730Y-9120000D01*
X15063730Y-9397769D01*
X15058748Y-9409768D01*
X15058712Y-9450056D01*
X15074097Y-9487290D01*
X15102560Y-9515803D01*
X15139768Y-9531252D01*
X15180055Y-9531288D01*
X15217290Y-9515903D01*
X15245802Y-9487440D01*
X15261252Y-9450232D01*
X15261287Y-9409945D01*
X15256270Y-9397801D01*
X15256270Y-9159876D01*
X15313073Y-9103073D01*
X15313073Y-9103073D01*
X15333942Y-9071841D01*
X15337903Y-9051927D01*
X15341270Y-9035000D01*
X15341270Y-9035000D01*
X15341270Y-8699800D01*
X15344769Y-8701252D01*
X15373886Y-8701278D01*
X15367451Y-8710696D01*
X15362530Y-8735000D01*
X15362530Y-8905000D01*
X15366802Y-8927705D01*
X15380221Y-8948559D01*
X15400696Y-8962549D01*
X15425000Y-8967470D01*
X15595000Y-8967470D01*
X15598730Y-8966769D01*
X15598730Y-9126337D01*
X15538281Y-9186786D01*
X15512866Y-9181730D01*
X15507134Y-9181730D01*
X15451159Y-9192864D01*
X15403706Y-9224572D01*
X15371998Y-9272025D01*
X15360864Y-9328000D01*
X15371998Y-9383975D01*
X15386123Y-9405115D01*
X15386916Y-9409101D01*
X15404533Y-9435467D01*
X15430899Y-9453084D01*
X15438326Y-9454561D01*
X15451159Y-9463136D01*
X15507134Y-9474270D01*
X15512866Y-9474270D01*
X15568841Y-9463136D01*
X15616294Y-9431429D01*
X15648001Y-9383975D01*
X15659136Y-9328000D01*
X15653793Y-9301140D01*
X15737466Y-9217467D01*
X15737467Y-9217467D01*
X15755084Y-9191101D01*
X15756782Y-9182560D01*
X15761270Y-9160000D01*
X15761270Y-9160000D01*
X15761270Y-8523872D01*
X15852530Y-8432612D01*
X15852530Y-8565000D01*
X15856802Y-8587705D01*
X15870221Y-8608559D01*
X15890696Y-8622549D01*
X15902220Y-8624882D01*
X15893706Y-8630572D01*
X15861998Y-8678025D01*
X15850864Y-8734000D01*
X15861998Y-8789975D01*
X15893706Y-8837429D01*
X15941159Y-8869136D01*
X15997134Y-8880270D01*
X16002866Y-8880270D01*
X16058841Y-8869136D01*
X16106294Y-8837429D01*
X16138001Y-8789975D01*
X16149136Y-8734000D01*
X16138001Y-8678025D01*
X16106294Y-8630572D01*
X16097994Y-8625025D01*
X16107705Y-8623198D01*
X16128559Y-8609779D01*
X16142548Y-8589304D01*
X16147470Y-8565000D01*
X16147470Y-8395000D01*
X16144887Y-8381270D01*
X16566337Y-8381270D01*
X16732533Y-8547467D01*
X17752533Y-9567466D01*
X17752533Y-9567467D01*
X17778899Y-9585084D01*
X17810000Y-9591270D01*
X18148036Y-9591270D01*
X18152560Y-9595803D01*
X18189768Y-9611252D01*
X18230056Y-9611288D01*
X18267290Y-9595903D01*
X18295803Y-9567440D01*
X18311252Y-9530232D01*
X18311288Y-9489945D01*
X18295903Y-9452710D01*
X18267440Y-9424198D01*
X18230232Y-9408748D01*
X18189945Y-9408713D01*
X18152710Y-9424097D01*
X18148069Y-9428730D01*
X17843663Y-9428730D01*
X16884418Y-8469485D01*
X16917290Y-8455903D01*
X16945803Y-8427440D01*
X16948869Y-8420056D01*
X17668713Y-8420056D01*
X17684097Y-8457290D01*
X17712560Y-8485803D01*
X17749768Y-8501252D01*
X17756325Y-8501258D01*
X18552533Y-9297467D01*
X18578899Y-9315084D01*
X18610000Y-9321270D01*
X18610001Y-9321270D01*
X19998036Y-9321270D01*
X20002560Y-9325803D01*
X20039768Y-9341252D01*
X20080056Y-9341288D01*
X20117290Y-9325903D01*
X20145803Y-9297440D01*
X20161252Y-9260232D01*
X20161268Y-9242000D01*
X20422864Y-9242000D01*
X20433999Y-9297975D01*
X20465706Y-9345429D01*
X20500983Y-9369000D01*
X20465706Y-9392572D01*
X20433999Y-9440025D01*
X20422864Y-9496000D01*
X20433999Y-9551975D01*
X20465706Y-9599429D01*
X20513159Y-9631136D01*
X20569134Y-9642270D01*
X20574866Y-9642270D01*
X20630841Y-9631136D01*
X20678294Y-9599429D01*
X20710002Y-9551975D01*
X20721136Y-9496000D01*
X20710002Y-9440025D01*
X20678294Y-9392572D01*
X20643017Y-9369000D01*
X20678294Y-9345429D01*
X20710002Y-9297975D01*
X20721136Y-9242000D01*
X20710002Y-9186025D01*
X20678294Y-9138572D01*
X20630841Y-9106864D01*
X20574866Y-9095730D01*
X20569134Y-9095730D01*
X20513159Y-9106864D01*
X20465706Y-9138572D01*
X20433999Y-9186025D01*
X20422864Y-9242000D01*
X20161268Y-9242000D01*
X20161288Y-9219945D01*
X20145903Y-9182710D01*
X20117440Y-9154198D01*
X20080232Y-9138748D01*
X20039945Y-9138713D01*
X20002710Y-9154097D01*
X19998069Y-9158730D01*
X18643663Y-9158730D01*
X18244989Y-8760056D01*
X18478713Y-8760056D01*
X18494097Y-8797290D01*
X18522560Y-8825803D01*
X18559768Y-8841252D01*
X18600056Y-8841288D01*
X18637290Y-8825903D01*
X18641931Y-8821270D01*
X19988036Y-8821270D01*
X19992560Y-8825803D01*
X20029768Y-8841252D01*
X20070056Y-8841288D01*
X20107290Y-8825903D01*
X20135803Y-8797440D01*
X20151252Y-8760232D01*
X20151275Y-8734000D01*
X20422864Y-8734000D01*
X20433999Y-8789975D01*
X20465706Y-8837429D01*
X20513159Y-8869136D01*
X20569134Y-8880270D01*
X20574866Y-8880270D01*
X20630841Y-8869136D01*
X20678294Y-8837429D01*
X20710002Y-8789975D01*
X20721136Y-8734000D01*
X20710002Y-8678025D01*
X20678294Y-8630572D01*
X20669994Y-8625025D01*
X20679705Y-8623198D01*
X20700559Y-8609779D01*
X20714549Y-8589304D01*
X20719470Y-8565000D01*
X20719470Y-8395000D01*
X20715198Y-8372295D01*
X20701779Y-8351441D01*
X20681304Y-8337451D01*
X20657000Y-8332530D01*
X20487000Y-8332530D01*
X20464295Y-8336802D01*
X20443441Y-8350221D01*
X20429452Y-8370696D01*
X20424530Y-8395000D01*
X20424530Y-8565000D01*
X20428802Y-8587705D01*
X20442221Y-8608559D01*
X20462696Y-8622549D01*
X20474220Y-8624882D01*
X20465706Y-8630572D01*
X20433999Y-8678025D01*
X20422864Y-8734000D01*
X20151275Y-8734000D01*
X20151288Y-8719945D01*
X20135903Y-8682710D01*
X20107440Y-8654198D01*
X20070232Y-8638748D01*
X20029945Y-8638713D01*
X19992710Y-8654097D01*
X19988069Y-8658730D01*
X18641964Y-8658730D01*
X18637440Y-8654198D01*
X18600232Y-8638748D01*
X18559945Y-8638713D01*
X18522710Y-8654097D01*
X18494198Y-8682560D01*
X18478748Y-8719768D01*
X18478713Y-8760056D01*
X18244989Y-8760056D01*
X17871282Y-8386349D01*
X17871288Y-8379944D01*
X17855903Y-8342710D01*
X17827440Y-8314197D01*
X17790232Y-8298748D01*
X17749945Y-8298712D01*
X17712710Y-8314097D01*
X17684198Y-8342560D01*
X17668748Y-8379768D01*
X17668713Y-8420056D01*
X16948869Y-8420056D01*
X16961252Y-8390232D01*
X16961288Y-8349944D01*
X16945903Y-8312710D01*
X16917440Y-8284197D01*
X16880232Y-8268748D01*
X16873675Y-8268742D01*
X16747467Y-8142533D01*
X16721101Y-8124916D01*
X16690000Y-8118730D01*
X15730000Y-8118730D01*
X15730000Y-8118730D01*
X15698899Y-8124916D01*
X15672533Y-8142533D01*
X15452533Y-8362533D01*
X15434916Y-8388899D01*
X15428730Y-8420000D01*
X15428730Y-8520498D01*
X15422441Y-8514198D01*
X15410306Y-8509159D01*
X15393074Y-8491927D01*
X15393074Y-8491927D01*
X15111270Y-8210123D01*
X15111270Y-7960125D01*
X15114241Y-7945188D01*
X15122631Y-7932631D01*
X15135188Y-7924241D01*
X15150125Y-7921270D01*
X15703352Y-7921270D01*
X15713320Y-7971383D01*
X15713320Y-7971383D01*
G37*
X15713320Y-7971383D02*
X15742426Y-8014943D01*
X15785987Y-8044049D01*
X15837369Y-8054270D01*
X15842630Y-8054270D01*
X15894013Y-8044049D01*
X15937574Y-8014943D01*
X15966680Y-7971383D01*
X15976648Y-7921270D01*
X17263352Y-7921270D01*
X17273320Y-7971383D01*
X17302426Y-8014943D01*
X17345987Y-8044049D01*
X17397370Y-8054270D01*
X17402631Y-8054270D01*
X17454013Y-8044049D01*
X17497574Y-8014943D01*
X17526680Y-7971383D01*
X17536648Y-7921270D01*
X18983352Y-7921270D01*
X18993320Y-7971383D01*
X19022426Y-8014943D01*
X19065987Y-8044049D01*
X19117370Y-8054270D01*
X19122631Y-8054270D01*
X19174013Y-8044049D01*
X19217574Y-8014943D01*
X19246680Y-7971383D01*
X19256648Y-7921270D01*
X20607330Y-7921270D01*
X20613320Y-7951383D01*
X20642426Y-7994943D01*
X20685987Y-8024049D01*
X20737370Y-8034270D01*
X20742631Y-8034270D01*
X20794013Y-8024049D01*
X20837574Y-7994943D01*
X20866680Y-7951383D01*
X20872670Y-7921270D01*
X21889875Y-7921270D01*
X21904812Y-7924241D01*
X21917369Y-7932631D01*
X21925759Y-7945188D01*
X21928730Y-7960125D01*
X21928730Y-16109875D01*
X21925759Y-16124812D01*
X21917369Y-16137369D01*
X21904812Y-16145759D01*
X21889875Y-16148730D01*
X14560125Y-16148730D01*
X14545188Y-16145759D01*
X14532631Y-16137369D01*
X14524241Y-16124812D01*
X14521270Y-16109875D01*
X14521270Y-15272000D01*
X15348530Y-15272000D01*
X15348530Y-15668000D01*
X15352802Y-15690705D01*
X15366221Y-15711559D01*
X15386696Y-15725548D01*
X15411000Y-15730470D01*
X15609000Y-15730470D01*
X15631705Y-15726198D01*
X15652559Y-15712779D01*
X15666548Y-15692304D01*
X15671470Y-15668000D01*
X15671470Y-15272000D01*
X15667198Y-15249295D01*
X15653779Y-15228441D01*
X15633304Y-15214451D01*
X15609000Y-15209530D01*
X15411000Y-15209530D01*
X15388295Y-15213802D01*
X15367441Y-15227221D01*
X15353451Y-15247696D01*
X15348530Y-15272000D01*
X14521270Y-15272000D01*
X14521270Y-14830000D01*
X15850864Y-14830000D01*
X15861998Y-14885975D01*
X15893706Y-14933428D01*
X15928983Y-14957000D01*
X15893706Y-14980571D01*
X15861998Y-15028025D01*
X15850864Y-15084000D01*
X15861998Y-15139975D01*
X15893706Y-15187428D01*
X15941159Y-15219136D01*
X15997134Y-15230270D01*
X16002866Y-15230270D01*
X16058841Y-15219136D01*
X16106294Y-15187428D01*
X16138001Y-15139975D01*
X16149136Y-15084000D01*
X16138001Y-15028025D01*
X16106294Y-14980571D01*
X16071017Y-14957000D01*
X16106294Y-14933428D01*
X16138001Y-14885975D01*
X16149136Y-14830000D01*
X16138001Y-14774025D01*
X16106294Y-14726571D01*
X16058841Y-14694864D01*
X16002866Y-14683730D01*
X15997134Y-14683730D01*
X15941159Y-14694864D01*
X15893706Y-14726571D01*
X15861998Y-14774025D01*
X15850864Y-14830000D01*
X14521270Y-14830000D01*
X14521270Y-14637416D01*
X14571927Y-14688073D01*
X14603159Y-14708942D01*
X14640000Y-14716270D01*
X15510000Y-14716270D01*
X15546841Y-14708942D01*
X15578073Y-14688073D01*
X15849876Y-14416270D01*
X15887586Y-14416270D01*
X15893706Y-14425428D01*
X15941159Y-14457136D01*
X15997134Y-14468270D01*
X16002866Y-14468270D01*
X16058841Y-14457136D01*
X16106294Y-14425428D01*
X16138001Y-14377975D01*
X16149136Y-14322000D01*
X16138001Y-14266025D01*
X16106294Y-14218571D01*
X16058841Y-14186864D01*
X16002866Y-14175730D01*
X15997134Y-14175730D01*
X15941159Y-14186864D01*
X15893706Y-14218571D01*
X15890259Y-14223730D01*
X15810000Y-14223730D01*
X15810000Y-14223730D01*
X15773159Y-14231058D01*
X15741927Y-14251927D01*
X15741927Y-14251927D01*
X15470124Y-14523730D01*
X14679876Y-14523730D01*
X14521270Y-14365124D01*
X14521270Y-14266791D01*
X14743689Y-14266791D01*
X14779583Y-14353661D01*
X14845989Y-14420183D01*
X14932797Y-14456229D01*
X15026791Y-14456311D01*
X15113661Y-14420417D01*
X15180183Y-14354011D01*
X15216229Y-14267203D01*
X15216311Y-14173209D01*
X15180417Y-14086339D01*
X15114011Y-14019817D01*
X15027203Y-13983771D01*
X14933209Y-13983689D01*
X14846339Y-14019583D01*
X14779817Y-14085989D01*
X14743771Y-14172797D01*
X14743689Y-14266791D01*
X14521270Y-14266791D01*
X14521270Y-14090770D01*
X14535500Y-14090770D01*
X14572341Y-14083442D01*
X14603573Y-14062573D01*
X14759876Y-13906270D01*
X15886250Y-13906270D01*
X15893706Y-13917428D01*
X15941159Y-13949136D01*
X15997134Y-13960270D01*
X16002866Y-13960270D01*
X16058841Y-13949136D01*
X16106294Y-13917428D01*
X16138001Y-13869975D01*
X16149136Y-13814000D01*
X16138001Y-13758025D01*
X16106294Y-13710571D01*
X16071017Y-13687000D01*
X16106294Y-13663428D01*
X16138001Y-13615975D01*
X16149136Y-13560000D01*
X16138001Y-13504025D01*
X16106294Y-13456571D01*
X16071017Y-13433000D01*
X16106294Y-13409428D01*
X16138001Y-13361975D01*
X16149136Y-13306000D01*
X16138001Y-13250025D01*
X16106294Y-13202571D01*
X16058841Y-13170864D01*
X16002866Y-13159730D01*
X15997134Y-13159730D01*
X15941159Y-13170864D01*
X15893706Y-13202571D01*
X15861998Y-13250025D01*
X15850864Y-13306000D01*
X15861998Y-13361975D01*
X15893706Y-13409428D01*
X15928983Y-13433000D01*
X15893706Y-13456571D01*
X15861998Y-13504025D01*
X15850864Y-13560000D01*
X15861998Y-13615975D01*
X15893706Y-13663428D01*
X15928983Y-13687000D01*
X15893706Y-13710571D01*
X15891595Y-13713730D01*
X14720000Y-13713730D01*
X14683159Y-13721058D01*
X14651927Y-13741927D01*
X14521270Y-13872584D01*
X14521270Y-12544000D01*
X15850864Y-12544000D01*
X15861998Y-12599975D01*
X15893706Y-12647428D01*
X15928983Y-12671000D01*
X15893706Y-12694571D01*
X15861998Y-12742025D01*
X15850864Y-12798000D01*
X15861998Y-12853975D01*
X15893706Y-12901428D01*
X15941159Y-12933136D01*
X15997134Y-12944270D01*
X16002866Y-12944270D01*
X16058841Y-12933136D01*
X16106294Y-12901428D01*
X16138001Y-12853975D01*
X16149136Y-12798000D01*
X16138001Y-12742025D01*
X16106294Y-12694571D01*
X16071017Y-12671000D01*
X16106294Y-12647428D01*
X16138001Y-12599975D01*
X16149136Y-12544000D01*
X16138001Y-12488025D01*
X16106294Y-12440571D01*
X16058841Y-12408864D01*
X16002866Y-12397730D01*
X15997134Y-12397730D01*
X15941159Y-12408864D01*
X15893706Y-12440571D01*
X15861998Y-12488025D01*
X15850864Y-12544000D01*
X14521270Y-12544000D01*
X14521270Y-11782000D01*
X15850864Y-11782000D01*
X15861998Y-11837975D01*
X15893706Y-11885428D01*
X15928983Y-11909000D01*
X15893706Y-11932571D01*
X15861998Y-11980025D01*
X15850864Y-12036000D01*
X15861998Y-12091975D01*
X15893706Y-12139428D01*
X15941159Y-12171136D01*
X15997134Y-12182270D01*
X16002866Y-12182270D01*
X16058841Y-12171136D01*
X16106294Y-12139428D01*
X16138001Y-12091975D01*
X16149136Y-12036000D01*
X16138001Y-11980025D01*
X16106294Y-11932571D01*
X16071017Y-11909000D01*
X16106294Y-11885428D01*
X16138001Y-11837975D01*
X16149136Y-11782000D01*
X16138001Y-11726025D01*
X16106294Y-11678571D01*
X16058841Y-11646864D01*
X16002866Y-11635730D01*
X15997134Y-11635730D01*
X15941159Y-11646864D01*
X15893706Y-11678571D01*
X15861998Y-11726025D01*
X15850864Y-11782000D01*
X14521270Y-11782000D01*
X14521270Y-11381770D01*
X15900203Y-11381770D01*
X15941159Y-11409136D01*
X15997134Y-11420270D01*
X16002866Y-11420270D01*
X16058841Y-11409136D01*
X16106294Y-11377428D01*
X16138001Y-11329975D01*
X16149136Y-11274000D01*
X16138001Y-11218025D01*
X16106294Y-11170572D01*
X16071017Y-11147000D01*
X16106294Y-11123429D01*
X16138001Y-11075975D01*
X16149136Y-11020000D01*
X16138001Y-10964025D01*
X16106294Y-10916572D01*
X16071017Y-10893000D01*
X16106294Y-10869429D01*
X16138001Y-10821975D01*
X16149136Y-10766000D01*
X16138001Y-10710025D01*
X16106294Y-10662572D01*
X16058841Y-10630864D01*
X16002866Y-10619730D01*
X15997134Y-10619730D01*
X15941159Y-10630864D01*
X15893706Y-10662572D01*
X15861998Y-10710025D01*
X15850864Y-10766000D01*
X15861998Y-10821975D01*
X15893706Y-10869429D01*
X15928983Y-10893000D01*
X15893706Y-10916572D01*
X15861998Y-10964025D01*
X15850864Y-11020000D01*
X15861998Y-11075975D01*
X15893706Y-11123429D01*
X15928983Y-11147000D01*
X15893706Y-11170572D01*
X15881239Y-11189230D01*
X15023611Y-11189230D01*
X15033573Y-11182573D01*
X15868073Y-10348073D01*
X15876428Y-10335570D01*
X15893706Y-10361429D01*
X15941159Y-10393136D01*
X15997134Y-10404270D01*
X16002866Y-10404270D01*
X16058841Y-10393136D01*
X16106294Y-10361429D01*
X16138001Y-10313975D01*
X16149136Y-10258000D01*
X16138001Y-10202025D01*
X16106294Y-10154572D01*
X16071017Y-10131000D01*
X16106294Y-10107429D01*
X16138001Y-10059975D01*
X16149136Y-10004000D01*
X16138001Y-9948025D01*
X16106294Y-9900572D01*
X16058841Y-9868864D01*
X16002866Y-9857730D01*
X15997134Y-9857730D01*
X15941159Y-9868864D01*
X15896270Y-9898858D01*
X15896270Y-9780000D01*
X17138730Y-9780000D01*
X17143730Y-9805137D01*
X17143730Y-15395000D01*
X17155245Y-15452888D01*
X17188036Y-15501964D01*
X17237112Y-15534755D01*
X17295000Y-15546270D01*
X17307614Y-15543761D01*
X17744136Y-15980282D01*
X17749097Y-15992290D01*
X17777560Y-16020802D01*
X17814768Y-16036252D01*
X17855056Y-16036287D01*
X17892290Y-16020903D01*
X17920803Y-15992440D01*
X17936252Y-15955232D01*
X17936288Y-15914944D01*
X17920903Y-15877710D01*
X17892440Y-15849197D01*
X17880305Y-15844159D01*
X17443761Y-15407614D01*
X17446270Y-15395000D01*
X17446270Y-14897134D01*
X17629730Y-14897134D01*
X17629730Y-14902866D01*
X17640864Y-14958841D01*
X17672572Y-15006294D01*
X17720025Y-15038001D01*
X17776000Y-15049136D01*
X17831975Y-15038001D01*
X17879429Y-15006294D01*
X17903000Y-14971017D01*
X17926572Y-15006294D01*
X17974025Y-15038001D01*
X18030000Y-15049136D01*
X18085975Y-15038001D01*
X18133429Y-15006294D01*
X18157000Y-14971017D01*
X18180572Y-15006294D01*
X18228025Y-15038001D01*
X18284000Y-15049136D01*
X18339975Y-15038001D01*
X18387429Y-15006294D01*
X18411000Y-14971017D01*
X18434572Y-15006294D01*
X18482025Y-15038001D01*
X18538000Y-15049136D01*
X18593975Y-15038001D01*
X18641429Y-15006294D01*
X18665000Y-14971017D01*
X18688572Y-15006294D01*
X18736025Y-15038001D01*
X18792000Y-15049136D01*
X18847975Y-15038001D01*
X18895429Y-15006294D01*
X18919000Y-14971017D01*
X18942572Y-15006294D01*
X18990025Y-15038001D01*
X19046000Y-15049136D01*
X19101975Y-15038001D01*
X19149429Y-15006294D01*
X19154975Y-14997994D01*
X19156802Y-15007705D01*
X19170221Y-15028559D01*
X19190696Y-15042548D01*
X19215000Y-15047470D01*
X19385000Y-15047470D01*
X19407705Y-15043198D01*
X19428559Y-15029779D01*
X19442549Y-15009304D01*
X19447470Y-14985000D01*
X19447470Y-14830000D01*
X20422864Y-14830000D01*
X20433999Y-14885975D01*
X20465706Y-14933428D01*
X20500983Y-14957000D01*
X20465706Y-14980571D01*
X20433999Y-15028025D01*
X20422864Y-15084000D01*
X20433999Y-15139975D01*
X20465706Y-15187428D01*
X20513159Y-15219136D01*
X20569134Y-15230270D01*
X20574866Y-15230270D01*
X20630841Y-15219136D01*
X20678294Y-15187428D01*
X20710002Y-15139975D01*
X20721136Y-15084000D01*
X20710002Y-15028025D01*
X20678294Y-14980571D01*
X20643017Y-14957000D01*
X20678294Y-14933428D01*
X20710002Y-14885975D01*
X20721136Y-14830000D01*
X20710002Y-14774025D01*
X20678294Y-14726571D01*
X20630841Y-14694864D01*
X20574866Y-14683730D01*
X20569134Y-14683730D01*
X20513159Y-14694864D01*
X20465706Y-14726571D01*
X20433999Y-14774025D01*
X20422864Y-14830000D01*
X19447470Y-14830000D01*
X19447470Y-14815000D01*
X19443198Y-14792295D01*
X19429779Y-14771441D01*
X19409304Y-14757451D01*
X19385000Y-14752530D01*
X19381270Y-14752530D01*
X19381270Y-14322000D01*
X20422864Y-14322000D01*
X20433999Y-14377975D01*
X20465706Y-14425428D01*
X20513159Y-14457136D01*
X20569134Y-14468270D01*
X20574866Y-14468270D01*
X20630841Y-14457136D01*
X20678294Y-14425428D01*
X20710002Y-14377975D01*
X20721136Y-14322000D01*
X20710002Y-14266025D01*
X20678294Y-14218571D01*
X20630841Y-14186864D01*
X20574866Y-14175730D01*
X20569134Y-14175730D01*
X20513159Y-14186864D01*
X20465706Y-14218571D01*
X20433999Y-14266025D01*
X20422864Y-14322000D01*
X19381270Y-14322000D01*
X19381270Y-14000055D01*
X19398713Y-14000055D01*
X19414097Y-14037290D01*
X19442560Y-14065802D01*
X19479768Y-14081252D01*
X19520056Y-14081287D01*
X19557290Y-14065903D01*
X19585803Y-14037440D01*
X19601252Y-14000232D01*
X19601258Y-13993675D01*
X20203663Y-13391270D01*
X20453573Y-13391270D01*
X20465706Y-13409428D01*
X20500983Y-13433000D01*
X20465706Y-13456571D01*
X20433999Y-13504025D01*
X20422864Y-13560000D01*
X20433999Y-13615975D01*
X20465706Y-13663428D01*
X20500983Y-13687000D01*
X20465706Y-13710571D01*
X20433999Y-13758025D01*
X20422864Y-13814000D01*
X20433999Y-13869975D01*
X20465706Y-13917428D01*
X20513159Y-13949136D01*
X20569134Y-13960270D01*
X20574866Y-13960270D01*
X20630841Y-13949136D01*
X20678294Y-13917428D01*
X20710002Y-13869975D01*
X20721136Y-13814000D01*
X20710002Y-13758025D01*
X20678294Y-13710571D01*
X20643017Y-13687000D01*
X20678294Y-13663428D01*
X20710002Y-13615975D01*
X20721136Y-13560000D01*
X20710002Y-13504025D01*
X20678294Y-13456571D01*
X20643017Y-13433000D01*
X20678294Y-13409428D01*
X20710002Y-13361975D01*
X20721136Y-13306000D01*
X20710002Y-13250025D01*
X20678294Y-13202571D01*
X20630841Y-13170864D01*
X20574866Y-13159730D01*
X20569134Y-13159730D01*
X20513159Y-13170864D01*
X20465706Y-13202571D01*
X20448227Y-13228730D01*
X20170001Y-13228730D01*
X20170000Y-13228730D01*
X20138899Y-13234916D01*
X20112533Y-13252533D01*
X19486349Y-13878718D01*
X19479945Y-13878712D01*
X19442710Y-13894097D01*
X19414198Y-13922560D01*
X19398748Y-13959768D01*
X19398713Y-14000055D01*
X19381270Y-14000055D01*
X19381270Y-13933663D01*
X19617466Y-13697467D01*
X19617467Y-13697467D01*
X19635084Y-13671101D01*
X19641270Y-13640000D01*
X19641270Y-13541964D01*
X19645803Y-13537440D01*
X19661252Y-13500232D01*
X19661288Y-13459944D01*
X19645903Y-13422710D01*
X19617440Y-13394197D01*
X19580232Y-13378748D01*
X19539945Y-13378712D01*
X19502710Y-13394097D01*
X19474198Y-13422560D01*
X19458748Y-13459768D01*
X19458713Y-13500055D01*
X19462733Y-13509786D01*
X19460232Y-13508748D01*
X19419945Y-13508712D01*
X19382710Y-13524097D01*
X19354198Y-13552560D01*
X19338748Y-13589768D01*
X19338742Y-13596325D01*
X19152533Y-13782533D01*
X19134916Y-13808899D01*
X19128730Y-13840000D01*
X19128730Y-14686337D01*
X19061182Y-14753884D01*
X19046000Y-14750864D01*
X18990025Y-14761998D01*
X18942572Y-14793706D01*
X18919000Y-14828983D01*
X18895429Y-14793706D01*
X18847975Y-14761998D01*
X18792000Y-14750864D01*
X18736025Y-14761998D01*
X18688572Y-14793706D01*
X18665000Y-14828983D01*
X18641429Y-14793706D01*
X18593975Y-14761998D01*
X18538000Y-14750864D01*
X18482025Y-14761998D01*
X18434572Y-14793706D01*
X18411000Y-14828983D01*
X18387429Y-14793706D01*
X18339975Y-14761998D01*
X18284000Y-14750864D01*
X18228025Y-14761998D01*
X18180572Y-14793706D01*
X18157000Y-14828983D01*
X18133429Y-14793706D01*
X18085975Y-14761998D01*
X18030000Y-14750864D01*
X17974025Y-14761998D01*
X17926572Y-14793706D01*
X17903000Y-14828983D01*
X17879429Y-14793706D01*
X17831975Y-14761998D01*
X17776000Y-14750864D01*
X17720025Y-14761998D01*
X17672572Y-14793706D01*
X17640864Y-14841159D01*
X17629730Y-14897134D01*
X17446270Y-14897134D01*
X17446270Y-12580000D01*
X17808730Y-12580000D01*
X17817200Y-12622581D01*
X17841320Y-12658680D01*
X17877419Y-12682800D01*
X17920000Y-12691270D01*
X17962581Y-12682800D01*
X17998680Y-12658680D01*
X18113360Y-12544000D01*
X20422864Y-12544000D01*
X20433999Y-12599975D01*
X20465706Y-12647428D01*
X20500983Y-12671000D01*
X20465706Y-12694571D01*
X20433999Y-12742025D01*
X20422864Y-12798000D01*
X20433999Y-12853975D01*
X20465706Y-12901428D01*
X20513159Y-12933136D01*
X20569134Y-12944270D01*
X20574866Y-12944270D01*
X20630841Y-12933136D01*
X20678294Y-12901428D01*
X20710002Y-12853975D01*
X20721136Y-12798000D01*
X20710002Y-12742025D01*
X20678294Y-12694571D01*
X20643017Y-12671000D01*
X20678294Y-12647428D01*
X20710002Y-12599975D01*
X20721136Y-12544000D01*
X20710002Y-12488025D01*
X20678294Y-12440571D01*
X20630841Y-12408864D01*
X20574866Y-12397730D01*
X20569134Y-12397730D01*
X20513159Y-12408864D01*
X20465706Y-12440571D01*
X20433999Y-12488025D01*
X20422864Y-12544000D01*
X18113360Y-12544000D01*
X18816090Y-11841270D01*
X19950000Y-11841270D01*
X19992581Y-11832800D01*
X20028680Y-11808680D01*
X20046507Y-11782000D01*
X20422864Y-11782000D01*
X20433999Y-11837975D01*
X20465706Y-11885428D01*
X20500983Y-11909000D01*
X20465706Y-11932571D01*
X20433999Y-11980025D01*
X20422864Y-12036000D01*
X20433999Y-12091975D01*
X20465706Y-12139428D01*
X20513159Y-12171136D01*
X20569134Y-12182270D01*
X20574866Y-12182270D01*
X20630841Y-12171136D01*
X20678294Y-12139428D01*
X20710002Y-12091975D01*
X20721136Y-12036000D01*
X20710002Y-11980025D01*
X20678294Y-11932571D01*
X20643017Y-11909000D01*
X20678294Y-11885428D01*
X20710002Y-11837975D01*
X20721136Y-11782000D01*
X20710002Y-11726025D01*
X20678294Y-11678571D01*
X20630841Y-11646864D01*
X20574866Y-11635730D01*
X20569134Y-11635730D01*
X20513159Y-11646864D01*
X20465706Y-11678571D01*
X20433999Y-11726025D01*
X20422864Y-11782000D01*
X20046507Y-11782000D01*
X20052800Y-11772581D01*
X20061270Y-11730000D01*
X20052800Y-11687419D01*
X20028680Y-11651320D01*
X19992581Y-11627200D01*
X19950000Y-11618730D01*
X18770000Y-11618730D01*
X18727419Y-11627200D01*
X18691320Y-11651320D01*
X17841320Y-12501320D01*
X17817200Y-12537419D01*
X17808730Y-12580000D01*
X17446270Y-12580000D01*
X17446270Y-10766000D01*
X20422864Y-10766000D01*
X20433999Y-10821975D01*
X20465706Y-10869429D01*
X20500983Y-10893000D01*
X20465706Y-10916572D01*
X20433999Y-10964025D01*
X20422864Y-11020000D01*
X20433999Y-11075975D01*
X20465706Y-11123429D01*
X20500983Y-11147000D01*
X20465706Y-11170572D01*
X20433999Y-11218025D01*
X20422864Y-11274000D01*
X20433999Y-11329975D01*
X20465706Y-11377428D01*
X20513159Y-11409136D01*
X20569134Y-11420270D01*
X20574866Y-11420270D01*
X20630841Y-11409136D01*
X20678294Y-11377428D01*
X20710002Y-11329975D01*
X20721136Y-11274000D01*
X20710002Y-11218025D01*
X20678294Y-11170572D01*
X20643017Y-11147000D01*
X20678294Y-11123429D01*
X20710002Y-11075975D01*
X20721136Y-11020000D01*
X20710002Y-10964025D01*
X20678294Y-10916572D01*
X20643017Y-10893000D01*
X20678294Y-10869429D01*
X20710002Y-10821975D01*
X20721136Y-10766000D01*
X20710002Y-10710025D01*
X20678294Y-10662572D01*
X20630841Y-10630864D01*
X20574866Y-10619730D01*
X20569134Y-10619730D01*
X20513159Y-10630864D01*
X20465706Y-10662572D01*
X20433999Y-10710025D01*
X20422864Y-10766000D01*
X17446270Y-10766000D01*
X17446270Y-10030056D01*
X19918713Y-10030056D01*
X19934097Y-10067290D01*
X19962560Y-10095803D01*
X19999768Y-10111252D01*
X20040056Y-10111288D01*
X20077290Y-10095903D01*
X20087941Y-10085270D01*
X20450900Y-10085270D01*
X20465706Y-10107429D01*
X20500983Y-10131000D01*
X20465706Y-10154572D01*
X20433999Y-10202025D01*
X20422864Y-10258000D01*
X20433999Y-10313975D01*
X20465706Y-10361429D01*
X20513159Y-10393136D01*
X20569134Y-10404270D01*
X20574866Y-10404270D01*
X20630841Y-10393136D01*
X20678294Y-10361429D01*
X20710002Y-10313975D01*
X20721136Y-10258000D01*
X20710002Y-10202025D01*
X20678294Y-10154572D01*
X20643017Y-10131000D01*
X20678294Y-10107429D01*
X20710002Y-10059975D01*
X20721136Y-10004000D01*
X20710002Y-9948025D01*
X20678294Y-9900572D01*
X20630841Y-9868864D01*
X20574866Y-9857730D01*
X20569134Y-9857730D01*
X20513159Y-9868864D01*
X20465706Y-9900572D01*
X20450900Y-9922730D01*
X20073906Y-9922730D01*
X20040232Y-9908748D01*
X19999945Y-9908713D01*
X19962710Y-9924097D01*
X19934198Y-9952560D01*
X19918748Y-9989768D01*
X19918713Y-10030056D01*
X17446270Y-10030056D01*
X17446270Y-9785000D01*
X17434755Y-9727112D01*
X17431414Y-9722111D01*
X17401964Y-9678036D01*
X17396964Y-9673036D01*
X17347889Y-9640245D01*
X17290000Y-9628730D01*
X17232111Y-9640245D01*
X17183036Y-9673036D01*
X17150245Y-9722111D01*
X17138730Y-9780000D01*
X15896270Y-9780000D01*
X15896270Y-9601142D01*
X15941159Y-9631136D01*
X15997134Y-9642270D01*
X16002866Y-9642270D01*
X16058841Y-9631136D01*
X16106294Y-9599429D01*
X16138001Y-9551975D01*
X16149136Y-9496000D01*
X16138001Y-9440025D01*
X16106294Y-9392572D01*
X16071017Y-9369000D01*
X16106294Y-9345429D01*
X16138001Y-9297975D01*
X16149136Y-9242000D01*
X16138001Y-9186025D01*
X16106294Y-9138572D01*
X16058841Y-9106864D01*
X16002866Y-9095730D01*
X15997134Y-9095730D01*
X15941159Y-9106864D01*
X15893706Y-9138572D01*
X15861998Y-9186025D01*
X15850864Y-9242000D01*
X15852688Y-9251166D01*
X15731927Y-9371927D01*
X15711058Y-9403159D01*
X15709946Y-9408748D01*
X15703730Y-9440000D01*
X15703730Y-10240124D01*
X14925624Y-11018230D01*
X14521270Y-11018230D01*
X14521270Y-9586652D01*
X14522600Y-9576547D01*
X14526468Y-9567209D01*
X14532673Y-9559123D01*
X14659182Y-9432614D01*
X14659292Y-9432489D01*
X14665649Y-9424205D01*
X14665814Y-9423918D01*
X14669810Y-9414270D01*
X14669896Y-9413950D01*
X14671259Y-9403597D01*
X14671270Y-9403432D01*
X14671270Y-9076652D01*
X14672600Y-9066547D01*
X14676468Y-9057209D01*
X14682673Y-9049123D01*
X14764541Y-8967255D01*
X14779583Y-9003661D01*
X14845989Y-9070183D01*
X14932797Y-9106229D01*
X15026791Y-9106311D01*
X15070005Y-9088455D01*
X15063730Y-9120000D01*
X15063730Y-9397769D01*
X15058748Y-9409768D01*
X15058712Y-9450056D01*
X15074097Y-9487290D01*
X15102560Y-9515803D01*
X15139768Y-9531252D01*
X15180055Y-9531288D01*
X15217290Y-9515903D01*
X15245802Y-9487440D01*
X15261252Y-9450232D01*
X15261287Y-9409945D01*
X15256270Y-9397801D01*
X15256270Y-9159876D01*
X15313073Y-9103073D01*
X15313073Y-9103073D01*
X15333942Y-9071841D01*
X15337903Y-9051927D01*
X15341270Y-9035000D01*
X15341270Y-9035000D01*
X15341270Y-8699800D01*
X15344769Y-8701252D01*
X15373886Y-8701278D01*
X15367451Y-8710696D01*
X15362530Y-8735000D01*
X15362530Y-8905000D01*
X15366802Y-8927705D01*
X15380221Y-8948559D01*
X15400696Y-8962549D01*
X15425000Y-8967470D01*
X15595000Y-8967470D01*
X15598730Y-8966769D01*
X15598730Y-9126337D01*
X15538281Y-9186786D01*
X15512866Y-9181730D01*
X15507134Y-9181730D01*
X15451159Y-9192864D01*
X15403706Y-9224572D01*
X15371998Y-9272025D01*
X15360864Y-9328000D01*
X15371998Y-9383975D01*
X15386123Y-9405115D01*
X15386916Y-9409101D01*
X15404533Y-9435467D01*
X15430899Y-9453084D01*
X15438326Y-9454561D01*
X15451159Y-9463136D01*
X15507134Y-9474270D01*
X15512866Y-9474270D01*
X15568841Y-9463136D01*
X15616294Y-9431429D01*
X15648001Y-9383975D01*
X15659136Y-9328000D01*
X15653793Y-9301140D01*
X15737466Y-9217467D01*
X15737467Y-9217467D01*
X15755084Y-9191101D01*
X15756782Y-9182560D01*
X15761270Y-9160000D01*
X15761270Y-9160000D01*
X15761270Y-8523872D01*
X15852530Y-8432612D01*
X15852530Y-8565000D01*
X15856802Y-8587705D01*
X15870221Y-8608559D01*
X15890696Y-8622549D01*
X15902220Y-8624882D01*
X15893706Y-8630572D01*
X15861998Y-8678025D01*
X15850864Y-8734000D01*
X15861998Y-8789975D01*
X15893706Y-8837429D01*
X15941159Y-8869136D01*
X15997134Y-8880270D01*
X16002866Y-8880270D01*
X16058841Y-8869136D01*
X16106294Y-8837429D01*
X16138001Y-8789975D01*
X16149136Y-8734000D01*
X16138001Y-8678025D01*
X16106294Y-8630572D01*
X16097994Y-8625025D01*
X16107705Y-8623198D01*
X16128559Y-8609779D01*
X16142548Y-8589304D01*
X16147470Y-8565000D01*
X16147470Y-8395000D01*
X16144887Y-8381270D01*
X16566337Y-8381270D01*
X16732533Y-8547467D01*
X17752533Y-9567466D01*
X17752533Y-9567467D01*
X17778899Y-9585084D01*
X17810000Y-9591270D01*
X18148036Y-9591270D01*
X18152560Y-9595803D01*
X18189768Y-9611252D01*
X18230056Y-9611288D01*
X18267290Y-9595903D01*
X18295803Y-9567440D01*
X18311252Y-9530232D01*
X18311288Y-9489945D01*
X18295903Y-9452710D01*
X18267440Y-9424198D01*
X18230232Y-9408748D01*
X18189945Y-9408713D01*
X18152710Y-9424097D01*
X18148069Y-9428730D01*
X17843663Y-9428730D01*
X16884418Y-8469485D01*
X16917290Y-8455903D01*
X16945803Y-8427440D01*
X16948869Y-8420056D01*
X17668713Y-8420056D01*
X17684097Y-8457290D01*
X17712560Y-8485803D01*
X17749768Y-8501252D01*
X17756325Y-8501258D01*
X18552533Y-9297467D01*
X18578899Y-9315084D01*
X18610000Y-9321270D01*
X18610001Y-9321270D01*
X19998036Y-9321270D01*
X20002560Y-9325803D01*
X20039768Y-9341252D01*
X20080056Y-9341288D01*
X20117290Y-9325903D01*
X20145803Y-9297440D01*
X20161252Y-9260232D01*
X20161268Y-9242000D01*
X20422864Y-9242000D01*
X20433999Y-9297975D01*
X20465706Y-9345429D01*
X20500983Y-9369000D01*
X20465706Y-9392572D01*
X20433999Y-9440025D01*
X20422864Y-9496000D01*
X20433999Y-9551975D01*
X20465706Y-9599429D01*
X20513159Y-9631136D01*
X20569134Y-9642270D01*
X20574866Y-9642270D01*
X20630841Y-9631136D01*
X20678294Y-9599429D01*
X20710002Y-9551975D01*
X20721136Y-9496000D01*
X20710002Y-9440025D01*
X20678294Y-9392572D01*
X20643017Y-9369000D01*
X20678294Y-9345429D01*
X20710002Y-9297975D01*
X20721136Y-9242000D01*
X20710002Y-9186025D01*
X20678294Y-9138572D01*
X20630841Y-9106864D01*
X20574866Y-9095730D01*
X20569134Y-9095730D01*
X20513159Y-9106864D01*
X20465706Y-9138572D01*
X20433999Y-9186025D01*
X20422864Y-9242000D01*
X20161268Y-9242000D01*
X20161288Y-9219945D01*
X20145903Y-9182710D01*
X20117440Y-9154198D01*
X20080232Y-9138748D01*
X20039945Y-9138713D01*
X20002710Y-9154097D01*
X19998069Y-9158730D01*
X18643663Y-9158730D01*
X18244989Y-8760056D01*
X18478713Y-8760056D01*
X18494097Y-8797290D01*
X18522560Y-8825803D01*
X18559768Y-8841252D01*
X18600056Y-8841288D01*
X18637290Y-8825903D01*
X18641931Y-8821270D01*
X19988036Y-8821270D01*
X19992560Y-8825803D01*
X20029768Y-8841252D01*
X20070056Y-8841288D01*
X20107290Y-8825903D01*
X20135803Y-8797440D01*
X20151252Y-8760232D01*
X20151275Y-8734000D01*
X20422864Y-8734000D01*
X20433999Y-8789975D01*
X20465706Y-8837429D01*
X20513159Y-8869136D01*
X20569134Y-8880270D01*
X20574866Y-8880270D01*
X20630841Y-8869136D01*
X20678294Y-8837429D01*
X20710002Y-8789975D01*
X20721136Y-8734000D01*
X20710002Y-8678025D01*
X20678294Y-8630572D01*
X20669994Y-8625025D01*
X20679705Y-8623198D01*
X20700559Y-8609779D01*
X20714549Y-8589304D01*
X20719470Y-8565000D01*
X20719470Y-8395000D01*
X20715198Y-8372295D01*
X20701779Y-8351441D01*
X20681304Y-8337451D01*
X20657000Y-8332530D01*
X20487000Y-8332530D01*
X20464295Y-8336802D01*
X20443441Y-8350221D01*
X20429452Y-8370696D01*
X20424530Y-8395000D01*
X20424530Y-8565000D01*
X20428802Y-8587705D01*
X20442221Y-8608559D01*
X20462696Y-8622549D01*
X20474220Y-8624882D01*
X20465706Y-8630572D01*
X20433999Y-8678025D01*
X20422864Y-8734000D01*
X20151275Y-8734000D01*
X20151288Y-8719945D01*
X20135903Y-8682710D01*
X20107440Y-8654198D01*
X20070232Y-8638748D01*
X20029945Y-8638713D01*
X19992710Y-8654097D01*
X19988069Y-8658730D01*
X18641964Y-8658730D01*
X18637440Y-8654198D01*
X18600232Y-8638748D01*
X18559945Y-8638713D01*
X18522710Y-8654097D01*
X18494198Y-8682560D01*
X18478748Y-8719768D01*
X18478713Y-8760056D01*
X18244989Y-8760056D01*
X17871282Y-8386349D01*
X17871288Y-8379944D01*
X17855903Y-8342710D01*
X17827440Y-8314197D01*
X17790232Y-8298748D01*
X17749945Y-8298712D01*
X17712710Y-8314097D01*
X17684198Y-8342560D01*
X17668748Y-8379768D01*
X17668713Y-8420056D01*
X16948869Y-8420056D01*
X16961252Y-8390232D01*
X16961288Y-8349944D01*
X16945903Y-8312710D01*
X16917440Y-8284197D01*
X16880232Y-8268748D01*
X16873675Y-8268742D01*
X16747467Y-8142533D01*
X16721101Y-8124916D01*
X16690000Y-8118730D01*
X15730000Y-8118730D01*
X15730000Y-8118730D01*
X15698899Y-8124916D01*
X15672533Y-8142533D01*
X15452533Y-8362533D01*
X15434916Y-8388899D01*
X15428730Y-8420000D01*
X15428730Y-8520498D01*
X15422441Y-8514198D01*
X15410306Y-8509159D01*
X15393074Y-8491927D01*
X15393074Y-8491927D01*
X15111270Y-8210123D01*
X15111270Y-7960125D01*
X15114241Y-7945188D01*
X15122631Y-7932631D01*
X15135188Y-7924241D01*
X15150125Y-7921270D01*
X15703352Y-7921270D01*
X15713320Y-7971383D01*
M02*
