M48
;DRILL file {KiCad 4.0.7-e2-6376~58~ubuntu16.04.1} date Tue Mar 13 13:53:11 2018
;FORMAT={-:-/ absolute / metric / decimal}
FMAT,2
METRIC,TZ
T1C0.400
T2C0.800
T3C1.000
T4C1.200
T5C1.320
T6C2.000
%
G90
G05
M71
T1
X78.4Y-158.9
X82.9Y-65.9
X90.4Y-158.9
X91.4Y-107.9
X91.4Y-115.4
X91.4Y-122.4
X101.7Y-145.9
X103.4Y-65.9
X103.5Y-89.65
X104.3Y-146.6
X105.Y-91.05
X106.35Y-87.15
X110.4Y-73.4
X111.2Y-85.4
X114.Y-107.6
X114.Y-121.6
X114.Y-135.6
X114.075Y-93.6
X115.4Y-65.9
X122.9Y-75.4
X130.4Y-65.9
X130.4Y-158.9
X132.4Y-74.9
X138.4Y-102.6
X138.775Y-130.3
X139.5Y-88.55
X140.4Y-158.9
X140.9Y-122.6
X140.95Y-93.2
X141.45Y-86.1
X141.5Y-108.1
X142.1Y-135.8
X142.35Y-119.7
X142.4Y-109.55
X144.65Y-84.55
X145.4Y-65.9
X147.4Y-108.9
X148.325Y-85.05
X148.4Y-92.9
X149.9Y-122.4
X149.9Y-135.9
X150.4Y-74.9
X150.4Y-158.9
X151.6Y-94.3
X153.4Y-95.9
X153.4Y-143.4
X153.65Y-86.
X154.9Y-81.1
X160.4Y-65.9
X163.4Y-74.9
X165.4Y-88.9
X165.4Y-98.9
X165.4Y-113.9
X165.4Y-128.9
X165.4Y-143.9
X168.6Y-83.7
X170.4Y-158.9
X172.9Y-97.8
X175.4Y-65.9
X175.4Y-88.9
X177.7Y-84.
X178.6Y-158.8
X179.2Y-125.8
X180.4Y-83.9
X180.4Y-108.9
X182.1Y-95.1
X182.4Y-73.9
X185.8Y-87.4
X185.9Y-97.4
X190.4Y-65.9
X190.4Y-83.9
X190.4Y-128.9
X193.4Y-73.9
X194.4Y-136.1
X195.4Y-83.9
X195.4Y-139.9
X195.4Y-158.9
X195.6Y-134.8
X199.3Y-117.3
X200.2Y-100.1
X200.4Y-89.9
X200.4Y-95.9
X200.4Y-108.9
X200.4Y-128.9
X200.4Y-148.9
X200.5Y-87.4
X200.6Y-92.4
X202.7Y-81.3
X205.4Y-65.9
X205.4Y-73.9
X210.4Y-158.9
T2
X75.4Y-68.9
X75.4Y-78.9
X75.4Y-88.9
X75.4Y-98.9
X75.4Y-108.9
X75.4Y-118.9
X75.4Y-128.9
X75.4Y-143.9
X75.4Y-153.9
X90.4Y-88.9
X90.4Y-143.9
X93.9Y-75.9
X93.9Y-78.9
X93.9Y-81.9
X96.9Y-75.9
X96.9Y-78.9
X96.9Y-81.9
X99.9Y-75.9
X99.9Y-78.9
X99.9Y-81.9
X133.4Y-98.9
X133.4Y-112.9
X133.4Y-126.9
X133.4Y-141.9
X135.4Y-153.9
X178.9Y-135.5
X178.9Y-138.5
X178.9Y-141.5
X182.6Y-135.5
X182.6Y-138.5
X182.6Y-141.5
X186.4Y-135.5
X186.4Y-138.5
X186.4Y-141.5
X215.4Y-68.9
X215.4Y-83.9
X215.4Y-93.9
X215.4Y-103.9
X215.4Y-113.9
X215.4Y-123.9
X215.4Y-133.9
X215.4Y-143.9
X215.4Y-153.9
T3
X117.4Y-101.6
X117.4Y-115.6
X117.4Y-129.6
X117.45Y-87.9
X119.6Y-91.1
X119.6Y-93.64
X119.6Y-96.18
X119.6Y-105.1
X119.6Y-107.64
X119.6Y-110.18
X119.6Y-119.1
X119.6Y-121.64
X119.6Y-124.18
X119.6Y-133.1
X119.6Y-135.64
X119.6Y-138.18
X122.4Y-101.6
X122.4Y-115.6
X122.4Y-129.6
X122.45Y-87.9
X126.7Y-93.62
X126.7Y-96.16
X126.7Y-98.7
X126.7Y-107.62
X126.7Y-110.16
X126.7Y-112.7
X126.7Y-121.62
X126.7Y-124.16
X126.7Y-126.7
X126.7Y-135.62
X126.7Y-138.16
X126.7Y-140.7
X155.1Y-88.2
X155.1Y-90.74
X155.1Y-93.28
X160.Y-84.8
X160.Y-87.34
X160.Y-89.88
X160.Y-92.42
X160.Y-94.96
X160.Y-97.5
X160.Y-100.04
X160.Y-102.58
X160.Y-105.12
X160.Y-107.66
X160.Y-110.2
X160.Y-112.74
X160.Y-115.28
X160.Y-117.82
X160.Y-120.36
X160.Y-122.9
X160.Y-125.44
X160.Y-127.98
X160.Y-130.52
X160.Y-133.06
X160.Y-135.6
X160.Y-138.14
X160.Y-140.68
X160.Y-143.22
X160.Y-145.76
X160.Y-148.3
X160.Y-150.84
X175.22Y-149.
X177.76Y-149.
X180.3Y-149.
X182.84Y-149.
X185.38Y-149.
X187.92Y-149.
X190.46Y-149.
X193.Y-149.
X205.72Y-84.8
X205.72Y-87.34
X205.72Y-89.88
X205.72Y-92.42
X205.72Y-94.96
X205.72Y-97.5
X205.72Y-100.04
X205.72Y-102.58
X205.72Y-105.12
X205.72Y-107.66
X205.72Y-110.2
X205.72Y-112.74
X205.72Y-115.28
X205.72Y-117.82
X205.72Y-120.36
X205.72Y-122.9
X205.72Y-125.44
X205.72Y-127.98
X205.72Y-130.52
X205.72Y-133.06
X205.72Y-135.6
X205.72Y-138.14
X205.72Y-140.68
X205.72Y-143.22
X205.72Y-145.76
X205.72Y-148.3
X205.72Y-150.84
T4
X94.Y-154.8
X99.Y-154.8
X109.5Y-152.6
X109.5Y-157.6
T5
X84.Y-71.6
X86.4Y-107.8
X86.4Y-112.8
X86.4Y-117.8
X86.4Y-122.8
X89.Y-71.6
X120.7Y-154.6
X125.7Y-154.6
X130.2Y-71.6
X135.2Y-71.6
X141.8Y-71.6
X146.8Y-71.6
X150.1Y-154.7
X153.2Y-71.6
X155.1Y-154.7
X158.2Y-71.6
X163.2Y-71.6
X169.6Y-71.6
X174.6Y-71.6
X179.6Y-71.6
X186.Y-71.6
X191.Y-71.6
X196.Y-71.6
X202.4Y-71.6
X207.4Y-71.6
X212.4Y-71.6
T6
X77.4Y-93.6
X77.4Y-136.8
X87.4Y-93.6
X87.4Y-136.8
T0
M30
