G04 #@! TF.FileFunction,Soldermask,Top*
%FSLAX45Y45*%
G04 Gerber Fmt 4.5, Leading zero omitted, Abs format (unit mm)*
G04 Created by KiCad (PCBNEW 4.0.7-e2-6376~58~ubuntu16.04.1) date Mon Mar 12 18:26:14 2018*
%MOMM*%
%LPD*%
G01*
G04 APERTURE LIST*
%ADD10C,0.100000*%
%ADD11R,2.100000X2.100000*%
%ADD12O,2.100000X2.100000*%
%ADD13R,4.360000X2.380000*%
%ADD14O,4.360000X2.380000*%
%ADD15R,2.800000X2.800000*%
%ADD16C,2.800000*%
%ADD17R,2.380000X4.360000*%
%ADD18O,2.380000X4.360000*%
%ADD19R,2.200000X2.200000*%
%ADD20O,2.200000X2.200000*%
%ADD21C,1.400000*%
%ADD22R,1.900000X1.370000*%
%ADD23C,3.900000*%
%ADD24R,4.400000X4.400000*%
%ADD25C,4.400000*%
%ADD26R,2.400000X2.400000*%
%ADD27C,2.400000*%
%ADD28O,1.860000X1.860000*%
%ADD29C,1.900000*%
%ADD30C,0.025400*%
G04 APERTURE END LIST*
D10*
D11*
X19300000Y-14900000D03*
D12*
X19046000Y-14900000D03*
X18792000Y-14900000D03*
X18538000Y-14900000D03*
X18284000Y-14900000D03*
X18030000Y-14900000D03*
X17776000Y-14900000D03*
X17522000Y-14900000D03*
D13*
X8640000Y-10780000D03*
D14*
X8640000Y-11280000D03*
X8640000Y-12280000D03*
X8640000Y-11780000D03*
D15*
X9900000Y-15480000D03*
D16*
X9400000Y-15480000D03*
D11*
X16000000Y-8480000D03*
D12*
X16000000Y-8734000D03*
X16000000Y-8988000D03*
X16000000Y-9242000D03*
X16000000Y-9496000D03*
X16000000Y-9750000D03*
X16000000Y-10004000D03*
X16000000Y-10258000D03*
X16000000Y-10512000D03*
X16000000Y-10766000D03*
X16000000Y-11020000D03*
X16000000Y-11274000D03*
X16000000Y-11528000D03*
X16000000Y-11782000D03*
X16000000Y-12036000D03*
X16000000Y-12290000D03*
X16000000Y-12544000D03*
X16000000Y-12798000D03*
X16000000Y-13052000D03*
X16000000Y-13306000D03*
X16000000Y-13560000D03*
X16000000Y-13814000D03*
X16000000Y-14068000D03*
X16000000Y-14322000D03*
X16000000Y-14576000D03*
X16000000Y-14830000D03*
X16000000Y-15084000D03*
D17*
X8400000Y-7160000D03*
D18*
X8900000Y-7160000D03*
D19*
X12670000Y-12670000D03*
D20*
X12670000Y-12416000D03*
X12670000Y-12162000D03*
D19*
X11960000Y-10510000D03*
D20*
X11960000Y-10764000D03*
X11960000Y-11018000D03*
D19*
X11960000Y-11910000D03*
D20*
X11960000Y-12164000D03*
X11960000Y-12418000D03*
D19*
X11960000Y-9110000D03*
D20*
X11960000Y-9364000D03*
X11960000Y-9618000D03*
D19*
X12670000Y-9870000D03*
D20*
X12670000Y-9616000D03*
X12670000Y-9362000D03*
D21*
X7830000Y-15917500D03*
X21540000Y-8640000D03*
X20540000Y-15790000D03*
X20040000Y-15790000D03*
X15015000Y-11795000D03*
D22*
X14150000Y-11104500D03*
X14150000Y-11295500D03*
X14170000Y-14185500D03*
X14170000Y-13994500D03*
D19*
X12670000Y-11270000D03*
D20*
X12670000Y-11016000D03*
X12670000Y-10762000D03*
D19*
X11960000Y-13310000D03*
D20*
X11960000Y-13564000D03*
X11960000Y-13818000D03*
D19*
X12670000Y-14070000D03*
D20*
X12670000Y-13816000D03*
X12670000Y-13562000D03*
D23*
X9630000Y-14220000D03*
X9630000Y-8870000D03*
X14980000Y-14220000D03*
X14980000Y-8870000D03*
D17*
X12570000Y-15460000D03*
D18*
X12070000Y-15460000D03*
D17*
X15510000Y-15470000D03*
D18*
X15010000Y-15470000D03*
D11*
X20572000Y-8480000D03*
D12*
X20572000Y-8734000D03*
X20572000Y-8988000D03*
X20572000Y-9242000D03*
X20572000Y-9496000D03*
X20572000Y-9750000D03*
X20572000Y-10004000D03*
X20572000Y-10258000D03*
X20572000Y-10512000D03*
X20572000Y-10766000D03*
X20572000Y-11020000D03*
X20572000Y-11274000D03*
X20572000Y-11528000D03*
X20572000Y-11782000D03*
X20572000Y-12036000D03*
X20572000Y-12290000D03*
X20572000Y-12544000D03*
X20572000Y-12798000D03*
X20572000Y-13052000D03*
X20572000Y-13306000D03*
X20572000Y-13560000D03*
X20572000Y-13814000D03*
X20572000Y-14068000D03*
X20572000Y-14322000D03*
X20572000Y-14576000D03*
X20572000Y-14830000D03*
X20572000Y-15084000D03*
D24*
X8740000Y-9360000D03*
D25*
X7740000Y-9360000D03*
D24*
X8740000Y-13680000D03*
D25*
X7740000Y-13680000D03*
D15*
X10950000Y-15260000D03*
D16*
X10950000Y-15760000D03*
D17*
X16320000Y-7160000D03*
D18*
X15820000Y-7160000D03*
X15320000Y-7160000D03*
D17*
X17960000Y-7160000D03*
D18*
X17460000Y-7160000D03*
X16960000Y-7160000D03*
D17*
X19600000Y-7160000D03*
D18*
X19100000Y-7160000D03*
X18600000Y-7160000D03*
D17*
X21240000Y-7160000D03*
D18*
X20740000Y-7160000D03*
X20240000Y-7160000D03*
D17*
X13520000Y-7160000D03*
D18*
X13020000Y-7160000D03*
D17*
X14680000Y-7160000D03*
D18*
X14180000Y-7160000D03*
D26*
X11740000Y-11580000D03*
D27*
X12240000Y-11580000D03*
D26*
X11740000Y-8790000D03*
D27*
X12240000Y-8790000D03*
D26*
X11720000Y-10200000D03*
D27*
X12220000Y-10200000D03*
D11*
X15510000Y-8820000D03*
D12*
X15510000Y-9074000D03*
X15510000Y-9328000D03*
D28*
X15840000Y-7920000D03*
X17400000Y-7920000D03*
X20740000Y-7900000D03*
D29*
X7840000Y-7390000D03*
D26*
X11740000Y-13000000D03*
D27*
X12240000Y-13000000D03*
D28*
X19120000Y-7920000D03*
X13020000Y-7890000D03*
X14160000Y-7890000D03*
D30*
G36*
X11978730Y-14450000D02*
X11978830Y-14450494D01*
X11979102Y-14450898D01*
X12168730Y-14640526D01*
X12168730Y-16148730D01*
X9756270Y-16148730D01*
X9756270Y-13930000D01*
X9756170Y-13929506D01*
X9755886Y-13929090D01*
X9755462Y-13928817D01*
X9755000Y-13928730D01*
X8618026Y-13928730D01*
X8528770Y-13839474D01*
X8528770Y-13523026D01*
X8620526Y-13431270D01*
X9760000Y-13431270D01*
X9760494Y-13431170D01*
X9760910Y-13430885D01*
X9761183Y-13430462D01*
X9761270Y-13430000D01*
X9761270Y-10002500D01*
X9761170Y-10002006D01*
X9760898Y-10001602D01*
X9368398Y-9609102D01*
X9367978Y-9608823D01*
X9367500Y-9608730D01*
X8623026Y-9608730D01*
X8533770Y-9519474D01*
X8533770Y-9180526D01*
X8603026Y-9111270D01*
X9576971Y-9111270D01*
X9904099Y-9440895D01*
X9904518Y-9441175D01*
X9905000Y-9441270D01*
X10792500Y-9441270D01*
X10792994Y-9441170D01*
X10793501Y-9440782D01*
X10963501Y-9223282D01*
X10963518Y-9223260D01*
X11110997Y-9025787D01*
X11480596Y-8581270D01*
X11978730Y-8581270D01*
X11978730Y-14450000D01*
X11978730Y-14450000D01*
G37*
X11978730Y-14450000D02*
X11978830Y-14450494D01*
X11979102Y-14450898D01*
X12168730Y-14640526D01*
X12168730Y-16148730D01*
X9756270Y-16148730D01*
X9756270Y-13930000D01*
X9756170Y-13929506D01*
X9755886Y-13929090D01*
X9755462Y-13928817D01*
X9755000Y-13928730D01*
X8618026Y-13928730D01*
X8528770Y-13839474D01*
X8528770Y-13523026D01*
X8620526Y-13431270D01*
X9760000Y-13431270D01*
X9760494Y-13431170D01*
X9760910Y-13430885D01*
X9761183Y-13430462D01*
X9761270Y-13430000D01*
X9761270Y-10002500D01*
X9761170Y-10002006D01*
X9760898Y-10001602D01*
X9368398Y-9609102D01*
X9367978Y-9608823D01*
X9367500Y-9608730D01*
X8623026Y-9608730D01*
X8533770Y-9519474D01*
X8533770Y-9180526D01*
X8603026Y-9111270D01*
X9576971Y-9111270D01*
X9904099Y-9440895D01*
X9904518Y-9441175D01*
X9905000Y-9441270D01*
X10792500Y-9441270D01*
X10792994Y-9441170D01*
X10793501Y-9440782D01*
X10963501Y-9223282D01*
X10963518Y-9223260D01*
X11110997Y-9025787D01*
X11480596Y-8581270D01*
X11978730Y-8581270D01*
X11978730Y-14450000D01*
G36*
X14061230Y-8680000D02*
X14061330Y-8680494D01*
X14061614Y-8680910D01*
X14062038Y-8681183D01*
X14062500Y-8681270D01*
X14233730Y-8681270D01*
X14233730Y-10138730D01*
X13782500Y-10138730D01*
X13782006Y-10138830D01*
X13781602Y-10139102D01*
X13731602Y-10189102D01*
X13731323Y-10189522D01*
X13731230Y-10190000D01*
X13731230Y-10317500D01*
X13731330Y-10317994D01*
X13731602Y-10318398D01*
X13774102Y-10360898D01*
X13774522Y-10361177D01*
X13775000Y-10361270D01*
X14233730Y-10361270D01*
X14233730Y-10814474D01*
X14016602Y-11031602D01*
X14016323Y-11032022D01*
X14016230Y-11032500D01*
X14016230Y-11360000D01*
X14016330Y-11360494D01*
X14016602Y-11360898D01*
X14076602Y-11420898D01*
X14077022Y-11421177D01*
X14077500Y-11421270D01*
X14431230Y-11421270D01*
X14431230Y-11848730D01*
X14140000Y-11848730D01*
X14139506Y-11848830D01*
X14139090Y-11849114D01*
X14138817Y-11849538D01*
X14138730Y-11850000D01*
X14138730Y-12928730D01*
X13857500Y-12928730D01*
X13856805Y-12928937D01*
X13791805Y-12971437D01*
X13791446Y-12971791D01*
X13791230Y-12972500D01*
X13791230Y-13085000D01*
X13791330Y-13085494D01*
X13791758Y-13086031D01*
X13854258Y-13131031D01*
X13854717Y-13131238D01*
X13854989Y-13131270D01*
X14139989Y-13133770D01*
X14428730Y-13133770D01*
X14428730Y-13881230D01*
X14030000Y-13881230D01*
X14029506Y-13881330D01*
X14029090Y-13881614D01*
X14028817Y-13882038D01*
X14028730Y-13882500D01*
X14028730Y-14285000D01*
X14028830Y-14285494D01*
X14029114Y-14285910D01*
X14029538Y-14286183D01*
X14030000Y-14286270D01*
X14174474Y-14286270D01*
X14428730Y-14540526D01*
X14428730Y-16148730D01*
X12431270Y-16148730D01*
X12431270Y-14645000D01*
X12431170Y-14644506D01*
X12430898Y-14644102D01*
X12141270Y-14354474D01*
X12141270Y-8551270D01*
X14061230Y-8551270D01*
X14061230Y-8680000D01*
X14061230Y-8680000D01*
G37*
X14061230Y-8680000D02*
X14061330Y-8680494D01*
X14061614Y-8680910D01*
X14062038Y-8681183D01*
X14062500Y-8681270D01*
X14233730Y-8681270D01*
X14233730Y-10138730D01*
X13782500Y-10138730D01*
X13782006Y-10138830D01*
X13781602Y-10139102D01*
X13731602Y-10189102D01*
X13731323Y-10189522D01*
X13731230Y-10190000D01*
X13731230Y-10317500D01*
X13731330Y-10317994D01*
X13731602Y-10318398D01*
X13774102Y-10360898D01*
X13774522Y-10361177D01*
X13775000Y-10361270D01*
X14233730Y-10361270D01*
X14233730Y-10814474D01*
X14016602Y-11031602D01*
X14016323Y-11032022D01*
X14016230Y-11032500D01*
X14016230Y-11360000D01*
X14016330Y-11360494D01*
X14016602Y-11360898D01*
X14076602Y-11420898D01*
X14077022Y-11421177D01*
X14077500Y-11421270D01*
X14431230Y-11421270D01*
X14431230Y-11848730D01*
X14140000Y-11848730D01*
X14139506Y-11848830D01*
X14139090Y-11849114D01*
X14138817Y-11849538D01*
X14138730Y-11850000D01*
X14138730Y-12928730D01*
X13857500Y-12928730D01*
X13856805Y-12928937D01*
X13791805Y-12971437D01*
X13791446Y-12971791D01*
X13791230Y-12972500D01*
X13791230Y-13085000D01*
X13791330Y-13085494D01*
X13791758Y-13086031D01*
X13854258Y-13131031D01*
X13854717Y-13131238D01*
X13854989Y-13131270D01*
X14139989Y-13133770D01*
X14428730Y-13133770D01*
X14428730Y-13881230D01*
X14030000Y-13881230D01*
X14029506Y-13881330D01*
X14029090Y-13881614D01*
X14028817Y-13882038D01*
X14028730Y-13882500D01*
X14028730Y-14285000D01*
X14028830Y-14285494D01*
X14029114Y-14285910D01*
X14029538Y-14286183D01*
X14030000Y-14286270D01*
X14174474Y-14286270D01*
X14428730Y-14540526D01*
X14428730Y-16148730D01*
X12431270Y-16148730D01*
X12431270Y-14645000D01*
X12431170Y-14644506D01*
X12430898Y-14644102D01*
X12141270Y-14354474D01*
X12141270Y-8551270D01*
X14061230Y-8551270D01*
X14061230Y-8680000D01*
M02*
